%TF.GenerationSoftware,KiCad,Pcbnew,(6.0.7-1)-1*%
%TF.CreationDate,2022-09-01T12:15:20+02:00*%
%TF.ProjectId,breakout,62726561-6b6f-4757-942e-6b696361645f,A.27*%
%TF.SameCoordinates,Original*%
%TF.FileFunction,Drillmap*%
%TF.FilePolarity,Positive*%
%FSLAX45Y45*%
G04 Gerber Fmt 4.5, Leading zero omitted, Abs format (unit mm)*
G04 Created by KiCad (PCBNEW (6.0.7-1)-1) date 2022-09-01 12:15:20*
%MOMM*%
%LPD*%
G01*
G04 APERTURE LIST*
%ADD10C,0.100000*%
%ADD11C,0.050000*%
%ADD12C,0.200000*%
%ADD13C,0.030000*%
%ADD14C,0.060000*%
%ADD15C,0.070000*%
%ADD16C,0.075000*%
%ADD17C,0.080000*%
%ADD18C,0.090000*%
%ADD19C,0.110000*%
%ADD20C,0.320000*%
G04 APERTURE END LIST*
D10*
X3048000Y-6604000D02*
X17272000Y-6604000D01*
X2540000Y-12954000D02*
X2540000Y-7112000D01*
D11*
X17653000Y-13081000D02*
G75*
G03*
X17780000Y-12954000I0J127000D01*
G01*
D10*
X17780000Y-7112000D02*
X17780000Y-12954000D01*
D11*
X3048000Y-6604000D02*
G75*
G03*
X2540000Y-7112000I0J-508000D01*
G01*
X17780000Y-7112000D02*
G75*
G03*
X17272000Y-6604000I-508000J0D01*
G01*
D10*
X17653000Y-13081000D02*
X2667000Y-13081000D01*
D11*
X2540000Y-12954000D02*
G75*
G03*
X2667000Y-13081000I127000J0D01*
G01*
D12*
D13*
X2629140Y-12489420D02*
X2659140Y-12519420D01*
X2659140Y-12489420D02*
X2629140Y-12519420D01*
X2692640Y-7704060D02*
X2722640Y-7734060D01*
X2722640Y-7704060D02*
X2692640Y-7734060D01*
X2751060Y-9728440D02*
X2781060Y-9758440D01*
X2781060Y-9728440D02*
X2751060Y-9758440D01*
X2804400Y-8311120D02*
X2834400Y-8341120D01*
X2834400Y-8311120D02*
X2804400Y-8341120D01*
X2804400Y-11148300D02*
X2834400Y-11178300D01*
X2834400Y-11148300D02*
X2804400Y-11178300D01*
X3005060Y-8623540D02*
X3035060Y-8653540D01*
X3035060Y-8623540D02*
X3005060Y-8653540D01*
X3088880Y-11783300D02*
X3118880Y-11813300D01*
X3118880Y-11783300D02*
X3088880Y-11813300D01*
X3162540Y-9311880D02*
X3192540Y-9341880D01*
X3192540Y-9311880D02*
X3162540Y-9341880D01*
X3190480Y-10147540D02*
X3220480Y-10177540D01*
X3220480Y-10147540D02*
X3190480Y-10177540D01*
X3264140Y-11506440D02*
X3294140Y-11536440D01*
X3294140Y-11506440D02*
X3264140Y-11536440D01*
X3317480Y-10688560D02*
X3347480Y-10718560D01*
X3347480Y-10688560D02*
X3317480Y-10718560D01*
X3424160Y-9568420D02*
X3454160Y-9598420D01*
X3454160Y-9568420D02*
X3424160Y-9598420D01*
X3502900Y-6896340D02*
X3532900Y-6926340D01*
X3532900Y-6896340D02*
X3502900Y-6926340D01*
X3518140Y-7368780D02*
X3548140Y-7398780D01*
X3548140Y-7368780D02*
X3518140Y-7398780D01*
X3584180Y-9779240D02*
X3614180Y-9809240D01*
X3614180Y-9779240D02*
X3584180Y-9809240D01*
X3584180Y-11521680D02*
X3614180Y-11551680D01*
X3614180Y-11521680D02*
X3584180Y-11551680D01*
X3624820Y-7739620D02*
X3654820Y-7769620D01*
X3654820Y-7739620D02*
X3624820Y-7769620D01*
X3668000Y-12095720D02*
X3698000Y-12125720D01*
X3698000Y-12095720D02*
X3668000Y-12125720D01*
X3668000Y-12471640D02*
X3698000Y-12501640D01*
X3698000Y-12471640D02*
X3668000Y-12501640D01*
X3840720Y-10754600D02*
X3870720Y-10784600D01*
X3870720Y-10754600D02*
X3840720Y-10784600D01*
X3868660Y-11580100D02*
X3898660Y-11610100D01*
X3898660Y-11580100D02*
X3868660Y-11610100D01*
X3988040Y-9210280D02*
X4018040Y-9240280D01*
X4018040Y-9210280D02*
X3988040Y-9240280D01*
X4071860Y-8549880D02*
X4101860Y-8579880D01*
X4101860Y-8549880D02*
X4071860Y-8579880D01*
X4300460Y-10866360D02*
X4330460Y-10896360D01*
X4330460Y-10866360D02*
X4300460Y-10896360D01*
X4310620Y-10010380D02*
X4340620Y-10040380D01*
X4340620Y-10010380D02*
X4310620Y-10040380D01*
X4374120Y-7668500D02*
X4404120Y-7698500D01*
X4404120Y-7668500D02*
X4374120Y-7698500D01*
X4391900Y-11239740D02*
X4421900Y-11269740D01*
X4421900Y-11239740D02*
X4391900Y-11269740D01*
X4595100Y-12050000D02*
X4625100Y-12080000D01*
X4625100Y-12050000D02*
X4595100Y-12080000D01*
X4658600Y-9057880D02*
X4688600Y-9087880D01*
X4688600Y-9057880D02*
X4658600Y-9087880D01*
X4678920Y-9865600D02*
X4708920Y-9895600D01*
X4708920Y-9865600D02*
X4678920Y-9895600D01*
X4750040Y-8623540D02*
X4780040Y-8653540D01*
X4780040Y-8623540D02*
X4750040Y-8653540D01*
X4793220Y-11732500D02*
X4823220Y-11762500D01*
X4823220Y-11732500D02*
X4793220Y-11762500D01*
X4844020Y-6822680D02*
X4874020Y-6852680D01*
X4874020Y-6822680D02*
X4844020Y-6852680D01*
X5108180Y-9873220D02*
X5138180Y-9903220D01*
X5138180Y-9873220D02*
X5108180Y-9903220D01*
X5240260Y-10399000D02*
X5270260Y-10429000D01*
X5270260Y-10399000D02*
X5240260Y-10429000D01*
X5252960Y-8577820D02*
X5282960Y-8607820D01*
X5282960Y-8577820D02*
X5252960Y-8607820D01*
X5260580Y-10531080D02*
X5290580Y-10561080D01*
X5290580Y-10531080D02*
X5260580Y-10561080D01*
X5303760Y-11986500D02*
X5333760Y-12016500D01*
X5333760Y-11986500D02*
X5303760Y-12016500D01*
X5320530Y-10399000D02*
X5350530Y-10429000D01*
X5350530Y-10399000D02*
X5320530Y-10429000D01*
X5329160Y-7777720D02*
X5359160Y-7807720D01*
X5359160Y-7777720D02*
X5329160Y-7807720D01*
X5340806Y-10533753D02*
X5370806Y-10563753D01*
X5370806Y-10533753D02*
X5340806Y-10563753D01*
X5402820Y-12489420D02*
X5432820Y-12519420D01*
X5432820Y-12489420D02*
X5402820Y-12519420D01*
X5443460Y-8067280D02*
X5473460Y-8097280D01*
X5473460Y-8067280D02*
X5443460Y-8097280D01*
X5522200Y-9753840D02*
X5552200Y-9783840D01*
X5552200Y-9753840D02*
X5522200Y-9783840D01*
X5552680Y-9217900D02*
X5582680Y-9247900D01*
X5582680Y-9217900D02*
X5552680Y-9247900D01*
X5562840Y-9918940D02*
X5592840Y-9948940D01*
X5592840Y-9918940D02*
X5562840Y-9948940D01*
X5649200Y-11415000D02*
X5679200Y-11445000D01*
X5679200Y-11415000D02*
X5649200Y-11445000D01*
X5740640Y-11935700D02*
X5770640Y-11965700D01*
X5770640Y-11935700D02*
X5740640Y-11965700D01*
X5760960Y-6787120D02*
X5790960Y-6817120D01*
X5790960Y-6787120D02*
X5760960Y-6817120D01*
X5771120Y-7419580D02*
X5801120Y-7449580D01*
X5801120Y-7419580D02*
X5771120Y-7449580D01*
X5844780Y-8382240D02*
X5874780Y-8412240D01*
X5874780Y-8382240D02*
X5844780Y-8412240D01*
X5905740Y-11475960D02*
X5935740Y-11505960D01*
X5935740Y-11475960D02*
X5905740Y-11505960D01*
X5923520Y-11674080D02*
X5953520Y-11704080D01*
X5953520Y-11674080D02*
X5923520Y-11704080D01*
X6004800Y-9410940D02*
X6034800Y-9440940D01*
X6034800Y-9410940D02*
X6004800Y-9440940D01*
X6083540Y-9697960D02*
X6113540Y-9727960D01*
X6113540Y-9697960D02*
X6083540Y-9727960D01*
X6170709Y-9972280D02*
X6200709Y-10002280D01*
X6200709Y-9972280D02*
X6170709Y-10002280D01*
X6170709Y-10569180D02*
X6200709Y-10599180D01*
X6200709Y-10569180D02*
X6170709Y-10599180D01*
X6170709Y-10975580D02*
X6200709Y-11005580D01*
X6200709Y-10975580D02*
X6170709Y-11005580D01*
X6208000Y-12083020D02*
X6238000Y-12113020D01*
X6238000Y-12083020D02*
X6208000Y-12113020D01*
X6258800Y-12151600D02*
X6288800Y-12181600D01*
X6288800Y-12151600D02*
X6258800Y-12181600D01*
X6259609Y-11839180D02*
X6289609Y-11869180D01*
X6289609Y-11839180D02*
X6259609Y-11869180D01*
X6290647Y-8705993D02*
X6320647Y-8735993D01*
X6320647Y-8705993D02*
X6290647Y-8735993D01*
X6362887Y-12148251D02*
X6392887Y-12178251D01*
X6392887Y-12148251D02*
X6362887Y-12178251D01*
X6395960Y-8209520D02*
X6425960Y-8239520D01*
X6425960Y-8209520D02*
X6395960Y-8239520D01*
X6421360Y-7861540D02*
X6451360Y-7891540D01*
X6451360Y-7861540D02*
X6421360Y-7891540D01*
X6441442Y-12232642D02*
X6471442Y-12262642D01*
X6471442Y-12232642D02*
X6441442Y-12262642D01*
X6472160Y-9967200D02*
X6502160Y-9997200D01*
X6502160Y-9967200D02*
X6472160Y-9997200D01*
X6474700Y-9446500D02*
X6504700Y-9476500D01*
X6504700Y-9446500D02*
X6474700Y-9476500D01*
X6496077Y-9050480D02*
X6526077Y-9080480D01*
X6526077Y-9050480D02*
X6496077Y-9080480D01*
X6538200Y-10536160D02*
X6568200Y-10566160D01*
X6568200Y-10536160D02*
X6538200Y-10566160D01*
X6553440Y-10957800D02*
X6583440Y-10987800D01*
X6583440Y-10957800D02*
X6553440Y-10987800D01*
X6576300Y-9047720D02*
X6606300Y-9077720D01*
X6606300Y-9047720D02*
X6576300Y-9077720D01*
X6581380Y-7190980D02*
X6611380Y-7220980D01*
X6611380Y-7190980D02*
X6581380Y-7220980D01*
X6581380Y-8831820D02*
X6611380Y-8861820D01*
X6611380Y-8831820D02*
X6581380Y-8861820D01*
X6624560Y-10259300D02*
X6654560Y-10289300D01*
X6654560Y-10259300D02*
X6624560Y-10289300D01*
X6644880Y-7599920D02*
X6674880Y-7629920D01*
X6674880Y-7599920D02*
X6644880Y-7629920D01*
X6644880Y-10873980D02*
X6674880Y-10903980D01*
X6674880Y-10873980D02*
X6644880Y-10903980D01*
X6675360Y-10454880D02*
X6705360Y-10484880D01*
X6705360Y-10454880D02*
X6675360Y-10484880D01*
X6766800Y-12148251D02*
X6796800Y-12178251D01*
X6796800Y-12148251D02*
X6766800Y-12178251D01*
X6799820Y-6703300D02*
X6829820Y-6733300D01*
X6829820Y-6703300D02*
X6799820Y-6733300D01*
X6843000Y-8074900D02*
X6873000Y-8104900D01*
X6873000Y-8074900D02*
X6843000Y-8104900D01*
X6887911Y-9433800D02*
X6917911Y-9463800D01*
X6917911Y-9433800D02*
X6887911Y-9463800D01*
X6937990Y-12166758D02*
X6967990Y-12196758D01*
X6967990Y-12166758D02*
X6937990Y-12196758D01*
X6959579Y-9377538D02*
X6989579Y-9407538D01*
X6989579Y-9377538D02*
X6959579Y-9407538D01*
X6959840Y-8692120D02*
X6989840Y-8722120D01*
X6989840Y-8692120D02*
X6959840Y-8722120D01*
X7018260Y-12166840D02*
X7048260Y-12196840D01*
X7048260Y-12166840D02*
X7018260Y-12196840D01*
X7124940Y-9342360D02*
X7154940Y-9372360D01*
X7154940Y-9342360D02*
X7124940Y-9372360D01*
X7145260Y-11107660D02*
X7175260Y-11137660D01*
X7175260Y-11107660D02*
X7145260Y-11137660D01*
X7157960Y-8356840D02*
X7187960Y-8386840D01*
X7187960Y-8356840D02*
X7157960Y-8386840D01*
X7210290Y-9339437D02*
X7240290Y-9369437D01*
X7240290Y-9339437D02*
X7210290Y-9369437D01*
X7295120Y-9207740D02*
X7325120Y-9237740D01*
X7325120Y-9207740D02*
X7295120Y-9237740D01*
X7378940Y-9207740D02*
X7408940Y-9237740D01*
X7408940Y-9207740D02*
X7378940Y-9237740D01*
X7447520Y-10363440D02*
X7477520Y-10393440D01*
X7477520Y-10363440D02*
X7447520Y-10393440D01*
X7554297Y-11618616D02*
X7584297Y-11648616D01*
X7584297Y-11618616D02*
X7554297Y-11648616D01*
X7592300Y-11689320D02*
X7622300Y-11719320D01*
X7622300Y-11689320D02*
X7592300Y-11719320D01*
X7645640Y-9421100D02*
X7675640Y-9451100D01*
X7675640Y-9421100D02*
X7645640Y-9451100D01*
X7698980Y-6987780D02*
X7728980Y-7017780D01*
X7728980Y-6987780D02*
X7698980Y-7017780D01*
X7709140Y-11412460D02*
X7739140Y-11442460D01*
X7739140Y-11412460D02*
X7709140Y-11442460D01*
X7713086Y-7302147D02*
X7743086Y-7332147D01*
X7743086Y-7302147D02*
X7713086Y-7332147D01*
X7807434Y-7289274D02*
X7837434Y-7319274D01*
X7837434Y-7289274D02*
X7807434Y-7319274D01*
X8113000Y-8925800D02*
X8143000Y-8955800D01*
X8143000Y-8925800D02*
X8113000Y-8955800D01*
X8128240Y-10279620D02*
X8158240Y-10309620D01*
X8158240Y-10279620D02*
X8128240Y-10309620D01*
X8278100Y-7594840D02*
X8308100Y-7624840D01*
X8308100Y-7594840D02*
X8278100Y-7624840D01*
X8397480Y-11221960D02*
X8427480Y-11251960D01*
X8427480Y-11221960D02*
X8397480Y-11251960D01*
X8443200Y-9256000D02*
X8473200Y-9286000D01*
X8473200Y-9256000D02*
X8443200Y-9286000D01*
X8488920Y-12453860D02*
X8518920Y-12483860D01*
X8518920Y-12453860D02*
X8488920Y-12483860D01*
X8499080Y-8923260D02*
X8529080Y-8953260D01*
X8529080Y-8923260D02*
X8499080Y-8953260D01*
X8523359Y-9251764D02*
X8553359Y-9281764D01*
X8553359Y-9251764D02*
X8523359Y-9281764D01*
X8648940Y-11646140D02*
X8678940Y-11676140D01*
X8678940Y-11646140D02*
X8648940Y-11676140D01*
X8707360Y-10896840D02*
X8737360Y-10926840D01*
X8737360Y-10896840D02*
X8707360Y-10926840D01*
X8758160Y-8913100D02*
X8788160Y-8943100D01*
X8788160Y-8913100D02*
X8758160Y-8943100D01*
X8859760Y-6865860D02*
X8889760Y-6895860D01*
X8889760Y-6865860D02*
X8859760Y-6895860D01*
X8951200Y-8908020D02*
X8981200Y-8938020D01*
X8981200Y-8908020D02*
X8951200Y-8938020D01*
X9012160Y-8311120D02*
X9042160Y-8341120D01*
X9042160Y-8311120D02*
X9012160Y-8341120D01*
X9068040Y-7688820D02*
X9098040Y-7718820D01*
X9098040Y-7688820D02*
X9068040Y-7718820D01*
X9131540Y-11021300D02*
X9161540Y-11051300D01*
X9161540Y-11021300D02*
X9131540Y-11051300D01*
X9215360Y-6970000D02*
X9245360Y-7000000D01*
X9245360Y-6970000D02*
X9215360Y-7000000D01*
X9215360Y-8796260D02*
X9245360Y-8826260D01*
X9245360Y-8796260D02*
X9215360Y-8826260D01*
X9271240Y-11643600D02*
X9301240Y-11673600D01*
X9301240Y-11643600D02*
X9271240Y-11673600D01*
X9299180Y-8882620D02*
X9329180Y-8912620D01*
X9329180Y-8882620D02*
X9299180Y-8912620D01*
X9302259Y-8962831D02*
X9332259Y-8992831D01*
X9332259Y-8962831D02*
X9302259Y-8992831D01*
X9380460Y-10884140D02*
X9410460Y-10914140D01*
X9410460Y-10884140D02*
X9380460Y-10914140D01*
X9441420Y-11067020D02*
X9471420Y-11097020D01*
X9471420Y-11067020D02*
X9441420Y-11097020D01*
X9454120Y-10985740D02*
X9484120Y-11015740D01*
X9484120Y-10985740D02*
X9454120Y-11015740D01*
X9458383Y-10903410D02*
X9488383Y-10933410D01*
X9488383Y-10903410D02*
X9458383Y-10933410D01*
X9522700Y-7546580D02*
X9552700Y-7576580D01*
X9552700Y-7546580D02*
X9522700Y-7576580D01*
X9527780Y-8306040D02*
X9557780Y-8336040D01*
X9557780Y-8306040D02*
X9527780Y-8336040D01*
X9532860Y-8869920D02*
X9562860Y-8899920D01*
X9562860Y-8869920D02*
X9532860Y-8899920D01*
X9635583Y-10032415D02*
X9665583Y-10062415D01*
X9665583Y-10032415D02*
X9635583Y-10062415D01*
X9715740Y-10028160D02*
X9745740Y-10058160D01*
X9745740Y-10028160D02*
X9715740Y-10058160D01*
X9801453Y-9211601D02*
X9831453Y-9241601D01*
X9831453Y-9211601D02*
X9801453Y-9241601D01*
X9820000Y-10981969D02*
X9850000Y-11011969D01*
X9850000Y-10981969D02*
X9820000Y-11011969D01*
X9823430Y-7172950D02*
X9853430Y-7202950D01*
X9853430Y-7172950D02*
X9823430Y-7202950D01*
X9825685Y-10901901D02*
X9855685Y-10931901D01*
X9855685Y-10901901D02*
X9825685Y-10931901D01*
X9842740Y-7005560D02*
X9872740Y-7035560D01*
X9872740Y-7005560D02*
X9842740Y-7035560D01*
X9868140Y-8466060D02*
X9898140Y-8496060D01*
X9898140Y-8466060D02*
X9868140Y-8496060D01*
X9868255Y-9256106D02*
X9898255Y-9286106D01*
X9898255Y-9256106D02*
X9868255Y-9286106D01*
X9872411Y-10827529D02*
X9902411Y-10857529D01*
X9902411Y-10827529D02*
X9872411Y-10857529D01*
X9886439Y-8932765D02*
X9916439Y-8962765D01*
X9916439Y-8932765D02*
X9886439Y-8962765D01*
X9903700Y-7172950D02*
X9933700Y-7202950D01*
X9933700Y-7172950D02*
X9903700Y-7202950D01*
X9945149Y-8878025D02*
X9975149Y-8908025D01*
X9975149Y-8878025D02*
X9945149Y-8908025D01*
X9949420Y-8168880D02*
X9979420Y-8198880D01*
X9979420Y-8168880D02*
X9949420Y-8198880D01*
X9955430Y-10825984D02*
X9985430Y-10855984D01*
X9985430Y-10825984D02*
X9955430Y-10855984D01*
X9995140Y-11196560D02*
X10025140Y-11226560D01*
X10025140Y-11196560D02*
X9995140Y-11226560D01*
X10028440Y-8154765D02*
X10058440Y-8184765D01*
X10058440Y-8154765D02*
X10028440Y-8184765D01*
X10101820Y-10621711D02*
X10131820Y-10651711D01*
X10131820Y-10621711D02*
X10101820Y-10651711D01*
X10139920Y-10904460D02*
X10169920Y-10934460D01*
X10169920Y-10904460D02*
X10139920Y-10934460D01*
X10218140Y-11906168D02*
X10248140Y-11936168D01*
X10248140Y-11906168D02*
X10218140Y-11936168D01*
X10261840Y-7696440D02*
X10291840Y-7726440D01*
X10291840Y-7696440D02*
X10261840Y-7726440D01*
X10297498Y-11894102D02*
X10327498Y-11924102D01*
X10327498Y-11894102D02*
X10297498Y-11924102D01*
X10304342Y-11624089D02*
X10334342Y-11654089D01*
X10334342Y-11624089D02*
X10304342Y-11654089D01*
X10384612Y-11624089D02*
X10414612Y-11654089D01*
X10414612Y-11624089D02*
X10384612Y-11654089D01*
X10492980Y-11895060D02*
X10522980Y-11925060D01*
X10522980Y-11895060D02*
X10492980Y-11925060D01*
X10498060Y-9205200D02*
X10528060Y-9235200D01*
X10528060Y-9205200D02*
X10498060Y-9235200D01*
X10503140Y-8923260D02*
X10533140Y-8953260D01*
X10533140Y-8923260D02*
X10503140Y-8953260D01*
X10503140Y-11140680D02*
X10533140Y-11170680D01*
X10533140Y-11140680D02*
X10503140Y-11170680D01*
X10532574Y-8997939D02*
X10562574Y-9027939D01*
X10562574Y-8997939D02*
X10532574Y-9027939D01*
X10569865Y-11918125D02*
X10599865Y-11948125D01*
X10599865Y-11918125D02*
X10569865Y-11948125D01*
X10577814Y-9214289D02*
X10607814Y-9244289D01*
X10607814Y-9214289D02*
X10577814Y-9244289D01*
X10636936Y-10621711D02*
X10666936Y-10651711D01*
X10666936Y-10621711D02*
X10636936Y-10651711D01*
X10708880Y-7851380D02*
X10738880Y-7881380D01*
X10738880Y-7851380D02*
X10708880Y-7881380D01*
X10716986Y-10627644D02*
X10746986Y-10657644D01*
X10746986Y-10627644D02*
X10716986Y-10657644D01*
X10727806Y-7553142D02*
X10757806Y-7583142D01*
X10757806Y-7553142D02*
X10727806Y-7583142D01*
X10736011Y-8186568D02*
X10766011Y-8216568D01*
X10766011Y-8186568D02*
X10736011Y-8216568D01*
X10757140Y-7627860D02*
X10787140Y-7657860D01*
X10787140Y-7627860D02*
X10757140Y-7657860D01*
X10802860Y-11003520D02*
X10832860Y-11033520D01*
X10832860Y-11003520D02*
X10802860Y-11033520D01*
X10810480Y-6893800D02*
X10840480Y-6923800D01*
X10840480Y-6893800D02*
X10810480Y-6923800D01*
X10815974Y-8193580D02*
X10845974Y-8223580D01*
X10845974Y-8193580D02*
X10815974Y-8223580D01*
X10914620Y-11882508D02*
X10944620Y-11912508D01*
X10944620Y-11882508D02*
X10914620Y-11912508D01*
X10960340Y-8885160D02*
X10990340Y-8915160D01*
X10990340Y-8885160D02*
X10960340Y-8915160D01*
X10992898Y-11850411D02*
X11022898Y-11880411D01*
X11022898Y-11850411D02*
X10992898Y-11880411D01*
X11032281Y-10390450D02*
X11062281Y-10420450D01*
X11062281Y-10390450D02*
X11032281Y-10420450D01*
X11036540Y-9936720D02*
X11066540Y-9966720D01*
X11066540Y-9936720D02*
X11036540Y-9966720D01*
X11061940Y-7178280D02*
X11091940Y-7208280D01*
X11091940Y-7178280D02*
X11061940Y-7208280D01*
X11061940Y-10465040D02*
X11091940Y-10495040D01*
X11091940Y-10465040D02*
X11061940Y-10495040D01*
X11210671Y-8988908D02*
X11240671Y-9018908D01*
X11240671Y-8988908D02*
X11210671Y-9018908D01*
X11221960Y-9725900D02*
X11251960Y-9755900D01*
X11251960Y-9725900D02*
X11221960Y-9755900D01*
X11290540Y-8996920D02*
X11320540Y-9026920D01*
X11320540Y-8996920D02*
X11290540Y-9026920D01*
X11305523Y-10268107D02*
X11335523Y-10298107D01*
X11335523Y-10268107D02*
X11305523Y-10298107D01*
X11310860Y-10348200D02*
X11340860Y-10378200D01*
X11340860Y-10348200D02*
X11310860Y-10378200D01*
X11314518Y-9722851D02*
X11344518Y-9752851D01*
X11344518Y-9722851D02*
X11314518Y-9752851D01*
X11321020Y-10754600D02*
X11351020Y-10784600D01*
X11351020Y-10754600D02*
X11321020Y-10784600D01*
X11356580Y-9195040D02*
X11386580Y-9225040D01*
X11386580Y-9195040D02*
X11356580Y-9225040D01*
X11381980Y-6942060D02*
X11411980Y-6972060D01*
X11411980Y-6942060D02*
X11381980Y-6972060D01*
X11435320Y-8880080D02*
X11465320Y-8910080D01*
X11465320Y-8880080D02*
X11435320Y-8910080D01*
X11455640Y-8321280D02*
X11485640Y-8351280D01*
X11485640Y-8321280D02*
X11455640Y-8351280D01*
X11575020Y-7704060D02*
X11605020Y-7734060D01*
X11605020Y-7704060D02*
X11575020Y-7734060D01*
X11585177Y-10312691D02*
X11615177Y-10342691D01*
X11615177Y-10312691D02*
X11585177Y-10342691D01*
X11590348Y-10232587D02*
X11620348Y-10262587D01*
X11620348Y-10232587D02*
X11590348Y-10262587D01*
X11651220Y-7353540D02*
X11681220Y-7383540D01*
X11681220Y-7353540D02*
X11651220Y-7383540D01*
X11796000Y-12471640D02*
X11826000Y-12501640D01*
X11826000Y-12471640D02*
X11796000Y-12501640D01*
X11800348Y-8093289D02*
X11830348Y-8123289D01*
X11830348Y-8093289D02*
X11800348Y-8123289D01*
X11813780Y-10975580D02*
X11843780Y-11005580D01*
X11843780Y-10975580D02*
X11813780Y-11005580D01*
X11854420Y-9664940D02*
X11884420Y-9694940D01*
X11884420Y-9664940D02*
X11854420Y-9694940D01*
X11858392Y-9286474D02*
X11888392Y-9316474D01*
X11888392Y-9286474D02*
X11858392Y-9316474D01*
X11879820Y-10280429D02*
X11909820Y-10310429D01*
X11909820Y-10280429D02*
X11879820Y-10310429D01*
X11882360Y-10198340D02*
X11912360Y-10228340D01*
X11912360Y-10198340D02*
X11882360Y-10228340D01*
X11887440Y-8090140D02*
X11917440Y-8120140D01*
X11917440Y-8090140D02*
X11887440Y-8120140D01*
X11925540Y-9242491D02*
X11955540Y-9272491D01*
X11955540Y-9242491D02*
X11925540Y-9272491D01*
X11978880Y-8631160D02*
X12008880Y-8661160D01*
X12008880Y-8631160D02*
X11978880Y-8661160D01*
X12027140Y-7175740D02*
X12057140Y-7205740D01*
X12057140Y-7175740D02*
X12027140Y-7205740D01*
X12044920Y-7952980D02*
X12074920Y-7982980D01*
X12074920Y-7952980D02*
X12044920Y-7982980D01*
X12149060Y-9423640D02*
X12179060Y-9453640D01*
X12179060Y-9423640D02*
X12149060Y-9453640D01*
X12166840Y-10162780D02*
X12196840Y-10192780D01*
X12196840Y-10162780D02*
X12166840Y-10192780D01*
X12171920Y-10244869D02*
X12201920Y-10274869D01*
X12201920Y-10244869D02*
X12171920Y-10274869D01*
X12276060Y-8900400D02*
X12306060Y-8930400D01*
X12306060Y-8900400D02*
X12276060Y-8930400D01*
X12304000Y-11161000D02*
X12334000Y-11191000D01*
X12334000Y-11161000D02*
X12304000Y-11191000D01*
X12353463Y-8921664D02*
X12383463Y-8951664D01*
X12383463Y-8921664D02*
X12353463Y-8951664D01*
X12431000Y-8666720D02*
X12461000Y-8696720D01*
X12461000Y-8666720D02*
X12431000Y-8696720D01*
X12436080Y-10209918D02*
X12466080Y-10239918D01*
X12466080Y-10209918D02*
X12436080Y-10239918D01*
X12441160Y-10127733D02*
X12471160Y-10157733D01*
X12471160Y-10127733D02*
X12441160Y-10157733D01*
X12458940Y-7742160D02*
X12488940Y-7772160D01*
X12488940Y-7742160D02*
X12458940Y-7772160D01*
X12458940Y-9126460D02*
X12488940Y-9156460D01*
X12488940Y-9126460D02*
X12458940Y-9156460D01*
X12667220Y-10976389D02*
X12697220Y-11006389D01*
X12697220Y-10976389D02*
X12667220Y-11006389D01*
X12710400Y-9609060D02*
X12740400Y-9639060D01*
X12740400Y-9609060D02*
X12710400Y-9639060D01*
X12720560Y-10172940D02*
X12750560Y-10202940D01*
X12750560Y-10172940D02*
X12720560Y-10202940D01*
X12725640Y-10092831D02*
X12755640Y-10122831D01*
X12755640Y-10092831D02*
X12725640Y-10122831D01*
X12832320Y-10556480D02*
X12862320Y-10586480D01*
X12862320Y-10556480D02*
X12832320Y-10586480D01*
X12876830Y-10489681D02*
X12906830Y-10519681D01*
X12906830Y-10489681D02*
X12876830Y-10519681D01*
X13030528Y-10138063D02*
X13060528Y-10168063D01*
X13060528Y-10138063D02*
X13030528Y-10168063D01*
X13032994Y-10057831D02*
X13062994Y-10087831D01*
X13062994Y-10057831D02*
X13032994Y-10087831D01*
X13063460Y-7648180D02*
X13093460Y-7678180D01*
X13093460Y-7648180D02*
X13063460Y-7678180D01*
X13091400Y-6970000D02*
X13121400Y-7000000D01*
X13121400Y-6970000D02*
X13091400Y-7000000D01*
X13187920Y-9446500D02*
X13217920Y-9476500D01*
X13217920Y-9446500D02*
X13187920Y-9476500D01*
X13210780Y-8372080D02*
X13240780Y-8402080D01*
X13240780Y-8372080D02*
X13210780Y-8402080D01*
X13269200Y-10457420D02*
X13299200Y-10487420D01*
X13299200Y-10457420D02*
X13269200Y-10487420D01*
X13325080Y-9002000D02*
X13355080Y-9032000D01*
X13355080Y-9002000D02*
X13325080Y-9032000D01*
X13334090Y-11698665D02*
X13364090Y-11728665D01*
X13364090Y-11698665D02*
X13334090Y-11728665D01*
X13335933Y-8914318D02*
X13365933Y-8944318D01*
X13365933Y-8914318D02*
X13335933Y-8944318D01*
X13382499Y-11634635D02*
X13412499Y-11664635D01*
X13412499Y-11634635D02*
X13382499Y-11664635D01*
X13497800Y-11679969D02*
X13527800Y-11709969D01*
X13527800Y-11679969D02*
X13497800Y-11709969D01*
X13568473Y-11733309D02*
X13598473Y-11763309D01*
X13598473Y-11733309D02*
X13568473Y-11763309D01*
X13761960Y-9156940D02*
X13791960Y-9186940D01*
X13791960Y-9156940D02*
X13761960Y-9186940D01*
X13769580Y-11733309D02*
X13799580Y-11763309D01*
X13799580Y-11733309D02*
X13769580Y-11763309D01*
X13817840Y-7483080D02*
X13847840Y-7513080D01*
X13847840Y-7483080D02*
X13817840Y-7513080D01*
X13848320Y-11781569D02*
X13878320Y-11811569D01*
X13878320Y-11781569D02*
X13848320Y-11811569D01*
X13906740Y-6970000D02*
X13936740Y-7000000D01*
X13936740Y-6970000D02*
X13906740Y-7000000D01*
X13937220Y-10800320D02*
X13967220Y-10830320D01*
X13967220Y-10800320D02*
X13937220Y-10830320D01*
X13949920Y-11671540D02*
X13979920Y-11701540D01*
X13979920Y-11671540D02*
X13949920Y-11701540D01*
X14070831Y-11781569D02*
X14100831Y-11811569D01*
X14100831Y-11781569D02*
X14070831Y-11811569D01*
X14102320Y-7208760D02*
X14132320Y-7238760D01*
X14132320Y-7208760D02*
X14102320Y-7238760D01*
X14141181Y-11832369D02*
X14171181Y-11862369D01*
X14171181Y-11832369D02*
X14141181Y-11862369D01*
X14165820Y-8107920D02*
X14195820Y-8137920D01*
X14195820Y-8107920D02*
X14165820Y-8137920D01*
X14239958Y-10431211D02*
X14269958Y-10461211D01*
X14269958Y-10431211D02*
X14239958Y-10461211D01*
X14330920Y-12436080D02*
X14360920Y-12466080D01*
X14360920Y-12436080D02*
X14330920Y-12466080D01*
X14358860Y-11832369D02*
X14388860Y-11862369D01*
X14388860Y-11832369D02*
X14358860Y-11862369D01*
X14427617Y-11885681D02*
X14457617Y-11915681D01*
X14457617Y-11885681D02*
X14427617Y-11915681D01*
X14480780Y-11689320D02*
X14510780Y-11719320D01*
X14510780Y-11689320D02*
X14480780Y-11719320D01*
X14562060Y-10929860D02*
X14592060Y-10959860D01*
X14592060Y-10929860D02*
X14562060Y-10959860D01*
X14635720Y-7612620D02*
X14665720Y-7642620D01*
X14665720Y-7612620D02*
X14635720Y-7642620D01*
X14661120Y-6703300D02*
X14691120Y-6733300D01*
X14691120Y-6703300D02*
X14661120Y-6733300D01*
X14661120Y-10508220D02*
X14691120Y-10538220D01*
X14691120Y-10508220D02*
X14661120Y-10538220D01*
X14717000Y-12151600D02*
X14747000Y-12181600D01*
X14747000Y-12151600D02*
X14717000Y-12181600D01*
X14743363Y-9075582D02*
X14773363Y-9105582D01*
X14773363Y-9075582D02*
X14743363Y-9105582D01*
X14777960Y-12207480D02*
X14807960Y-12237480D01*
X14807960Y-12207480D02*
X14777960Y-12237480D01*
X14810980Y-9118840D02*
X14840980Y-9148840D01*
X14840980Y-9118840D02*
X14810980Y-9148840D01*
X14854160Y-11625820D02*
X14884160Y-11655820D01*
X14884160Y-11625820D02*
X14854160Y-11655820D01*
X14902420Y-9263620D02*
X14932420Y-9293620D01*
X14932420Y-9263620D02*
X14902420Y-9293620D01*
X14915120Y-8400020D02*
X14945120Y-8430020D01*
X14945120Y-8400020D02*
X14915120Y-8430020D01*
X14955760Y-10523460D02*
X14985760Y-10553460D01*
X14985760Y-10523460D02*
X14955760Y-10553460D01*
X14996400Y-8415260D02*
X15026400Y-8445260D01*
X15026400Y-8415260D02*
X14996400Y-8445260D01*
X15047200Y-9657320D02*
X15077200Y-9687320D01*
X15077200Y-9657320D02*
X15047200Y-9687320D01*
X15092920Y-7277340D02*
X15122920Y-7307340D01*
X15122920Y-7277340D02*
X15092920Y-7307340D01*
X15106325Y-8964931D02*
X15136325Y-8994931D01*
X15136325Y-8964931D02*
X15106325Y-8994931D01*
X15108160Y-9045180D02*
X15138160Y-9075180D01*
X15138160Y-9045180D02*
X15108160Y-9075180D01*
X15331680Y-7696440D02*
X15361680Y-7726440D01*
X15361680Y-7696440D02*
X15331680Y-7726440D01*
X15352000Y-8191740D02*
X15382000Y-8221740D01*
X15382000Y-8191740D02*
X15352000Y-8221740D01*
X15389291Y-9055340D02*
X15419291Y-9085340D01*
X15419291Y-9055340D02*
X15389291Y-9085340D01*
X15451060Y-11130520D02*
X15481060Y-11160520D01*
X15481060Y-11130520D02*
X15451060Y-11160520D01*
X15471380Y-9052800D02*
X15501380Y-9082800D01*
X15501380Y-9052800D02*
X15471380Y-9082800D01*
X15479000Y-6931900D02*
X15509000Y-6961900D01*
X15509000Y-6931900D02*
X15479000Y-6961900D01*
X15578060Y-9972280D02*
X15608060Y-10002280D01*
X15608060Y-9972280D02*
X15578060Y-10002280D01*
X15606000Y-8590520D02*
X15636000Y-8620520D01*
X15636000Y-8590520D02*
X15606000Y-8620520D01*
X15672040Y-11691860D02*
X15702040Y-11721860D01*
X15702040Y-11691860D02*
X15672040Y-11721860D01*
X15735540Y-10020540D02*
X15765540Y-10050540D01*
X15765540Y-10020540D02*
X15735540Y-10050540D01*
X15865080Y-12453860D02*
X15895080Y-12483860D01*
X15895080Y-12453860D02*
X15865080Y-12483860D01*
X15882860Y-9634460D02*
X15912860Y-9664460D01*
X15912860Y-9634460D02*
X15882860Y-9664460D01*
X15979380Y-10015460D02*
X16009380Y-10045460D01*
X16009380Y-10015460D02*
X15979380Y-10045460D01*
X16002240Y-8869920D02*
X16032240Y-8899920D01*
X16032240Y-8869920D02*
X16002240Y-8899920D01*
X16108920Y-10388840D02*
X16138920Y-10418840D01*
X16138920Y-10388840D02*
X16108920Y-10418840D01*
X16187660Y-7696440D02*
X16217660Y-7726440D01*
X16217660Y-7696440D02*
X16187660Y-7726440D01*
X16223220Y-6733780D02*
X16253220Y-6763780D01*
X16253220Y-6733780D02*
X16223220Y-6763780D01*
X16274020Y-10012920D02*
X16304020Y-10042920D01*
X16304020Y-10012920D02*
X16274020Y-10042920D01*
X16307040Y-10383760D02*
X16337040Y-10413760D01*
X16337040Y-10383760D02*
X16307040Y-10413760D01*
X16307040Y-11737580D02*
X16337040Y-11767580D01*
X16337040Y-11737580D02*
X16307040Y-11767580D01*
X16324249Y-9571725D02*
X16354249Y-9601725D01*
X16354249Y-9571725D02*
X16324249Y-9601725D01*
X16427298Y-8304968D02*
X16457298Y-8334968D01*
X16457298Y-8304968D02*
X16427298Y-8334968D01*
X16434040Y-10373600D02*
X16464040Y-10403600D01*
X16464040Y-10373600D02*
X16434040Y-10403600D01*
X16434040Y-11742660D02*
X16464040Y-11772660D01*
X16464040Y-11742660D02*
X16434040Y-11772660D01*
X16474680Y-7094460D02*
X16504680Y-7124460D01*
X16504680Y-7094460D02*
X16474680Y-7124460D01*
X16479760Y-11039080D02*
X16509760Y-11069080D01*
X16509760Y-11039080D02*
X16479760Y-11069080D01*
X16484840Y-10015460D02*
X16514840Y-10045460D01*
X16514840Y-10015460D02*
X16484840Y-10045460D01*
X16489920Y-7602460D02*
X16519920Y-7632460D01*
X16519920Y-7602460D02*
X16489920Y-7632460D01*
X16538180Y-8560040D02*
X16568180Y-8590040D01*
X16568180Y-8560040D02*
X16538180Y-8590040D01*
X16738840Y-10015460D02*
X16768840Y-10045460D01*
X16768840Y-10015460D02*
X16738840Y-10045460D01*
X16865840Y-11765520D02*
X16895840Y-11795520D01*
X16895840Y-11765520D02*
X16865840Y-11795520D01*
X16903940Y-12453860D02*
X16933940Y-12483860D01*
X16933940Y-12453860D02*
X16903940Y-12483860D01*
X16931880Y-9588740D02*
X16961880Y-9618740D01*
X16961880Y-9588740D02*
X16931880Y-9618740D01*
X16967440Y-6713460D02*
X16997440Y-6743460D01*
X16997440Y-6713460D02*
X16967440Y-6743460D01*
X17000460Y-10015460D02*
X17030460Y-10045460D01*
X17030460Y-10015460D02*
X17000460Y-10045460D01*
X17023320Y-8384780D02*
X17053320Y-8414780D01*
X17053320Y-8384780D02*
X17023320Y-8414780D01*
X17124920Y-10294860D02*
X17154920Y-10324860D01*
X17154920Y-10294860D02*
X17124920Y-10324860D01*
X17223980Y-7988540D02*
X17253980Y-8018540D01*
X17253980Y-7988540D02*
X17223980Y-8018540D01*
X17244300Y-10015460D02*
X17274300Y-10045460D01*
X17274300Y-10015460D02*
X17244300Y-10045460D01*
X17366220Y-10358360D02*
X17396220Y-10388360D01*
X17396220Y-10358360D02*
X17366220Y-10388360D01*
X17409400Y-11039080D02*
X17439400Y-11069080D01*
X17439400Y-11039080D02*
X17409400Y-11069080D01*
X17437340Y-11590260D02*
X17467340Y-11620260D01*
X17467340Y-11590260D02*
X17437340Y-11620260D01*
X17536400Y-7584680D02*
X17566400Y-7614680D01*
X17566400Y-7584680D02*
X17536400Y-7614680D01*
X17574500Y-7897100D02*
X17604500Y-7927100D01*
X17604500Y-7897100D02*
X17574500Y-7927100D01*
X17574500Y-8989300D02*
X17604500Y-9019300D01*
X17604500Y-8989300D02*
X17574500Y-9019300D01*
X17592280Y-8318740D02*
X17622280Y-8348740D01*
X17622280Y-8318740D02*
X17592280Y-8348740D01*
D14*
X4576100Y-7366000D02*
G75*
G03*
X4576100Y-7366000I-30000J0D01*
G01*
X4726100Y-7366000D02*
G75*
G03*
X4726100Y-7366000I-30000J0D01*
G01*
D15*
X5029200Y-9236000D02*
X5029200Y-9306000D01*
X4994200Y-9271000D02*
X5064200Y-9271000D01*
X6223000Y-6746800D02*
X6223000Y-6816800D01*
X6188000Y-6781800D02*
X6258000Y-6781800D01*
X7747000Y-6746800D02*
X7747000Y-6816800D01*
X7712000Y-6781800D02*
X7782000Y-6781800D01*
X9890760Y-6731560D02*
X9890760Y-6801560D01*
X9855760Y-6766560D02*
X9925760Y-6766560D01*
X9906000Y-9617000D02*
X9906000Y-9687000D01*
X9871000Y-9652000D02*
X9941000Y-9652000D01*
X10439400Y-9617000D02*
X10439400Y-9687000D01*
X10404400Y-9652000D02*
X10474400Y-9652000D01*
X11074400Y-8347000D02*
X11074400Y-8417000D01*
X11039400Y-8382000D02*
X11109400Y-8382000D01*
X12065000Y-6721400D02*
X12065000Y-6791400D01*
X12030000Y-6756400D02*
X12100000Y-6756400D01*
X12181840Y-9617000D02*
X12181840Y-9687000D01*
X12146840Y-9652000D02*
X12216840Y-9652000D01*
X13030200Y-6721400D02*
X13030200Y-6791400D01*
X12995200Y-6756400D02*
X13065200Y-6756400D01*
X13335000Y-9617000D02*
X13335000Y-9687000D01*
X13300000Y-9652000D02*
X13370000Y-9652000D01*
X13741400Y-8347000D02*
X13741400Y-8417000D01*
X13706400Y-8382000D02*
X13776400Y-8382000D01*
X15204440Y-9614460D02*
X15204440Y-9684460D01*
X15169440Y-9649460D02*
X15239440Y-9649460D01*
X15290800Y-8347000D02*
X15290800Y-8417000D01*
X15255800Y-8382000D02*
X15325800Y-8382000D01*
X15748000Y-6924600D02*
X15748000Y-6994600D01*
X15713000Y-6959600D02*
X15783000Y-6959600D01*
D16*
X3265017Y-10897717D02*
X3265017Y-10844683D01*
X3211983Y-10844683D01*
X3211983Y-10897717D01*
X3265017Y-10897717D01*
X3392017Y-10897717D02*
X3392017Y-10844683D01*
X3338983Y-10844683D01*
X3338983Y-10897717D01*
X3392017Y-10897717D01*
X3519017Y-10897717D02*
X3519017Y-10844683D01*
X3465983Y-10844683D01*
X3465983Y-10897717D01*
X3519017Y-10897717D01*
D17*
X2844800Y-9387200D02*
X2884800Y-9347200D01*
X2844800Y-9307200D01*
X2804800Y-9347200D01*
X2844800Y-9387200D01*
X2844800Y-10149200D02*
X2884800Y-10109200D01*
X2844800Y-10069200D01*
X2804800Y-10109200D01*
X2844800Y-10149200D01*
X2846800Y-8968100D02*
X2886800Y-8928100D01*
X2846800Y-8888100D01*
X2806800Y-8928100D01*
X2846800Y-8968100D01*
X2857500Y-10784200D02*
X2897500Y-10744200D01*
X2857500Y-10704200D01*
X2817500Y-10744200D01*
X2857500Y-10784200D01*
X2857500Y-11034200D02*
X2897500Y-10994200D01*
X2857500Y-10954200D01*
X2817500Y-10994200D01*
X2857500Y-11034200D01*
X3096800Y-8968100D02*
X3136800Y-8928100D01*
X3096800Y-8888100D01*
X3056800Y-8928100D01*
X3096800Y-8968100D01*
X3606800Y-9387200D02*
X3646800Y-9347200D01*
X3606800Y-9307200D01*
X3566800Y-9347200D01*
X3606800Y-9387200D01*
X3606800Y-10149200D02*
X3646800Y-10109200D01*
X3606800Y-10069200D01*
X3566800Y-10109200D01*
X3606800Y-10149200D01*
X3911100Y-7126600D02*
X3951100Y-7086600D01*
X3911100Y-7046600D01*
X3871100Y-7086600D01*
X3911100Y-7126600D01*
X4161100Y-7126600D02*
X4201100Y-7086600D01*
X4161100Y-7046600D01*
X4121100Y-7086600D01*
X4161100Y-7126600D01*
X4187750Y-10958750D02*
X4227750Y-10918750D01*
X4187750Y-10878750D01*
X4147750Y-10918750D01*
X4187750Y-10958750D01*
X4187750Y-11720750D02*
X4227750Y-11680750D01*
X4187750Y-11640750D01*
X4147750Y-11680750D01*
X4187750Y-11720750D01*
X4191000Y-9311000D02*
X4231000Y-9271000D01*
X4191000Y-9231000D01*
X4151000Y-9271000D01*
X4191000Y-9311000D01*
X4191000Y-9565000D02*
X4231000Y-9525000D01*
X4191000Y-9485000D01*
X4151000Y-9525000D01*
X4191000Y-9565000D01*
X4191000Y-10327000D02*
X4231000Y-10287000D01*
X4191000Y-10247000D01*
X4151000Y-10287000D01*
X4191000Y-10327000D01*
X4194250Y-10704750D02*
X4234250Y-10664750D01*
X4194250Y-10624750D01*
X4154250Y-10664750D01*
X4194250Y-10704750D01*
X4441000Y-9311000D02*
X4481000Y-9271000D01*
X4441000Y-9231000D01*
X4401000Y-9271000D01*
X4441000Y-9311000D01*
X4441750Y-10958750D02*
X4481750Y-10918750D01*
X4441750Y-10878750D01*
X4401750Y-10918750D01*
X4441750Y-10958750D01*
X4441750Y-11720750D02*
X4481750Y-11680750D01*
X4441750Y-11640750D01*
X4401750Y-11680750D01*
X4441750Y-11720750D01*
X4444250Y-10704750D02*
X4484250Y-10664750D01*
X4444250Y-10624750D01*
X4404250Y-10664750D01*
X4444250Y-10704750D01*
X4445000Y-9565000D02*
X4485000Y-9525000D01*
X4445000Y-9485000D01*
X4405000Y-9525000D01*
X4445000Y-9565000D01*
X4445000Y-10327000D02*
X4485000Y-10287000D01*
X4445000Y-10247000D01*
X4405000Y-10287000D01*
X4445000Y-10327000D01*
X4546100Y-6872600D02*
X4586100Y-6832600D01*
X4546100Y-6792600D01*
X4506100Y-6832600D01*
X4546100Y-6872600D01*
X4571500Y-8167000D02*
X4611500Y-8127000D01*
X4571500Y-8087000D01*
X4531500Y-8127000D01*
X4571500Y-8167000D01*
X4571500Y-8929000D02*
X4611500Y-8889000D01*
X4571500Y-8849000D01*
X4531500Y-8889000D01*
X4571500Y-8929000D01*
X4572000Y-7914000D02*
X4612000Y-7874000D01*
X4572000Y-7834000D01*
X4532000Y-7874000D01*
X4572000Y-7914000D01*
X4695750Y-10958750D02*
X4735750Y-10918750D01*
X4695750Y-10878750D01*
X4655750Y-10918750D01*
X4695750Y-10958750D01*
X4695750Y-11720750D02*
X4735750Y-11680750D01*
X4695750Y-11640750D01*
X4655750Y-11680750D01*
X4695750Y-11720750D01*
X4699000Y-9565000D02*
X4739000Y-9525000D01*
X4699000Y-9485000D01*
X4659000Y-9525000D01*
X4699000Y-9565000D01*
X4699000Y-10327000D02*
X4739000Y-10287000D01*
X4699000Y-10247000D01*
X4659000Y-10287000D01*
X4699000Y-10327000D01*
X4822000Y-7914000D02*
X4862000Y-7874000D01*
X4822000Y-7834000D01*
X4782000Y-7874000D01*
X4822000Y-7914000D01*
X4825500Y-8167000D02*
X4865500Y-8127000D01*
X4825500Y-8087000D01*
X4785500Y-8127000D01*
X4825500Y-8167000D01*
X4825500Y-8929000D02*
X4865500Y-8889000D01*
X4825500Y-8849000D01*
X4785500Y-8889000D01*
X4825500Y-8929000D01*
X4949750Y-10958750D02*
X4989750Y-10918750D01*
X4949750Y-10878750D01*
X4909750Y-10918750D01*
X4949750Y-10958750D01*
X4949750Y-11720750D02*
X4989750Y-11680750D01*
X4949750Y-11640750D01*
X4909750Y-11680750D01*
X4949750Y-11720750D01*
X4953000Y-9565000D02*
X4993000Y-9525000D01*
X4953000Y-9485000D01*
X4913000Y-9525000D01*
X4953000Y-9565000D01*
X4953000Y-10327000D02*
X4993000Y-10287000D01*
X4953000Y-10247000D01*
X4913000Y-10287000D01*
X4953000Y-10327000D01*
X5079500Y-8167000D02*
X5119500Y-8127000D01*
X5079500Y-8087000D01*
X5039500Y-8127000D01*
X5079500Y-8167000D01*
X5079500Y-8929000D02*
X5119500Y-8889000D01*
X5079500Y-8849000D01*
X5039500Y-8889000D01*
X5079500Y-8929000D01*
X5203750Y-10958750D02*
X5243750Y-10918750D01*
X5203750Y-10878750D01*
X5163750Y-10918750D01*
X5203750Y-10958750D01*
X5203750Y-11720750D02*
X5243750Y-11680750D01*
X5203750Y-11640750D01*
X5163750Y-11680750D01*
X5203750Y-11720750D01*
X5207000Y-9565000D02*
X5247000Y-9525000D01*
X5207000Y-9485000D01*
X5167000Y-9525000D01*
X5207000Y-9565000D01*
X5207000Y-10327000D02*
X5247000Y-10287000D01*
X5207000Y-10247000D01*
X5167000Y-10287000D01*
X5207000Y-10327000D01*
X5308100Y-6872600D02*
X5348100Y-6832600D01*
X5308100Y-6792600D01*
X5268100Y-6832600D01*
X5308100Y-6872600D01*
X5333500Y-8167000D02*
X5373500Y-8127000D01*
X5333500Y-8087000D01*
X5293500Y-8127000D01*
X5333500Y-8167000D01*
X5333500Y-8929000D02*
X5373500Y-8889000D01*
X5333500Y-8849000D01*
X5293500Y-8889000D01*
X5333500Y-8929000D01*
X5457750Y-10958750D02*
X5497750Y-10918750D01*
X5457750Y-10878750D01*
X5417750Y-10918750D01*
X5457750Y-10958750D01*
X5457750Y-11720750D02*
X5497750Y-11680750D01*
X5457750Y-11640750D01*
X5417750Y-11680750D01*
X5457750Y-11720750D01*
X5461000Y-9565000D02*
X5501000Y-9525000D01*
X5461000Y-9485000D01*
X5421000Y-9525000D01*
X5461000Y-9565000D01*
X5461000Y-10327000D02*
X5501000Y-10287000D01*
X5461000Y-10247000D01*
X5421000Y-10287000D01*
X5461000Y-10327000D01*
X5587500Y-8167000D02*
X5627500Y-8127000D01*
X5587500Y-8087000D01*
X5547500Y-8127000D01*
X5587500Y-8167000D01*
X5587500Y-8929000D02*
X5627500Y-8889000D01*
X5587500Y-8849000D01*
X5547500Y-8889000D01*
X5587500Y-8929000D01*
X5711750Y-10958750D02*
X5751750Y-10918750D01*
X5711750Y-10878750D01*
X5671750Y-10918750D01*
X5711750Y-10958750D01*
X5711750Y-11720750D02*
X5751750Y-11680750D01*
X5711750Y-11640750D01*
X5671750Y-11680750D01*
X5711750Y-11720750D01*
X5715000Y-9565000D02*
X5755000Y-9525000D01*
X5715000Y-9485000D01*
X5675000Y-9525000D01*
X5715000Y-9565000D01*
X5715000Y-10327000D02*
X5755000Y-10287000D01*
X5715000Y-10247000D01*
X5675000Y-10287000D01*
X5715000Y-10327000D01*
X5791200Y-7101200D02*
X5831200Y-7061200D01*
X5791200Y-7021200D01*
X5751200Y-7061200D01*
X5791200Y-7101200D01*
X5791200Y-7863200D02*
X5831200Y-7823200D01*
X5791200Y-7783200D01*
X5751200Y-7823200D01*
X5791200Y-7863200D01*
X5841500Y-8167000D02*
X5881500Y-8127000D01*
X5841500Y-8087000D01*
X5801500Y-8127000D01*
X5841500Y-8167000D01*
X5841500Y-8929000D02*
X5881500Y-8889000D01*
X5841500Y-8849000D01*
X5801500Y-8889000D01*
X5841500Y-8929000D01*
X6019800Y-10022200D02*
X6059800Y-9982200D01*
X6019800Y-9942200D01*
X5979800Y-9982200D01*
X6019800Y-10022200D01*
X6019800Y-10616560D02*
X6059800Y-10576560D01*
X6019800Y-10536560D01*
X5979800Y-10576560D01*
X6019800Y-10616560D01*
X6019800Y-11028040D02*
X6059800Y-10988040D01*
X6019800Y-10948040D01*
X5979800Y-10988040D01*
X6019800Y-11028040D01*
X6019800Y-11439520D02*
X6059800Y-11399520D01*
X6019800Y-11359520D01*
X5979800Y-11399520D01*
X6019800Y-11439520D01*
X6019800Y-11851000D02*
X6059800Y-11811000D01*
X6019800Y-11771000D01*
X5979800Y-11811000D01*
X6019800Y-11851000D01*
X6095500Y-8167000D02*
X6135500Y-8127000D01*
X6095500Y-8087000D01*
X6055500Y-8127000D01*
X6095500Y-8167000D01*
X6095500Y-8929000D02*
X6135500Y-8889000D01*
X6095500Y-8849000D01*
X6055500Y-8889000D01*
X6095500Y-8929000D01*
X6299200Y-7101200D02*
X6339200Y-7061200D01*
X6299200Y-7021200D01*
X6259200Y-7061200D01*
X6299200Y-7101200D01*
X6299200Y-7863200D02*
X6339200Y-7823200D01*
X6299200Y-7783200D01*
X6259200Y-7823200D01*
X6299200Y-7863200D01*
X6731000Y-7025000D02*
X6771000Y-6985000D01*
X6731000Y-6945000D01*
X6691000Y-6985000D01*
X6731000Y-7025000D01*
X6731000Y-7533000D02*
X6771000Y-7493000D01*
X6731000Y-7453000D01*
X6691000Y-7493000D01*
X6731000Y-7533000D01*
X6731000Y-7914000D02*
X6771000Y-7874000D01*
X6731000Y-7834000D01*
X6691000Y-7874000D01*
X6731000Y-7914000D01*
X6731000Y-8167000D02*
X6771000Y-8127000D01*
X6731000Y-8087000D01*
X6691000Y-8127000D01*
X6731000Y-8167000D01*
X6731000Y-8929000D02*
X6771000Y-8889000D01*
X6731000Y-8849000D01*
X6691000Y-8889000D01*
X6731000Y-8929000D01*
X6781800Y-10022200D02*
X6821800Y-9982200D01*
X6781800Y-9942200D01*
X6741800Y-9982200D01*
X6781800Y-10022200D01*
X6781800Y-10616560D02*
X6821800Y-10576560D01*
X6781800Y-10536560D01*
X6741800Y-10576560D01*
X6781800Y-10616560D01*
X6781800Y-11028040D02*
X6821800Y-10988040D01*
X6781800Y-10948040D01*
X6741800Y-10988040D01*
X6781800Y-11028040D01*
X6781800Y-11439520D02*
X6821800Y-11399520D01*
X6781800Y-11359520D01*
X6741800Y-11399520D01*
X6781800Y-11439520D01*
X6781800Y-11851000D02*
X6821800Y-11811000D01*
X6781800Y-11771000D01*
X6741800Y-11811000D01*
X6781800Y-11851000D01*
X6981000Y-7914000D02*
X7021000Y-7874000D01*
X6981000Y-7834000D01*
X6941000Y-7874000D01*
X6981000Y-7914000D01*
X6985000Y-8167000D02*
X7025000Y-8127000D01*
X6985000Y-8087000D01*
X6945000Y-8127000D01*
X6985000Y-8167000D01*
X6985000Y-8929000D02*
X7025000Y-8889000D01*
X6985000Y-8849000D01*
X6945000Y-8889000D01*
X6985000Y-8929000D01*
X7099300Y-11028040D02*
X7139300Y-10988040D01*
X7099300Y-10948040D01*
X7059300Y-10988040D01*
X7099300Y-11028040D01*
X7099300Y-11439520D02*
X7139300Y-11399520D01*
X7099300Y-11359520D01*
X7059300Y-11399520D01*
X7099300Y-11439520D01*
X7099300Y-11851000D02*
X7139300Y-11811000D01*
X7099300Y-11771000D01*
X7059300Y-11811000D01*
X7099300Y-11851000D01*
X7112000Y-9692000D02*
X7152000Y-9652000D01*
X7112000Y-9612000D01*
X7072000Y-9652000D01*
X7112000Y-9692000D01*
X7112000Y-9946000D02*
X7152000Y-9906000D01*
X7112000Y-9866000D01*
X7072000Y-9906000D01*
X7112000Y-9946000D01*
X7112000Y-10708000D02*
X7152000Y-10668000D01*
X7112000Y-10628000D01*
X7072000Y-10668000D01*
X7112000Y-10708000D01*
X7239000Y-8167000D02*
X7279000Y-8127000D01*
X7239000Y-8087000D01*
X7199000Y-8127000D01*
X7239000Y-8167000D01*
X7239000Y-8929000D02*
X7279000Y-8889000D01*
X7239000Y-8849000D01*
X7199000Y-8889000D01*
X7239000Y-8929000D01*
X7362000Y-9692000D02*
X7402000Y-9652000D01*
X7362000Y-9612000D01*
X7322000Y-9652000D01*
X7362000Y-9692000D01*
X7366000Y-9946000D02*
X7406000Y-9906000D01*
X7366000Y-9866000D01*
X7326000Y-9906000D01*
X7366000Y-9946000D01*
X7366000Y-10708000D02*
X7406000Y-10668000D01*
X7366000Y-10628000D01*
X7326000Y-10668000D01*
X7366000Y-10708000D01*
X7493000Y-7025000D02*
X7533000Y-6985000D01*
X7493000Y-6945000D01*
X7453000Y-6985000D01*
X7493000Y-7025000D01*
X7493000Y-7533000D02*
X7533000Y-7493000D01*
X7493000Y-7453000D01*
X7453000Y-7493000D01*
X7493000Y-7533000D01*
X7493000Y-8167000D02*
X7533000Y-8127000D01*
X7493000Y-8087000D01*
X7453000Y-8127000D01*
X7493000Y-8167000D01*
X7493000Y-8929000D02*
X7533000Y-8889000D01*
X7493000Y-8849000D01*
X7453000Y-8889000D01*
X7493000Y-8929000D01*
X7620000Y-9946000D02*
X7660000Y-9906000D01*
X7620000Y-9866000D01*
X7580000Y-9906000D01*
X7620000Y-9946000D01*
X7620000Y-10708000D02*
X7660000Y-10668000D01*
X7620000Y-10628000D01*
X7580000Y-10668000D01*
X7620000Y-10708000D01*
X7861300Y-11028040D02*
X7901300Y-10988040D01*
X7861300Y-10948040D01*
X7821300Y-10988040D01*
X7861300Y-11028040D01*
X7861300Y-11439520D02*
X7901300Y-11399520D01*
X7861300Y-11359520D01*
X7821300Y-11399520D01*
X7861300Y-11439520D01*
X7861300Y-11851000D02*
X7901300Y-11811000D01*
X7861300Y-11771000D01*
X7821300Y-11811000D01*
X7861300Y-11851000D01*
X7874000Y-9946000D02*
X7914000Y-9906000D01*
X7874000Y-9866000D01*
X7834000Y-9906000D01*
X7874000Y-9946000D01*
X7874000Y-10708000D02*
X7914000Y-10668000D01*
X7874000Y-10628000D01*
X7834000Y-10668000D01*
X7874000Y-10708000D01*
X8000500Y-7025000D02*
X8040500Y-6985000D01*
X8000500Y-6945000D01*
X7960500Y-6985000D01*
X8000500Y-7025000D01*
X8001000Y-7279000D02*
X8041000Y-7239000D01*
X8001000Y-7199000D01*
X7961000Y-7239000D01*
X8001000Y-7279000D01*
X8001000Y-8041000D02*
X8041000Y-8001000D01*
X8001000Y-7961000D01*
X7961000Y-8001000D01*
X8001000Y-8041000D01*
X8001000Y-8422000D02*
X8041000Y-8382000D01*
X8001000Y-8342000D01*
X7961000Y-8382000D01*
X8001000Y-8422000D01*
X8001000Y-8676000D02*
X8041000Y-8636000D01*
X8001000Y-8596000D01*
X7961000Y-8636000D01*
X8001000Y-8676000D01*
X8001000Y-9438000D02*
X8041000Y-9398000D01*
X8001000Y-9358000D01*
X7961000Y-9398000D01*
X8001000Y-9438000D01*
X8128000Y-9946000D02*
X8168000Y-9906000D01*
X8128000Y-9866000D01*
X8088000Y-9906000D01*
X8128000Y-9946000D01*
X8128000Y-10708000D02*
X8168000Y-10668000D01*
X8128000Y-10628000D01*
X8088000Y-10668000D01*
X8128000Y-10708000D01*
X8128000Y-11241400D02*
X8168000Y-11201400D01*
X8128000Y-11161400D01*
X8088000Y-11201400D01*
X8128000Y-11241400D01*
X8128000Y-11647800D02*
X8168000Y-11607800D01*
X8128000Y-11567800D01*
X8088000Y-11607800D01*
X8128000Y-11647800D01*
X8250500Y-7025000D02*
X8290500Y-6985000D01*
X8250500Y-6945000D01*
X8210500Y-6985000D01*
X8250500Y-7025000D01*
X8251000Y-8422000D02*
X8291000Y-8382000D01*
X8251000Y-8342000D01*
X8211000Y-8382000D01*
X8251000Y-8422000D01*
X8255000Y-7279000D02*
X8295000Y-7239000D01*
X8255000Y-7199000D01*
X8215000Y-7239000D01*
X8255000Y-7279000D01*
X8255000Y-8041000D02*
X8295000Y-8001000D01*
X8255000Y-7961000D01*
X8215000Y-8001000D01*
X8255000Y-8041000D01*
X8255000Y-8676000D02*
X8295000Y-8636000D01*
X8255000Y-8596000D01*
X8215000Y-8636000D01*
X8255000Y-8676000D01*
X8255000Y-9438000D02*
X8295000Y-9398000D01*
X8255000Y-9358000D01*
X8215000Y-9398000D01*
X8255000Y-9438000D01*
X8255000Y-12106000D02*
X8295000Y-12066000D01*
X8255000Y-12026000D01*
X8215000Y-12066000D01*
X8255000Y-12106000D01*
X8382000Y-9946000D02*
X8422000Y-9906000D01*
X8382000Y-9866000D01*
X8342000Y-9906000D01*
X8382000Y-9946000D01*
X8382000Y-10708000D02*
X8422000Y-10668000D01*
X8382000Y-10628000D01*
X8342000Y-10668000D01*
X8382000Y-10708000D01*
X8509000Y-7279000D02*
X8549000Y-7239000D01*
X8509000Y-7199000D01*
X8469000Y-7239000D01*
X8509000Y-7279000D01*
X8509000Y-8041000D02*
X8549000Y-8001000D01*
X8509000Y-7961000D01*
X8469000Y-8001000D01*
X8509000Y-8041000D01*
X8509000Y-8676000D02*
X8549000Y-8636000D01*
X8509000Y-8596000D01*
X8469000Y-8636000D01*
X8509000Y-8676000D01*
X8509000Y-9438000D02*
X8549000Y-9398000D01*
X8509000Y-9358000D01*
X8469000Y-9398000D01*
X8509000Y-9438000D01*
X8509000Y-12106000D02*
X8549000Y-12066000D01*
X8509000Y-12026000D01*
X8469000Y-12066000D01*
X8509000Y-12106000D01*
X8636000Y-9946000D02*
X8676000Y-9906000D01*
X8636000Y-9866000D01*
X8596000Y-9906000D01*
X8636000Y-9946000D01*
X8636000Y-10708000D02*
X8676000Y-10668000D01*
X8636000Y-10628000D01*
X8596000Y-10668000D01*
X8636000Y-10708000D01*
X8737600Y-6974200D02*
X8777600Y-6934200D01*
X8737600Y-6894200D01*
X8697600Y-6934200D01*
X8737600Y-6974200D01*
X8763000Y-7279000D02*
X8803000Y-7239000D01*
X8763000Y-7199000D01*
X8723000Y-7239000D01*
X8763000Y-7279000D01*
X8763000Y-8041000D02*
X8803000Y-8001000D01*
X8763000Y-7961000D01*
X8723000Y-8001000D01*
X8763000Y-8041000D01*
X8763000Y-8676000D02*
X8803000Y-8636000D01*
X8763000Y-8596000D01*
X8723000Y-8636000D01*
X8763000Y-8676000D01*
X8763000Y-9438000D02*
X8803000Y-9398000D01*
X8763000Y-9358000D01*
X8723000Y-9398000D01*
X8763000Y-9438000D01*
X8763000Y-12106000D02*
X8803000Y-12066000D01*
X8763000Y-12026000D01*
X8723000Y-12066000D01*
X8763000Y-12106000D01*
X8890000Y-9946000D02*
X8930000Y-9906000D01*
X8890000Y-9866000D01*
X8850000Y-9906000D01*
X8890000Y-9946000D01*
X8890000Y-10708000D02*
X8930000Y-10668000D01*
X8890000Y-10628000D01*
X8850000Y-10668000D01*
X8890000Y-10708000D01*
X8890000Y-11241400D02*
X8930000Y-11201400D01*
X8890000Y-11161400D01*
X8850000Y-11201400D01*
X8890000Y-11241400D01*
X8890000Y-11647800D02*
X8930000Y-11607800D01*
X8890000Y-11567800D01*
X8850000Y-11607800D01*
X8890000Y-11647800D01*
X9017000Y-7279000D02*
X9057000Y-7239000D01*
X9017000Y-7199000D01*
X8977000Y-7239000D01*
X9017000Y-7279000D01*
X9017000Y-8041000D02*
X9057000Y-8001000D01*
X9017000Y-7961000D01*
X8977000Y-8001000D01*
X9017000Y-8041000D01*
X9017000Y-8676000D02*
X9057000Y-8636000D01*
X9017000Y-8596000D01*
X8977000Y-8636000D01*
X9017000Y-8676000D01*
X9017000Y-9438000D02*
X9057000Y-9398000D01*
X9017000Y-9358000D01*
X8977000Y-9398000D01*
X9017000Y-9438000D01*
X9017000Y-12106000D02*
X9057000Y-12066000D01*
X9017000Y-12026000D01*
X8977000Y-12066000D01*
X9017000Y-12106000D01*
X9144000Y-9946000D02*
X9184000Y-9906000D01*
X9144000Y-9866000D01*
X9104000Y-9906000D01*
X9144000Y-9946000D01*
X9144000Y-10708000D02*
X9184000Y-10668000D01*
X9144000Y-10628000D01*
X9104000Y-10668000D01*
X9144000Y-10708000D01*
X9271000Y-7279000D02*
X9311000Y-7239000D01*
X9271000Y-7199000D01*
X9231000Y-7239000D01*
X9271000Y-7279000D01*
X9271000Y-8041000D02*
X9311000Y-8001000D01*
X9271000Y-7961000D01*
X9231000Y-8001000D01*
X9271000Y-8041000D01*
X9271000Y-8676000D02*
X9311000Y-8636000D01*
X9271000Y-8596000D01*
X9231000Y-8636000D01*
X9271000Y-8676000D01*
X9271000Y-9438000D02*
X9311000Y-9398000D01*
X9271000Y-9358000D01*
X9231000Y-9398000D01*
X9271000Y-9438000D01*
X9271000Y-12106000D02*
X9311000Y-12066000D01*
X9271000Y-12026000D01*
X9231000Y-12066000D01*
X9271000Y-12106000D01*
X9398000Y-9946000D02*
X9438000Y-9906000D01*
X9398000Y-9866000D01*
X9358000Y-9906000D01*
X9398000Y-9946000D01*
X9398000Y-10708000D02*
X9438000Y-10668000D01*
X9398000Y-10628000D01*
X9358000Y-10668000D01*
X9398000Y-10708000D01*
X9499600Y-6974200D02*
X9539600Y-6934200D01*
X9499600Y-6894200D01*
X9459600Y-6934200D01*
X9499600Y-6974200D01*
X9525000Y-7279000D02*
X9565000Y-7239000D01*
X9525000Y-7199000D01*
X9485000Y-7239000D01*
X9525000Y-7279000D01*
X9525000Y-8041000D02*
X9565000Y-8001000D01*
X9525000Y-7961000D01*
X9485000Y-8001000D01*
X9525000Y-8041000D01*
X9525000Y-8676000D02*
X9565000Y-8636000D01*
X9525000Y-8596000D01*
X9485000Y-8636000D01*
X9525000Y-8676000D01*
X9525000Y-9438000D02*
X9565000Y-9398000D01*
X9525000Y-9358000D01*
X9485000Y-9398000D01*
X9525000Y-9438000D01*
X9525000Y-12106000D02*
X9565000Y-12066000D01*
X9525000Y-12026000D01*
X9485000Y-12066000D01*
X9525000Y-12106000D01*
X9779000Y-12106000D02*
X9819000Y-12066000D01*
X9779000Y-12026000D01*
X9739000Y-12066000D01*
X9779000Y-12106000D01*
X9906000Y-9947000D02*
X9946000Y-9907000D01*
X9906000Y-9867000D01*
X9866000Y-9907000D01*
X9906000Y-9947000D01*
X9906000Y-11471000D02*
X9946000Y-11431000D01*
X9906000Y-11391000D01*
X9866000Y-11431000D01*
X9906000Y-11471000D01*
X10033000Y-12106000D02*
X10073000Y-12066000D01*
X10033000Y-12026000D01*
X9993000Y-12066000D01*
X10033000Y-12106000D01*
X10160000Y-9947000D02*
X10200000Y-9907000D01*
X10160000Y-9867000D01*
X10120000Y-9907000D01*
X10160000Y-9947000D01*
X10160000Y-11471000D02*
X10200000Y-11431000D01*
X10160000Y-11391000D01*
X10120000Y-11431000D01*
X10160000Y-11471000D01*
X10184900Y-7278000D02*
X10224900Y-7238000D01*
X10184900Y-7198000D01*
X10144900Y-7238000D01*
X10184900Y-7278000D01*
X10184900Y-8040000D02*
X10224900Y-8000000D01*
X10184900Y-7960000D01*
X10144900Y-8000000D01*
X10184900Y-8040000D01*
X10184900Y-8675000D02*
X10224900Y-8635000D01*
X10184900Y-8595000D01*
X10144900Y-8635000D01*
X10184900Y-8675000D01*
X10184900Y-9437000D02*
X10224900Y-9397000D01*
X10184900Y-9357000D01*
X10144900Y-9397000D01*
X10184900Y-9437000D01*
X10185400Y-8422000D02*
X10225400Y-8382000D01*
X10185400Y-8342000D01*
X10145400Y-8382000D01*
X10185400Y-8422000D01*
X10187400Y-7025000D02*
X10227400Y-6985000D01*
X10187400Y-6945000D01*
X10147400Y-6985000D01*
X10187400Y-7025000D01*
X10287000Y-12106000D02*
X10327000Y-12066000D01*
X10287000Y-12026000D01*
X10247000Y-12066000D01*
X10287000Y-12106000D01*
X10414000Y-9947000D02*
X10454000Y-9907000D01*
X10414000Y-9867000D01*
X10374000Y-9907000D01*
X10414000Y-9947000D01*
X10414000Y-11471000D02*
X10454000Y-11431000D01*
X10414000Y-11391000D01*
X10374000Y-11431000D01*
X10414000Y-11471000D01*
X10435400Y-8422000D02*
X10475400Y-8382000D01*
X10435400Y-8342000D01*
X10395400Y-8382000D01*
X10435400Y-8422000D01*
X10437400Y-7025000D02*
X10477400Y-6985000D01*
X10437400Y-6945000D01*
X10397400Y-6985000D01*
X10437400Y-7025000D01*
X10438900Y-7278000D02*
X10478900Y-7238000D01*
X10438900Y-7198000D01*
X10398900Y-7238000D01*
X10438900Y-7278000D01*
X10438900Y-8040000D02*
X10478900Y-8000000D01*
X10438900Y-7960000D01*
X10398900Y-8000000D01*
X10438900Y-8040000D01*
X10438900Y-8675000D02*
X10478900Y-8635000D01*
X10438900Y-8595000D01*
X10398900Y-8635000D01*
X10438900Y-8675000D01*
X10438900Y-9437000D02*
X10478900Y-9397000D01*
X10438900Y-9357000D01*
X10398900Y-9397000D01*
X10438900Y-9437000D01*
X10668000Y-9947000D02*
X10708000Y-9907000D01*
X10668000Y-9867000D01*
X10628000Y-9907000D01*
X10668000Y-9947000D01*
X10668000Y-11471000D02*
X10708000Y-11431000D01*
X10668000Y-11391000D01*
X10628000Y-11431000D01*
X10668000Y-11471000D01*
X10668000Y-12106000D02*
X10708000Y-12066000D01*
X10668000Y-12026000D01*
X10628000Y-12066000D01*
X10668000Y-12106000D01*
X10692900Y-7278000D02*
X10732900Y-7238000D01*
X10692900Y-7198000D01*
X10652900Y-7238000D01*
X10692900Y-7278000D01*
X10692900Y-8040000D02*
X10732900Y-8000000D01*
X10692900Y-7960000D01*
X10652900Y-8000000D01*
X10692900Y-8040000D01*
X10692900Y-8675000D02*
X10732900Y-8635000D01*
X10692900Y-8595000D01*
X10652900Y-8635000D01*
X10692900Y-8675000D01*
X10692900Y-9437000D02*
X10732900Y-9397000D01*
X10692900Y-9357000D01*
X10652900Y-9397000D01*
X10692900Y-9437000D01*
X10922000Y-9947000D02*
X10962000Y-9907000D01*
X10922000Y-9867000D01*
X10882000Y-9907000D01*
X10922000Y-9947000D01*
X10922000Y-11471000D02*
X10962000Y-11431000D01*
X10922000Y-11391000D01*
X10882000Y-11431000D01*
X10922000Y-11471000D01*
X10922000Y-12106000D02*
X10962000Y-12066000D01*
X10922000Y-12026000D01*
X10882000Y-12066000D01*
X10922000Y-12106000D01*
X10946900Y-7278000D02*
X10986900Y-7238000D01*
X10946900Y-7198000D01*
X10906900Y-7238000D01*
X10946900Y-7278000D01*
X10946900Y-8040000D02*
X10986900Y-8000000D01*
X10946900Y-7960000D01*
X10906900Y-8000000D01*
X10946900Y-8040000D01*
X10946900Y-8675000D02*
X10986900Y-8635000D01*
X10946900Y-8595000D01*
X10906900Y-8635000D01*
X10946900Y-8675000D01*
X10946900Y-9437000D02*
X10986900Y-9397000D01*
X10946900Y-9357000D01*
X10906900Y-9397000D01*
X10946900Y-9437000D01*
X11176000Y-9947000D02*
X11216000Y-9907000D01*
X11176000Y-9867000D01*
X11136000Y-9907000D01*
X11176000Y-9947000D01*
X11176000Y-11471000D02*
X11216000Y-11431000D01*
X11176000Y-11391000D01*
X11136000Y-11431000D01*
X11176000Y-11471000D01*
X11176000Y-12106000D02*
X11216000Y-12066000D01*
X11176000Y-12026000D01*
X11136000Y-12066000D01*
X11176000Y-12106000D01*
X11200900Y-7278000D02*
X11240900Y-7238000D01*
X11200900Y-7198000D01*
X11160900Y-7238000D01*
X11200900Y-7278000D01*
X11200900Y-8040000D02*
X11240900Y-8000000D01*
X11200900Y-7960000D01*
X11160900Y-8000000D01*
X11200900Y-8040000D01*
X11200900Y-8675000D02*
X11240900Y-8635000D01*
X11200900Y-8595000D01*
X11160900Y-8635000D01*
X11200900Y-8675000D01*
X11200900Y-9437000D02*
X11240900Y-9397000D01*
X11200900Y-9357000D01*
X11160900Y-9397000D01*
X11200900Y-9437000D01*
X11430000Y-9947000D02*
X11470000Y-9907000D01*
X11430000Y-9867000D01*
X11390000Y-9907000D01*
X11430000Y-9947000D01*
X11430000Y-11471000D02*
X11470000Y-11431000D01*
X11430000Y-11391000D01*
X11390000Y-11431000D01*
X11430000Y-11471000D01*
X11430000Y-12106000D02*
X11470000Y-12066000D01*
X11430000Y-12026000D01*
X11390000Y-12066000D01*
X11430000Y-12106000D01*
X11454900Y-7278000D02*
X11494900Y-7238000D01*
X11454900Y-7198000D01*
X11414900Y-7238000D01*
X11454900Y-7278000D01*
X11454900Y-8040000D02*
X11494900Y-8000000D01*
X11454900Y-7960000D01*
X11414900Y-8000000D01*
X11454900Y-8040000D01*
X11454900Y-8675000D02*
X11494900Y-8635000D01*
X11454900Y-8595000D01*
X11414900Y-8635000D01*
X11454900Y-8675000D01*
X11454900Y-9437000D02*
X11494900Y-9397000D01*
X11454900Y-9357000D01*
X11414900Y-9397000D01*
X11454900Y-9437000D01*
X11684000Y-9947000D02*
X11724000Y-9907000D01*
X11684000Y-9867000D01*
X11644000Y-9907000D01*
X11684000Y-9947000D01*
X11684000Y-11471000D02*
X11724000Y-11431000D01*
X11684000Y-11391000D01*
X11644000Y-11431000D01*
X11684000Y-11471000D01*
X11684000Y-11725000D02*
X11724000Y-11685000D01*
X11684000Y-11645000D01*
X11644000Y-11685000D01*
X11684000Y-11725000D01*
X11684000Y-12106000D02*
X11724000Y-12066000D01*
X11684000Y-12026000D01*
X11644000Y-12066000D01*
X11684000Y-12106000D01*
X11708900Y-7278000D02*
X11748900Y-7238000D01*
X11708900Y-7198000D01*
X11668900Y-7238000D01*
X11708900Y-7278000D01*
X11708900Y-8040000D02*
X11748900Y-8000000D01*
X11708900Y-7960000D01*
X11668900Y-8000000D01*
X11708900Y-8040000D01*
X11708900Y-8675000D02*
X11748900Y-8635000D01*
X11708900Y-8595000D01*
X11668900Y-8635000D01*
X11708900Y-8675000D01*
X11708900Y-9437000D02*
X11748900Y-9397000D01*
X11708900Y-9357000D01*
X11668900Y-9397000D01*
X11708900Y-9437000D01*
X11934000Y-11725000D02*
X11974000Y-11685000D01*
X11934000Y-11645000D01*
X11894000Y-11685000D01*
X11934000Y-11725000D01*
X11938000Y-9947000D02*
X11978000Y-9907000D01*
X11938000Y-9867000D01*
X11898000Y-9907000D01*
X11938000Y-9947000D01*
X11938000Y-11471000D02*
X11978000Y-11431000D01*
X11938000Y-11391000D01*
X11898000Y-11431000D01*
X11938000Y-11471000D01*
X11938000Y-12106000D02*
X11978000Y-12066000D01*
X11938000Y-12026000D01*
X11898000Y-12066000D01*
X11938000Y-12106000D01*
X12192000Y-9947000D02*
X12232000Y-9907000D01*
X12192000Y-9867000D01*
X12152000Y-9907000D01*
X12192000Y-9947000D01*
X12192000Y-11471000D02*
X12232000Y-11431000D01*
X12192000Y-11391000D01*
X12152000Y-11431000D01*
X12192000Y-11471000D01*
X12192000Y-12106000D02*
X12232000Y-12066000D01*
X12192000Y-12026000D01*
X12152000Y-12066000D01*
X12192000Y-12106000D01*
X12318500Y-7025000D02*
X12358500Y-6985000D01*
X12318500Y-6945000D01*
X12278500Y-6985000D01*
X12318500Y-7025000D01*
X12318500Y-7278000D02*
X12358500Y-7238000D01*
X12318500Y-7198000D01*
X12278500Y-7238000D01*
X12318500Y-7278000D01*
X12318500Y-8040000D02*
X12358500Y-8000000D01*
X12318500Y-7960000D01*
X12278500Y-8000000D01*
X12318500Y-8040000D01*
X12318500Y-8675000D02*
X12358500Y-8635000D01*
X12318500Y-8595000D01*
X12278500Y-8635000D01*
X12318500Y-8675000D01*
X12318500Y-9437000D02*
X12358500Y-9397000D01*
X12318500Y-9357000D01*
X12278500Y-9397000D01*
X12318500Y-9437000D01*
X12319000Y-8422000D02*
X12359000Y-8382000D01*
X12319000Y-8342000D01*
X12279000Y-8382000D01*
X12319000Y-8422000D01*
X12446000Y-9947000D02*
X12486000Y-9907000D01*
X12446000Y-9867000D01*
X12406000Y-9907000D01*
X12446000Y-9947000D01*
X12446000Y-11471000D02*
X12486000Y-11431000D01*
X12446000Y-11391000D01*
X12406000Y-11431000D01*
X12446000Y-11471000D01*
X12446000Y-12106000D02*
X12486000Y-12066000D01*
X12446000Y-12026000D01*
X12406000Y-12066000D01*
X12446000Y-12106000D01*
X12568500Y-7025000D02*
X12608500Y-6985000D01*
X12568500Y-6945000D01*
X12528500Y-6985000D01*
X12568500Y-7025000D01*
X12569000Y-8422000D02*
X12609000Y-8382000D01*
X12569000Y-8342000D01*
X12529000Y-8382000D01*
X12569000Y-8422000D01*
X12572500Y-7278000D02*
X12612500Y-7238000D01*
X12572500Y-7198000D01*
X12532500Y-7238000D01*
X12572500Y-7278000D01*
X12572500Y-8040000D02*
X12612500Y-8000000D01*
X12572500Y-7960000D01*
X12532500Y-8000000D01*
X12572500Y-8040000D01*
X12572500Y-8675000D02*
X12612500Y-8635000D01*
X12572500Y-8595000D01*
X12532500Y-8635000D01*
X12572500Y-8675000D01*
X12572500Y-9437000D02*
X12612500Y-9397000D01*
X12572500Y-9357000D01*
X12532500Y-9397000D01*
X12572500Y-9437000D01*
X12700000Y-9947000D02*
X12740000Y-9907000D01*
X12700000Y-9867000D01*
X12660000Y-9907000D01*
X12700000Y-9947000D01*
X12700000Y-11471000D02*
X12740000Y-11431000D01*
X12700000Y-11391000D01*
X12660000Y-11431000D01*
X12700000Y-11471000D01*
X12700000Y-12106000D02*
X12740000Y-12066000D01*
X12700000Y-12026000D01*
X12660000Y-12066000D01*
X12700000Y-12106000D01*
X12826500Y-7278000D02*
X12866500Y-7238000D01*
X12826500Y-7198000D01*
X12786500Y-7238000D01*
X12826500Y-7278000D01*
X12826500Y-8040000D02*
X12866500Y-8000000D01*
X12826500Y-7960000D01*
X12786500Y-8000000D01*
X12826500Y-8040000D01*
X12826500Y-8675000D02*
X12866500Y-8635000D01*
X12826500Y-8595000D01*
X12786500Y-8635000D01*
X12826500Y-8675000D01*
X12826500Y-9437000D02*
X12866500Y-9397000D01*
X12826500Y-9357000D01*
X12786500Y-9397000D01*
X12826500Y-9437000D01*
X12954000Y-9947000D02*
X12994000Y-9907000D01*
X12954000Y-9867000D01*
X12914000Y-9907000D01*
X12954000Y-9947000D01*
X12954000Y-11471000D02*
X12994000Y-11431000D01*
X12954000Y-11391000D01*
X12914000Y-11431000D01*
X12954000Y-11471000D01*
X13080500Y-7278000D02*
X13120500Y-7238000D01*
X13080500Y-7198000D01*
X13040500Y-7238000D01*
X13080500Y-7278000D01*
X13080500Y-8040000D02*
X13120500Y-8000000D01*
X13080500Y-7960000D01*
X13040500Y-8000000D01*
X13080500Y-8040000D01*
X13080500Y-8675000D02*
X13120500Y-8635000D01*
X13080500Y-8595000D01*
X13040500Y-8635000D01*
X13080500Y-8675000D01*
X13080500Y-9437000D02*
X13120500Y-9397000D01*
X13080500Y-9357000D01*
X13040500Y-9397000D01*
X13080500Y-9437000D01*
X13082500Y-12106000D02*
X13122500Y-12066000D01*
X13082500Y-12026000D01*
X13042500Y-12066000D01*
X13082500Y-12106000D01*
X13208000Y-9947000D02*
X13248000Y-9907000D01*
X13208000Y-9867000D01*
X13168000Y-9907000D01*
X13208000Y-9947000D01*
X13208000Y-11471000D02*
X13248000Y-11431000D01*
X13208000Y-11391000D01*
X13168000Y-11431000D01*
X13208000Y-11471000D01*
X13334500Y-7278000D02*
X13374500Y-7238000D01*
X13334500Y-7198000D01*
X13294500Y-7238000D01*
X13334500Y-7278000D01*
X13334500Y-8040000D02*
X13374500Y-8000000D01*
X13334500Y-7960000D01*
X13294500Y-8000000D01*
X13334500Y-8040000D01*
X13334500Y-8675000D02*
X13374500Y-8635000D01*
X13334500Y-8595000D01*
X13294500Y-8635000D01*
X13334500Y-8675000D01*
X13334500Y-9437000D02*
X13374500Y-9397000D01*
X13334500Y-9357000D01*
X13294500Y-9397000D01*
X13334500Y-9437000D01*
X13336500Y-12106000D02*
X13376500Y-12066000D01*
X13336500Y-12026000D01*
X13296500Y-12066000D01*
X13336500Y-12106000D01*
X13462000Y-9947000D02*
X13502000Y-9907000D01*
X13462000Y-9867000D01*
X13422000Y-9907000D01*
X13462000Y-9947000D01*
X13462000Y-11471000D02*
X13502000Y-11431000D01*
X13462000Y-11391000D01*
X13422000Y-11431000D01*
X13462000Y-11471000D01*
X13588500Y-7278000D02*
X13628500Y-7238000D01*
X13588500Y-7198000D01*
X13548500Y-7238000D01*
X13588500Y-7278000D01*
X13588500Y-8040000D02*
X13628500Y-8000000D01*
X13588500Y-7960000D01*
X13548500Y-8000000D01*
X13588500Y-8040000D01*
X13588500Y-8675000D02*
X13628500Y-8635000D01*
X13588500Y-8595000D01*
X13548500Y-8635000D01*
X13588500Y-8675000D01*
X13588500Y-9437000D02*
X13628500Y-9397000D01*
X13588500Y-9357000D01*
X13548500Y-9397000D01*
X13588500Y-9437000D01*
X13590500Y-12106000D02*
X13630500Y-12066000D01*
X13590500Y-12026000D01*
X13550500Y-12066000D01*
X13590500Y-12106000D01*
X13716000Y-9947000D02*
X13756000Y-9907000D01*
X13716000Y-9867000D01*
X13676000Y-9907000D01*
X13716000Y-9947000D01*
X13716000Y-11471000D02*
X13756000Y-11431000D01*
X13716000Y-11391000D01*
X13676000Y-11431000D01*
X13716000Y-11471000D01*
X13842500Y-7278000D02*
X13882500Y-7238000D01*
X13842500Y-7198000D01*
X13802500Y-7238000D01*
X13842500Y-7278000D01*
X13842500Y-8040000D02*
X13882500Y-8000000D01*
X13842500Y-7960000D01*
X13802500Y-8000000D01*
X13842500Y-8040000D01*
X13842500Y-8675000D02*
X13882500Y-8635000D01*
X13842500Y-8595000D01*
X13802500Y-8635000D01*
X13842500Y-8675000D01*
X13842500Y-9437000D02*
X13882500Y-9397000D01*
X13842500Y-9357000D01*
X13802500Y-9397000D01*
X13842500Y-9437000D01*
X13844500Y-12106000D02*
X13884500Y-12066000D01*
X13844500Y-12026000D01*
X13804500Y-12066000D01*
X13844500Y-12106000D01*
X13970000Y-9947000D02*
X14010000Y-9907000D01*
X13970000Y-9867000D01*
X13930000Y-9907000D01*
X13970000Y-9947000D01*
X13970000Y-11471000D02*
X14010000Y-11431000D01*
X13970000Y-11391000D01*
X13930000Y-11431000D01*
X13970000Y-11471000D01*
X14098500Y-12106000D02*
X14138500Y-12066000D01*
X14098500Y-12026000D01*
X14058500Y-12066000D01*
X14098500Y-12106000D01*
X14224000Y-9947000D02*
X14264000Y-9907000D01*
X14224000Y-9867000D01*
X14184000Y-9907000D01*
X14224000Y-9947000D01*
X14224000Y-11471000D02*
X14264000Y-11431000D01*
X14224000Y-11391000D01*
X14184000Y-11431000D01*
X14224000Y-11471000D01*
X14352500Y-12106000D02*
X14392500Y-12066000D01*
X14352500Y-12026000D01*
X14312500Y-12066000D01*
X14352500Y-12106000D01*
X14478000Y-7025000D02*
X14518000Y-6985000D01*
X14478000Y-6945000D01*
X14438000Y-6985000D01*
X14478000Y-7025000D01*
X14478000Y-8422000D02*
X14518000Y-8382000D01*
X14478000Y-8342000D01*
X14438000Y-8382000D01*
X14478000Y-8422000D01*
X14478000Y-8676000D02*
X14518000Y-8636000D01*
X14478000Y-8596000D01*
X14438000Y-8636000D01*
X14478000Y-8676000D01*
X14478000Y-9438000D02*
X14518000Y-9398000D01*
X14478000Y-9358000D01*
X14438000Y-9398000D01*
X14478000Y-9438000D01*
X14478000Y-9947000D02*
X14518000Y-9907000D01*
X14478000Y-9867000D01*
X14438000Y-9907000D01*
X14478000Y-9947000D01*
X14478000Y-11471000D02*
X14518000Y-11431000D01*
X14478000Y-11391000D01*
X14438000Y-11431000D01*
X14478000Y-11471000D01*
X14479500Y-7278000D02*
X14519500Y-7238000D01*
X14479500Y-7198000D01*
X14439500Y-7238000D01*
X14479500Y-7278000D01*
X14479500Y-8040000D02*
X14519500Y-8000000D01*
X14479500Y-7960000D01*
X14439500Y-8000000D01*
X14479500Y-8040000D01*
X14606500Y-12106000D02*
X14646500Y-12066000D01*
X14606500Y-12026000D01*
X14566500Y-12066000D01*
X14606500Y-12106000D01*
X14728000Y-7025000D02*
X14768000Y-6985000D01*
X14728000Y-6945000D01*
X14688000Y-6985000D01*
X14728000Y-7025000D01*
X14728000Y-8422000D02*
X14768000Y-8382000D01*
X14728000Y-8342000D01*
X14688000Y-8382000D01*
X14728000Y-8422000D01*
X14732000Y-8676000D02*
X14772000Y-8636000D01*
X14732000Y-8596000D01*
X14692000Y-8636000D01*
X14732000Y-8676000D01*
X14732000Y-9438000D02*
X14772000Y-9398000D01*
X14732000Y-9358000D01*
X14692000Y-9398000D01*
X14732000Y-9438000D01*
X14732000Y-9947000D02*
X14772000Y-9907000D01*
X14732000Y-9867000D01*
X14692000Y-9907000D01*
X14732000Y-9947000D01*
X14732000Y-11471000D02*
X14772000Y-11431000D01*
X14732000Y-11391000D01*
X14692000Y-11431000D01*
X14732000Y-11471000D01*
X14733500Y-7278000D02*
X14773500Y-7238000D01*
X14733500Y-7198000D01*
X14693500Y-7238000D01*
X14733500Y-7278000D01*
X14733500Y-8040000D02*
X14773500Y-8000000D01*
X14733500Y-7960000D01*
X14693500Y-8000000D01*
X14733500Y-8040000D01*
X14860500Y-12106000D02*
X14900500Y-12066000D01*
X14860500Y-12026000D01*
X14820500Y-12066000D01*
X14860500Y-12106000D01*
X14986000Y-8676000D02*
X15026000Y-8636000D01*
X14986000Y-8596000D01*
X14946000Y-8636000D01*
X14986000Y-8676000D01*
X14986000Y-9438000D02*
X15026000Y-9398000D01*
X14986000Y-9358000D01*
X14946000Y-9398000D01*
X14986000Y-9438000D01*
X14987500Y-7278000D02*
X15027500Y-7238000D01*
X14987500Y-7198000D01*
X14947500Y-7238000D01*
X14987500Y-7278000D01*
X14987500Y-8040000D02*
X15027500Y-8000000D01*
X14987500Y-7960000D01*
X14947500Y-8000000D01*
X14987500Y-8040000D01*
X15114500Y-12106000D02*
X15154500Y-12066000D01*
X15114500Y-12026000D01*
X15074500Y-12066000D01*
X15114500Y-12106000D01*
X15240000Y-8676000D02*
X15280000Y-8636000D01*
X15240000Y-8596000D01*
X15200000Y-8636000D01*
X15240000Y-8676000D01*
X15240000Y-9438000D02*
X15280000Y-9398000D01*
X15240000Y-9358000D01*
X15200000Y-9398000D01*
X15240000Y-9438000D01*
X15240000Y-10454000D02*
X15280000Y-10414000D01*
X15240000Y-10374000D01*
X15200000Y-10414000D01*
X15240000Y-10454000D01*
X15240000Y-10709000D02*
X15280000Y-10669000D01*
X15240000Y-10629000D01*
X15200000Y-10669000D01*
X15240000Y-10709000D01*
X15240000Y-11471000D02*
X15280000Y-11431000D01*
X15240000Y-11391000D01*
X15200000Y-11431000D01*
X15240000Y-11471000D01*
X15241500Y-7278000D02*
X15281500Y-7238000D01*
X15241500Y-7198000D01*
X15201500Y-7238000D01*
X15241500Y-7278000D01*
X15241500Y-8040000D02*
X15281500Y-8000000D01*
X15241500Y-7960000D01*
X15201500Y-8000000D01*
X15241500Y-8040000D01*
X15486380Y-9938380D02*
X15526380Y-9898380D01*
X15486380Y-9858380D01*
X15446380Y-9898380D01*
X15486380Y-9938380D01*
X15490000Y-10454000D02*
X15530000Y-10414000D01*
X15490000Y-10374000D01*
X15450000Y-10414000D01*
X15490000Y-10454000D01*
X15494000Y-8676000D02*
X15534000Y-8636000D01*
X15494000Y-8596000D01*
X15454000Y-8636000D01*
X15494000Y-8676000D01*
X15494000Y-9438000D02*
X15534000Y-9398000D01*
X15494000Y-9358000D01*
X15454000Y-9398000D01*
X15494000Y-9438000D01*
X15494000Y-10709000D02*
X15534000Y-10669000D01*
X15494000Y-10629000D01*
X15454000Y-10669000D01*
X15494000Y-10709000D01*
X15494000Y-11471000D02*
X15534000Y-11431000D01*
X15494000Y-11391000D01*
X15454000Y-11431000D01*
X15494000Y-11471000D01*
X15495500Y-7278000D02*
X15535500Y-7238000D01*
X15495500Y-7198000D01*
X15455500Y-7238000D01*
X15495500Y-7278000D01*
X15495500Y-8040000D02*
X15535500Y-8000000D01*
X15495500Y-7960000D01*
X15455500Y-8000000D01*
X15495500Y-8040000D01*
X15495500Y-12106000D02*
X15535500Y-12066000D01*
X15495500Y-12026000D01*
X15455500Y-12066000D01*
X15495500Y-12106000D01*
X15740380Y-9938380D02*
X15780380Y-9898380D01*
X15740380Y-9858380D01*
X15700380Y-9898380D01*
X15740380Y-9938380D01*
X15748000Y-8676000D02*
X15788000Y-8636000D01*
X15748000Y-8596000D01*
X15708000Y-8636000D01*
X15748000Y-8676000D01*
X15748000Y-9438000D02*
X15788000Y-9398000D01*
X15748000Y-9358000D01*
X15708000Y-9398000D01*
X15748000Y-9438000D01*
X15748000Y-10709000D02*
X15788000Y-10669000D01*
X15748000Y-10629000D01*
X15708000Y-10669000D01*
X15748000Y-10709000D01*
X15748000Y-11471000D02*
X15788000Y-11431000D01*
X15748000Y-11391000D01*
X15708000Y-11431000D01*
X15748000Y-11471000D01*
X15749500Y-7278000D02*
X15789500Y-7238000D01*
X15749500Y-7198000D01*
X15709500Y-7238000D01*
X15749500Y-7278000D01*
X15749500Y-8040000D02*
X15789500Y-8000000D01*
X15749500Y-7960000D01*
X15709500Y-8000000D01*
X15749500Y-8040000D01*
X15749500Y-12106000D02*
X15789500Y-12066000D01*
X15749500Y-12026000D01*
X15709500Y-12066000D01*
X15749500Y-12106000D01*
X15994380Y-9938380D02*
X16034380Y-9898380D01*
X15994380Y-9858380D01*
X15954380Y-9898380D01*
X15994380Y-9938380D01*
X16002000Y-8676000D02*
X16042000Y-8636000D01*
X16002000Y-8596000D01*
X15962000Y-8636000D01*
X16002000Y-8676000D01*
X16002000Y-9438000D02*
X16042000Y-9398000D01*
X16002000Y-9358000D01*
X15962000Y-9398000D01*
X16002000Y-9438000D01*
X16002000Y-10709000D02*
X16042000Y-10669000D01*
X16002000Y-10629000D01*
X15962000Y-10669000D01*
X16002000Y-10709000D01*
X16002000Y-11471000D02*
X16042000Y-11431000D01*
X16002000Y-11391000D01*
X15962000Y-11431000D01*
X16002000Y-11471000D01*
X16003500Y-7278000D02*
X16043500Y-7238000D01*
X16003500Y-7198000D01*
X15963500Y-7238000D01*
X16003500Y-7278000D01*
X16003500Y-8040000D02*
X16043500Y-8000000D01*
X16003500Y-7960000D01*
X15963500Y-8000000D01*
X16003500Y-8040000D01*
X16003500Y-12106000D02*
X16043500Y-12066000D01*
X16003500Y-12026000D01*
X15963500Y-12066000D01*
X16003500Y-12106000D01*
X16248380Y-9938380D02*
X16288380Y-9898380D01*
X16248380Y-9858380D01*
X16208380Y-9898380D01*
X16248380Y-9938380D01*
X16256000Y-10709000D02*
X16296000Y-10669000D01*
X16256000Y-10629000D01*
X16216000Y-10669000D01*
X16256000Y-10709000D01*
X16256000Y-11471000D02*
X16296000Y-11431000D01*
X16256000Y-11391000D01*
X16216000Y-11431000D01*
X16256000Y-11471000D01*
X16257500Y-7278000D02*
X16297500Y-7238000D01*
X16257500Y-7198000D01*
X16217500Y-7238000D01*
X16257500Y-7278000D01*
X16257500Y-8040000D02*
X16297500Y-8000000D01*
X16257500Y-7960000D01*
X16217500Y-8000000D01*
X16257500Y-8040000D01*
X16257500Y-12106000D02*
X16297500Y-12066000D01*
X16257500Y-12026000D01*
X16217500Y-12066000D01*
X16257500Y-12106000D01*
X16502380Y-9938380D02*
X16542380Y-9898380D01*
X16502380Y-9858380D01*
X16462380Y-9898380D01*
X16502380Y-9938380D01*
X16510000Y-10709000D02*
X16550000Y-10669000D01*
X16510000Y-10629000D01*
X16470000Y-10669000D01*
X16510000Y-10709000D01*
X16510000Y-11471000D02*
X16550000Y-11431000D01*
X16510000Y-11391000D01*
X16470000Y-11431000D01*
X16510000Y-11471000D01*
X16511500Y-12106000D02*
X16551500Y-12066000D01*
X16511500Y-12026000D01*
X16471500Y-12066000D01*
X16511500Y-12106000D01*
X16700500Y-7276460D02*
X16740500Y-7236460D01*
X16700500Y-7196460D01*
X16660500Y-7236460D01*
X16700500Y-7276460D01*
X16700500Y-8038460D02*
X16740500Y-7998460D01*
X16700500Y-7958460D01*
X16660500Y-7998460D01*
X16700500Y-8038460D01*
X16756380Y-9938380D02*
X16796380Y-9898380D01*
X16756380Y-9858380D01*
X16716380Y-9898380D01*
X16756380Y-9938380D01*
X16764000Y-10709000D02*
X16804000Y-10669000D01*
X16764000Y-10629000D01*
X16724000Y-10669000D01*
X16764000Y-10709000D01*
X16764000Y-11471000D02*
X16804000Y-11431000D01*
X16764000Y-11391000D01*
X16724000Y-11431000D01*
X16764000Y-11471000D01*
X16765500Y-12106000D02*
X16805500Y-12066000D01*
X16765500Y-12026000D01*
X16725500Y-12066000D01*
X16765500Y-12106000D01*
X17010380Y-9938380D02*
X17050380Y-9898380D01*
X17010380Y-9858380D01*
X16970380Y-9898380D01*
X17010380Y-9938380D01*
X17018000Y-10709000D02*
X17058000Y-10669000D01*
X17018000Y-10629000D01*
X16978000Y-10669000D01*
X17018000Y-10709000D01*
X17018000Y-11471000D02*
X17058000Y-11431000D01*
X17018000Y-11391000D01*
X16978000Y-11431000D01*
X17018000Y-11471000D01*
X17019500Y-12106000D02*
X17059500Y-12066000D01*
X17019500Y-12026000D01*
X16979500Y-12066000D01*
X17019500Y-12106000D01*
X17264380Y-9938380D02*
X17304380Y-9898380D01*
X17264380Y-9858380D01*
X17224380Y-9898380D01*
X17264380Y-9938380D01*
X17272000Y-10709000D02*
X17312000Y-10669000D01*
X17272000Y-10629000D01*
X17232000Y-10669000D01*
X17272000Y-10709000D01*
X17272000Y-11471000D02*
X17312000Y-11431000D01*
X17272000Y-11391000D01*
X17232000Y-11431000D01*
X17272000Y-11471000D01*
X17273500Y-12106000D02*
X17313500Y-12066000D01*
X17273500Y-12026000D01*
X17233500Y-12066000D01*
X17273500Y-12106000D01*
X17518380Y-9938380D02*
X17558380Y-9898380D01*
X17518380Y-9858380D01*
X17478380Y-9898380D01*
X17518380Y-9938380D01*
X17526000Y-10709000D02*
X17566000Y-10669000D01*
X17526000Y-10629000D01*
X17486000Y-10669000D01*
X17526000Y-10709000D01*
X17526000Y-11471000D02*
X17566000Y-11431000D01*
X17526000Y-11391000D01*
X17486000Y-11431000D01*
X17526000Y-11471000D01*
X17527500Y-12106000D02*
X17567500Y-12066000D01*
X17527500Y-12026000D01*
X17487500Y-12066000D01*
X17527500Y-12106000D01*
D18*
X5009100Y-7321000D02*
X5099100Y-7411000D01*
X5099100Y-7321000D02*
X5009100Y-7411000D01*
X5099100Y-7366000D02*
G75*
G03*
X5099100Y-7366000I-45000J0D01*
G01*
X5263100Y-7321000D02*
X5353100Y-7411000D01*
X5353100Y-7321000D02*
X5263100Y-7411000D01*
X5353100Y-7366000D02*
G75*
G03*
X5353100Y-7366000I-45000J0D01*
G01*
D10*
X2744000Y-12650000D02*
X2844000Y-12750000D01*
X2844000Y-12650000D02*
X2744000Y-12750000D01*
X2794000Y-12650000D02*
X2794000Y-12750000D01*
X2744000Y-12700000D02*
X2844000Y-12700000D01*
X2744000Y-12904000D02*
X2844000Y-13004000D01*
X2844000Y-12904000D02*
X2744000Y-13004000D01*
X2794000Y-12904000D02*
X2794000Y-13004000D01*
X2744000Y-12954000D02*
X2844000Y-12954000D01*
X2998000Y-12650000D02*
X3098000Y-12750000D01*
X3098000Y-12650000D02*
X2998000Y-12750000D01*
X3048000Y-12650000D02*
X3048000Y-12750000D01*
X2998000Y-12700000D02*
X3098000Y-12700000D01*
X2998000Y-12904000D02*
X3098000Y-13004000D01*
X3098000Y-12904000D02*
X2998000Y-13004000D01*
X3048000Y-12904000D02*
X3048000Y-13004000D01*
X2998000Y-12954000D02*
X3098000Y-12954000D01*
X3252000Y-12650000D02*
X3352000Y-12750000D01*
X3352000Y-12650000D02*
X3252000Y-12750000D01*
X3302000Y-12650000D02*
X3302000Y-12750000D01*
X3252000Y-12700000D02*
X3352000Y-12700000D01*
X3252000Y-12904000D02*
X3352000Y-13004000D01*
X3352000Y-12904000D02*
X3252000Y-13004000D01*
X3302000Y-12904000D02*
X3302000Y-13004000D01*
X3252000Y-12954000D02*
X3352000Y-12954000D01*
X3285020Y-8007650D02*
X3385020Y-8107650D01*
X3385020Y-8007650D02*
X3285020Y-8107650D01*
X3335020Y-8007650D02*
X3335020Y-8107650D01*
X3285020Y-8057650D02*
X3385020Y-8057650D01*
D12*
X3285020Y-7957650D02*
X3285020Y-8157650D01*
X3385020Y-7957650D02*
X3385020Y-8157650D01*
X3285020Y-8157650D02*
G75*
G03*
X3385020Y-8157650I50000J0D01*
G01*
X3385020Y-7957650D02*
G75*
G03*
X3285020Y-7957650I-50000J0D01*
G01*
D10*
X3506000Y-12650000D02*
X3606000Y-12750000D01*
X3606000Y-12650000D02*
X3506000Y-12750000D01*
X3556000Y-12650000D02*
X3556000Y-12750000D01*
X3506000Y-12700000D02*
X3606000Y-12700000D01*
X3506000Y-12904000D02*
X3606000Y-13004000D01*
X3606000Y-12904000D02*
X3506000Y-13004000D01*
X3556000Y-12904000D02*
X3556000Y-13004000D01*
X3506000Y-12954000D02*
X3606000Y-12954000D01*
X3585020Y-8477650D02*
X3685020Y-8577650D01*
X3685020Y-8477650D02*
X3585020Y-8577650D01*
X3635020Y-8477650D02*
X3635020Y-8577650D01*
X3585020Y-8527650D02*
X3685020Y-8527650D01*
D12*
X3535020Y-8577650D02*
X3735020Y-8577650D01*
X3535020Y-8477650D02*
X3735020Y-8477650D01*
X3735020Y-8577650D02*
G75*
G03*
X3735020Y-8477650I0J50000D01*
G01*
X3535020Y-8477650D02*
G75*
G03*
X3535020Y-8577650I0J-50000D01*
G01*
D10*
X3760000Y-12650000D02*
X3860000Y-12750000D01*
X3860000Y-12650000D02*
X3760000Y-12750000D01*
X3810000Y-12650000D02*
X3810000Y-12750000D01*
X3760000Y-12700000D02*
X3860000Y-12700000D01*
X3760000Y-12904000D02*
X3860000Y-13004000D01*
X3860000Y-12904000D02*
X3760000Y-13004000D01*
X3810000Y-12904000D02*
X3810000Y-13004000D01*
X3760000Y-12954000D02*
X3860000Y-12954000D01*
X3885020Y-8007650D02*
X3985020Y-8107650D01*
X3985020Y-8007650D02*
X3885020Y-8107650D01*
X3935020Y-8007650D02*
X3935020Y-8107650D01*
X3885020Y-8057650D02*
X3985020Y-8057650D01*
D12*
X3885020Y-7957650D02*
X3885020Y-8157650D01*
X3985020Y-7957650D02*
X3985020Y-8157650D01*
X3885020Y-8157650D02*
G75*
G03*
X3985020Y-8157650I50000J0D01*
G01*
X3985020Y-7957650D02*
G75*
G03*
X3885020Y-7957650I-50000J0D01*
G01*
D10*
X4014000Y-12650000D02*
X4114000Y-12750000D01*
X4114000Y-12650000D02*
X4014000Y-12750000D01*
X4064000Y-12650000D02*
X4064000Y-12750000D01*
X4014000Y-12700000D02*
X4114000Y-12700000D01*
X4014000Y-12904000D02*
X4114000Y-13004000D01*
X4114000Y-12904000D02*
X4014000Y-13004000D01*
X4064000Y-12904000D02*
X4064000Y-13004000D01*
X4014000Y-12954000D02*
X4114000Y-12954000D01*
X4268000Y-12650000D02*
X4368000Y-12750000D01*
X4368000Y-12650000D02*
X4268000Y-12750000D01*
X4318000Y-12650000D02*
X4318000Y-12750000D01*
X4268000Y-12700000D02*
X4368000Y-12700000D01*
X4268000Y-12904000D02*
X4368000Y-13004000D01*
X4368000Y-12904000D02*
X4268000Y-13004000D01*
X4318000Y-12904000D02*
X4318000Y-13004000D01*
X4268000Y-12954000D02*
X4368000Y-12954000D01*
X4522000Y-12650000D02*
X4622000Y-12750000D01*
X4622000Y-12650000D02*
X4522000Y-12750000D01*
X4572000Y-12650000D02*
X4572000Y-12750000D01*
X4522000Y-12700000D02*
X4622000Y-12700000D01*
X4522000Y-12904000D02*
X4622000Y-13004000D01*
X4622000Y-12904000D02*
X4522000Y-13004000D01*
X4572000Y-12904000D02*
X4572000Y-13004000D01*
X4522000Y-12954000D02*
X4622000Y-12954000D01*
X4776000Y-12650000D02*
X4876000Y-12750000D01*
X4876000Y-12650000D02*
X4776000Y-12750000D01*
X4826000Y-12650000D02*
X4826000Y-12750000D01*
X4776000Y-12700000D02*
X4876000Y-12700000D01*
X4776000Y-12904000D02*
X4876000Y-13004000D01*
X4876000Y-12904000D02*
X4776000Y-13004000D01*
X4826000Y-12904000D02*
X4826000Y-13004000D01*
X4776000Y-12954000D02*
X4876000Y-12954000D01*
X5030000Y-12650000D02*
X5130000Y-12750000D01*
X5130000Y-12650000D02*
X5030000Y-12750000D01*
X5080000Y-12650000D02*
X5080000Y-12750000D01*
X5030000Y-12700000D02*
X5130000Y-12700000D01*
X5030000Y-12904000D02*
X5130000Y-13004000D01*
X5130000Y-12904000D02*
X5030000Y-13004000D01*
X5080000Y-12904000D02*
X5080000Y-13004000D01*
X5030000Y-12954000D02*
X5130000Y-12954000D01*
X5284000Y-12650000D02*
X5384000Y-12750000D01*
X5384000Y-12650000D02*
X5284000Y-12750000D01*
X5334000Y-12650000D02*
X5334000Y-12750000D01*
X5284000Y-12700000D02*
X5384000Y-12700000D01*
X5284000Y-12904000D02*
X5384000Y-13004000D01*
X5384000Y-12904000D02*
X5284000Y-13004000D01*
X5334000Y-12904000D02*
X5334000Y-13004000D01*
X5284000Y-12954000D02*
X5384000Y-12954000D01*
X5538000Y-12650000D02*
X5638000Y-12750000D01*
X5638000Y-12650000D02*
X5538000Y-12750000D01*
X5588000Y-12650000D02*
X5588000Y-12750000D01*
X5538000Y-12700000D02*
X5638000Y-12700000D01*
X5538000Y-12904000D02*
X5638000Y-13004000D01*
X5638000Y-12904000D02*
X5538000Y-13004000D01*
X5588000Y-12904000D02*
X5588000Y-13004000D01*
X5538000Y-12954000D02*
X5638000Y-12954000D01*
X5792000Y-12650000D02*
X5892000Y-12750000D01*
X5892000Y-12650000D02*
X5792000Y-12750000D01*
X5842000Y-12650000D02*
X5842000Y-12750000D01*
X5792000Y-12700000D02*
X5892000Y-12700000D01*
X5792000Y-12904000D02*
X5892000Y-13004000D01*
X5892000Y-12904000D02*
X5792000Y-13004000D01*
X5842000Y-12904000D02*
X5842000Y-13004000D01*
X5792000Y-12954000D02*
X5892000Y-12954000D01*
X6046000Y-12650000D02*
X6146000Y-12750000D01*
X6146000Y-12650000D02*
X6046000Y-12750000D01*
X6096000Y-12650000D02*
X6096000Y-12750000D01*
X6046000Y-12700000D02*
X6146000Y-12700000D01*
X6046000Y-12904000D02*
X6146000Y-13004000D01*
X6146000Y-12904000D02*
X6046000Y-13004000D01*
X6096000Y-12904000D02*
X6096000Y-13004000D01*
X6046000Y-12954000D02*
X6146000Y-12954000D01*
X6300000Y-12650000D02*
X6400000Y-12750000D01*
X6400000Y-12650000D02*
X6300000Y-12750000D01*
X6350000Y-12650000D02*
X6350000Y-12750000D01*
X6300000Y-12700000D02*
X6400000Y-12700000D01*
X6300000Y-12904000D02*
X6400000Y-13004000D01*
X6400000Y-12904000D02*
X6300000Y-13004000D01*
X6350000Y-12904000D02*
X6350000Y-13004000D01*
X6300000Y-12954000D02*
X6400000Y-12954000D01*
X6554000Y-12650000D02*
X6654000Y-12750000D01*
X6654000Y-12650000D02*
X6554000Y-12750000D01*
X6604000Y-12650000D02*
X6604000Y-12750000D01*
X6554000Y-12700000D02*
X6654000Y-12700000D01*
X6554000Y-12904000D02*
X6654000Y-13004000D01*
X6654000Y-12904000D02*
X6554000Y-13004000D01*
X6604000Y-12904000D02*
X6604000Y-13004000D01*
X6554000Y-12954000D02*
X6654000Y-12954000D01*
X6808000Y-12650000D02*
X6908000Y-12750000D01*
X6908000Y-12650000D02*
X6808000Y-12750000D01*
X6858000Y-12650000D02*
X6858000Y-12750000D01*
X6808000Y-12700000D02*
X6908000Y-12700000D01*
X6808000Y-12904000D02*
X6908000Y-13004000D01*
X6908000Y-12904000D02*
X6808000Y-13004000D01*
X6858000Y-12904000D02*
X6858000Y-13004000D01*
X6808000Y-12954000D02*
X6908000Y-12954000D01*
X7062000Y-12650000D02*
X7162000Y-12750000D01*
X7162000Y-12650000D02*
X7062000Y-12750000D01*
X7112000Y-12650000D02*
X7112000Y-12750000D01*
X7062000Y-12700000D02*
X7162000Y-12700000D01*
X7062000Y-12904000D02*
X7162000Y-13004000D01*
X7162000Y-12904000D02*
X7062000Y-13004000D01*
X7112000Y-12904000D02*
X7112000Y-13004000D01*
X7062000Y-12954000D02*
X7162000Y-12954000D01*
X7316000Y-12650000D02*
X7416000Y-12750000D01*
X7416000Y-12650000D02*
X7316000Y-12750000D01*
X7366000Y-12650000D02*
X7366000Y-12750000D01*
X7316000Y-12700000D02*
X7416000Y-12700000D01*
X7316000Y-12904000D02*
X7416000Y-13004000D01*
X7416000Y-12904000D02*
X7316000Y-13004000D01*
X7366000Y-12904000D02*
X7366000Y-13004000D01*
X7316000Y-12954000D02*
X7416000Y-12954000D01*
X7570000Y-12650000D02*
X7670000Y-12750000D01*
X7670000Y-12650000D02*
X7570000Y-12750000D01*
X7620000Y-12650000D02*
X7620000Y-12750000D01*
X7570000Y-12700000D02*
X7670000Y-12700000D01*
X7570000Y-12904000D02*
X7670000Y-13004000D01*
X7670000Y-12904000D02*
X7570000Y-13004000D01*
X7620000Y-12904000D02*
X7620000Y-13004000D01*
X7570000Y-12954000D02*
X7670000Y-12954000D01*
X7824000Y-12650000D02*
X7924000Y-12750000D01*
X7924000Y-12650000D02*
X7824000Y-12750000D01*
X7874000Y-12650000D02*
X7874000Y-12750000D01*
X7824000Y-12700000D02*
X7924000Y-12700000D01*
X7824000Y-12904000D02*
X7924000Y-13004000D01*
X7924000Y-12904000D02*
X7824000Y-13004000D01*
X7874000Y-12904000D02*
X7874000Y-13004000D01*
X7824000Y-12954000D02*
X7924000Y-12954000D01*
X8078000Y-12650000D02*
X8178000Y-12750000D01*
X8178000Y-12650000D02*
X8078000Y-12750000D01*
X8128000Y-12650000D02*
X8128000Y-12750000D01*
X8078000Y-12700000D02*
X8178000Y-12700000D01*
X8078000Y-12904000D02*
X8178000Y-13004000D01*
X8178000Y-12904000D02*
X8078000Y-13004000D01*
X8128000Y-12904000D02*
X8128000Y-13004000D01*
X8078000Y-12954000D02*
X8178000Y-12954000D01*
X8332000Y-12650000D02*
X8432000Y-12750000D01*
X8432000Y-12650000D02*
X8332000Y-12750000D01*
X8382000Y-12650000D02*
X8382000Y-12750000D01*
X8332000Y-12700000D02*
X8432000Y-12700000D01*
X8332000Y-12904000D02*
X8432000Y-13004000D01*
X8432000Y-12904000D02*
X8332000Y-13004000D01*
X8382000Y-12904000D02*
X8382000Y-13004000D01*
X8332000Y-12954000D02*
X8432000Y-12954000D01*
X8586000Y-12650000D02*
X8686000Y-12750000D01*
X8686000Y-12650000D02*
X8586000Y-12750000D01*
X8636000Y-12650000D02*
X8636000Y-12750000D01*
X8586000Y-12700000D02*
X8686000Y-12700000D01*
X8586000Y-12904000D02*
X8686000Y-13004000D01*
X8686000Y-12904000D02*
X8586000Y-13004000D01*
X8636000Y-12904000D02*
X8636000Y-13004000D01*
X8586000Y-12954000D02*
X8686000Y-12954000D01*
X8840000Y-12650000D02*
X8940000Y-12750000D01*
X8940000Y-12650000D02*
X8840000Y-12750000D01*
X8890000Y-12650000D02*
X8890000Y-12750000D01*
X8840000Y-12700000D02*
X8940000Y-12700000D01*
X8840000Y-12904000D02*
X8940000Y-13004000D01*
X8940000Y-12904000D02*
X8840000Y-13004000D01*
X8890000Y-12904000D02*
X8890000Y-13004000D01*
X8840000Y-12954000D02*
X8940000Y-12954000D01*
X9094000Y-12650000D02*
X9194000Y-12750000D01*
X9194000Y-12650000D02*
X9094000Y-12750000D01*
X9144000Y-12650000D02*
X9144000Y-12750000D01*
X9094000Y-12700000D02*
X9194000Y-12700000D01*
X9094000Y-12904000D02*
X9194000Y-13004000D01*
X9194000Y-12904000D02*
X9094000Y-13004000D01*
X9144000Y-12904000D02*
X9144000Y-13004000D01*
X9094000Y-12954000D02*
X9194000Y-12954000D01*
X9348000Y-12650000D02*
X9448000Y-12750000D01*
X9448000Y-12650000D02*
X9348000Y-12750000D01*
X9398000Y-12650000D02*
X9398000Y-12750000D01*
X9348000Y-12700000D02*
X9448000Y-12700000D01*
X9348000Y-12904000D02*
X9448000Y-13004000D01*
X9448000Y-12904000D02*
X9348000Y-13004000D01*
X9398000Y-12904000D02*
X9398000Y-13004000D01*
X9348000Y-12954000D02*
X9448000Y-12954000D01*
X9602000Y-12650000D02*
X9702000Y-12750000D01*
X9702000Y-12650000D02*
X9602000Y-12750000D01*
X9652000Y-12650000D02*
X9652000Y-12750000D01*
X9602000Y-12700000D02*
X9702000Y-12700000D01*
X9602000Y-12904000D02*
X9702000Y-13004000D01*
X9702000Y-12904000D02*
X9602000Y-13004000D01*
X9652000Y-12904000D02*
X9652000Y-13004000D01*
X9602000Y-12954000D02*
X9702000Y-12954000D01*
X9856000Y-12650000D02*
X9956000Y-12750000D01*
X9956000Y-12650000D02*
X9856000Y-12750000D01*
X9906000Y-12650000D02*
X9906000Y-12750000D01*
X9856000Y-12700000D02*
X9956000Y-12700000D01*
X9856000Y-12904000D02*
X9956000Y-13004000D01*
X9956000Y-12904000D02*
X9856000Y-13004000D01*
X9906000Y-12904000D02*
X9906000Y-13004000D01*
X9856000Y-12954000D02*
X9956000Y-12954000D01*
X10110000Y-12650000D02*
X10210000Y-12750000D01*
X10210000Y-12650000D02*
X10110000Y-12750000D01*
X10160000Y-12650000D02*
X10160000Y-12750000D01*
X10110000Y-12700000D02*
X10210000Y-12700000D01*
X10110000Y-12904000D02*
X10210000Y-13004000D01*
X10210000Y-12904000D02*
X10110000Y-13004000D01*
X10160000Y-12904000D02*
X10160000Y-13004000D01*
X10110000Y-12954000D02*
X10210000Y-12954000D01*
X10364000Y-12650000D02*
X10464000Y-12750000D01*
X10464000Y-12650000D02*
X10364000Y-12750000D01*
X10414000Y-12650000D02*
X10414000Y-12750000D01*
X10364000Y-12700000D02*
X10464000Y-12700000D01*
X10364000Y-12904000D02*
X10464000Y-13004000D01*
X10464000Y-12904000D02*
X10364000Y-13004000D01*
X10414000Y-12904000D02*
X10414000Y-13004000D01*
X10364000Y-12954000D02*
X10464000Y-12954000D01*
X10618000Y-12650000D02*
X10718000Y-12750000D01*
X10718000Y-12650000D02*
X10618000Y-12750000D01*
X10668000Y-12650000D02*
X10668000Y-12750000D01*
X10618000Y-12700000D02*
X10718000Y-12700000D01*
X10618000Y-12904000D02*
X10718000Y-13004000D01*
X10718000Y-12904000D02*
X10618000Y-13004000D01*
X10668000Y-12904000D02*
X10668000Y-13004000D01*
X10618000Y-12954000D02*
X10718000Y-12954000D01*
X10872000Y-12650000D02*
X10972000Y-12750000D01*
X10972000Y-12650000D02*
X10872000Y-12750000D01*
X10922000Y-12650000D02*
X10922000Y-12750000D01*
X10872000Y-12700000D02*
X10972000Y-12700000D01*
X10872000Y-12904000D02*
X10972000Y-13004000D01*
X10972000Y-12904000D02*
X10872000Y-13004000D01*
X10922000Y-12904000D02*
X10922000Y-13004000D01*
X10872000Y-12954000D02*
X10972000Y-12954000D01*
X11126000Y-12650000D02*
X11226000Y-12750000D01*
X11226000Y-12650000D02*
X11126000Y-12750000D01*
X11176000Y-12650000D02*
X11176000Y-12750000D01*
X11126000Y-12700000D02*
X11226000Y-12700000D01*
X11126000Y-12904000D02*
X11226000Y-13004000D01*
X11226000Y-12904000D02*
X11126000Y-13004000D01*
X11176000Y-12904000D02*
X11176000Y-13004000D01*
X11126000Y-12954000D02*
X11226000Y-12954000D01*
X11380000Y-12650000D02*
X11480000Y-12750000D01*
X11480000Y-12650000D02*
X11380000Y-12750000D01*
X11430000Y-12650000D02*
X11430000Y-12750000D01*
X11380000Y-12700000D02*
X11480000Y-12700000D01*
X11380000Y-12904000D02*
X11480000Y-13004000D01*
X11480000Y-12904000D02*
X11380000Y-13004000D01*
X11430000Y-12904000D02*
X11430000Y-13004000D01*
X11380000Y-12954000D02*
X11480000Y-12954000D01*
X11634000Y-12650000D02*
X11734000Y-12750000D01*
X11734000Y-12650000D02*
X11634000Y-12750000D01*
X11684000Y-12650000D02*
X11684000Y-12750000D01*
X11634000Y-12700000D02*
X11734000Y-12700000D01*
X11634000Y-12904000D02*
X11734000Y-13004000D01*
X11734000Y-12904000D02*
X11634000Y-13004000D01*
X11684000Y-12904000D02*
X11684000Y-13004000D01*
X11634000Y-12954000D02*
X11734000Y-12954000D01*
X11888000Y-12650000D02*
X11988000Y-12750000D01*
X11988000Y-12650000D02*
X11888000Y-12750000D01*
X11938000Y-12650000D02*
X11938000Y-12750000D01*
X11888000Y-12700000D02*
X11988000Y-12700000D01*
X11888000Y-12904000D02*
X11988000Y-13004000D01*
X11988000Y-12904000D02*
X11888000Y-13004000D01*
X11938000Y-12904000D02*
X11938000Y-13004000D01*
X11888000Y-12954000D02*
X11988000Y-12954000D01*
X12142000Y-12650000D02*
X12242000Y-12750000D01*
X12242000Y-12650000D02*
X12142000Y-12750000D01*
X12192000Y-12650000D02*
X12192000Y-12750000D01*
X12142000Y-12700000D02*
X12242000Y-12700000D01*
X12142000Y-12904000D02*
X12242000Y-13004000D01*
X12242000Y-12904000D02*
X12142000Y-13004000D01*
X12192000Y-12904000D02*
X12192000Y-13004000D01*
X12142000Y-12954000D02*
X12242000Y-12954000D01*
X12396000Y-12650000D02*
X12496000Y-12750000D01*
X12496000Y-12650000D02*
X12396000Y-12750000D01*
X12446000Y-12650000D02*
X12446000Y-12750000D01*
X12396000Y-12700000D02*
X12496000Y-12700000D01*
X12396000Y-12904000D02*
X12496000Y-13004000D01*
X12496000Y-12904000D02*
X12396000Y-13004000D01*
X12446000Y-12904000D02*
X12446000Y-13004000D01*
X12396000Y-12954000D02*
X12496000Y-12954000D01*
X12650000Y-12650000D02*
X12750000Y-12750000D01*
X12750000Y-12650000D02*
X12650000Y-12750000D01*
X12700000Y-12650000D02*
X12700000Y-12750000D01*
X12650000Y-12700000D02*
X12750000Y-12700000D01*
X12650000Y-12904000D02*
X12750000Y-13004000D01*
X12750000Y-12904000D02*
X12650000Y-13004000D01*
X12700000Y-12904000D02*
X12700000Y-13004000D01*
X12650000Y-12954000D02*
X12750000Y-12954000D01*
X13158000Y-12650000D02*
X13258000Y-12750000D01*
X13258000Y-12650000D02*
X13158000Y-12750000D01*
X13208000Y-12650000D02*
X13208000Y-12750000D01*
X13158000Y-12700000D02*
X13258000Y-12700000D01*
X13158000Y-12904000D02*
X13258000Y-13004000D01*
X13258000Y-12904000D02*
X13158000Y-13004000D01*
X13208000Y-12904000D02*
X13208000Y-13004000D01*
X13158000Y-12954000D02*
X13258000Y-12954000D01*
X13412000Y-12650000D02*
X13512000Y-12750000D01*
X13512000Y-12650000D02*
X13412000Y-12750000D01*
X13462000Y-12650000D02*
X13462000Y-12750000D01*
X13412000Y-12700000D02*
X13512000Y-12700000D01*
X13412000Y-12904000D02*
X13512000Y-13004000D01*
X13512000Y-12904000D02*
X13412000Y-13004000D01*
X13462000Y-12904000D02*
X13462000Y-13004000D01*
X13412000Y-12954000D02*
X13512000Y-12954000D01*
X13666000Y-12650000D02*
X13766000Y-12750000D01*
X13766000Y-12650000D02*
X13666000Y-12750000D01*
X13716000Y-12650000D02*
X13716000Y-12750000D01*
X13666000Y-12700000D02*
X13766000Y-12700000D01*
X13666000Y-12904000D02*
X13766000Y-13004000D01*
X13766000Y-12904000D02*
X13666000Y-13004000D01*
X13716000Y-12904000D02*
X13716000Y-13004000D01*
X13666000Y-12954000D02*
X13766000Y-12954000D01*
X13920000Y-12650000D02*
X14020000Y-12750000D01*
X14020000Y-12650000D02*
X13920000Y-12750000D01*
X13970000Y-12650000D02*
X13970000Y-12750000D01*
X13920000Y-12700000D02*
X14020000Y-12700000D01*
X13920000Y-12904000D02*
X14020000Y-13004000D01*
X14020000Y-12904000D02*
X13920000Y-13004000D01*
X13970000Y-12904000D02*
X13970000Y-13004000D01*
X13920000Y-12954000D02*
X14020000Y-12954000D01*
X14174000Y-12650000D02*
X14274000Y-12750000D01*
X14274000Y-12650000D02*
X14174000Y-12750000D01*
X14224000Y-12650000D02*
X14224000Y-12750000D01*
X14174000Y-12700000D02*
X14274000Y-12700000D01*
X14174000Y-12904000D02*
X14274000Y-13004000D01*
X14274000Y-12904000D02*
X14174000Y-13004000D01*
X14224000Y-12904000D02*
X14224000Y-13004000D01*
X14174000Y-12954000D02*
X14274000Y-12954000D01*
X14428000Y-12650000D02*
X14528000Y-12750000D01*
X14528000Y-12650000D02*
X14428000Y-12750000D01*
X14478000Y-12650000D02*
X14478000Y-12750000D01*
X14428000Y-12700000D02*
X14528000Y-12700000D01*
X14428000Y-12904000D02*
X14528000Y-13004000D01*
X14528000Y-12904000D02*
X14428000Y-13004000D01*
X14478000Y-12904000D02*
X14478000Y-13004000D01*
X14428000Y-12954000D02*
X14528000Y-12954000D01*
X14682000Y-12650000D02*
X14782000Y-12750000D01*
X14782000Y-12650000D02*
X14682000Y-12750000D01*
X14732000Y-12650000D02*
X14732000Y-12750000D01*
X14682000Y-12700000D02*
X14782000Y-12700000D01*
X14682000Y-12904000D02*
X14782000Y-13004000D01*
X14782000Y-12904000D02*
X14682000Y-13004000D01*
X14732000Y-12904000D02*
X14732000Y-13004000D01*
X14682000Y-12954000D02*
X14782000Y-12954000D01*
X14936000Y-12650000D02*
X15036000Y-12750000D01*
X15036000Y-12650000D02*
X14936000Y-12750000D01*
X14986000Y-12650000D02*
X14986000Y-12750000D01*
X14936000Y-12700000D02*
X15036000Y-12700000D01*
X14936000Y-12904000D02*
X15036000Y-13004000D01*
X15036000Y-12904000D02*
X14936000Y-13004000D01*
X14986000Y-12904000D02*
X14986000Y-13004000D01*
X14936000Y-12954000D02*
X15036000Y-12954000D01*
X15190000Y-12650000D02*
X15290000Y-12750000D01*
X15290000Y-12650000D02*
X15190000Y-12750000D01*
X15240000Y-12650000D02*
X15240000Y-12750000D01*
X15190000Y-12700000D02*
X15290000Y-12700000D01*
X15190000Y-12904000D02*
X15290000Y-13004000D01*
X15290000Y-12904000D02*
X15190000Y-13004000D01*
X15240000Y-12904000D02*
X15240000Y-13004000D01*
X15190000Y-12954000D02*
X15290000Y-12954000D01*
X15444000Y-12650000D02*
X15544000Y-12750000D01*
X15544000Y-12650000D02*
X15444000Y-12750000D01*
X15494000Y-12650000D02*
X15494000Y-12750000D01*
X15444000Y-12700000D02*
X15544000Y-12700000D01*
X15444000Y-12904000D02*
X15544000Y-13004000D01*
X15544000Y-12904000D02*
X15444000Y-13004000D01*
X15494000Y-12904000D02*
X15494000Y-13004000D01*
X15444000Y-12954000D02*
X15544000Y-12954000D01*
X15698000Y-12650000D02*
X15798000Y-12750000D01*
X15798000Y-12650000D02*
X15698000Y-12750000D01*
X15748000Y-12650000D02*
X15748000Y-12750000D01*
X15698000Y-12700000D02*
X15798000Y-12700000D01*
X15698000Y-12904000D02*
X15798000Y-13004000D01*
X15798000Y-12904000D02*
X15698000Y-13004000D01*
X15748000Y-12904000D02*
X15748000Y-13004000D01*
X15698000Y-12954000D02*
X15798000Y-12954000D01*
X15952000Y-12650000D02*
X16052000Y-12750000D01*
X16052000Y-12650000D02*
X15952000Y-12750000D01*
X16002000Y-12650000D02*
X16002000Y-12750000D01*
X15952000Y-12700000D02*
X16052000Y-12700000D01*
X15952000Y-12904000D02*
X16052000Y-13004000D01*
X16052000Y-12904000D02*
X15952000Y-13004000D01*
X16002000Y-12904000D02*
X16002000Y-13004000D01*
X15952000Y-12954000D02*
X16052000Y-12954000D01*
X16206000Y-12650000D02*
X16306000Y-12750000D01*
X16306000Y-12650000D02*
X16206000Y-12750000D01*
X16256000Y-12650000D02*
X16256000Y-12750000D01*
X16206000Y-12700000D02*
X16306000Y-12700000D01*
X16206000Y-12904000D02*
X16306000Y-13004000D01*
X16306000Y-12904000D02*
X16206000Y-13004000D01*
X16256000Y-12904000D02*
X16256000Y-13004000D01*
X16206000Y-12954000D02*
X16306000Y-12954000D01*
X16460000Y-12650000D02*
X16560000Y-12750000D01*
X16560000Y-12650000D02*
X16460000Y-12750000D01*
X16510000Y-12650000D02*
X16510000Y-12750000D01*
X16460000Y-12700000D02*
X16560000Y-12700000D01*
X16460000Y-12904000D02*
X16560000Y-13004000D01*
X16560000Y-12904000D02*
X16460000Y-13004000D01*
X16510000Y-12904000D02*
X16510000Y-13004000D01*
X16460000Y-12954000D02*
X16560000Y-12954000D01*
X16714000Y-12650000D02*
X16814000Y-12750000D01*
X16814000Y-12650000D02*
X16714000Y-12750000D01*
X16764000Y-12650000D02*
X16764000Y-12750000D01*
X16714000Y-12700000D02*
X16814000Y-12700000D01*
X16714000Y-12904000D02*
X16814000Y-13004000D01*
X16814000Y-12904000D02*
X16714000Y-13004000D01*
X16764000Y-12904000D02*
X16764000Y-13004000D01*
X16714000Y-12954000D02*
X16814000Y-12954000D01*
X16968000Y-12650000D02*
X17068000Y-12750000D01*
X17068000Y-12650000D02*
X16968000Y-12750000D01*
X17018000Y-12650000D02*
X17018000Y-12750000D01*
X16968000Y-12700000D02*
X17068000Y-12700000D01*
X16968000Y-12904000D02*
X17068000Y-13004000D01*
X17068000Y-12904000D02*
X16968000Y-13004000D01*
X17018000Y-12904000D02*
X17018000Y-13004000D01*
X16968000Y-12954000D02*
X17068000Y-12954000D01*
X17222000Y-12650000D02*
X17322000Y-12750000D01*
X17322000Y-12650000D02*
X17222000Y-12750000D01*
X17272000Y-12650000D02*
X17272000Y-12750000D01*
X17222000Y-12700000D02*
X17322000Y-12700000D01*
X17222000Y-12904000D02*
X17322000Y-13004000D01*
X17322000Y-12904000D02*
X17222000Y-13004000D01*
X17272000Y-12904000D02*
X17272000Y-13004000D01*
X17222000Y-12954000D02*
X17322000Y-12954000D01*
X17476000Y-12650000D02*
X17576000Y-12750000D01*
X17576000Y-12650000D02*
X17476000Y-12750000D01*
X17526000Y-12650000D02*
X17526000Y-12750000D01*
X17476000Y-12700000D02*
X17576000Y-12700000D01*
X17476000Y-12904000D02*
X17576000Y-13004000D01*
X17576000Y-12904000D02*
X17476000Y-13004000D01*
X17526000Y-12904000D02*
X17526000Y-13004000D01*
X17476000Y-12954000D02*
X17576000Y-12954000D01*
D19*
X2802500Y-11353200D02*
X2912500Y-11463200D01*
X2912500Y-11353200D02*
X2802500Y-11463200D01*
X2896391Y-11447091D02*
X2896391Y-11369309D01*
X2818609Y-11369309D01*
X2818609Y-11447091D01*
X2896391Y-11447091D01*
X2802500Y-11803200D02*
X2912500Y-11913200D01*
X2912500Y-11803200D02*
X2802500Y-11913200D01*
X2896391Y-11897091D02*
X2896391Y-11819309D01*
X2818609Y-11819309D01*
X2818609Y-11897091D01*
X2896391Y-11897091D01*
X3452500Y-11353200D02*
X3562500Y-11463200D01*
X3562500Y-11353200D02*
X3452500Y-11463200D01*
X3546391Y-11447091D02*
X3546391Y-11369309D01*
X3468609Y-11369309D01*
X3468609Y-11447091D01*
X3546391Y-11447091D01*
X3452500Y-11803200D02*
X3562500Y-11913200D01*
X3562500Y-11803200D02*
X3452500Y-11913200D01*
X3546391Y-11897091D02*
X3546391Y-11819309D01*
X3468609Y-11819309D01*
X3468609Y-11897091D01*
X3546391Y-11897091D01*
X10943200Y-6879200D02*
X11053200Y-6989200D01*
X11053200Y-6879200D02*
X10943200Y-6989200D01*
X11037091Y-6973091D02*
X11037091Y-6895309D01*
X10959309Y-6895309D01*
X10959309Y-6973091D01*
X11037091Y-6973091D01*
X11705200Y-6879200D02*
X11815200Y-6989200D01*
X11815200Y-6879200D02*
X11705200Y-6989200D01*
X11799091Y-6973091D02*
X11799091Y-6895309D01*
X11721309Y-6895309D01*
X11721309Y-6973091D01*
X11799091Y-6973091D01*
D20*
X2888000Y-6952000D02*
X3208000Y-7272000D01*
X3208000Y-6952000D02*
X2888000Y-7272000D01*
X3048000Y-7272000D02*
X3208000Y-7112000D01*
X3048000Y-6952000D01*
X2888000Y-7112000D01*
X3048000Y-7272000D01*
X17112000Y-6952000D02*
X17432000Y-7272000D01*
X17432000Y-6952000D02*
X17112000Y-7272000D01*
X17272000Y-7272000D02*
X17432000Y-7112000D01*
X17272000Y-6952000D01*
X17112000Y-7112000D01*
X17272000Y-7272000D01*
D12*
X2792619Y-13396476D02*
X2792619Y-13196476D01*
X2840238Y-13196476D01*
X2868809Y-13206000D01*
X2887857Y-13225048D01*
X2897381Y-13244095D01*
X2906905Y-13282190D01*
X2906905Y-13310762D01*
X2897381Y-13348857D01*
X2887857Y-13367905D01*
X2868809Y-13386952D01*
X2840238Y-13396476D01*
X2792619Y-13396476D01*
X2992619Y-13396476D02*
X2992619Y-13263143D01*
X2992619Y-13301238D02*
X3002143Y-13282190D01*
X3011667Y-13272667D01*
X3030714Y-13263143D01*
X3049762Y-13263143D01*
X3116428Y-13396476D02*
X3116428Y-13263143D01*
X3116428Y-13196476D02*
X3106905Y-13206000D01*
X3116428Y-13215524D01*
X3125952Y-13206000D01*
X3116428Y-13196476D01*
X3116428Y-13215524D01*
X3240238Y-13396476D02*
X3221190Y-13386952D01*
X3211667Y-13367905D01*
X3211667Y-13196476D01*
X3345000Y-13396476D02*
X3325952Y-13386952D01*
X3316428Y-13367905D01*
X3316428Y-13196476D01*
X3573571Y-13396476D02*
X3573571Y-13196476D01*
X3640238Y-13339333D01*
X3706905Y-13196476D01*
X3706905Y-13396476D01*
X3887857Y-13396476D02*
X3887857Y-13291714D01*
X3878333Y-13272667D01*
X3859286Y-13263143D01*
X3821190Y-13263143D01*
X3802143Y-13272667D01*
X3887857Y-13386952D02*
X3868809Y-13396476D01*
X3821190Y-13396476D01*
X3802143Y-13386952D01*
X3792619Y-13367905D01*
X3792619Y-13348857D01*
X3802143Y-13329809D01*
X3821190Y-13320286D01*
X3868809Y-13320286D01*
X3887857Y-13310762D01*
X3983095Y-13263143D02*
X3983095Y-13463143D01*
X3983095Y-13272667D02*
X4002143Y-13263143D01*
X4040238Y-13263143D01*
X4059286Y-13272667D01*
X4068809Y-13282190D01*
X4078333Y-13301238D01*
X4078333Y-13358381D01*
X4068809Y-13377428D01*
X4059286Y-13386952D01*
X4040238Y-13396476D01*
X4002143Y-13396476D01*
X3983095Y-13386952D01*
X4164048Y-13377428D02*
X4173571Y-13386952D01*
X4164048Y-13396476D01*
X4154524Y-13386952D01*
X4164048Y-13377428D01*
X4164048Y-13396476D01*
X4164048Y-13272667D02*
X4173571Y-13282190D01*
X4164048Y-13291714D01*
X4154524Y-13282190D01*
X4164048Y-13272667D01*
X4164048Y-13291714D01*
D13*
X2505000Y-13711000D02*
X2535000Y-13741000D01*
X2535000Y-13711000D02*
X2505000Y-13741000D01*
D12*
X2830714Y-13616476D02*
X2849762Y-13616476D01*
X2868809Y-13626000D01*
X2878333Y-13635524D01*
X2887857Y-13654571D01*
X2897381Y-13692667D01*
X2897381Y-13740286D01*
X2887857Y-13778381D01*
X2878333Y-13797428D01*
X2868809Y-13806952D01*
X2849762Y-13816476D01*
X2830714Y-13816476D01*
X2811667Y-13806952D01*
X2802143Y-13797428D01*
X2792619Y-13778381D01*
X2783095Y-13740286D01*
X2783095Y-13692667D01*
X2792619Y-13654571D01*
X2802143Y-13635524D01*
X2811667Y-13626000D01*
X2830714Y-13616476D01*
X2983095Y-13797428D02*
X2992619Y-13806952D01*
X2983095Y-13816476D01*
X2973571Y-13806952D01*
X2983095Y-13797428D01*
X2983095Y-13816476D01*
X3059286Y-13616476D02*
X3183095Y-13616476D01*
X3116428Y-13692667D01*
X3145000Y-13692667D01*
X3164048Y-13702190D01*
X3173571Y-13711714D01*
X3183095Y-13730762D01*
X3183095Y-13778381D01*
X3173571Y-13797428D01*
X3164048Y-13806952D01*
X3145000Y-13816476D01*
X3087857Y-13816476D01*
X3068809Y-13806952D01*
X3059286Y-13797428D01*
X3306905Y-13616476D02*
X3325952Y-13616476D01*
X3345000Y-13626000D01*
X3354524Y-13635524D01*
X3364048Y-13654571D01*
X3373571Y-13692667D01*
X3373571Y-13740286D01*
X3364048Y-13778381D01*
X3354524Y-13797428D01*
X3345000Y-13806952D01*
X3325952Y-13816476D01*
X3306905Y-13816476D01*
X3287857Y-13806952D01*
X3278333Y-13797428D01*
X3268809Y-13778381D01*
X3259286Y-13740286D01*
X3259286Y-13692667D01*
X3268809Y-13654571D01*
X3278333Y-13635524D01*
X3287857Y-13626000D01*
X3306905Y-13616476D01*
X3497381Y-13616476D02*
X3516428Y-13616476D01*
X3535476Y-13626000D01*
X3545000Y-13635524D01*
X3554524Y-13654571D01*
X3564048Y-13692667D01*
X3564048Y-13740286D01*
X3554524Y-13778381D01*
X3545000Y-13797428D01*
X3535476Y-13806952D01*
X3516428Y-13816476D01*
X3497381Y-13816476D01*
X3478333Y-13806952D01*
X3468809Y-13797428D01*
X3459286Y-13778381D01*
X3449762Y-13740286D01*
X3449762Y-13692667D01*
X3459286Y-13654571D01*
X3468809Y-13635524D01*
X3478333Y-13626000D01*
X3497381Y-13616476D01*
X3649762Y-13816476D02*
X3649762Y-13683143D01*
X3649762Y-13702190D02*
X3659286Y-13692667D01*
X3678333Y-13683143D01*
X3706905Y-13683143D01*
X3725952Y-13692667D01*
X3735476Y-13711714D01*
X3735476Y-13816476D01*
X3735476Y-13711714D02*
X3745000Y-13692667D01*
X3764048Y-13683143D01*
X3792619Y-13683143D01*
X3811667Y-13692667D01*
X3821190Y-13711714D01*
X3821190Y-13816476D01*
X3916428Y-13816476D02*
X3916428Y-13683143D01*
X3916428Y-13702190D02*
X3925952Y-13692667D01*
X3945000Y-13683143D01*
X3973571Y-13683143D01*
X3992619Y-13692667D01*
X4002143Y-13711714D01*
X4002143Y-13816476D01*
X4002143Y-13711714D02*
X4011667Y-13692667D01*
X4030714Y-13683143D01*
X4059286Y-13683143D01*
X4078333Y-13692667D01*
X4087857Y-13711714D01*
X4087857Y-13816476D01*
X4478333Y-13606952D02*
X4306905Y-13864095D01*
X4735476Y-13616476D02*
X4754524Y-13616476D01*
X4773571Y-13626000D01*
X4783095Y-13635524D01*
X4792619Y-13654571D01*
X4802143Y-13692667D01*
X4802143Y-13740286D01*
X4792619Y-13778381D01*
X4783095Y-13797428D01*
X4773571Y-13806952D01*
X4754524Y-13816476D01*
X4735476Y-13816476D01*
X4716429Y-13806952D01*
X4706905Y-13797428D01*
X4697381Y-13778381D01*
X4687857Y-13740286D01*
X4687857Y-13692667D01*
X4697381Y-13654571D01*
X4706905Y-13635524D01*
X4716429Y-13626000D01*
X4735476Y-13616476D01*
X4887857Y-13797428D02*
X4897381Y-13806952D01*
X4887857Y-13816476D01*
X4878333Y-13806952D01*
X4887857Y-13797428D01*
X4887857Y-13816476D01*
X5021190Y-13616476D02*
X5040238Y-13616476D01*
X5059286Y-13626000D01*
X5068810Y-13635524D01*
X5078333Y-13654571D01*
X5087857Y-13692667D01*
X5087857Y-13740286D01*
X5078333Y-13778381D01*
X5068810Y-13797428D01*
X5059286Y-13806952D01*
X5040238Y-13816476D01*
X5021190Y-13816476D01*
X5002143Y-13806952D01*
X4992619Y-13797428D01*
X4983095Y-13778381D01*
X4973571Y-13740286D01*
X4973571Y-13692667D01*
X4983095Y-13654571D01*
X4992619Y-13635524D01*
X5002143Y-13626000D01*
X5021190Y-13616476D01*
X5278333Y-13816476D02*
X5164048Y-13816476D01*
X5221190Y-13816476D02*
X5221190Y-13616476D01*
X5202143Y-13645048D01*
X5183095Y-13664095D01*
X5164048Y-13673619D01*
X5468810Y-13816476D02*
X5354524Y-13816476D01*
X5411667Y-13816476D02*
X5411667Y-13616476D01*
X5392619Y-13645048D01*
X5373571Y-13664095D01*
X5354524Y-13673619D01*
X5583095Y-13702190D02*
X5564048Y-13692667D01*
X5554524Y-13683143D01*
X5545000Y-13664095D01*
X5545000Y-13654571D01*
X5554524Y-13635524D01*
X5564048Y-13626000D01*
X5583095Y-13616476D01*
X5621190Y-13616476D01*
X5640238Y-13626000D01*
X5649762Y-13635524D01*
X5659286Y-13654571D01*
X5659286Y-13664095D01*
X5649762Y-13683143D01*
X5640238Y-13692667D01*
X5621190Y-13702190D01*
X5583095Y-13702190D01*
X5564048Y-13711714D01*
X5554524Y-13721238D01*
X5545000Y-13740286D01*
X5545000Y-13778381D01*
X5554524Y-13797428D01*
X5564048Y-13806952D01*
X5583095Y-13816476D01*
X5621190Y-13816476D01*
X5640238Y-13806952D01*
X5649762Y-13797428D01*
X5659286Y-13778381D01*
X5659286Y-13740286D01*
X5649762Y-13721238D01*
X5640238Y-13711714D01*
X5621190Y-13702190D01*
X5735476Y-13616476D02*
X5735476Y-13654571D01*
X5811667Y-13616476D02*
X5811667Y-13654571D01*
X6106905Y-13892667D02*
X6097381Y-13883143D01*
X6078333Y-13854571D01*
X6068809Y-13835524D01*
X6059286Y-13806952D01*
X6049762Y-13759333D01*
X6049762Y-13721238D01*
X6059286Y-13673619D01*
X6068809Y-13645048D01*
X6078333Y-13626000D01*
X6097381Y-13597428D01*
X6106905Y-13587905D01*
X6164048Y-13616476D02*
X6287857Y-13616476D01*
X6221190Y-13692667D01*
X6249762Y-13692667D01*
X6268809Y-13702190D01*
X6278333Y-13711714D01*
X6287857Y-13730762D01*
X6287857Y-13778381D01*
X6278333Y-13797428D01*
X6268809Y-13806952D01*
X6249762Y-13816476D01*
X6192619Y-13816476D01*
X6173571Y-13806952D01*
X6164048Y-13797428D01*
X6478333Y-13816476D02*
X6364048Y-13816476D01*
X6421190Y-13816476D02*
X6421190Y-13616476D01*
X6402143Y-13645048D01*
X6383095Y-13664095D01*
X6364048Y-13673619D01*
X6668809Y-13816476D02*
X6554524Y-13816476D01*
X6611667Y-13816476D02*
X6611667Y-13616476D01*
X6592619Y-13645048D01*
X6573571Y-13664095D01*
X6554524Y-13673619D01*
X6906905Y-13816476D02*
X6906905Y-13616476D01*
X6992619Y-13816476D02*
X6992619Y-13711714D01*
X6983095Y-13692667D01*
X6964048Y-13683143D01*
X6935476Y-13683143D01*
X6916428Y-13692667D01*
X6906905Y-13702190D01*
X7116428Y-13816476D02*
X7097381Y-13806952D01*
X7087857Y-13797428D01*
X7078333Y-13778381D01*
X7078333Y-13721238D01*
X7087857Y-13702190D01*
X7097381Y-13692667D01*
X7116428Y-13683143D01*
X7145000Y-13683143D01*
X7164048Y-13692667D01*
X7173571Y-13702190D01*
X7183095Y-13721238D01*
X7183095Y-13778381D01*
X7173571Y-13797428D01*
X7164048Y-13806952D01*
X7145000Y-13816476D01*
X7116428Y-13816476D01*
X7297381Y-13816476D02*
X7278333Y-13806952D01*
X7268809Y-13787905D01*
X7268809Y-13616476D01*
X7449762Y-13806952D02*
X7430714Y-13816476D01*
X7392619Y-13816476D01*
X7373571Y-13806952D01*
X7364048Y-13787905D01*
X7364048Y-13711714D01*
X7373571Y-13692667D01*
X7392619Y-13683143D01*
X7430714Y-13683143D01*
X7449762Y-13692667D01*
X7459286Y-13711714D01*
X7459286Y-13730762D01*
X7364048Y-13749809D01*
X7535476Y-13806952D02*
X7554524Y-13816476D01*
X7592619Y-13816476D01*
X7611667Y-13806952D01*
X7621190Y-13787905D01*
X7621190Y-13778381D01*
X7611667Y-13759333D01*
X7592619Y-13749809D01*
X7564048Y-13749809D01*
X7545000Y-13740286D01*
X7535476Y-13721238D01*
X7535476Y-13711714D01*
X7545000Y-13692667D01*
X7564048Y-13683143D01*
X7592619Y-13683143D01*
X7611667Y-13692667D01*
X7687857Y-13892667D02*
X7697381Y-13883143D01*
X7716428Y-13854571D01*
X7725952Y-13835524D01*
X7735476Y-13806952D01*
X7745000Y-13759333D01*
X7745000Y-13721238D01*
X7735476Y-13673619D01*
X7725952Y-13645048D01*
X7716428Y-13626000D01*
X7697381Y-13597428D01*
X7687857Y-13587905D01*
D14*
X2535000Y-13990000D02*
G75*
G03*
X2535000Y-13990000I-30000J0D01*
G01*
D12*
X2830714Y-13880476D02*
X2849762Y-13880476D01*
X2868809Y-13890000D01*
X2878333Y-13899524D01*
X2887857Y-13918571D01*
X2897381Y-13956667D01*
X2897381Y-14004286D01*
X2887857Y-14042381D01*
X2878333Y-14061428D01*
X2868809Y-14070952D01*
X2849762Y-14080476D01*
X2830714Y-14080476D01*
X2811667Y-14070952D01*
X2802143Y-14061428D01*
X2792619Y-14042381D01*
X2783095Y-14004286D01*
X2783095Y-13956667D01*
X2792619Y-13918571D01*
X2802143Y-13899524D01*
X2811667Y-13890000D01*
X2830714Y-13880476D01*
X2983095Y-14061428D02*
X2992619Y-14070952D01*
X2983095Y-14080476D01*
X2973571Y-14070952D01*
X2983095Y-14061428D01*
X2983095Y-14080476D01*
X3164048Y-13880476D02*
X3125952Y-13880476D01*
X3106905Y-13890000D01*
X3097381Y-13899524D01*
X3078333Y-13928095D01*
X3068809Y-13966190D01*
X3068809Y-14042381D01*
X3078333Y-14061428D01*
X3087857Y-14070952D01*
X3106905Y-14080476D01*
X3145000Y-14080476D01*
X3164048Y-14070952D01*
X3173571Y-14061428D01*
X3183095Y-14042381D01*
X3183095Y-13994762D01*
X3173571Y-13975714D01*
X3164048Y-13966190D01*
X3145000Y-13956667D01*
X3106905Y-13956667D01*
X3087857Y-13966190D01*
X3078333Y-13975714D01*
X3068809Y-13994762D01*
X3306905Y-13880476D02*
X3325952Y-13880476D01*
X3345000Y-13890000D01*
X3354524Y-13899524D01*
X3364048Y-13918571D01*
X3373571Y-13956667D01*
X3373571Y-14004286D01*
X3364048Y-14042381D01*
X3354524Y-14061428D01*
X3345000Y-14070952D01*
X3325952Y-14080476D01*
X3306905Y-14080476D01*
X3287857Y-14070952D01*
X3278333Y-14061428D01*
X3268809Y-14042381D01*
X3259286Y-14004286D01*
X3259286Y-13956667D01*
X3268809Y-13918571D01*
X3278333Y-13899524D01*
X3287857Y-13890000D01*
X3306905Y-13880476D01*
X3497381Y-13880476D02*
X3516428Y-13880476D01*
X3535476Y-13890000D01*
X3545000Y-13899524D01*
X3554524Y-13918571D01*
X3564048Y-13956667D01*
X3564048Y-14004286D01*
X3554524Y-14042381D01*
X3545000Y-14061428D01*
X3535476Y-14070952D01*
X3516428Y-14080476D01*
X3497381Y-14080476D01*
X3478333Y-14070952D01*
X3468809Y-14061428D01*
X3459286Y-14042381D01*
X3449762Y-14004286D01*
X3449762Y-13956667D01*
X3459286Y-13918571D01*
X3468809Y-13899524D01*
X3478333Y-13890000D01*
X3497381Y-13880476D01*
X3649762Y-14080476D02*
X3649762Y-13947143D01*
X3649762Y-13966190D02*
X3659286Y-13956667D01*
X3678333Y-13947143D01*
X3706905Y-13947143D01*
X3725952Y-13956667D01*
X3735476Y-13975714D01*
X3735476Y-14080476D01*
X3735476Y-13975714D02*
X3745000Y-13956667D01*
X3764048Y-13947143D01*
X3792619Y-13947143D01*
X3811667Y-13956667D01*
X3821190Y-13975714D01*
X3821190Y-14080476D01*
X3916428Y-14080476D02*
X3916428Y-13947143D01*
X3916428Y-13966190D02*
X3925952Y-13956667D01*
X3945000Y-13947143D01*
X3973571Y-13947143D01*
X3992619Y-13956667D01*
X4002143Y-13975714D01*
X4002143Y-14080476D01*
X4002143Y-13975714D02*
X4011667Y-13956667D01*
X4030714Y-13947143D01*
X4059286Y-13947143D01*
X4078333Y-13956667D01*
X4087857Y-13975714D01*
X4087857Y-14080476D01*
X4478333Y-13870952D02*
X4306905Y-14128095D01*
X4735476Y-13880476D02*
X4754524Y-13880476D01*
X4773571Y-13890000D01*
X4783095Y-13899524D01*
X4792619Y-13918571D01*
X4802143Y-13956667D01*
X4802143Y-14004286D01*
X4792619Y-14042381D01*
X4783095Y-14061428D01*
X4773571Y-14070952D01*
X4754524Y-14080476D01*
X4735476Y-14080476D01*
X4716429Y-14070952D01*
X4706905Y-14061428D01*
X4697381Y-14042381D01*
X4687857Y-14004286D01*
X4687857Y-13956667D01*
X4697381Y-13918571D01*
X4706905Y-13899524D01*
X4716429Y-13890000D01*
X4735476Y-13880476D01*
X4887857Y-14061428D02*
X4897381Y-14070952D01*
X4887857Y-14080476D01*
X4878333Y-14070952D01*
X4887857Y-14061428D01*
X4887857Y-14080476D01*
X5021190Y-13880476D02*
X5040238Y-13880476D01*
X5059286Y-13890000D01*
X5068810Y-13899524D01*
X5078333Y-13918571D01*
X5087857Y-13956667D01*
X5087857Y-14004286D01*
X5078333Y-14042381D01*
X5068810Y-14061428D01*
X5059286Y-14070952D01*
X5040238Y-14080476D01*
X5021190Y-14080476D01*
X5002143Y-14070952D01*
X4992619Y-14061428D01*
X4983095Y-14042381D01*
X4973571Y-14004286D01*
X4973571Y-13956667D01*
X4983095Y-13918571D01*
X4992619Y-13899524D01*
X5002143Y-13890000D01*
X5021190Y-13880476D01*
X5164048Y-13899524D02*
X5173571Y-13890000D01*
X5192619Y-13880476D01*
X5240238Y-13880476D01*
X5259286Y-13890000D01*
X5268810Y-13899524D01*
X5278333Y-13918571D01*
X5278333Y-13937619D01*
X5268810Y-13966190D01*
X5154524Y-14080476D01*
X5278333Y-14080476D01*
X5345000Y-13880476D02*
X5468810Y-13880476D01*
X5402143Y-13956667D01*
X5430714Y-13956667D01*
X5449762Y-13966190D01*
X5459286Y-13975714D01*
X5468810Y-13994762D01*
X5468810Y-14042381D01*
X5459286Y-14061428D01*
X5449762Y-14070952D01*
X5430714Y-14080476D01*
X5373571Y-14080476D01*
X5354524Y-14070952D01*
X5345000Y-14061428D01*
X5640238Y-13880476D02*
X5602143Y-13880476D01*
X5583095Y-13890000D01*
X5573571Y-13899524D01*
X5554524Y-13928095D01*
X5545000Y-13966190D01*
X5545000Y-14042381D01*
X5554524Y-14061428D01*
X5564048Y-14070952D01*
X5583095Y-14080476D01*
X5621190Y-14080476D01*
X5640238Y-14070952D01*
X5649762Y-14061428D01*
X5659286Y-14042381D01*
X5659286Y-13994762D01*
X5649762Y-13975714D01*
X5640238Y-13966190D01*
X5621190Y-13956667D01*
X5583095Y-13956667D01*
X5564048Y-13966190D01*
X5554524Y-13975714D01*
X5545000Y-13994762D01*
X5735476Y-13880476D02*
X5735476Y-13918571D01*
X5811667Y-13880476D02*
X5811667Y-13918571D01*
X6106905Y-14156667D02*
X6097381Y-14147143D01*
X6078333Y-14118571D01*
X6068809Y-14099524D01*
X6059286Y-14070952D01*
X6049762Y-14023333D01*
X6049762Y-13985238D01*
X6059286Y-13937619D01*
X6068809Y-13909048D01*
X6078333Y-13890000D01*
X6097381Y-13861428D01*
X6106905Y-13851905D01*
X6173571Y-13899524D02*
X6183095Y-13890000D01*
X6202143Y-13880476D01*
X6249762Y-13880476D01*
X6268809Y-13890000D01*
X6278333Y-13899524D01*
X6287857Y-13918571D01*
X6287857Y-13937619D01*
X6278333Y-13966190D01*
X6164048Y-14080476D01*
X6287857Y-14080476D01*
X6525952Y-14080476D02*
X6525952Y-13880476D01*
X6611667Y-14080476D02*
X6611667Y-13975714D01*
X6602143Y-13956667D01*
X6583095Y-13947143D01*
X6554524Y-13947143D01*
X6535476Y-13956667D01*
X6525952Y-13966190D01*
X6735476Y-14080476D02*
X6716428Y-14070952D01*
X6706905Y-14061428D01*
X6697381Y-14042381D01*
X6697381Y-13985238D01*
X6706905Y-13966190D01*
X6716428Y-13956667D01*
X6735476Y-13947143D01*
X6764048Y-13947143D01*
X6783095Y-13956667D01*
X6792619Y-13966190D01*
X6802143Y-13985238D01*
X6802143Y-14042381D01*
X6792619Y-14061428D01*
X6783095Y-14070952D01*
X6764048Y-14080476D01*
X6735476Y-14080476D01*
X6916428Y-14080476D02*
X6897381Y-14070952D01*
X6887857Y-14051905D01*
X6887857Y-13880476D01*
X7068809Y-14070952D02*
X7049762Y-14080476D01*
X7011667Y-14080476D01*
X6992619Y-14070952D01*
X6983095Y-14051905D01*
X6983095Y-13975714D01*
X6992619Y-13956667D01*
X7011667Y-13947143D01*
X7049762Y-13947143D01*
X7068809Y-13956667D01*
X7078333Y-13975714D01*
X7078333Y-13994762D01*
X6983095Y-14013809D01*
X7154524Y-14070952D02*
X7173571Y-14080476D01*
X7211667Y-14080476D01*
X7230714Y-14070952D01*
X7240238Y-14051905D01*
X7240238Y-14042381D01*
X7230714Y-14023333D01*
X7211667Y-14013809D01*
X7183095Y-14013809D01*
X7164048Y-14004286D01*
X7154524Y-13985238D01*
X7154524Y-13975714D01*
X7164048Y-13956667D01*
X7183095Y-13947143D01*
X7211667Y-13947143D01*
X7230714Y-13956667D01*
X7306905Y-14156667D02*
X7316428Y-14147143D01*
X7335476Y-14118571D01*
X7345000Y-14099524D01*
X7354524Y-14070952D01*
X7364048Y-14023333D01*
X7364048Y-13985238D01*
X7354524Y-13937619D01*
X7345000Y-13909048D01*
X7335476Y-13890000D01*
X7316428Y-13861428D01*
X7306905Y-13851905D01*
D15*
X2500000Y-14219000D02*
X2500000Y-14289000D01*
X2465000Y-14254000D02*
X2535000Y-14254000D01*
D12*
X2830714Y-14144476D02*
X2849762Y-14144476D01*
X2868809Y-14154000D01*
X2878333Y-14163524D01*
X2887857Y-14182571D01*
X2897381Y-14220667D01*
X2897381Y-14268286D01*
X2887857Y-14306381D01*
X2878333Y-14325428D01*
X2868809Y-14334952D01*
X2849762Y-14344476D01*
X2830714Y-14344476D01*
X2811667Y-14334952D01*
X2802143Y-14325428D01*
X2792619Y-14306381D01*
X2783095Y-14268286D01*
X2783095Y-14220667D01*
X2792619Y-14182571D01*
X2802143Y-14163524D01*
X2811667Y-14154000D01*
X2830714Y-14144476D01*
X2983095Y-14325428D02*
X2992619Y-14334952D01*
X2983095Y-14344476D01*
X2973571Y-14334952D01*
X2983095Y-14325428D01*
X2983095Y-14344476D01*
X3059286Y-14144476D02*
X3192619Y-14144476D01*
X3106905Y-14344476D01*
X3306905Y-14144476D02*
X3325952Y-14144476D01*
X3345000Y-14154000D01*
X3354524Y-14163524D01*
X3364048Y-14182571D01*
X3373571Y-14220667D01*
X3373571Y-14268286D01*
X3364048Y-14306381D01*
X3354524Y-14325428D01*
X3345000Y-14334952D01*
X3325952Y-14344476D01*
X3306905Y-14344476D01*
X3287857Y-14334952D01*
X3278333Y-14325428D01*
X3268809Y-14306381D01*
X3259286Y-14268286D01*
X3259286Y-14220667D01*
X3268809Y-14182571D01*
X3278333Y-14163524D01*
X3287857Y-14154000D01*
X3306905Y-14144476D01*
X3497381Y-14144476D02*
X3516428Y-14144476D01*
X3535476Y-14154000D01*
X3545000Y-14163524D01*
X3554524Y-14182571D01*
X3564048Y-14220667D01*
X3564048Y-14268286D01*
X3554524Y-14306381D01*
X3545000Y-14325428D01*
X3535476Y-14334952D01*
X3516428Y-14344476D01*
X3497381Y-14344476D01*
X3478333Y-14334952D01*
X3468809Y-14325428D01*
X3459286Y-14306381D01*
X3449762Y-14268286D01*
X3449762Y-14220667D01*
X3459286Y-14182571D01*
X3468809Y-14163524D01*
X3478333Y-14154000D01*
X3497381Y-14144476D01*
X3649762Y-14344476D02*
X3649762Y-14211143D01*
X3649762Y-14230190D02*
X3659286Y-14220667D01*
X3678333Y-14211143D01*
X3706905Y-14211143D01*
X3725952Y-14220667D01*
X3735476Y-14239714D01*
X3735476Y-14344476D01*
X3735476Y-14239714D02*
X3745000Y-14220667D01*
X3764048Y-14211143D01*
X3792619Y-14211143D01*
X3811667Y-14220667D01*
X3821190Y-14239714D01*
X3821190Y-14344476D01*
X3916428Y-14344476D02*
X3916428Y-14211143D01*
X3916428Y-14230190D02*
X3925952Y-14220667D01*
X3945000Y-14211143D01*
X3973571Y-14211143D01*
X3992619Y-14220667D01*
X4002143Y-14239714D01*
X4002143Y-14344476D01*
X4002143Y-14239714D02*
X4011667Y-14220667D01*
X4030714Y-14211143D01*
X4059286Y-14211143D01*
X4078333Y-14220667D01*
X4087857Y-14239714D01*
X4087857Y-14344476D01*
X4478333Y-14134952D02*
X4306905Y-14392095D01*
X4735476Y-14144476D02*
X4754524Y-14144476D01*
X4773571Y-14154000D01*
X4783095Y-14163524D01*
X4792619Y-14182571D01*
X4802143Y-14220667D01*
X4802143Y-14268286D01*
X4792619Y-14306381D01*
X4783095Y-14325428D01*
X4773571Y-14334952D01*
X4754524Y-14344476D01*
X4735476Y-14344476D01*
X4716429Y-14334952D01*
X4706905Y-14325428D01*
X4697381Y-14306381D01*
X4687857Y-14268286D01*
X4687857Y-14220667D01*
X4697381Y-14182571D01*
X4706905Y-14163524D01*
X4716429Y-14154000D01*
X4735476Y-14144476D01*
X4887857Y-14325428D02*
X4897381Y-14334952D01*
X4887857Y-14344476D01*
X4878333Y-14334952D01*
X4887857Y-14325428D01*
X4887857Y-14344476D01*
X5021190Y-14144476D02*
X5040238Y-14144476D01*
X5059286Y-14154000D01*
X5068810Y-14163524D01*
X5078333Y-14182571D01*
X5087857Y-14220667D01*
X5087857Y-14268286D01*
X5078333Y-14306381D01*
X5068810Y-14325428D01*
X5059286Y-14334952D01*
X5040238Y-14344476D01*
X5021190Y-14344476D01*
X5002143Y-14334952D01*
X4992619Y-14325428D01*
X4983095Y-14306381D01*
X4973571Y-14268286D01*
X4973571Y-14220667D01*
X4983095Y-14182571D01*
X4992619Y-14163524D01*
X5002143Y-14154000D01*
X5021190Y-14144476D01*
X5164048Y-14163524D02*
X5173571Y-14154000D01*
X5192619Y-14144476D01*
X5240238Y-14144476D01*
X5259286Y-14154000D01*
X5268810Y-14163524D01*
X5278333Y-14182571D01*
X5278333Y-14201619D01*
X5268810Y-14230190D01*
X5154524Y-14344476D01*
X5278333Y-14344476D01*
X5345000Y-14144476D02*
X5478333Y-14144476D01*
X5392619Y-14344476D01*
X5640238Y-14144476D02*
X5602143Y-14144476D01*
X5583095Y-14154000D01*
X5573571Y-14163524D01*
X5554524Y-14192095D01*
X5545000Y-14230190D01*
X5545000Y-14306381D01*
X5554524Y-14325428D01*
X5564048Y-14334952D01*
X5583095Y-14344476D01*
X5621190Y-14344476D01*
X5640238Y-14334952D01*
X5649762Y-14325428D01*
X5659286Y-14306381D01*
X5659286Y-14258762D01*
X5649762Y-14239714D01*
X5640238Y-14230190D01*
X5621190Y-14220667D01*
X5583095Y-14220667D01*
X5564048Y-14230190D01*
X5554524Y-14239714D01*
X5545000Y-14258762D01*
X5735476Y-14144476D02*
X5735476Y-14182571D01*
X5811667Y-14144476D02*
X5811667Y-14182571D01*
X6106905Y-14420667D02*
X6097381Y-14411143D01*
X6078333Y-14382571D01*
X6068809Y-14363524D01*
X6059286Y-14334952D01*
X6049762Y-14287333D01*
X6049762Y-14249238D01*
X6059286Y-14201619D01*
X6068809Y-14173048D01*
X6078333Y-14154000D01*
X6097381Y-14125428D01*
X6106905Y-14115905D01*
X6287857Y-14344476D02*
X6173571Y-14344476D01*
X6230714Y-14344476D02*
X6230714Y-14144476D01*
X6211667Y-14173048D01*
X6192619Y-14192095D01*
X6173571Y-14201619D01*
X6468809Y-14144476D02*
X6373571Y-14144476D01*
X6364048Y-14239714D01*
X6373571Y-14230190D01*
X6392619Y-14220667D01*
X6440238Y-14220667D01*
X6459286Y-14230190D01*
X6468809Y-14239714D01*
X6478333Y-14258762D01*
X6478333Y-14306381D01*
X6468809Y-14325428D01*
X6459286Y-14334952D01*
X6440238Y-14344476D01*
X6392619Y-14344476D01*
X6373571Y-14334952D01*
X6364048Y-14325428D01*
X6716428Y-14344476D02*
X6716428Y-14144476D01*
X6802143Y-14344476D02*
X6802143Y-14239714D01*
X6792619Y-14220667D01*
X6773571Y-14211143D01*
X6745000Y-14211143D01*
X6725952Y-14220667D01*
X6716428Y-14230190D01*
X6925952Y-14344476D02*
X6906905Y-14334952D01*
X6897381Y-14325428D01*
X6887857Y-14306381D01*
X6887857Y-14249238D01*
X6897381Y-14230190D01*
X6906905Y-14220667D01*
X6925952Y-14211143D01*
X6954524Y-14211143D01*
X6973571Y-14220667D01*
X6983095Y-14230190D01*
X6992619Y-14249238D01*
X6992619Y-14306381D01*
X6983095Y-14325428D01*
X6973571Y-14334952D01*
X6954524Y-14344476D01*
X6925952Y-14344476D01*
X7106905Y-14344476D02*
X7087857Y-14334952D01*
X7078333Y-14315905D01*
X7078333Y-14144476D01*
X7259286Y-14334952D02*
X7240238Y-14344476D01*
X7202143Y-14344476D01*
X7183095Y-14334952D01*
X7173571Y-14315905D01*
X7173571Y-14239714D01*
X7183095Y-14220667D01*
X7202143Y-14211143D01*
X7240238Y-14211143D01*
X7259286Y-14220667D01*
X7268809Y-14239714D01*
X7268809Y-14258762D01*
X7173571Y-14277809D01*
X7345000Y-14334952D02*
X7364048Y-14344476D01*
X7402143Y-14344476D01*
X7421190Y-14334952D01*
X7430714Y-14315905D01*
X7430714Y-14306381D01*
X7421190Y-14287333D01*
X7402143Y-14277809D01*
X7373571Y-14277809D01*
X7354524Y-14268286D01*
X7345000Y-14249238D01*
X7345000Y-14239714D01*
X7354524Y-14220667D01*
X7373571Y-14211143D01*
X7402143Y-14211143D01*
X7421190Y-14220667D01*
X7497381Y-14420667D02*
X7506905Y-14411143D01*
X7525952Y-14382571D01*
X7535476Y-14363524D01*
X7545000Y-14334952D01*
X7554524Y-14287333D01*
X7554524Y-14249238D01*
X7545000Y-14201619D01*
X7535476Y-14173048D01*
X7525952Y-14154000D01*
X7506905Y-14125428D01*
X7497381Y-14115905D01*
D16*
X2524017Y-14544517D02*
X2524017Y-14491483D01*
X2470983Y-14491483D01*
X2470983Y-14544517D01*
X2524017Y-14544517D01*
D12*
X2830714Y-14408476D02*
X2849762Y-14408476D01*
X2868809Y-14418000D01*
X2878333Y-14427524D01*
X2887857Y-14446571D01*
X2897381Y-14484667D01*
X2897381Y-14532286D01*
X2887857Y-14570381D01*
X2878333Y-14589428D01*
X2868809Y-14598952D01*
X2849762Y-14608476D01*
X2830714Y-14608476D01*
X2811667Y-14598952D01*
X2802143Y-14589428D01*
X2792619Y-14570381D01*
X2783095Y-14532286D01*
X2783095Y-14484667D01*
X2792619Y-14446571D01*
X2802143Y-14427524D01*
X2811667Y-14418000D01*
X2830714Y-14408476D01*
X2983095Y-14589428D02*
X2992619Y-14598952D01*
X2983095Y-14608476D01*
X2973571Y-14598952D01*
X2983095Y-14589428D01*
X2983095Y-14608476D01*
X3059286Y-14408476D02*
X3192619Y-14408476D01*
X3106905Y-14608476D01*
X3364048Y-14408476D02*
X3268809Y-14408476D01*
X3259286Y-14503714D01*
X3268809Y-14494190D01*
X3287857Y-14484667D01*
X3335476Y-14484667D01*
X3354524Y-14494190D01*
X3364048Y-14503714D01*
X3373571Y-14522762D01*
X3373571Y-14570381D01*
X3364048Y-14589428D01*
X3354524Y-14598952D01*
X3335476Y-14608476D01*
X3287857Y-14608476D01*
X3268809Y-14598952D01*
X3259286Y-14589428D01*
X3497381Y-14408476D02*
X3516428Y-14408476D01*
X3535476Y-14418000D01*
X3545000Y-14427524D01*
X3554524Y-14446571D01*
X3564048Y-14484667D01*
X3564048Y-14532286D01*
X3554524Y-14570381D01*
X3545000Y-14589428D01*
X3535476Y-14598952D01*
X3516428Y-14608476D01*
X3497381Y-14608476D01*
X3478333Y-14598952D01*
X3468809Y-14589428D01*
X3459286Y-14570381D01*
X3449762Y-14532286D01*
X3449762Y-14484667D01*
X3459286Y-14446571D01*
X3468809Y-14427524D01*
X3478333Y-14418000D01*
X3497381Y-14408476D01*
X3649762Y-14608476D02*
X3649762Y-14475143D01*
X3649762Y-14494190D02*
X3659286Y-14484667D01*
X3678333Y-14475143D01*
X3706905Y-14475143D01*
X3725952Y-14484667D01*
X3735476Y-14503714D01*
X3735476Y-14608476D01*
X3735476Y-14503714D02*
X3745000Y-14484667D01*
X3764048Y-14475143D01*
X3792619Y-14475143D01*
X3811667Y-14484667D01*
X3821190Y-14503714D01*
X3821190Y-14608476D01*
X3916428Y-14608476D02*
X3916428Y-14475143D01*
X3916428Y-14494190D02*
X3925952Y-14484667D01*
X3945000Y-14475143D01*
X3973571Y-14475143D01*
X3992619Y-14484667D01*
X4002143Y-14503714D01*
X4002143Y-14608476D01*
X4002143Y-14503714D02*
X4011667Y-14484667D01*
X4030714Y-14475143D01*
X4059286Y-14475143D01*
X4078333Y-14484667D01*
X4087857Y-14503714D01*
X4087857Y-14608476D01*
X4478333Y-14398952D02*
X4306905Y-14656095D01*
X4735476Y-14408476D02*
X4754524Y-14408476D01*
X4773571Y-14418000D01*
X4783095Y-14427524D01*
X4792619Y-14446571D01*
X4802143Y-14484667D01*
X4802143Y-14532286D01*
X4792619Y-14570381D01*
X4783095Y-14589428D01*
X4773571Y-14598952D01*
X4754524Y-14608476D01*
X4735476Y-14608476D01*
X4716429Y-14598952D01*
X4706905Y-14589428D01*
X4697381Y-14570381D01*
X4687857Y-14532286D01*
X4687857Y-14484667D01*
X4697381Y-14446571D01*
X4706905Y-14427524D01*
X4716429Y-14418000D01*
X4735476Y-14408476D01*
X4887857Y-14589428D02*
X4897381Y-14598952D01*
X4887857Y-14608476D01*
X4878333Y-14598952D01*
X4887857Y-14589428D01*
X4887857Y-14608476D01*
X5021190Y-14408476D02*
X5040238Y-14408476D01*
X5059286Y-14418000D01*
X5068810Y-14427524D01*
X5078333Y-14446571D01*
X5087857Y-14484667D01*
X5087857Y-14532286D01*
X5078333Y-14570381D01*
X5068810Y-14589428D01*
X5059286Y-14598952D01*
X5040238Y-14608476D01*
X5021190Y-14608476D01*
X5002143Y-14598952D01*
X4992619Y-14589428D01*
X4983095Y-14570381D01*
X4973571Y-14532286D01*
X4973571Y-14484667D01*
X4983095Y-14446571D01*
X4992619Y-14427524D01*
X5002143Y-14418000D01*
X5021190Y-14408476D01*
X5164048Y-14427524D02*
X5173571Y-14418000D01*
X5192619Y-14408476D01*
X5240238Y-14408476D01*
X5259286Y-14418000D01*
X5268810Y-14427524D01*
X5278333Y-14446571D01*
X5278333Y-14465619D01*
X5268810Y-14494190D01*
X5154524Y-14608476D01*
X5278333Y-14608476D01*
X5373571Y-14608476D02*
X5411667Y-14608476D01*
X5430714Y-14598952D01*
X5440238Y-14589428D01*
X5459286Y-14560857D01*
X5468810Y-14522762D01*
X5468810Y-14446571D01*
X5459286Y-14427524D01*
X5449762Y-14418000D01*
X5430714Y-14408476D01*
X5392619Y-14408476D01*
X5373571Y-14418000D01*
X5364048Y-14427524D01*
X5354524Y-14446571D01*
X5354524Y-14494190D01*
X5364048Y-14513238D01*
X5373571Y-14522762D01*
X5392619Y-14532286D01*
X5430714Y-14532286D01*
X5449762Y-14522762D01*
X5459286Y-14513238D01*
X5468810Y-14494190D01*
X5649762Y-14408476D02*
X5554524Y-14408476D01*
X5545000Y-14503714D01*
X5554524Y-14494190D01*
X5573571Y-14484667D01*
X5621190Y-14484667D01*
X5640238Y-14494190D01*
X5649762Y-14503714D01*
X5659286Y-14522762D01*
X5659286Y-14570381D01*
X5649762Y-14589428D01*
X5640238Y-14598952D01*
X5621190Y-14608476D01*
X5573571Y-14608476D01*
X5554524Y-14598952D01*
X5545000Y-14589428D01*
X5735476Y-14408476D02*
X5735476Y-14446571D01*
X5811667Y-14408476D02*
X5811667Y-14446571D01*
X6106905Y-14684667D02*
X6097381Y-14675143D01*
X6078333Y-14646571D01*
X6068809Y-14627524D01*
X6059286Y-14598952D01*
X6049762Y-14551333D01*
X6049762Y-14513238D01*
X6059286Y-14465619D01*
X6068809Y-14437048D01*
X6078333Y-14418000D01*
X6097381Y-14389428D01*
X6106905Y-14379905D01*
X6164048Y-14408476D02*
X6287857Y-14408476D01*
X6221190Y-14484667D01*
X6249762Y-14484667D01*
X6268809Y-14494190D01*
X6278333Y-14503714D01*
X6287857Y-14522762D01*
X6287857Y-14570381D01*
X6278333Y-14589428D01*
X6268809Y-14598952D01*
X6249762Y-14608476D01*
X6192619Y-14608476D01*
X6173571Y-14598952D01*
X6164048Y-14589428D01*
X6525952Y-14608476D02*
X6525952Y-14408476D01*
X6611667Y-14608476D02*
X6611667Y-14503714D01*
X6602143Y-14484667D01*
X6583095Y-14475143D01*
X6554524Y-14475143D01*
X6535476Y-14484667D01*
X6525952Y-14494190D01*
X6735476Y-14608476D02*
X6716428Y-14598952D01*
X6706905Y-14589428D01*
X6697381Y-14570381D01*
X6697381Y-14513238D01*
X6706905Y-14494190D01*
X6716428Y-14484667D01*
X6735476Y-14475143D01*
X6764048Y-14475143D01*
X6783095Y-14484667D01*
X6792619Y-14494190D01*
X6802143Y-14513238D01*
X6802143Y-14570381D01*
X6792619Y-14589428D01*
X6783095Y-14598952D01*
X6764048Y-14608476D01*
X6735476Y-14608476D01*
X6916428Y-14608476D02*
X6897381Y-14598952D01*
X6887857Y-14579905D01*
X6887857Y-14408476D01*
X7068809Y-14598952D02*
X7049762Y-14608476D01*
X7011667Y-14608476D01*
X6992619Y-14598952D01*
X6983095Y-14579905D01*
X6983095Y-14503714D01*
X6992619Y-14484667D01*
X7011667Y-14475143D01*
X7049762Y-14475143D01*
X7068809Y-14484667D01*
X7078333Y-14503714D01*
X7078333Y-14522762D01*
X6983095Y-14541809D01*
X7154524Y-14598952D02*
X7173571Y-14608476D01*
X7211667Y-14608476D01*
X7230714Y-14598952D01*
X7240238Y-14579905D01*
X7240238Y-14570381D01*
X7230714Y-14551333D01*
X7211667Y-14541809D01*
X7183095Y-14541809D01*
X7164048Y-14532286D01*
X7154524Y-14513238D01*
X7154524Y-14503714D01*
X7164048Y-14484667D01*
X7183095Y-14475143D01*
X7211667Y-14475143D01*
X7230714Y-14484667D01*
X7306905Y-14684667D02*
X7316428Y-14675143D01*
X7335476Y-14646571D01*
X7345000Y-14627524D01*
X7354524Y-14598952D01*
X7364048Y-14551333D01*
X7364048Y-14513238D01*
X7354524Y-14465619D01*
X7345000Y-14437048D01*
X7335476Y-14418000D01*
X7316428Y-14389428D01*
X7306905Y-14379905D01*
D17*
X2495000Y-14822000D02*
X2535000Y-14782000D01*
X2495000Y-14742000D01*
X2455000Y-14782000D01*
X2495000Y-14822000D01*
D12*
X2830714Y-14672476D02*
X2849762Y-14672476D01*
X2868809Y-14682000D01*
X2878333Y-14691524D01*
X2887857Y-14710571D01*
X2897381Y-14748667D01*
X2897381Y-14796286D01*
X2887857Y-14834381D01*
X2878333Y-14853428D01*
X2868809Y-14862952D01*
X2849762Y-14872476D01*
X2830714Y-14872476D01*
X2811667Y-14862952D01*
X2802143Y-14853428D01*
X2792619Y-14834381D01*
X2783095Y-14796286D01*
X2783095Y-14748667D01*
X2792619Y-14710571D01*
X2802143Y-14691524D01*
X2811667Y-14682000D01*
X2830714Y-14672476D01*
X2983095Y-14853428D02*
X2992619Y-14862952D01*
X2983095Y-14872476D01*
X2973571Y-14862952D01*
X2983095Y-14853428D01*
X2983095Y-14872476D01*
X3106905Y-14758190D02*
X3087857Y-14748667D01*
X3078333Y-14739143D01*
X3068809Y-14720095D01*
X3068809Y-14710571D01*
X3078333Y-14691524D01*
X3087857Y-14682000D01*
X3106905Y-14672476D01*
X3145000Y-14672476D01*
X3164048Y-14682000D01*
X3173571Y-14691524D01*
X3183095Y-14710571D01*
X3183095Y-14720095D01*
X3173571Y-14739143D01*
X3164048Y-14748667D01*
X3145000Y-14758190D01*
X3106905Y-14758190D01*
X3087857Y-14767714D01*
X3078333Y-14777238D01*
X3068809Y-14796286D01*
X3068809Y-14834381D01*
X3078333Y-14853428D01*
X3087857Y-14862952D01*
X3106905Y-14872476D01*
X3145000Y-14872476D01*
X3164048Y-14862952D01*
X3173571Y-14853428D01*
X3183095Y-14834381D01*
X3183095Y-14796286D01*
X3173571Y-14777238D01*
X3164048Y-14767714D01*
X3145000Y-14758190D01*
X3306905Y-14672476D02*
X3325952Y-14672476D01*
X3345000Y-14682000D01*
X3354524Y-14691524D01*
X3364048Y-14710571D01*
X3373571Y-14748667D01*
X3373571Y-14796286D01*
X3364048Y-14834381D01*
X3354524Y-14853428D01*
X3345000Y-14862952D01*
X3325952Y-14872476D01*
X3306905Y-14872476D01*
X3287857Y-14862952D01*
X3278333Y-14853428D01*
X3268809Y-14834381D01*
X3259286Y-14796286D01*
X3259286Y-14748667D01*
X3268809Y-14710571D01*
X3278333Y-14691524D01*
X3287857Y-14682000D01*
X3306905Y-14672476D01*
X3497381Y-14672476D02*
X3516428Y-14672476D01*
X3535476Y-14682000D01*
X3545000Y-14691524D01*
X3554524Y-14710571D01*
X3564048Y-14748667D01*
X3564048Y-14796286D01*
X3554524Y-14834381D01*
X3545000Y-14853428D01*
X3535476Y-14862952D01*
X3516428Y-14872476D01*
X3497381Y-14872476D01*
X3478333Y-14862952D01*
X3468809Y-14853428D01*
X3459286Y-14834381D01*
X3449762Y-14796286D01*
X3449762Y-14748667D01*
X3459286Y-14710571D01*
X3468809Y-14691524D01*
X3478333Y-14682000D01*
X3497381Y-14672476D01*
X3649762Y-14872476D02*
X3649762Y-14739143D01*
X3649762Y-14758190D02*
X3659286Y-14748667D01*
X3678333Y-14739143D01*
X3706905Y-14739143D01*
X3725952Y-14748667D01*
X3735476Y-14767714D01*
X3735476Y-14872476D01*
X3735476Y-14767714D02*
X3745000Y-14748667D01*
X3764048Y-14739143D01*
X3792619Y-14739143D01*
X3811667Y-14748667D01*
X3821190Y-14767714D01*
X3821190Y-14872476D01*
X3916428Y-14872476D02*
X3916428Y-14739143D01*
X3916428Y-14758190D02*
X3925952Y-14748667D01*
X3945000Y-14739143D01*
X3973571Y-14739143D01*
X3992619Y-14748667D01*
X4002143Y-14767714D01*
X4002143Y-14872476D01*
X4002143Y-14767714D02*
X4011667Y-14748667D01*
X4030714Y-14739143D01*
X4059286Y-14739143D01*
X4078333Y-14748667D01*
X4087857Y-14767714D01*
X4087857Y-14872476D01*
X4478333Y-14662952D02*
X4306905Y-14920095D01*
X4735476Y-14672476D02*
X4754524Y-14672476D01*
X4773571Y-14682000D01*
X4783095Y-14691524D01*
X4792619Y-14710571D01*
X4802143Y-14748667D01*
X4802143Y-14796286D01*
X4792619Y-14834381D01*
X4783095Y-14853428D01*
X4773571Y-14862952D01*
X4754524Y-14872476D01*
X4735476Y-14872476D01*
X4716429Y-14862952D01*
X4706905Y-14853428D01*
X4697381Y-14834381D01*
X4687857Y-14796286D01*
X4687857Y-14748667D01*
X4697381Y-14710571D01*
X4706905Y-14691524D01*
X4716429Y-14682000D01*
X4735476Y-14672476D01*
X4887857Y-14853428D02*
X4897381Y-14862952D01*
X4887857Y-14872476D01*
X4878333Y-14862952D01*
X4887857Y-14853428D01*
X4887857Y-14872476D01*
X5021190Y-14672476D02*
X5040238Y-14672476D01*
X5059286Y-14682000D01*
X5068810Y-14691524D01*
X5078333Y-14710571D01*
X5087857Y-14748667D01*
X5087857Y-14796286D01*
X5078333Y-14834381D01*
X5068810Y-14853428D01*
X5059286Y-14862952D01*
X5040238Y-14872476D01*
X5021190Y-14872476D01*
X5002143Y-14862952D01*
X4992619Y-14853428D01*
X4983095Y-14834381D01*
X4973571Y-14796286D01*
X4973571Y-14748667D01*
X4983095Y-14710571D01*
X4992619Y-14691524D01*
X5002143Y-14682000D01*
X5021190Y-14672476D01*
X5154524Y-14672476D02*
X5278333Y-14672476D01*
X5211667Y-14748667D01*
X5240238Y-14748667D01*
X5259286Y-14758190D01*
X5268810Y-14767714D01*
X5278333Y-14786762D01*
X5278333Y-14834381D01*
X5268810Y-14853428D01*
X5259286Y-14862952D01*
X5240238Y-14872476D01*
X5183095Y-14872476D01*
X5164048Y-14862952D01*
X5154524Y-14853428D01*
X5468810Y-14872476D02*
X5354524Y-14872476D01*
X5411667Y-14872476D02*
X5411667Y-14672476D01*
X5392619Y-14701048D01*
X5373571Y-14720095D01*
X5354524Y-14729619D01*
X5649762Y-14672476D02*
X5554524Y-14672476D01*
X5545000Y-14767714D01*
X5554524Y-14758190D01*
X5573571Y-14748667D01*
X5621190Y-14748667D01*
X5640238Y-14758190D01*
X5649762Y-14767714D01*
X5659286Y-14786762D01*
X5659286Y-14834381D01*
X5649762Y-14853428D01*
X5640238Y-14862952D01*
X5621190Y-14872476D01*
X5573571Y-14872476D01*
X5554524Y-14862952D01*
X5545000Y-14853428D01*
X5735476Y-14672476D02*
X5735476Y-14710571D01*
X5811667Y-14672476D02*
X5811667Y-14710571D01*
X6106905Y-14948667D02*
X6097381Y-14939143D01*
X6078333Y-14910571D01*
X6068809Y-14891524D01*
X6059286Y-14862952D01*
X6049762Y-14815333D01*
X6049762Y-14777238D01*
X6059286Y-14729619D01*
X6068809Y-14701048D01*
X6078333Y-14682000D01*
X6097381Y-14653428D01*
X6106905Y-14643905D01*
X6164048Y-14672476D02*
X6287857Y-14672476D01*
X6221190Y-14748667D01*
X6249762Y-14748667D01*
X6268809Y-14758190D01*
X6278333Y-14767714D01*
X6287857Y-14786762D01*
X6287857Y-14834381D01*
X6278333Y-14853428D01*
X6268809Y-14862952D01*
X6249762Y-14872476D01*
X6192619Y-14872476D01*
X6173571Y-14862952D01*
X6164048Y-14853428D01*
X6459286Y-14672476D02*
X6421190Y-14672476D01*
X6402143Y-14682000D01*
X6392619Y-14691524D01*
X6373571Y-14720095D01*
X6364048Y-14758190D01*
X6364048Y-14834381D01*
X6373571Y-14853428D01*
X6383095Y-14862952D01*
X6402143Y-14872476D01*
X6440238Y-14872476D01*
X6459286Y-14862952D01*
X6468809Y-14853428D01*
X6478333Y-14834381D01*
X6478333Y-14786762D01*
X6468809Y-14767714D01*
X6459286Y-14758190D01*
X6440238Y-14748667D01*
X6402143Y-14748667D01*
X6383095Y-14758190D01*
X6373571Y-14767714D01*
X6364048Y-14786762D01*
X6545000Y-14672476D02*
X6668809Y-14672476D01*
X6602143Y-14748667D01*
X6630714Y-14748667D01*
X6649762Y-14758190D01*
X6659286Y-14767714D01*
X6668809Y-14786762D01*
X6668809Y-14834381D01*
X6659286Y-14853428D01*
X6649762Y-14862952D01*
X6630714Y-14872476D01*
X6573571Y-14872476D01*
X6554524Y-14862952D01*
X6545000Y-14853428D01*
X6906905Y-14872476D02*
X6906905Y-14672476D01*
X6992619Y-14872476D02*
X6992619Y-14767714D01*
X6983095Y-14748667D01*
X6964048Y-14739143D01*
X6935476Y-14739143D01*
X6916428Y-14748667D01*
X6906905Y-14758190D01*
X7116428Y-14872476D02*
X7097381Y-14862952D01*
X7087857Y-14853428D01*
X7078333Y-14834381D01*
X7078333Y-14777238D01*
X7087857Y-14758190D01*
X7097381Y-14748667D01*
X7116428Y-14739143D01*
X7145000Y-14739143D01*
X7164048Y-14748667D01*
X7173571Y-14758190D01*
X7183095Y-14777238D01*
X7183095Y-14834381D01*
X7173571Y-14853428D01*
X7164048Y-14862952D01*
X7145000Y-14872476D01*
X7116428Y-14872476D01*
X7297381Y-14872476D02*
X7278333Y-14862952D01*
X7268809Y-14843905D01*
X7268809Y-14672476D01*
X7449762Y-14862952D02*
X7430714Y-14872476D01*
X7392619Y-14872476D01*
X7373571Y-14862952D01*
X7364048Y-14843905D01*
X7364048Y-14767714D01*
X7373571Y-14748667D01*
X7392619Y-14739143D01*
X7430714Y-14739143D01*
X7449762Y-14748667D01*
X7459286Y-14767714D01*
X7459286Y-14786762D01*
X7364048Y-14805809D01*
X7535476Y-14862952D02*
X7554524Y-14872476D01*
X7592619Y-14872476D01*
X7611667Y-14862952D01*
X7621190Y-14843905D01*
X7621190Y-14834381D01*
X7611667Y-14815333D01*
X7592619Y-14805809D01*
X7564048Y-14805809D01*
X7545000Y-14796286D01*
X7535476Y-14777238D01*
X7535476Y-14767714D01*
X7545000Y-14748667D01*
X7564048Y-14739143D01*
X7592619Y-14739143D01*
X7611667Y-14748667D01*
X7687857Y-14948667D02*
X7697381Y-14939143D01*
X7716428Y-14910571D01*
X7725952Y-14891524D01*
X7735476Y-14862952D01*
X7745000Y-14815333D01*
X7745000Y-14777238D01*
X7735476Y-14729619D01*
X7725952Y-14701048D01*
X7716428Y-14682000D01*
X7697381Y-14653428D01*
X7687857Y-14643905D01*
D18*
X2445000Y-15001000D02*
X2535000Y-15091000D01*
X2535000Y-15001000D02*
X2445000Y-15091000D01*
X2535000Y-15046000D02*
G75*
G03*
X2535000Y-15046000I-45000J0D01*
G01*
D12*
X2830714Y-14936476D02*
X2849762Y-14936476D01*
X2868809Y-14946000D01*
X2878333Y-14955524D01*
X2887857Y-14974571D01*
X2897381Y-15012667D01*
X2897381Y-15060286D01*
X2887857Y-15098381D01*
X2878333Y-15117428D01*
X2868809Y-15126952D01*
X2849762Y-15136476D01*
X2830714Y-15136476D01*
X2811667Y-15126952D01*
X2802143Y-15117428D01*
X2792619Y-15098381D01*
X2783095Y-15060286D01*
X2783095Y-15012667D01*
X2792619Y-14974571D01*
X2802143Y-14955524D01*
X2811667Y-14946000D01*
X2830714Y-14936476D01*
X2983095Y-15117428D02*
X2992619Y-15126952D01*
X2983095Y-15136476D01*
X2973571Y-15126952D01*
X2983095Y-15117428D01*
X2983095Y-15136476D01*
X3087857Y-15136476D02*
X3125952Y-15136476D01*
X3145000Y-15126952D01*
X3154524Y-15117428D01*
X3173571Y-15088857D01*
X3183095Y-15050762D01*
X3183095Y-14974571D01*
X3173571Y-14955524D01*
X3164048Y-14946000D01*
X3145000Y-14936476D01*
X3106905Y-14936476D01*
X3087857Y-14946000D01*
X3078333Y-14955524D01*
X3068809Y-14974571D01*
X3068809Y-15022190D01*
X3078333Y-15041238D01*
X3087857Y-15050762D01*
X3106905Y-15060286D01*
X3145000Y-15060286D01*
X3164048Y-15050762D01*
X3173571Y-15041238D01*
X3183095Y-15022190D01*
X3306905Y-14936476D02*
X3325952Y-14936476D01*
X3345000Y-14946000D01*
X3354524Y-14955524D01*
X3364048Y-14974571D01*
X3373571Y-15012667D01*
X3373571Y-15060286D01*
X3364048Y-15098381D01*
X3354524Y-15117428D01*
X3345000Y-15126952D01*
X3325952Y-15136476D01*
X3306905Y-15136476D01*
X3287857Y-15126952D01*
X3278333Y-15117428D01*
X3268809Y-15098381D01*
X3259286Y-15060286D01*
X3259286Y-15012667D01*
X3268809Y-14974571D01*
X3278333Y-14955524D01*
X3287857Y-14946000D01*
X3306905Y-14936476D01*
X3497381Y-14936476D02*
X3516428Y-14936476D01*
X3535476Y-14946000D01*
X3545000Y-14955524D01*
X3554524Y-14974571D01*
X3564048Y-15012667D01*
X3564048Y-15060286D01*
X3554524Y-15098381D01*
X3545000Y-15117428D01*
X3535476Y-15126952D01*
X3516428Y-15136476D01*
X3497381Y-15136476D01*
X3478333Y-15126952D01*
X3468809Y-15117428D01*
X3459286Y-15098381D01*
X3449762Y-15060286D01*
X3449762Y-15012667D01*
X3459286Y-14974571D01*
X3468809Y-14955524D01*
X3478333Y-14946000D01*
X3497381Y-14936476D01*
X3649762Y-15136476D02*
X3649762Y-15003143D01*
X3649762Y-15022190D02*
X3659286Y-15012667D01*
X3678333Y-15003143D01*
X3706905Y-15003143D01*
X3725952Y-15012667D01*
X3735476Y-15031714D01*
X3735476Y-15136476D01*
X3735476Y-15031714D02*
X3745000Y-15012667D01*
X3764048Y-15003143D01*
X3792619Y-15003143D01*
X3811667Y-15012667D01*
X3821190Y-15031714D01*
X3821190Y-15136476D01*
X3916428Y-15136476D02*
X3916428Y-15003143D01*
X3916428Y-15022190D02*
X3925952Y-15012667D01*
X3945000Y-15003143D01*
X3973571Y-15003143D01*
X3992619Y-15012667D01*
X4002143Y-15031714D01*
X4002143Y-15136476D01*
X4002143Y-15031714D02*
X4011667Y-15012667D01*
X4030714Y-15003143D01*
X4059286Y-15003143D01*
X4078333Y-15012667D01*
X4087857Y-15031714D01*
X4087857Y-15136476D01*
X4478333Y-14926952D02*
X4306905Y-15184095D01*
X4735476Y-14936476D02*
X4754524Y-14936476D01*
X4773571Y-14946000D01*
X4783095Y-14955524D01*
X4792619Y-14974571D01*
X4802143Y-15012667D01*
X4802143Y-15060286D01*
X4792619Y-15098381D01*
X4783095Y-15117428D01*
X4773571Y-15126952D01*
X4754524Y-15136476D01*
X4735476Y-15136476D01*
X4716429Y-15126952D01*
X4706905Y-15117428D01*
X4697381Y-15098381D01*
X4687857Y-15060286D01*
X4687857Y-15012667D01*
X4697381Y-14974571D01*
X4706905Y-14955524D01*
X4716429Y-14946000D01*
X4735476Y-14936476D01*
X4887857Y-15117428D02*
X4897381Y-15126952D01*
X4887857Y-15136476D01*
X4878333Y-15126952D01*
X4887857Y-15117428D01*
X4887857Y-15136476D01*
X5021190Y-14936476D02*
X5040238Y-14936476D01*
X5059286Y-14946000D01*
X5068810Y-14955524D01*
X5078333Y-14974571D01*
X5087857Y-15012667D01*
X5087857Y-15060286D01*
X5078333Y-15098381D01*
X5068810Y-15117428D01*
X5059286Y-15126952D01*
X5040238Y-15136476D01*
X5021190Y-15136476D01*
X5002143Y-15126952D01*
X4992619Y-15117428D01*
X4983095Y-15098381D01*
X4973571Y-15060286D01*
X4973571Y-15012667D01*
X4983095Y-14974571D01*
X4992619Y-14955524D01*
X5002143Y-14946000D01*
X5021190Y-14936476D01*
X5154524Y-14936476D02*
X5278333Y-14936476D01*
X5211667Y-15012667D01*
X5240238Y-15012667D01*
X5259286Y-15022190D01*
X5268810Y-15031714D01*
X5278333Y-15050762D01*
X5278333Y-15098381D01*
X5268810Y-15117428D01*
X5259286Y-15126952D01*
X5240238Y-15136476D01*
X5183095Y-15136476D01*
X5164048Y-15126952D01*
X5154524Y-15117428D01*
X5459286Y-14936476D02*
X5364048Y-14936476D01*
X5354524Y-15031714D01*
X5364048Y-15022190D01*
X5383095Y-15012667D01*
X5430714Y-15012667D01*
X5449762Y-15022190D01*
X5459286Y-15031714D01*
X5468810Y-15050762D01*
X5468810Y-15098381D01*
X5459286Y-15117428D01*
X5449762Y-15126952D01*
X5430714Y-15136476D01*
X5383095Y-15136476D01*
X5364048Y-15126952D01*
X5354524Y-15117428D01*
X5640238Y-15003143D02*
X5640238Y-15136476D01*
X5592619Y-14926952D02*
X5545000Y-15069809D01*
X5668809Y-15069809D01*
X5735476Y-14936476D02*
X5735476Y-14974571D01*
X5811667Y-14936476D02*
X5811667Y-14974571D01*
X6106905Y-15212667D02*
X6097381Y-15203143D01*
X6078333Y-15174571D01*
X6068809Y-15155524D01*
X6059286Y-15126952D01*
X6049762Y-15079333D01*
X6049762Y-15041238D01*
X6059286Y-14993619D01*
X6068809Y-14965048D01*
X6078333Y-14946000D01*
X6097381Y-14917428D01*
X6106905Y-14907905D01*
X6173571Y-14955524D02*
X6183095Y-14946000D01*
X6202143Y-14936476D01*
X6249762Y-14936476D01*
X6268809Y-14946000D01*
X6278333Y-14955524D01*
X6287857Y-14974571D01*
X6287857Y-14993619D01*
X6278333Y-15022190D01*
X6164048Y-15136476D01*
X6287857Y-15136476D01*
X6525952Y-15136476D02*
X6525952Y-14936476D01*
X6611667Y-15136476D02*
X6611667Y-15031714D01*
X6602143Y-15012667D01*
X6583095Y-15003143D01*
X6554524Y-15003143D01*
X6535476Y-15012667D01*
X6525952Y-15022190D01*
X6735476Y-15136476D02*
X6716428Y-15126952D01*
X6706905Y-15117428D01*
X6697381Y-15098381D01*
X6697381Y-15041238D01*
X6706905Y-15022190D01*
X6716428Y-15012667D01*
X6735476Y-15003143D01*
X6764048Y-15003143D01*
X6783095Y-15012667D01*
X6792619Y-15022190D01*
X6802143Y-15041238D01*
X6802143Y-15098381D01*
X6792619Y-15117428D01*
X6783095Y-15126952D01*
X6764048Y-15136476D01*
X6735476Y-15136476D01*
X6916428Y-15136476D02*
X6897381Y-15126952D01*
X6887857Y-15107905D01*
X6887857Y-14936476D01*
X7068809Y-15126952D02*
X7049762Y-15136476D01*
X7011667Y-15136476D01*
X6992619Y-15126952D01*
X6983095Y-15107905D01*
X6983095Y-15031714D01*
X6992619Y-15012667D01*
X7011667Y-15003143D01*
X7049762Y-15003143D01*
X7068809Y-15012667D01*
X7078333Y-15031714D01*
X7078333Y-15050762D01*
X6983095Y-15069809D01*
X7154524Y-15126952D02*
X7173571Y-15136476D01*
X7211667Y-15136476D01*
X7230714Y-15126952D01*
X7240238Y-15107905D01*
X7240238Y-15098381D01*
X7230714Y-15079333D01*
X7211667Y-15069809D01*
X7183095Y-15069809D01*
X7164048Y-15060286D01*
X7154524Y-15041238D01*
X7154524Y-15031714D01*
X7164048Y-15012667D01*
X7183095Y-15003143D01*
X7211667Y-15003143D01*
X7230714Y-15012667D01*
X7306905Y-15212667D02*
X7316428Y-15203143D01*
X7335476Y-15174571D01*
X7345000Y-15155524D01*
X7354524Y-15126952D01*
X7364048Y-15079333D01*
X7364048Y-15041238D01*
X7354524Y-14993619D01*
X7345000Y-14965048D01*
X7335476Y-14946000D01*
X7316428Y-14917428D01*
X7306905Y-14907905D01*
D10*
X2435000Y-15260000D02*
X2535000Y-15360000D01*
X2535000Y-15260000D02*
X2435000Y-15360000D01*
X2485000Y-15260000D02*
X2485000Y-15360000D01*
X2435000Y-15310000D02*
X2535000Y-15310000D01*
D12*
X2897381Y-15400476D02*
X2783095Y-15400476D01*
X2840238Y-15400476D02*
X2840238Y-15200476D01*
X2821190Y-15229048D01*
X2802143Y-15248095D01*
X2783095Y-15257619D01*
X2983095Y-15381428D02*
X2992619Y-15390952D01*
X2983095Y-15400476D01*
X2973571Y-15390952D01*
X2983095Y-15381428D01*
X2983095Y-15400476D01*
X3116428Y-15200476D02*
X3135476Y-15200476D01*
X3154524Y-15210000D01*
X3164048Y-15219524D01*
X3173571Y-15238571D01*
X3183095Y-15276667D01*
X3183095Y-15324286D01*
X3173571Y-15362381D01*
X3164048Y-15381428D01*
X3154524Y-15390952D01*
X3135476Y-15400476D01*
X3116428Y-15400476D01*
X3097381Y-15390952D01*
X3087857Y-15381428D01*
X3078333Y-15362381D01*
X3068809Y-15324286D01*
X3068809Y-15276667D01*
X3078333Y-15238571D01*
X3087857Y-15219524D01*
X3097381Y-15210000D01*
X3116428Y-15200476D01*
X3306905Y-15200476D02*
X3325952Y-15200476D01*
X3345000Y-15210000D01*
X3354524Y-15219524D01*
X3364048Y-15238571D01*
X3373571Y-15276667D01*
X3373571Y-15324286D01*
X3364048Y-15362381D01*
X3354524Y-15381428D01*
X3345000Y-15390952D01*
X3325952Y-15400476D01*
X3306905Y-15400476D01*
X3287857Y-15390952D01*
X3278333Y-15381428D01*
X3268809Y-15362381D01*
X3259286Y-15324286D01*
X3259286Y-15276667D01*
X3268809Y-15238571D01*
X3278333Y-15219524D01*
X3287857Y-15210000D01*
X3306905Y-15200476D01*
X3497381Y-15200476D02*
X3516428Y-15200476D01*
X3535476Y-15210000D01*
X3545000Y-15219524D01*
X3554524Y-15238571D01*
X3564048Y-15276667D01*
X3564048Y-15324286D01*
X3554524Y-15362381D01*
X3545000Y-15381428D01*
X3535476Y-15390952D01*
X3516428Y-15400476D01*
X3497381Y-15400476D01*
X3478333Y-15390952D01*
X3468809Y-15381428D01*
X3459286Y-15362381D01*
X3449762Y-15324286D01*
X3449762Y-15276667D01*
X3459286Y-15238571D01*
X3468809Y-15219524D01*
X3478333Y-15210000D01*
X3497381Y-15200476D01*
X3649762Y-15400476D02*
X3649762Y-15267143D01*
X3649762Y-15286190D02*
X3659286Y-15276667D01*
X3678333Y-15267143D01*
X3706905Y-15267143D01*
X3725952Y-15276667D01*
X3735476Y-15295714D01*
X3735476Y-15400476D01*
X3735476Y-15295714D02*
X3745000Y-15276667D01*
X3764048Y-15267143D01*
X3792619Y-15267143D01*
X3811667Y-15276667D01*
X3821190Y-15295714D01*
X3821190Y-15400476D01*
X3916428Y-15400476D02*
X3916428Y-15267143D01*
X3916428Y-15286190D02*
X3925952Y-15276667D01*
X3945000Y-15267143D01*
X3973571Y-15267143D01*
X3992619Y-15276667D01*
X4002143Y-15295714D01*
X4002143Y-15400476D01*
X4002143Y-15295714D02*
X4011667Y-15276667D01*
X4030714Y-15267143D01*
X4059286Y-15267143D01*
X4078333Y-15276667D01*
X4087857Y-15295714D01*
X4087857Y-15400476D01*
X4478333Y-15190952D02*
X4306905Y-15448095D01*
X4735476Y-15200476D02*
X4754524Y-15200476D01*
X4773571Y-15210000D01*
X4783095Y-15219524D01*
X4792619Y-15238571D01*
X4802143Y-15276667D01*
X4802143Y-15324286D01*
X4792619Y-15362381D01*
X4783095Y-15381428D01*
X4773571Y-15390952D01*
X4754524Y-15400476D01*
X4735476Y-15400476D01*
X4716429Y-15390952D01*
X4706905Y-15381428D01*
X4697381Y-15362381D01*
X4687857Y-15324286D01*
X4687857Y-15276667D01*
X4697381Y-15238571D01*
X4706905Y-15219524D01*
X4716429Y-15210000D01*
X4735476Y-15200476D01*
X4887857Y-15381428D02*
X4897381Y-15390952D01*
X4887857Y-15400476D01*
X4878333Y-15390952D01*
X4887857Y-15381428D01*
X4887857Y-15400476D01*
X5021190Y-15200476D02*
X5040238Y-15200476D01*
X5059286Y-15210000D01*
X5068810Y-15219524D01*
X5078333Y-15238571D01*
X5087857Y-15276667D01*
X5087857Y-15324286D01*
X5078333Y-15362381D01*
X5068810Y-15381428D01*
X5059286Y-15390952D01*
X5040238Y-15400476D01*
X5021190Y-15400476D01*
X5002143Y-15390952D01*
X4992619Y-15381428D01*
X4983095Y-15362381D01*
X4973571Y-15324286D01*
X4973571Y-15276667D01*
X4983095Y-15238571D01*
X4992619Y-15219524D01*
X5002143Y-15210000D01*
X5021190Y-15200476D01*
X5154524Y-15200476D02*
X5278333Y-15200476D01*
X5211667Y-15276667D01*
X5240238Y-15276667D01*
X5259286Y-15286190D01*
X5268810Y-15295714D01*
X5278333Y-15314762D01*
X5278333Y-15362381D01*
X5268810Y-15381428D01*
X5259286Y-15390952D01*
X5240238Y-15400476D01*
X5183095Y-15400476D01*
X5164048Y-15390952D01*
X5154524Y-15381428D01*
X5373571Y-15400476D02*
X5411667Y-15400476D01*
X5430714Y-15390952D01*
X5440238Y-15381428D01*
X5459286Y-15352857D01*
X5468810Y-15314762D01*
X5468810Y-15238571D01*
X5459286Y-15219524D01*
X5449762Y-15210000D01*
X5430714Y-15200476D01*
X5392619Y-15200476D01*
X5373571Y-15210000D01*
X5364048Y-15219524D01*
X5354524Y-15238571D01*
X5354524Y-15286190D01*
X5364048Y-15305238D01*
X5373571Y-15314762D01*
X5392619Y-15324286D01*
X5430714Y-15324286D01*
X5449762Y-15314762D01*
X5459286Y-15305238D01*
X5468810Y-15286190D01*
X5640238Y-15267143D02*
X5640238Y-15400476D01*
X5592619Y-15190952D02*
X5545000Y-15333809D01*
X5668809Y-15333809D01*
X5735476Y-15200476D02*
X5735476Y-15238571D01*
X5811667Y-15200476D02*
X5811667Y-15238571D01*
X6106905Y-15476667D02*
X6097381Y-15467143D01*
X6078333Y-15438571D01*
X6068809Y-15419524D01*
X6059286Y-15390952D01*
X6049762Y-15343333D01*
X6049762Y-15305238D01*
X6059286Y-15257619D01*
X6068809Y-15229048D01*
X6078333Y-15210000D01*
X6097381Y-15181428D01*
X6106905Y-15171905D01*
X6287857Y-15400476D02*
X6173571Y-15400476D01*
X6230714Y-15400476D02*
X6230714Y-15200476D01*
X6211667Y-15229048D01*
X6192619Y-15248095D01*
X6173571Y-15257619D01*
X6478333Y-15400476D02*
X6364048Y-15400476D01*
X6421190Y-15400476D02*
X6421190Y-15200476D01*
X6402143Y-15229048D01*
X6383095Y-15248095D01*
X6364048Y-15257619D01*
X6649762Y-15200476D02*
X6611667Y-15200476D01*
X6592619Y-15210000D01*
X6583095Y-15219524D01*
X6564048Y-15248095D01*
X6554524Y-15286190D01*
X6554524Y-15362381D01*
X6564048Y-15381428D01*
X6573571Y-15390952D01*
X6592619Y-15400476D01*
X6630714Y-15400476D01*
X6649762Y-15390952D01*
X6659286Y-15381428D01*
X6668809Y-15362381D01*
X6668809Y-15314762D01*
X6659286Y-15295714D01*
X6649762Y-15286190D01*
X6630714Y-15276667D01*
X6592619Y-15276667D01*
X6573571Y-15286190D01*
X6564048Y-15295714D01*
X6554524Y-15314762D01*
X6906905Y-15400476D02*
X6906905Y-15200476D01*
X6992619Y-15400476D02*
X6992619Y-15295714D01*
X6983095Y-15276667D01*
X6964048Y-15267143D01*
X6935476Y-15267143D01*
X6916428Y-15276667D01*
X6906905Y-15286190D01*
X7116428Y-15400476D02*
X7097381Y-15390952D01*
X7087857Y-15381428D01*
X7078333Y-15362381D01*
X7078333Y-15305238D01*
X7087857Y-15286190D01*
X7097381Y-15276667D01*
X7116428Y-15267143D01*
X7145000Y-15267143D01*
X7164048Y-15276667D01*
X7173571Y-15286190D01*
X7183095Y-15305238D01*
X7183095Y-15362381D01*
X7173571Y-15381428D01*
X7164048Y-15390952D01*
X7145000Y-15400476D01*
X7116428Y-15400476D01*
X7297381Y-15400476D02*
X7278333Y-15390952D01*
X7268809Y-15371905D01*
X7268809Y-15200476D01*
X7449762Y-15390952D02*
X7430714Y-15400476D01*
X7392619Y-15400476D01*
X7373571Y-15390952D01*
X7364048Y-15371905D01*
X7364048Y-15295714D01*
X7373571Y-15276667D01*
X7392619Y-15267143D01*
X7430714Y-15267143D01*
X7449762Y-15276667D01*
X7459286Y-15295714D01*
X7459286Y-15314762D01*
X7364048Y-15333809D01*
X7535476Y-15390952D02*
X7554524Y-15400476D01*
X7592619Y-15400476D01*
X7611667Y-15390952D01*
X7621190Y-15371905D01*
X7621190Y-15362381D01*
X7611667Y-15343333D01*
X7592619Y-15333809D01*
X7564048Y-15333809D01*
X7545000Y-15324286D01*
X7535476Y-15305238D01*
X7535476Y-15295714D01*
X7545000Y-15276667D01*
X7564048Y-15267143D01*
X7592619Y-15267143D01*
X7611667Y-15276667D01*
X7859286Y-15324286D02*
X8011667Y-15324286D01*
X7935476Y-15400476D02*
X7935476Y-15248095D01*
X8240238Y-15200476D02*
X8364048Y-15200476D01*
X8297381Y-15276667D01*
X8325952Y-15276667D01*
X8345000Y-15286190D01*
X8354524Y-15295714D01*
X8364048Y-15314762D01*
X8364048Y-15362381D01*
X8354524Y-15381428D01*
X8345000Y-15390952D01*
X8325952Y-15400476D01*
X8268809Y-15400476D01*
X8249762Y-15390952D01*
X8240238Y-15381428D01*
X8592619Y-15390952D02*
X8611667Y-15400476D01*
X8649762Y-15400476D01*
X8668810Y-15390952D01*
X8678333Y-15371905D01*
X8678333Y-15362381D01*
X8668810Y-15343333D01*
X8649762Y-15333809D01*
X8621190Y-15333809D01*
X8602143Y-15324286D01*
X8592619Y-15305238D01*
X8592619Y-15295714D01*
X8602143Y-15276667D01*
X8621190Y-15267143D01*
X8649762Y-15267143D01*
X8668810Y-15276667D01*
X8792619Y-15400476D02*
X8773571Y-15390952D01*
X8764048Y-15371905D01*
X8764048Y-15200476D01*
X8897381Y-15400476D02*
X8878333Y-15390952D01*
X8868810Y-15381428D01*
X8859286Y-15362381D01*
X8859286Y-15305238D01*
X8868810Y-15286190D01*
X8878333Y-15276667D01*
X8897381Y-15267143D01*
X8925952Y-15267143D01*
X8945000Y-15276667D01*
X8954524Y-15286190D01*
X8964048Y-15305238D01*
X8964048Y-15362381D01*
X8954524Y-15381428D01*
X8945000Y-15390952D01*
X8925952Y-15400476D01*
X8897381Y-15400476D01*
X9021190Y-15267143D02*
X9097381Y-15267143D01*
X9049762Y-15200476D02*
X9049762Y-15371905D01*
X9059286Y-15390952D01*
X9078333Y-15400476D01*
X9097381Y-15400476D01*
X9154524Y-15390952D02*
X9173571Y-15400476D01*
X9211667Y-15400476D01*
X9230714Y-15390952D01*
X9240238Y-15371905D01*
X9240238Y-15362381D01*
X9230714Y-15343333D01*
X9211667Y-15333809D01*
X9183095Y-15333809D01*
X9164048Y-15324286D01*
X9154524Y-15305238D01*
X9154524Y-15295714D01*
X9164048Y-15276667D01*
X9183095Y-15267143D01*
X9211667Y-15267143D01*
X9230714Y-15276667D01*
X9306905Y-15476667D02*
X9316429Y-15467143D01*
X9335476Y-15438571D01*
X9345000Y-15419524D01*
X9354524Y-15390952D01*
X9364048Y-15343333D01*
X9364048Y-15305238D01*
X9354524Y-15257619D01*
X9345000Y-15229048D01*
X9335476Y-15210000D01*
X9316429Y-15181428D01*
X9306905Y-15171905D01*
D19*
X2425000Y-15519000D02*
X2535000Y-15629000D01*
X2535000Y-15519000D02*
X2425000Y-15629000D01*
X2518891Y-15612891D02*
X2518891Y-15535109D01*
X2441109Y-15535109D01*
X2441109Y-15612891D01*
X2518891Y-15612891D01*
D12*
X2897381Y-15664476D02*
X2783095Y-15664476D01*
X2840238Y-15664476D02*
X2840238Y-15464476D01*
X2821190Y-15493048D01*
X2802143Y-15512095D01*
X2783095Y-15521619D01*
X2983095Y-15645428D02*
X2992619Y-15654952D01*
X2983095Y-15664476D01*
X2973571Y-15654952D01*
X2983095Y-15645428D01*
X2983095Y-15664476D01*
X3183095Y-15664476D02*
X3068809Y-15664476D01*
X3125952Y-15664476D02*
X3125952Y-15464476D01*
X3106905Y-15493048D01*
X3087857Y-15512095D01*
X3068809Y-15521619D01*
X3306905Y-15464476D02*
X3325952Y-15464476D01*
X3345000Y-15474000D01*
X3354524Y-15483524D01*
X3364048Y-15502571D01*
X3373571Y-15540667D01*
X3373571Y-15588286D01*
X3364048Y-15626381D01*
X3354524Y-15645428D01*
X3345000Y-15654952D01*
X3325952Y-15664476D01*
X3306905Y-15664476D01*
X3287857Y-15654952D01*
X3278333Y-15645428D01*
X3268809Y-15626381D01*
X3259286Y-15588286D01*
X3259286Y-15540667D01*
X3268809Y-15502571D01*
X3278333Y-15483524D01*
X3287857Y-15474000D01*
X3306905Y-15464476D01*
X3497381Y-15464476D02*
X3516428Y-15464476D01*
X3535476Y-15474000D01*
X3545000Y-15483524D01*
X3554524Y-15502571D01*
X3564048Y-15540667D01*
X3564048Y-15588286D01*
X3554524Y-15626381D01*
X3545000Y-15645428D01*
X3535476Y-15654952D01*
X3516428Y-15664476D01*
X3497381Y-15664476D01*
X3478333Y-15654952D01*
X3468809Y-15645428D01*
X3459286Y-15626381D01*
X3449762Y-15588286D01*
X3449762Y-15540667D01*
X3459286Y-15502571D01*
X3468809Y-15483524D01*
X3478333Y-15474000D01*
X3497381Y-15464476D01*
X3649762Y-15664476D02*
X3649762Y-15531143D01*
X3649762Y-15550190D02*
X3659286Y-15540667D01*
X3678333Y-15531143D01*
X3706905Y-15531143D01*
X3725952Y-15540667D01*
X3735476Y-15559714D01*
X3735476Y-15664476D01*
X3735476Y-15559714D02*
X3745000Y-15540667D01*
X3764048Y-15531143D01*
X3792619Y-15531143D01*
X3811667Y-15540667D01*
X3821190Y-15559714D01*
X3821190Y-15664476D01*
X3916428Y-15664476D02*
X3916428Y-15531143D01*
X3916428Y-15550190D02*
X3925952Y-15540667D01*
X3945000Y-15531143D01*
X3973571Y-15531143D01*
X3992619Y-15540667D01*
X4002143Y-15559714D01*
X4002143Y-15664476D01*
X4002143Y-15559714D02*
X4011667Y-15540667D01*
X4030714Y-15531143D01*
X4059286Y-15531143D01*
X4078333Y-15540667D01*
X4087857Y-15559714D01*
X4087857Y-15664476D01*
X4478333Y-15454952D02*
X4306905Y-15712095D01*
X4735476Y-15464476D02*
X4754524Y-15464476D01*
X4773571Y-15474000D01*
X4783095Y-15483524D01*
X4792619Y-15502571D01*
X4802143Y-15540667D01*
X4802143Y-15588286D01*
X4792619Y-15626381D01*
X4783095Y-15645428D01*
X4773571Y-15654952D01*
X4754524Y-15664476D01*
X4735476Y-15664476D01*
X4716429Y-15654952D01*
X4706905Y-15645428D01*
X4697381Y-15626381D01*
X4687857Y-15588286D01*
X4687857Y-15540667D01*
X4697381Y-15502571D01*
X4706905Y-15483524D01*
X4716429Y-15474000D01*
X4735476Y-15464476D01*
X4887857Y-15645428D02*
X4897381Y-15654952D01*
X4887857Y-15664476D01*
X4878333Y-15654952D01*
X4887857Y-15645428D01*
X4887857Y-15664476D01*
X5021190Y-15464476D02*
X5040238Y-15464476D01*
X5059286Y-15474000D01*
X5068810Y-15483524D01*
X5078333Y-15502571D01*
X5087857Y-15540667D01*
X5087857Y-15588286D01*
X5078333Y-15626381D01*
X5068810Y-15645428D01*
X5059286Y-15654952D01*
X5040238Y-15664476D01*
X5021190Y-15664476D01*
X5002143Y-15654952D01*
X4992619Y-15645428D01*
X4983095Y-15626381D01*
X4973571Y-15588286D01*
X4973571Y-15540667D01*
X4983095Y-15502571D01*
X4992619Y-15483524D01*
X5002143Y-15474000D01*
X5021190Y-15464476D01*
X5259286Y-15531143D02*
X5259286Y-15664476D01*
X5211667Y-15454952D02*
X5164048Y-15597809D01*
X5287857Y-15597809D01*
X5345000Y-15464476D02*
X5468810Y-15464476D01*
X5402143Y-15540667D01*
X5430714Y-15540667D01*
X5449762Y-15550190D01*
X5459286Y-15559714D01*
X5468810Y-15578762D01*
X5468810Y-15626381D01*
X5459286Y-15645428D01*
X5449762Y-15654952D01*
X5430714Y-15664476D01*
X5373571Y-15664476D01*
X5354524Y-15654952D01*
X5345000Y-15645428D01*
X5535476Y-15464476D02*
X5659286Y-15464476D01*
X5592619Y-15540667D01*
X5621190Y-15540667D01*
X5640238Y-15550190D01*
X5649762Y-15559714D01*
X5659286Y-15578762D01*
X5659286Y-15626381D01*
X5649762Y-15645428D01*
X5640238Y-15654952D01*
X5621190Y-15664476D01*
X5564048Y-15664476D01*
X5545000Y-15654952D01*
X5535476Y-15645428D01*
X5735476Y-15464476D02*
X5735476Y-15502571D01*
X5811667Y-15464476D02*
X5811667Y-15502571D01*
X6106905Y-15740667D02*
X6097381Y-15731143D01*
X6078333Y-15702571D01*
X6068809Y-15683524D01*
X6059286Y-15654952D01*
X6049762Y-15607333D01*
X6049762Y-15569238D01*
X6059286Y-15521619D01*
X6068809Y-15493048D01*
X6078333Y-15474000D01*
X6097381Y-15445428D01*
X6106905Y-15435905D01*
X6268809Y-15464476D02*
X6230714Y-15464476D01*
X6211667Y-15474000D01*
X6202143Y-15483524D01*
X6183095Y-15512095D01*
X6173571Y-15550190D01*
X6173571Y-15626381D01*
X6183095Y-15645428D01*
X6192619Y-15654952D01*
X6211667Y-15664476D01*
X6249762Y-15664476D01*
X6268809Y-15654952D01*
X6278333Y-15645428D01*
X6287857Y-15626381D01*
X6287857Y-15578762D01*
X6278333Y-15559714D01*
X6268809Y-15550190D01*
X6249762Y-15540667D01*
X6211667Y-15540667D01*
X6192619Y-15550190D01*
X6183095Y-15559714D01*
X6173571Y-15578762D01*
X6525952Y-15664476D02*
X6525952Y-15464476D01*
X6611667Y-15664476D02*
X6611667Y-15559714D01*
X6602143Y-15540667D01*
X6583095Y-15531143D01*
X6554524Y-15531143D01*
X6535476Y-15540667D01*
X6525952Y-15550190D01*
X6735476Y-15664476D02*
X6716428Y-15654952D01*
X6706905Y-15645428D01*
X6697381Y-15626381D01*
X6697381Y-15569238D01*
X6706905Y-15550190D01*
X6716428Y-15540667D01*
X6735476Y-15531143D01*
X6764048Y-15531143D01*
X6783095Y-15540667D01*
X6792619Y-15550190D01*
X6802143Y-15569238D01*
X6802143Y-15626381D01*
X6792619Y-15645428D01*
X6783095Y-15654952D01*
X6764048Y-15664476D01*
X6735476Y-15664476D01*
X6916428Y-15664476D02*
X6897381Y-15654952D01*
X6887857Y-15635905D01*
X6887857Y-15464476D01*
X7068809Y-15654952D02*
X7049762Y-15664476D01*
X7011667Y-15664476D01*
X6992619Y-15654952D01*
X6983095Y-15635905D01*
X6983095Y-15559714D01*
X6992619Y-15540667D01*
X7011667Y-15531143D01*
X7049762Y-15531143D01*
X7068809Y-15540667D01*
X7078333Y-15559714D01*
X7078333Y-15578762D01*
X6983095Y-15597809D01*
X7154524Y-15654952D02*
X7173571Y-15664476D01*
X7211667Y-15664476D01*
X7230714Y-15654952D01*
X7240238Y-15635905D01*
X7240238Y-15626381D01*
X7230714Y-15607333D01*
X7211667Y-15597809D01*
X7183095Y-15597809D01*
X7164048Y-15588286D01*
X7154524Y-15569238D01*
X7154524Y-15559714D01*
X7164048Y-15540667D01*
X7183095Y-15531143D01*
X7211667Y-15531143D01*
X7230714Y-15540667D01*
X7306905Y-15740667D02*
X7316428Y-15731143D01*
X7335476Y-15702571D01*
X7345000Y-15683524D01*
X7354524Y-15654952D01*
X7364048Y-15607333D01*
X7364048Y-15569238D01*
X7354524Y-15521619D01*
X7345000Y-15493048D01*
X7335476Y-15474000D01*
X7316428Y-15445428D01*
X7306905Y-15435905D01*
X2335000Y-15738000D02*
X2535000Y-15938000D01*
X2535000Y-15738000D02*
X2335000Y-15938000D01*
X2435000Y-15938000D02*
X2535000Y-15838000D01*
X2435000Y-15738000D01*
X2335000Y-15838000D01*
X2435000Y-15938000D01*
X2773571Y-15728476D02*
X2897381Y-15728476D01*
X2830714Y-15804667D01*
X2859286Y-15804667D01*
X2878333Y-15814190D01*
X2887857Y-15823714D01*
X2897381Y-15842762D01*
X2897381Y-15890381D01*
X2887857Y-15909428D01*
X2878333Y-15918952D01*
X2859286Y-15928476D01*
X2802143Y-15928476D01*
X2783095Y-15918952D01*
X2773571Y-15909428D01*
X2983095Y-15909428D02*
X2992619Y-15918952D01*
X2983095Y-15928476D01*
X2973571Y-15918952D01*
X2983095Y-15909428D01*
X2983095Y-15928476D01*
X3068809Y-15747524D02*
X3078333Y-15738000D01*
X3097381Y-15728476D01*
X3145000Y-15728476D01*
X3164048Y-15738000D01*
X3173571Y-15747524D01*
X3183095Y-15766571D01*
X3183095Y-15785619D01*
X3173571Y-15814190D01*
X3059286Y-15928476D01*
X3183095Y-15928476D01*
X3306905Y-15728476D02*
X3325952Y-15728476D01*
X3345000Y-15738000D01*
X3354524Y-15747524D01*
X3364048Y-15766571D01*
X3373571Y-15804667D01*
X3373571Y-15852286D01*
X3364048Y-15890381D01*
X3354524Y-15909428D01*
X3345000Y-15918952D01*
X3325952Y-15928476D01*
X3306905Y-15928476D01*
X3287857Y-15918952D01*
X3278333Y-15909428D01*
X3268809Y-15890381D01*
X3259286Y-15852286D01*
X3259286Y-15804667D01*
X3268809Y-15766571D01*
X3278333Y-15747524D01*
X3287857Y-15738000D01*
X3306905Y-15728476D01*
X3497381Y-15728476D02*
X3516428Y-15728476D01*
X3535476Y-15738000D01*
X3545000Y-15747524D01*
X3554524Y-15766571D01*
X3564048Y-15804667D01*
X3564048Y-15852286D01*
X3554524Y-15890381D01*
X3545000Y-15909428D01*
X3535476Y-15918952D01*
X3516428Y-15928476D01*
X3497381Y-15928476D01*
X3478333Y-15918952D01*
X3468809Y-15909428D01*
X3459286Y-15890381D01*
X3449762Y-15852286D01*
X3449762Y-15804667D01*
X3459286Y-15766571D01*
X3468809Y-15747524D01*
X3478333Y-15738000D01*
X3497381Y-15728476D01*
X3649762Y-15928476D02*
X3649762Y-15795143D01*
X3649762Y-15814190D02*
X3659286Y-15804667D01*
X3678333Y-15795143D01*
X3706905Y-15795143D01*
X3725952Y-15804667D01*
X3735476Y-15823714D01*
X3735476Y-15928476D01*
X3735476Y-15823714D02*
X3745000Y-15804667D01*
X3764048Y-15795143D01*
X3792619Y-15795143D01*
X3811667Y-15804667D01*
X3821190Y-15823714D01*
X3821190Y-15928476D01*
X3916428Y-15928476D02*
X3916428Y-15795143D01*
X3916428Y-15814190D02*
X3925952Y-15804667D01*
X3945000Y-15795143D01*
X3973571Y-15795143D01*
X3992619Y-15804667D01*
X4002143Y-15823714D01*
X4002143Y-15928476D01*
X4002143Y-15823714D02*
X4011667Y-15804667D01*
X4030714Y-15795143D01*
X4059286Y-15795143D01*
X4078333Y-15804667D01*
X4087857Y-15823714D01*
X4087857Y-15928476D01*
X4478333Y-15718952D02*
X4306905Y-15976095D01*
X4735476Y-15728476D02*
X4754524Y-15728476D01*
X4773571Y-15738000D01*
X4783095Y-15747524D01*
X4792619Y-15766571D01*
X4802143Y-15804667D01*
X4802143Y-15852286D01*
X4792619Y-15890381D01*
X4783095Y-15909428D01*
X4773571Y-15918952D01*
X4754524Y-15928476D01*
X4735476Y-15928476D01*
X4716429Y-15918952D01*
X4706905Y-15909428D01*
X4697381Y-15890381D01*
X4687857Y-15852286D01*
X4687857Y-15804667D01*
X4697381Y-15766571D01*
X4706905Y-15747524D01*
X4716429Y-15738000D01*
X4735476Y-15728476D01*
X4887857Y-15909428D02*
X4897381Y-15918952D01*
X4887857Y-15928476D01*
X4878333Y-15918952D01*
X4887857Y-15909428D01*
X4887857Y-15928476D01*
X5087857Y-15928476D02*
X4973571Y-15928476D01*
X5030714Y-15928476D02*
X5030714Y-15728476D01*
X5011667Y-15757048D01*
X4992619Y-15776095D01*
X4973571Y-15785619D01*
X5164048Y-15747524D02*
X5173571Y-15738000D01*
X5192619Y-15728476D01*
X5240238Y-15728476D01*
X5259286Y-15738000D01*
X5268810Y-15747524D01*
X5278333Y-15766571D01*
X5278333Y-15785619D01*
X5268810Y-15814190D01*
X5154524Y-15928476D01*
X5278333Y-15928476D01*
X5449762Y-15728476D02*
X5411667Y-15728476D01*
X5392619Y-15738000D01*
X5383095Y-15747524D01*
X5364048Y-15776095D01*
X5354524Y-15814190D01*
X5354524Y-15890381D01*
X5364048Y-15909428D01*
X5373571Y-15918952D01*
X5392619Y-15928476D01*
X5430714Y-15928476D01*
X5449762Y-15918952D01*
X5459286Y-15909428D01*
X5468810Y-15890381D01*
X5468810Y-15842762D01*
X5459286Y-15823714D01*
X5449762Y-15814190D01*
X5430714Y-15804667D01*
X5392619Y-15804667D01*
X5373571Y-15814190D01*
X5364048Y-15823714D01*
X5354524Y-15842762D01*
X5592619Y-15728476D02*
X5611667Y-15728476D01*
X5630714Y-15738000D01*
X5640238Y-15747524D01*
X5649762Y-15766571D01*
X5659286Y-15804667D01*
X5659286Y-15852286D01*
X5649762Y-15890381D01*
X5640238Y-15909428D01*
X5630714Y-15918952D01*
X5611667Y-15928476D01*
X5592619Y-15928476D01*
X5573571Y-15918952D01*
X5564048Y-15909428D01*
X5554524Y-15890381D01*
X5545000Y-15852286D01*
X5545000Y-15804667D01*
X5554524Y-15766571D01*
X5564048Y-15747524D01*
X5573571Y-15738000D01*
X5592619Y-15728476D01*
X5735476Y-15728476D02*
X5735476Y-15766571D01*
X5811667Y-15728476D02*
X5811667Y-15766571D01*
X6106905Y-16004667D02*
X6097381Y-15995143D01*
X6078333Y-15966571D01*
X6068809Y-15947524D01*
X6059286Y-15918952D01*
X6049762Y-15871333D01*
X6049762Y-15833238D01*
X6059286Y-15785619D01*
X6068809Y-15757048D01*
X6078333Y-15738000D01*
X6097381Y-15709428D01*
X6106905Y-15699905D01*
X6173571Y-15747524D02*
X6183095Y-15738000D01*
X6202143Y-15728476D01*
X6249762Y-15728476D01*
X6268809Y-15738000D01*
X6278333Y-15747524D01*
X6287857Y-15766571D01*
X6287857Y-15785619D01*
X6278333Y-15814190D01*
X6164048Y-15928476D01*
X6287857Y-15928476D01*
X6525952Y-15928476D02*
X6525952Y-15728476D01*
X6611667Y-15928476D02*
X6611667Y-15823714D01*
X6602143Y-15804667D01*
X6583095Y-15795143D01*
X6554524Y-15795143D01*
X6535476Y-15804667D01*
X6525952Y-15814190D01*
X6735476Y-15928476D02*
X6716428Y-15918952D01*
X6706905Y-15909428D01*
X6697381Y-15890381D01*
X6697381Y-15833238D01*
X6706905Y-15814190D01*
X6716428Y-15804667D01*
X6735476Y-15795143D01*
X6764048Y-15795143D01*
X6783095Y-15804667D01*
X6792619Y-15814190D01*
X6802143Y-15833238D01*
X6802143Y-15890381D01*
X6792619Y-15909428D01*
X6783095Y-15918952D01*
X6764048Y-15928476D01*
X6735476Y-15928476D01*
X6916428Y-15928476D02*
X6897381Y-15918952D01*
X6887857Y-15899905D01*
X6887857Y-15728476D01*
X7068809Y-15918952D02*
X7049762Y-15928476D01*
X7011667Y-15928476D01*
X6992619Y-15918952D01*
X6983095Y-15899905D01*
X6983095Y-15823714D01*
X6992619Y-15804667D01*
X7011667Y-15795143D01*
X7049762Y-15795143D01*
X7068809Y-15804667D01*
X7078333Y-15823714D01*
X7078333Y-15842762D01*
X6983095Y-15861809D01*
X7154524Y-15918952D02*
X7173571Y-15928476D01*
X7211667Y-15928476D01*
X7230714Y-15918952D01*
X7240238Y-15899905D01*
X7240238Y-15890381D01*
X7230714Y-15871333D01*
X7211667Y-15861809D01*
X7183095Y-15861809D01*
X7164048Y-15852286D01*
X7154524Y-15833238D01*
X7154524Y-15823714D01*
X7164048Y-15804667D01*
X7183095Y-15795143D01*
X7211667Y-15795143D01*
X7230714Y-15804667D01*
X7306905Y-16004667D02*
X7316428Y-15995143D01*
X7335476Y-15966571D01*
X7345000Y-15947524D01*
X7354524Y-15918952D01*
X7364048Y-15871333D01*
X7364048Y-15833238D01*
X7354524Y-15785619D01*
X7345000Y-15757048D01*
X7335476Y-15738000D01*
X7316428Y-15709428D01*
X7306905Y-15699905D01*
M02*
