G04 #@! TF.GenerationSoftware,KiCad,Pcbnew,(6.0.7-1)-1*
G04 #@! TF.CreationDate,2022-09-01T12:15:16+02:00*
G04 #@! TF.ProjectId,breakout,62726561-6b6f-4757-942e-6b696361645f,A.27*
G04 #@! TF.SameCoordinates,Original*
G04 #@! TF.FileFunction,Soldermask,Bot*
G04 #@! TF.FilePolarity,Negative*
%FSLAX46Y46*%
G04 Gerber Fmt 4.6, Leading zero omitted, Abs format (unit mm)*
G04 Created by KiCad (PCBNEW (6.0.7-1)-1) date 2022-09-01 12:15:16*
%MOMM*%
%LPD*%
G01*
G04 APERTURE LIST*
G04 Aperture macros list*
%AMRoundRect*
0 Rectangle with rounded corners*
0 $1 Rounding radius*
0 $2 $3 $4 $5 $6 $7 $8 $9 X,Y pos of 4 corners*
0 Add a 4 corners polygon primitive as box body*
4,1,4,$2,$3,$4,$5,$6,$7,$8,$9,$2,$3,0*
0 Add four circle primitives for the rounded corners*
1,1,$1+$1,$2,$3*
1,1,$1+$1,$4,$5*
1,1,$1+$1,$6,$7*
1,1,$1+$1,$8,$9*
0 Add four rect primitives between the rounded corners*
20,1,$1+$1,$2,$3,$4,$5,0*
20,1,$1+$1,$4,$5,$6,$7,0*
20,1,$1+$1,$6,$7,$8,$9,0*
20,1,$1+$1,$8,$9,$2,$3,0*%
G04 Aperture macros list end*
%ADD10C,1.600000*%
%ADD11O,1.600000X1.600000*%
%ADD12C,1.500000*%
%ADD13R,1.600000X1.600000*%
%ADD14R,2.200000X2.200000*%
%ADD15O,2.200000X2.200000*%
%ADD16C,2.000000*%
%ADD17R,1.050000X1.500000*%
%ADD18O,1.050000X1.500000*%
%ADD19R,1.800000X1.800000*%
%ADD20C,1.800000*%
%ADD21C,6.400000*%
%ADD22R,3.500000X3.500000*%
%ADD23RoundRect,0.750000X-0.750000X-1.000000X0.750000X-1.000000X0.750000X1.000000X-0.750000X1.000000X0*%
%ADD24RoundRect,0.875000X-0.875000X-0.875000X0.875000X-0.875000X0.875000X0.875000X-0.875000X0.875000X0*%
%ADD25R,1.200000X1.200000*%
%ADD26C,1.200000*%
%ADD27R,1.700000X1.700000*%
%ADD28O,1.700000X1.700000*%
G04 APERTURE END LIST*
D10*
X53081000Y-68326000D03*
D11*
X45461000Y-68326000D03*
D10*
X45720000Y-78740000D03*
X48220000Y-78740000D03*
D12*
X152044400Y-96494600D03*
D10*
X28468000Y-89281000D03*
X30968000Y-89281000D03*
D12*
X110744000Y-83820000D03*
D10*
X60198000Y-118110000D03*
D11*
X67818000Y-118110000D03*
D12*
X157480000Y-69596000D03*
D10*
X70993000Y-118110000D03*
D11*
X78613000Y-118110000D03*
D10*
X57912000Y-78232000D03*
D11*
X57912000Y-70612000D03*
D10*
X70993000Y-113995200D03*
D11*
X78613000Y-113995200D03*
D13*
X41877500Y-116807500D03*
D11*
X44417500Y-116807500D03*
X46957500Y-116807500D03*
X49497500Y-116807500D03*
X52037500Y-116807500D03*
X54577500Y-116807500D03*
X57117500Y-116807500D03*
X57117500Y-109187500D03*
X54577500Y-109187500D03*
X52037500Y-109187500D03*
X49497500Y-109187500D03*
X46957500Y-109187500D03*
X44417500Y-109187500D03*
X41877500Y-109187500D03*
D13*
X99060000Y-114310000D03*
D11*
X101600000Y-114310000D03*
X104140000Y-114310000D03*
X106680000Y-114310000D03*
X109220000Y-114310000D03*
X111760000Y-114310000D03*
X114300000Y-114310000D03*
X116840000Y-114310000D03*
X119380000Y-114310000D03*
X121920000Y-114310000D03*
X124460000Y-114310000D03*
X127000000Y-114310000D03*
X129540000Y-114310000D03*
X132080000Y-114310000D03*
X134620000Y-114310000D03*
X137160000Y-114310000D03*
X139700000Y-114310000D03*
X142240000Y-114310000D03*
X144780000Y-114310000D03*
X147320000Y-114310000D03*
X147320000Y-99070000D03*
X144780000Y-99070000D03*
X142240000Y-99070000D03*
X139700000Y-99070000D03*
X137160000Y-99070000D03*
X134620000Y-99070000D03*
X132080000Y-99070000D03*
X129540000Y-99070000D03*
X127000000Y-99070000D03*
X124460000Y-99070000D03*
X121920000Y-99070000D03*
X119380000Y-99070000D03*
X116840000Y-99070000D03*
X114300000Y-99070000D03*
X111760000Y-99070000D03*
X109220000Y-99070000D03*
X106680000Y-99070000D03*
X104140000Y-99070000D03*
X101600000Y-99070000D03*
X99060000Y-99070000D03*
D12*
X104394000Y-96520000D03*
X121818400Y-96520000D03*
X130302000Y-67564000D03*
D13*
X151145000Y-120660000D03*
D11*
X148605000Y-120660000D03*
X146065000Y-120660000D03*
X143525000Y-120660000D03*
X140985000Y-120660000D03*
X138445000Y-120660000D03*
X135905000Y-120660000D03*
X133365000Y-120660000D03*
X130825000Y-120660000D03*
D10*
X62992000Y-78232000D03*
D11*
X62992000Y-70612000D03*
D13*
X123185000Y-93970000D03*
D11*
X125725000Y-93970000D03*
X128265000Y-93970000D03*
X130805000Y-93970000D03*
X133345000Y-93970000D03*
X135885000Y-93970000D03*
X138425000Y-93970000D03*
X138425000Y-86350000D03*
X135885000Y-86350000D03*
X133345000Y-86350000D03*
X130805000Y-86350000D03*
X128265000Y-86350000D03*
X125725000Y-86350000D03*
X123185000Y-86350000D03*
D12*
X99060000Y-96520000D03*
D13*
X82550000Y-120660000D03*
D11*
X85090000Y-120660000D03*
X87630000Y-120660000D03*
X90170000Y-120660000D03*
X92710000Y-120660000D03*
X95250000Y-120660000D03*
X97790000Y-120660000D03*
X100330000Y-120660000D03*
X102870000Y-120660000D03*
D14*
X117602000Y-69342000D03*
D15*
X109982000Y-69342000D03*
D13*
X80010000Y-80010000D03*
D11*
X82550000Y-80010000D03*
X85090000Y-80010000D03*
X87630000Y-80010000D03*
X90170000Y-80010000D03*
X92710000Y-80010000D03*
X95250000Y-80010000D03*
X95250000Y-72390000D03*
X92710000Y-72390000D03*
X90170000Y-72390000D03*
X87630000Y-72390000D03*
X85090000Y-72390000D03*
X82550000Y-72390000D03*
X80010000Y-72390000D03*
D13*
X39111000Y-70866000D03*
D10*
X41611000Y-70866000D03*
D13*
X67310000Y-88890000D03*
D11*
X69850000Y-88890000D03*
X72390000Y-88890000D03*
X74930000Y-88890000D03*
X74930000Y-81270000D03*
X72390000Y-81270000D03*
X69850000Y-81270000D03*
X67310000Y-81270000D03*
D13*
X144780000Y-93980000D03*
D11*
X147320000Y-93980000D03*
X149860000Y-93980000D03*
X152400000Y-93980000D03*
X154940000Y-93980000D03*
X157480000Y-93980000D03*
X160020000Y-93980000D03*
X160020000Y-86360000D03*
X157480000Y-86360000D03*
X154940000Y-86360000D03*
X152400000Y-86360000D03*
X149860000Y-86360000D03*
X147320000Y-86360000D03*
X144780000Y-86360000D03*
D10*
X41910000Y-92710000D03*
X44410000Y-92710000D03*
D12*
X120650000Y-67564000D03*
D16*
X28575000Y-118582000D03*
X35075000Y-118582000D03*
X28575000Y-114082000D03*
X35075000Y-114082000D03*
D13*
X175275000Y-120660000D03*
D11*
X172735000Y-120660000D03*
X170195000Y-120660000D03*
X167655000Y-120660000D03*
X165115000Y-120660000D03*
X162575000Y-120660000D03*
X160035000Y-120660000D03*
X157495000Y-120660000D03*
X154955000Y-120660000D03*
D13*
X71120000Y-106680000D03*
D11*
X73660000Y-106680000D03*
X76200000Y-106680000D03*
X78740000Y-106680000D03*
X81280000Y-106680000D03*
X83820000Y-106680000D03*
X86360000Y-106680000D03*
X88900000Y-106680000D03*
X91440000Y-106680000D03*
X93980000Y-106680000D03*
X93980000Y-99060000D03*
X91440000Y-99060000D03*
X88900000Y-99060000D03*
X86360000Y-99060000D03*
X83820000Y-99060000D03*
X81280000Y-99060000D03*
X78740000Y-99060000D03*
X76200000Y-99060000D03*
X73660000Y-99060000D03*
X71120000Y-99060000D03*
D10*
X28575000Y-107442000D03*
X28575000Y-109942000D03*
D17*
X32385000Y-108712000D03*
D18*
X33655000Y-108712000D03*
X34925000Y-108712000D03*
D10*
X60198000Y-113995200D03*
D11*
X67818000Y-113995200D03*
D10*
X87376000Y-69342000D03*
D11*
X94996000Y-69342000D03*
D10*
X123190000Y-83820000D03*
X125690000Y-83820000D03*
D13*
X28448000Y-101092000D03*
D10*
X36068000Y-101092000D03*
X36068000Y-93472000D03*
X28448000Y-93472000D03*
X81280000Y-116078000D03*
D11*
X88900000Y-116078000D03*
D10*
X74930000Y-69850000D03*
D11*
X67310000Y-69850000D03*
D13*
X101849000Y-93970000D03*
D11*
X104389000Y-93970000D03*
X106929000Y-93970000D03*
X109469000Y-93970000D03*
X112009000Y-93970000D03*
X114549000Y-93970000D03*
X117089000Y-93970000D03*
X117089000Y-86350000D03*
X114549000Y-86350000D03*
X112009000Y-86350000D03*
X109469000Y-86350000D03*
X106929000Y-86350000D03*
X104389000Y-86350000D03*
X101849000Y-86350000D03*
D10*
X81280000Y-112014000D03*
D11*
X88900000Y-112014000D03*
D13*
X80010000Y-93980000D03*
D11*
X82550000Y-93980000D03*
X85090000Y-93980000D03*
X87630000Y-93980000D03*
X90170000Y-93980000D03*
X92710000Y-93980000D03*
X95250000Y-93980000D03*
X95250000Y-86360000D03*
X92710000Y-86360000D03*
X90170000Y-86360000D03*
X87630000Y-86360000D03*
X85090000Y-86360000D03*
X82550000Y-86360000D03*
X80010000Y-86360000D03*
D13*
X123185000Y-80000000D03*
D11*
X125725000Y-80000000D03*
X128265000Y-80000000D03*
X130805000Y-80000000D03*
X133345000Y-80000000D03*
X135885000Y-80000000D03*
X138425000Y-80000000D03*
X138425000Y-72380000D03*
X135885000Y-72380000D03*
X133345000Y-72380000D03*
X130805000Y-72380000D03*
X128265000Y-72380000D03*
X125725000Y-72380000D03*
X123185000Y-72380000D03*
D13*
X101849000Y-80000000D03*
D11*
X104389000Y-80000000D03*
X106929000Y-80000000D03*
X109469000Y-80000000D03*
X112009000Y-80000000D03*
X114549000Y-80000000D03*
X117089000Y-80000000D03*
X117089000Y-72380000D03*
X114549000Y-72380000D03*
X112009000Y-72380000D03*
X109469000Y-72380000D03*
X106929000Y-72380000D03*
X104389000Y-72380000D03*
X101849000Y-72380000D03*
D12*
X152908000Y-83820000D03*
X137414000Y-83820000D03*
D10*
X60198000Y-109880400D03*
D11*
X67818000Y-109880400D03*
D10*
X101854000Y-83820000D03*
X104354000Y-83820000D03*
D12*
X62230000Y-67818000D03*
D10*
X80010000Y-83820000D03*
X82510000Y-83820000D03*
X152400000Y-104140000D03*
X154900000Y-104140000D03*
D12*
X50292000Y-92710000D03*
D10*
X101874000Y-69850000D03*
X104374000Y-69850000D03*
D12*
X98907600Y-67665600D03*
D10*
X123185000Y-69850000D03*
X125685000Y-69850000D03*
X60198000Y-105765600D03*
D11*
X67818000Y-105765600D03*
D19*
X50541000Y-73660000D03*
D20*
X53081000Y-73660000D03*
D10*
X78613000Y-109880400D03*
D11*
X70993000Y-109880400D03*
D12*
X77470000Y-67818000D03*
D21*
X172720000Y-71120000D03*
D10*
X74930000Y-74930000D03*
D11*
X67310000Y-74930000D03*
D10*
X71120000Y-96520000D03*
X73620000Y-96520000D03*
D13*
X45715000Y-88890000D03*
D11*
X48255000Y-88890000D03*
X50795000Y-88890000D03*
X53335000Y-88890000D03*
X55875000Y-88890000D03*
X58415000Y-88890000D03*
X60955000Y-88890000D03*
X60955000Y-81270000D03*
X58415000Y-81270000D03*
X55875000Y-81270000D03*
X53335000Y-81270000D03*
X50795000Y-81270000D03*
X48255000Y-81270000D03*
X45715000Y-81270000D03*
D22*
X39350200Y-80576500D03*
D23*
X33350200Y-80576500D03*
D24*
X36350200Y-85276500D03*
D13*
X41910000Y-102870000D03*
D11*
X44450000Y-102870000D03*
X46990000Y-102870000D03*
X49530000Y-102870000D03*
X52070000Y-102870000D03*
X54610000Y-102870000D03*
X57150000Y-102870000D03*
X57150000Y-95250000D03*
X54610000Y-95250000D03*
X52070000Y-95250000D03*
X49530000Y-95250000D03*
X46990000Y-95250000D03*
X44450000Y-95250000D03*
X41910000Y-95250000D03*
D21*
X30480000Y-71120000D03*
D25*
X45461000Y-73660000D03*
D26*
X46961000Y-73660000D03*
D12*
X133350000Y-96520000D03*
D13*
X144795000Y-80000000D03*
D11*
X147335000Y-80000000D03*
X149875000Y-80000000D03*
X152415000Y-80000000D03*
X154955000Y-80000000D03*
X157495000Y-80000000D03*
X160035000Y-80000000D03*
X162575000Y-80000000D03*
X162575000Y-72380000D03*
X160035000Y-72380000D03*
X157495000Y-72380000D03*
X154955000Y-72380000D03*
X152415000Y-72380000D03*
X149875000Y-72380000D03*
X147335000Y-72380000D03*
X144795000Y-72380000D03*
D10*
X167005000Y-72364600D03*
D11*
X167005000Y-79984600D03*
D13*
X127000000Y-120660000D03*
D11*
X124460000Y-120660000D03*
X121920000Y-120660000D03*
X119380000Y-120660000D03*
X116840000Y-120660000D03*
X114300000Y-120660000D03*
X111760000Y-120660000D03*
X109220000Y-120660000D03*
X106680000Y-120660000D03*
D10*
X80005000Y-69850000D03*
X82505000Y-69850000D03*
X41942500Y-106647500D03*
X44442500Y-106647500D03*
X116840000Y-116850000D03*
X119340000Y-116850000D03*
D13*
X152400000Y-114310000D03*
D11*
X154940000Y-114310000D03*
X157480000Y-114310000D03*
X160020000Y-114310000D03*
X162560000Y-114310000D03*
X165100000Y-114310000D03*
X167640000Y-114310000D03*
X170180000Y-114310000D03*
X172720000Y-114310000D03*
X175260000Y-114310000D03*
X175260000Y-106690000D03*
X172720000Y-106690000D03*
X170180000Y-106690000D03*
X167640000Y-106690000D03*
X165100000Y-106690000D03*
X162560000Y-106690000D03*
X160020000Y-106690000D03*
X157480000Y-106690000D03*
X154940000Y-106690000D03*
X152400000Y-106690000D03*
D10*
X144780000Y-83820000D03*
X147280000Y-83820000D03*
X144780000Y-69850000D03*
X147280000Y-69850000D03*
X60198000Y-99822000D03*
D11*
X67818000Y-99822000D03*
D10*
X67310000Y-78740000D03*
X69810000Y-78740000D03*
D13*
X175183800Y-98983800D03*
D11*
X172643800Y-98983800D03*
X170103800Y-98983800D03*
X167563800Y-98983800D03*
X165023800Y-98983800D03*
X162483800Y-98983800D03*
X159943800Y-98983800D03*
X157403800Y-98983800D03*
X154863800Y-98983800D03*
D27*
X132080000Y-127000000D03*
D28*
X132080000Y-129540000D03*
X134620000Y-127000000D03*
X134620000Y-129540000D03*
X137160000Y-127000000D03*
X137160000Y-129540000D03*
X139700000Y-127000000D03*
X139700000Y-129540000D03*
X142240000Y-127000000D03*
X142240000Y-129540000D03*
X144780000Y-127000000D03*
X144780000Y-129540000D03*
X147320000Y-127000000D03*
X147320000Y-129540000D03*
X149860000Y-127000000D03*
X149860000Y-129540000D03*
X152400000Y-127000000D03*
X152400000Y-129540000D03*
X154940000Y-127000000D03*
X154940000Y-129540000D03*
X157480000Y-127000000D03*
X157480000Y-129540000D03*
X160020000Y-127000000D03*
X160020000Y-129540000D03*
X162560000Y-127000000D03*
X162560000Y-129540000D03*
X165100000Y-127000000D03*
X165100000Y-129540000D03*
X167640000Y-127000000D03*
X167640000Y-129540000D03*
X170180000Y-127000000D03*
X170180000Y-129540000D03*
X172720000Y-127000000D03*
X172720000Y-129540000D03*
X175260000Y-127000000D03*
X175260000Y-129540000D03*
D27*
X27940000Y-127000000D03*
D28*
X27940000Y-129540000D03*
X30480000Y-127000000D03*
X30480000Y-129540000D03*
X33020000Y-127000000D03*
X33020000Y-129540000D03*
X35560000Y-127000000D03*
X35560000Y-129540000D03*
X38100000Y-127000000D03*
X38100000Y-129540000D03*
X40640000Y-127000000D03*
X40640000Y-129540000D03*
X43180000Y-127000000D03*
X43180000Y-129540000D03*
X45720000Y-127000000D03*
X45720000Y-129540000D03*
X48260000Y-127000000D03*
X48260000Y-129540000D03*
X50800000Y-127000000D03*
X50800000Y-129540000D03*
X53340000Y-127000000D03*
X53340000Y-129540000D03*
X55880000Y-127000000D03*
X55880000Y-129540000D03*
X58420000Y-127000000D03*
X58420000Y-129540000D03*
X60960000Y-127000000D03*
X60960000Y-129540000D03*
X63500000Y-127000000D03*
X63500000Y-129540000D03*
X66040000Y-127000000D03*
X66040000Y-129540000D03*
X68580000Y-127000000D03*
X68580000Y-129540000D03*
X71120000Y-127000000D03*
X71120000Y-129540000D03*
X73660000Y-127000000D03*
X73660000Y-129540000D03*
X76200000Y-127000000D03*
X76200000Y-129540000D03*
X78740000Y-127000000D03*
X78740000Y-129540000D03*
X81280000Y-127000000D03*
X81280000Y-129540000D03*
X83820000Y-127000000D03*
X83820000Y-129540000D03*
X86360000Y-127000000D03*
X86360000Y-129540000D03*
X88900000Y-127000000D03*
X88900000Y-129540000D03*
X91440000Y-127000000D03*
X91440000Y-129540000D03*
X93980000Y-127000000D03*
X93980000Y-129540000D03*
X96520000Y-127000000D03*
X96520000Y-129540000D03*
X99060000Y-127000000D03*
X99060000Y-129540000D03*
X101600000Y-127000000D03*
X101600000Y-129540000D03*
X104140000Y-127000000D03*
X104140000Y-129540000D03*
X106680000Y-127000000D03*
X106680000Y-129540000D03*
X109220000Y-127000000D03*
X109220000Y-129540000D03*
X111760000Y-127000000D03*
X111760000Y-129540000D03*
X114300000Y-127000000D03*
X114300000Y-129540000D03*
X116840000Y-127000000D03*
X116840000Y-129540000D03*
X119380000Y-127000000D03*
X119380000Y-129540000D03*
X121920000Y-127000000D03*
X121920000Y-129540000D03*
X124460000Y-127000000D03*
X124460000Y-129540000D03*
X127000000Y-127000000D03*
X127000000Y-129540000D03*
M02*
