%TF.GenerationSoftware,KiCad,Pcbnew,(6.0.7-1)-1*%
%TF.CreationDate,2022-09-01T12:15:20+02:00*%
%TF.ProjectId,breakout,62726561-6b6f-4757-942e-6b696361645f,A.27*%
%TF.SameCoordinates,Original*%
%TF.FileFunction,Drillmap*%
%TF.FilePolarity,Positive*%
%FSLAX45Y45*%
G04 Gerber Fmt 4.5, Leading zero omitted, Abs format (unit mm)*
G04 Created by KiCad (PCBNEW (6.0.7-1)-1) date 2022-09-01 12:15:20*
%MOMM*%
%LPD*%
G01*
G04 APERTURE LIST*
%ADD10C,0.100000*%
%ADD11C,0.050000*%
%ADD12C,0.200000*%
G04 APERTURE END LIST*
D10*
X3048000Y-6604000D02*
X17272000Y-6604000D01*
X2540000Y-12954000D02*
X2540000Y-7112000D01*
D11*
X17653000Y-13081000D02*
G75*
G03*
X17780000Y-12954000I0J127000D01*
G01*
D10*
X17780000Y-7112000D02*
X17780000Y-12954000D01*
D11*
X3048000Y-6604000D02*
G75*
G03*
X2540000Y-7112000I0J-508000D01*
G01*
X17780000Y-7112000D02*
G75*
G03*
X17272000Y-6604000I-508000J0D01*
G01*
D10*
X17653000Y-13081000D02*
X2667000Y-13081000D01*
D11*
X2540000Y-12954000D02*
G75*
G03*
X2667000Y-13081000I127000J0D01*
G01*
D12*
X2792619Y-13396476D02*
X2792619Y-13196476D01*
X2840238Y-13196476D01*
X2868809Y-13206000D01*
X2887857Y-13225048D01*
X2897381Y-13244095D01*
X2906905Y-13282190D01*
X2906905Y-13310762D01*
X2897381Y-13348857D01*
X2887857Y-13367905D01*
X2868809Y-13386952D01*
X2840238Y-13396476D01*
X2792619Y-13396476D01*
X2992619Y-13396476D02*
X2992619Y-13263143D01*
X2992619Y-13301238D02*
X3002143Y-13282190D01*
X3011667Y-13272667D01*
X3030714Y-13263143D01*
X3049762Y-13263143D01*
X3116428Y-13396476D02*
X3116428Y-13263143D01*
X3116428Y-13196476D02*
X3106905Y-13206000D01*
X3116428Y-13215524D01*
X3125952Y-13206000D01*
X3116428Y-13196476D01*
X3116428Y-13215524D01*
X3240238Y-13396476D02*
X3221190Y-13386952D01*
X3211667Y-13367905D01*
X3211667Y-13196476D01*
X3345000Y-13396476D02*
X3325952Y-13386952D01*
X3316428Y-13367905D01*
X3316428Y-13196476D01*
X3573571Y-13396476D02*
X3573571Y-13196476D01*
X3640238Y-13339333D01*
X3706905Y-13196476D01*
X3706905Y-13396476D01*
X3887857Y-13396476D02*
X3887857Y-13291714D01*
X3878333Y-13272667D01*
X3859286Y-13263143D01*
X3821190Y-13263143D01*
X3802143Y-13272667D01*
X3887857Y-13386952D02*
X3868809Y-13396476D01*
X3821190Y-13396476D01*
X3802143Y-13386952D01*
X3792619Y-13367905D01*
X3792619Y-13348857D01*
X3802143Y-13329809D01*
X3821190Y-13320286D01*
X3868809Y-13320286D01*
X3887857Y-13310762D01*
X3983095Y-13263143D02*
X3983095Y-13463143D01*
X3983095Y-13272667D02*
X4002143Y-13263143D01*
X4040238Y-13263143D01*
X4059286Y-13272667D01*
X4068809Y-13282190D01*
X4078333Y-13301238D01*
X4078333Y-13358381D01*
X4068809Y-13377428D01*
X4059286Y-13386952D01*
X4040238Y-13396476D01*
X4002143Y-13396476D01*
X3983095Y-13386952D01*
X4164048Y-13377428D02*
X4173571Y-13386952D01*
X4164048Y-13396476D01*
X4154524Y-13386952D01*
X4164048Y-13377428D01*
X4164048Y-13396476D01*
X4164048Y-13272667D02*
X4173571Y-13282190D01*
X4164048Y-13291714D01*
X4154524Y-13282190D01*
X4164048Y-13272667D01*
X4164048Y-13291714D01*
M02*
