M48
; DRILL file {KiCad (6.0.7-1)-1} date 2022 September 01, Thursday 12:15:18
; FORMAT={-:-/ absolute / metric / decimal}
; #@! TF.CreationDate,2022-09-01T12:15:18+02:00
; #@! TF.GenerationSoftware,Kicad,Pcbnew,(6.0.7-1)-1
; #@! TF.FileFunction,Plated,1,4,PTH
FMAT,2
METRIC
; #@! TA.AperFunction,Plated,PTH,ViaDrill
T1C0.300
; #@! TA.AperFunction,Plated,PTH,ComponentDrill
T2C0.600
; #@! TA.AperFunction,Plated,PTH,ComponentDrill
T3C0.700
; #@! TA.AperFunction,Plated,PTH,ComponentDrill
T4C0.750
; #@! TA.AperFunction,Plated,PTH,ComponentDrill
T5C0.800
; #@! TA.AperFunction,Plated,PTH,ComponentDrill
T6C0.900
; #@! TA.AperFunction,Plated,PTH,ComponentDrill
T7C1.000
; #@! TA.AperFunction,Plated,PTH,ComponentDrill
T8C1.100
; #@! TA.AperFunction,Plated,PTH,ComponentDrill
T9C3.200
%
G90
G05
T1
X26.441Y-125.044
X27.076Y-77.191
X27.661Y-97.434
X28.194Y-83.261
X28.194Y-111.633
X30.201Y-86.385
X31.039Y-117.983
X31.775Y-93.269
X32.055Y-101.625
X32.791Y-115.214
X33.325Y-107.036
X34.392Y-95.834
X35.179Y-69.113
X35.331Y-73.838
X35.992Y-97.942
X35.992Y-115.367
X36.398Y-77.546
X36.83Y-121.107
X36.83Y-124.866
X38.557Y-107.696
X38.837Y-115.951
X40.03Y-92.253
X40.869Y-85.649
X43.155Y-108.814
X43.256Y-100.254
X43.891Y-76.835
X44.069Y-112.547
X46.101Y-120.65
X46.736Y-90.729
X46.939Y-98.806
X47.65Y-86.385
X48.082Y-117.475
X48.59Y-68.377
X51.232Y-98.882
X52.553Y-104.14
X52.68Y-85.928
X52.756Y-105.461
X53.188Y-120.015
X53.355Y-104.14
X53.442Y-77.927
X53.558Y-105.488
X54.178Y-125.044
X54.585Y-80.823
X55.372Y-97.688
X55.677Y-92.329
X55.778Y-99.339
X56.642Y-114.3
X57.556Y-119.507
X57.76Y-68.021
X57.861Y-74.346
X58.598Y-83.972
X59.207Y-114.91
X59.385Y-116.891
X60.198Y-94.259
X60.985Y-97.13
X61.857Y-99.873
X61.857Y-105.842
X61.857Y-109.906
X62.23Y-120.98
X62.738Y-121.666
X62.746Y-118.542
X63.056Y-87.21
X63.779Y-121.633
X64.11Y-82.245
X64.364Y-78.765
X64.564Y-122.476
X64.872Y-99.822
X64.897Y-94.615
X65.111Y-90.655
X65.532Y-105.512
X65.684Y-109.728
X65.913Y-90.627
X65.964Y-72.06
X65.964Y-88.468
X66.396Y-102.743
X66.599Y-76.149
X66.599Y-108.89
X66.904Y-104.699
X67.818Y-121.633
X68.148Y-67.183
X68.58Y-80.899
X69.029Y-94.488
X69.53Y-121.818
X69.746Y-93.925
X69.748Y-87.071
X70.333Y-121.818
X71.399Y-93.574
X71.603Y-111.227
X71.73Y-83.718
X72.253Y-93.544
X73.101Y-92.227
X73.939Y-92.227
X74.625Y-103.784
X75.693Y-116.336
X76.073Y-117.043
X76.606Y-94.361
X77.14Y-70.028
X77.241Y-114.275
X77.281Y-73.171
X78.224Y-73.043
X81.28Y-89.408
X81.432Y-102.946
X82.931Y-76.098
X84.125Y-112.37
X84.582Y-92.71
X85.039Y-124.689
X85.141Y-89.383
X85.384Y-92.668
X86.639Y-116.611
X87.224Y-109.118
X87.732Y-89.281
X88.748Y-68.809
X89.662Y-89.23
X90.272Y-83.261
X90.83Y-77.038
X91.465Y-110.363
X92.304Y-69.85
X92.304Y-88.113
X92.862Y-116.586
X93.142Y-88.976
X93.173Y-89.778
X93.955Y-108.991
X94.564Y-110.82
X94.691Y-110.007
X94.734Y-109.184
X95.377Y-75.616
X95.428Y-83.21
X95.479Y-88.849
X96.506Y-100.474
X97.307Y-100.432
X98.165Y-92.266
X98.35Y-109.97
X98.384Y-71.879
X98.407Y-109.169
X98.577Y-70.206
X98.831Y-84.811
X98.833Y-92.711
X98.874Y-108.425
X99.014Y-89.478
X99.187Y-71.879
X99.601Y-88.93
X99.644Y-81.839
X99.704Y-108.41
X100.101Y-112.116
X100.434Y-81.698
X101.168Y-106.367
X101.549Y-109.195
X102.331Y-119.212
X102.768Y-77.114
X103.125Y-119.091
X103.193Y-116.391
X103.996Y-116.391
X105.08Y-119.101
X105.131Y-92.202
X105.181Y-89.383
X105.181Y-111.557
X105.476Y-90.129
X105.849Y-119.331
X105.928Y-92.293
X106.519Y-106.367
X107.239Y-78.664
X107.32Y-106.426
X107.428Y-75.681
X107.51Y-82.016
X107.721Y-76.429
X108.179Y-110.185
X108.255Y-69.088
X108.31Y-82.086
X109.296Y-118.975
X109.753Y-89.002
X110.079Y-118.654
X110.473Y-104.055
X110.515Y-99.517
X110.769Y-71.933
X110.769Y-104.8
X112.257Y-90.039
X112.37Y-97.409
X113.055Y-90.119
X113.205Y-102.831
X113.259Y-103.632
X113.295Y-97.379
X113.36Y-107.696
X113.716Y-92.1
X113.97Y-69.571
X114.503Y-88.951
X114.706Y-83.363
X115.9Y-77.191
X116.002Y-103.277
X116.053Y-102.476
X116.662Y-73.685
X118.11Y-124.866
X118.153Y-81.083
X118.288Y-109.906
X118.694Y-96.799
X118.734Y-93.015
X118.948Y-102.954
X118.974Y-102.133
X119.024Y-81.051
X119.405Y-92.575
X119.939Y-86.462
X120.421Y-71.907
X120.599Y-79.68
X121.641Y-94.386
X121.818Y-101.778
X121.869Y-102.599
X122.911Y-89.154
X123.19Y-111.76
X123.685Y-89.367
X124.46Y-86.817
X124.511Y-102.249
X124.562Y-101.427
X124.739Y-77.572
X124.739Y-91.415
X126.822Y-109.914
X127.254Y-96.241
X127.356Y-101.879
X127.406Y-101.078
X128.473Y-105.715
X128.918Y-105.047
X130.455Y-101.531
X130.48Y-100.728
X130.785Y-76.632
X131.064Y-69.85
X132.029Y-94.615
X132.258Y-83.871
X132.842Y-104.724
X133.401Y-90.17
X133.491Y-117.137
X133.509Y-89.293
X133.975Y-116.496
X135.128Y-116.95
X135.835Y-117.483
X137.77Y-91.719
X137.846Y-117.483
X138.328Y-74.981
X138.633Y-117.966
X139.217Y-69.85
X139.522Y-108.153
X139.649Y-116.865
X140.858Y-117.966
X141.173Y-72.238
X141.562Y-118.474
X141.808Y-81.229
X142.55Y-104.462
X143.459Y-124.511
X143.739Y-118.474
X144.426Y-119.007
X144.958Y-117.043
X145.771Y-109.449
X146.507Y-76.276
X146.761Y-67.183
X146.761Y-105.232
X147.32Y-121.666
X147.584Y-90.906
X147.93Y-122.225
X148.26Y-91.338
X148.692Y-116.408
X149.174Y-92.786
X149.301Y-84.15
X149.708Y-105.385
X150.114Y-84.303
X150.622Y-96.723
X151.079Y-72.923
X151.213Y-89.799
X151.232Y-90.602
X153.467Y-77.114
X153.67Y-82.067
X154.043Y-90.703
X154.661Y-111.455
X154.864Y-90.678
X154.94Y-69.469
X155.931Y-99.873
X156.21Y-86.055
X156.87Y-117.069
X157.505Y-100.355
X158.801Y-124.689
X158.979Y-96.495
X159.944Y-100.305
X160.172Y-88.849
X161.239Y-104.038
X162.027Y-77.114
X162.382Y-67.488
X162.89Y-100.279
X163.22Y-103.988
X163.22Y-117.526
X163.392Y-95.867
X164.423Y-83.2
X164.49Y-103.886
X164.49Y-117.577
X164.897Y-71.095
X164.948Y-110.541
X164.998Y-100.305
X165.049Y-76.175
X165.532Y-85.75
X167.538Y-100.305
X168.808Y-117.805
X169.189Y-124.689
X169.469Y-96.037
X169.824Y-67.285
X170.155Y-100.305
X170.383Y-83.998
X171.399Y-103.099
X172.39Y-80.035
X172.593Y-100.305
X173.812Y-103.734
X174.244Y-110.541
X174.523Y-116.053
X175.514Y-75.997
X175.895Y-79.121
X175.895Y-90.043
X176.073Y-83.337
T2
X45.461Y-73.66
X46.961Y-73.66
T3
X50.292Y-92.71
X62.23Y-67.818
X77.47Y-67.818
X98.908Y-67.666
X99.06Y-96.52
X104.394Y-96.52
X110.744Y-83.82
X120.65Y-67.564
X121.818Y-96.52
X130.302Y-67.564
X133.35Y-96.52
X137.414Y-83.82
X152.044Y-96.495
X152.908Y-83.82
X157.48Y-69.596
T4
X32.385Y-108.712
X33.655Y-108.712
X34.925Y-108.712
T5
X28.448Y-93.472
X28.448Y-101.092
X28.468Y-89.281
X28.575Y-107.442
X28.575Y-109.942
X30.968Y-89.281
X36.068Y-93.472
X36.068Y-101.092
X39.111Y-70.866
X41.611Y-70.866
X41.877Y-109.188
X41.877Y-116.807
X41.91Y-92.71
X41.91Y-95.25
X41.91Y-102.87
X41.942Y-106.647
X44.41Y-92.71
X44.417Y-109.188
X44.417Y-116.807
X44.442Y-106.647
X44.45Y-95.25
X44.45Y-102.87
X45.461Y-68.326
X45.715Y-81.27
X45.715Y-88.89
X45.72Y-78.74
X46.957Y-109.188
X46.957Y-116.807
X46.99Y-95.25
X46.99Y-102.87
X48.22Y-78.74
X48.255Y-81.27
X48.255Y-88.89
X49.497Y-109.188
X49.497Y-116.807
X49.53Y-95.25
X49.53Y-102.87
X50.795Y-81.27
X50.795Y-88.89
X52.037Y-109.188
X52.037Y-116.807
X52.07Y-95.25
X52.07Y-102.87
X53.081Y-68.326
X53.335Y-81.27
X53.335Y-88.89
X54.578Y-109.188
X54.578Y-116.807
X54.61Y-95.25
X54.61Y-102.87
X55.875Y-81.27
X55.875Y-88.89
X57.117Y-109.188
X57.117Y-116.807
X57.15Y-95.25
X57.15Y-102.87
X57.912Y-70.612
X57.912Y-78.232
X58.415Y-81.27
X58.415Y-88.89
X60.198Y-99.822
X60.198Y-105.766
X60.198Y-109.88
X60.198Y-113.995
X60.198Y-118.11
X60.955Y-81.27
X60.955Y-88.89
X62.992Y-70.612
X62.992Y-78.232
X67.31Y-69.85
X67.31Y-74.93
X67.31Y-78.74
X67.31Y-81.27
X67.31Y-88.89
X67.818Y-99.822
X67.818Y-105.766
X67.818Y-109.88
X67.818Y-113.995
X67.818Y-118.11
X69.81Y-78.74
X69.85Y-81.27
X69.85Y-88.89
X70.993Y-109.88
X70.993Y-113.995
X70.993Y-118.11
X71.12Y-96.52
X71.12Y-99.06
X71.12Y-106.68
X72.39Y-81.27
X72.39Y-88.89
X73.62Y-96.52
X73.66Y-99.06
X73.66Y-106.68
X74.93Y-69.85
X74.93Y-74.93
X74.93Y-81.27
X74.93Y-88.89
X76.2Y-99.06
X76.2Y-106.68
X78.613Y-109.88
X78.613Y-113.995
X78.613Y-118.11
X78.74Y-99.06
X78.74Y-106.68
X80.005Y-69.85
X80.01Y-72.39
X80.01Y-80.01
X80.01Y-83.82
X80.01Y-86.36
X80.01Y-93.98
X81.28Y-99.06
X81.28Y-106.68
X81.28Y-112.014
X81.28Y-116.078
X82.505Y-69.85
X82.51Y-83.82
X82.55Y-72.39
X82.55Y-80.01
X82.55Y-86.36
X82.55Y-93.98
X82.55Y-120.66
X83.82Y-99.06
X83.82Y-106.68
X85.09Y-72.39
X85.09Y-80.01
X85.09Y-86.36
X85.09Y-93.98
X85.09Y-120.66
X86.36Y-99.06
X86.36Y-106.68
X87.376Y-69.342
X87.63Y-72.39
X87.63Y-80.01
X87.63Y-86.36
X87.63Y-93.98
X87.63Y-120.66
X88.9Y-99.06
X88.9Y-106.68
X88.9Y-112.014
X88.9Y-116.078
X90.17Y-72.39
X90.17Y-80.01
X90.17Y-86.36
X90.17Y-93.98
X90.17Y-120.66
X91.44Y-99.06
X91.44Y-106.68
X92.71Y-72.39
X92.71Y-80.01
X92.71Y-86.36
X92.71Y-93.98
X92.71Y-120.66
X93.98Y-99.06
X93.98Y-106.68
X94.996Y-69.342
X95.25Y-72.39
X95.25Y-80.01
X95.25Y-86.36
X95.25Y-93.98
X95.25Y-120.66
X97.79Y-120.66
X99.06Y-99.07
X99.06Y-114.31
X100.33Y-120.66
X101.6Y-99.07
X101.6Y-114.31
X101.849Y-72.38
X101.849Y-80.0
X101.849Y-86.35
X101.849Y-93.97
X101.854Y-83.82
X101.874Y-69.85
X102.87Y-120.66
X104.14Y-99.07
X104.14Y-114.31
X104.354Y-83.82
X104.374Y-69.85
X104.389Y-72.38
X104.389Y-80.0
X104.389Y-86.35
X104.389Y-93.97
X106.68Y-99.07
X106.68Y-114.31
X106.68Y-120.66
X106.929Y-72.38
X106.929Y-80.0
X106.929Y-86.35
X106.929Y-93.97
X109.22Y-99.07
X109.22Y-114.31
X109.22Y-120.66
X109.469Y-72.38
X109.469Y-80.0
X109.469Y-86.35
X109.469Y-93.97
X111.76Y-99.07
X111.76Y-114.31
X111.76Y-120.66
X112.009Y-72.38
X112.009Y-80.0
X112.009Y-86.35
X112.009Y-93.97
X114.3Y-99.07
X114.3Y-114.31
X114.3Y-120.66
X114.549Y-72.38
X114.549Y-80.0
X114.549Y-86.35
X114.549Y-93.97
X116.84Y-99.07
X116.84Y-114.31
X116.84Y-116.85
X116.84Y-120.66
X117.089Y-72.38
X117.089Y-80.0
X117.089Y-86.35
X117.089Y-93.97
X119.34Y-116.85
X119.38Y-99.07
X119.38Y-114.31
X119.38Y-120.66
X121.92Y-99.07
X121.92Y-114.31
X121.92Y-120.66
X123.185Y-69.85
X123.185Y-72.38
X123.185Y-80.0
X123.185Y-86.35
X123.185Y-93.97
X123.19Y-83.82
X124.46Y-99.07
X124.46Y-114.31
X124.46Y-120.66
X125.685Y-69.85
X125.69Y-83.82
X125.725Y-72.38
X125.725Y-80.0
X125.725Y-86.35
X125.725Y-93.97
X127.0Y-99.07
X127.0Y-114.31
X127.0Y-120.66
X128.265Y-72.38
X128.265Y-80.0
X128.265Y-86.35
X128.265Y-93.97
X129.54Y-99.07
X129.54Y-114.31
X130.805Y-72.38
X130.805Y-80.0
X130.805Y-86.35
X130.805Y-93.97
X130.825Y-120.66
X132.08Y-99.07
X132.08Y-114.31
X133.345Y-72.38
X133.345Y-80.0
X133.345Y-86.35
X133.345Y-93.97
X133.365Y-120.66
X134.62Y-99.07
X134.62Y-114.31
X135.885Y-72.38
X135.885Y-80.0
X135.885Y-86.35
X135.885Y-93.97
X135.905Y-120.66
X137.16Y-99.07
X137.16Y-114.31
X138.425Y-72.38
X138.425Y-80.0
X138.425Y-86.35
X138.425Y-93.97
X138.445Y-120.66
X139.7Y-99.07
X139.7Y-114.31
X140.985Y-120.66
X142.24Y-99.07
X142.24Y-114.31
X143.525Y-120.66
X144.78Y-69.85
X144.78Y-83.82
X144.78Y-86.36
X144.78Y-93.98
X144.78Y-99.07
X144.78Y-114.31
X144.795Y-72.38
X144.795Y-80.0
X146.065Y-120.66
X147.28Y-69.85
X147.28Y-83.82
X147.32Y-86.36
X147.32Y-93.98
X147.32Y-99.07
X147.32Y-114.31
X147.335Y-72.38
X147.335Y-80.0
X148.605Y-120.66
X149.86Y-86.36
X149.86Y-93.98
X149.875Y-72.38
X149.875Y-80.0
X151.145Y-120.66
X152.4Y-86.36
X152.4Y-93.98
X152.4Y-104.14
X152.4Y-106.69
X152.4Y-114.31
X152.415Y-72.38
X152.415Y-80.0
X154.864Y-98.984
X154.9Y-104.14
X154.94Y-86.36
X154.94Y-93.98
X154.94Y-106.69
X154.94Y-114.31
X154.955Y-72.38
X154.955Y-80.0
X154.955Y-120.66
X157.404Y-98.984
X157.48Y-86.36
X157.48Y-93.98
X157.48Y-106.69
X157.48Y-114.31
X157.495Y-72.38
X157.495Y-80.0
X157.495Y-120.66
X159.944Y-98.984
X160.02Y-86.36
X160.02Y-93.98
X160.02Y-106.69
X160.02Y-114.31
X160.035Y-72.38
X160.035Y-80.0
X160.035Y-120.66
X162.484Y-98.984
X162.56Y-106.69
X162.56Y-114.31
X162.575Y-72.38
X162.575Y-80.0
X162.575Y-120.66
X165.024Y-98.984
X165.1Y-106.69
X165.1Y-114.31
X165.115Y-120.66
X167.005Y-72.365
X167.005Y-79.985
X167.564Y-98.984
X167.64Y-106.69
X167.64Y-114.31
X167.655Y-120.66
X170.104Y-98.984
X170.18Y-106.69
X170.18Y-114.31
X170.195Y-120.66
X172.644Y-98.984
X172.72Y-106.69
X172.72Y-114.31
X172.735Y-120.66
X175.184Y-98.984
X175.26Y-106.69
X175.26Y-114.31
X175.275Y-120.66
T6
X50.541Y-73.66
X53.081Y-73.66
T7
X27.94Y-127.0
X27.94Y-129.54
X30.48Y-127.0
X30.48Y-129.54
X33.02Y-127.0
X33.02Y-129.54
X35.56Y-127.0
X35.56Y-129.54
X38.1Y-127.0
X38.1Y-129.54
X40.64Y-127.0
X40.64Y-129.54
X43.18Y-127.0
X43.18Y-129.54
X45.72Y-127.0
X45.72Y-129.54
X48.26Y-127.0
X48.26Y-129.54
X50.8Y-127.0
X50.8Y-129.54
X53.34Y-127.0
X53.34Y-129.54
X55.88Y-127.0
X55.88Y-129.54
X58.42Y-127.0
X58.42Y-129.54
X60.96Y-127.0
X60.96Y-129.54
X63.5Y-127.0
X63.5Y-129.54
X66.04Y-127.0
X66.04Y-129.54
X68.58Y-127.0
X68.58Y-129.54
X71.12Y-127.0
X71.12Y-129.54
X73.66Y-127.0
X73.66Y-129.54
X76.2Y-127.0
X76.2Y-129.54
X78.74Y-127.0
X78.74Y-129.54
X81.28Y-127.0
X81.28Y-129.54
X83.82Y-127.0
X83.82Y-129.54
X86.36Y-127.0
X86.36Y-129.54
X88.9Y-127.0
X88.9Y-129.54
X91.44Y-127.0
X91.44Y-129.54
X93.98Y-127.0
X93.98Y-129.54
X96.52Y-127.0
X96.52Y-129.54
X99.06Y-127.0
X99.06Y-129.54
X101.6Y-127.0
X101.6Y-129.54
X104.14Y-127.0
X104.14Y-129.54
X106.68Y-127.0
X106.68Y-129.54
X109.22Y-127.0
X109.22Y-129.54
X111.76Y-127.0
X111.76Y-129.54
X114.3Y-127.0
X114.3Y-129.54
X116.84Y-127.0
X116.84Y-129.54
X119.38Y-127.0
X119.38Y-129.54
X121.92Y-127.0
X121.92Y-129.54
X124.46Y-127.0
X124.46Y-129.54
X127.0Y-127.0
X127.0Y-129.54
X132.08Y-127.0
X132.08Y-129.54
X134.62Y-127.0
X134.62Y-129.54
X137.16Y-127.0
X137.16Y-129.54
X139.7Y-127.0
X139.7Y-129.54
X142.24Y-127.0
X142.24Y-129.54
X144.78Y-127.0
X144.78Y-129.54
X147.32Y-127.0
X147.32Y-129.54
X149.86Y-127.0
X149.86Y-129.54
X152.4Y-127.0
X152.4Y-129.54
X154.94Y-127.0
X154.94Y-129.54
X157.48Y-127.0
X157.48Y-129.54
X160.02Y-127.0
X160.02Y-129.54
X162.56Y-127.0
X162.56Y-129.54
X165.1Y-127.0
X165.1Y-129.54
X167.64Y-127.0
X167.64Y-129.54
X170.18Y-127.0
X170.18Y-129.54
X172.72Y-127.0
X172.72Y-129.54
X175.26Y-127.0
X175.26Y-129.54
T8
X28.575Y-114.082
X28.575Y-118.582
X35.075Y-114.082
X35.075Y-118.582
X109.982Y-69.342
X117.602Y-69.342
T9
X30.48Y-71.12
X172.72Y-71.12
T7
X33.35Y-79.576G85X33.35Y-81.576
G05
X35.35Y-85.276G85X37.35Y-85.276
G05
X39.35Y-79.576G85X39.35Y-81.576
G05
T0
M30
