G04 #@! TF.GenerationSoftware,KiCad,Pcbnew,7.0.5-0*
G04 #@! TF.CreationDate,2023-08-05T11:37:55+02:00*
G04 #@! TF.ProjectId,debug_leds,64656275-675f-46c6-9564-732e6b696361,B*
G04 #@! TF.SameCoordinates,Original*
G04 #@! TF.FileFunction,Soldermask,Bot*
G04 #@! TF.FilePolarity,Negative*
%FSLAX46Y46*%
G04 Gerber Fmt 4.6, Leading zero omitted, Abs format (unit mm)*
G04 Created by KiCad (PCBNEW 7.0.5-0) date 2023-08-05 11:37:55*
%MOMM*%
%LPD*%
G01*
G04 APERTURE LIST*
%ADD10R,1.600000X1.600000*%
%ADD11O,1.600000X1.600000*%
%ADD12C,1.600000*%
%ADD13R,1.700000X1.700000*%
%ADD14O,1.700000X1.700000*%
G04 APERTURE END LIST*
D10*
X109220000Y-62230000D03*
D11*
X111760000Y-62230000D03*
X114300000Y-62230000D03*
X116840000Y-62230000D03*
X119380000Y-62230000D03*
X121920000Y-62230000D03*
X124460000Y-62230000D03*
X127000000Y-62230000D03*
X129540000Y-62230000D03*
X132080000Y-62230000D03*
X132080000Y-54610000D03*
X129540000Y-54610000D03*
X127000000Y-54610000D03*
X124460000Y-54610000D03*
X121920000Y-54610000D03*
X119380000Y-54610000D03*
X116840000Y-54610000D03*
X114300000Y-54610000D03*
X111760000Y-54610000D03*
X109220000Y-54610000D03*
D12*
X106045000Y-62230000D03*
X106045000Y-59730000D03*
X155575000Y-62210000D03*
X155575000Y-59710000D03*
D10*
X152400000Y-54610000D03*
D11*
X149860000Y-54610000D03*
X147320000Y-54610000D03*
X144780000Y-54610000D03*
X142240000Y-54610000D03*
X139700000Y-54610000D03*
X137160000Y-54610000D03*
X134620000Y-54610000D03*
X134620000Y-62230000D03*
X137160000Y-62230000D03*
X139700000Y-62230000D03*
X142240000Y-62230000D03*
X144780000Y-62230000D03*
X147320000Y-62230000D03*
X149860000Y-62230000D03*
X152400000Y-62230000D03*
D13*
X106680000Y-74930000D03*
D14*
X109220000Y-74930000D03*
X111760000Y-74930000D03*
X114300000Y-74930000D03*
X116840000Y-74930000D03*
X119380000Y-74930000D03*
X121920000Y-74930000D03*
X124460000Y-74930000D03*
X127000000Y-74930000D03*
X129540000Y-74930000D03*
X132080000Y-74930000D03*
X134620000Y-74930000D03*
X137160000Y-74930000D03*
X139700000Y-74930000D03*
X142240000Y-74930000D03*
X144780000Y-74930000D03*
X147320000Y-74930000D03*
X149860000Y-74930000D03*
X152400000Y-74930000D03*
X154940000Y-74930000D03*
D13*
X106680000Y-52070000D03*
D14*
X109220000Y-52070000D03*
X111760000Y-52070000D03*
X114300000Y-52070000D03*
X116840000Y-52070000D03*
X119380000Y-52070000D03*
X121920000Y-52070000D03*
X124460000Y-52070000D03*
X127000000Y-52070000D03*
X129540000Y-52070000D03*
X132080000Y-52070000D03*
X134620000Y-52070000D03*
X137160000Y-52070000D03*
X139700000Y-52070000D03*
X142240000Y-52070000D03*
X144780000Y-52070000D03*
X147320000Y-52070000D03*
X149860000Y-52070000D03*
X152400000Y-52070000D03*
X154940000Y-52070000D03*
D10*
X138430000Y-72390000D03*
D11*
X135890000Y-72390000D03*
X133350000Y-72390000D03*
X130810000Y-72390000D03*
X128270000Y-72390000D03*
X125730000Y-72390000D03*
X123190000Y-72390000D03*
X123190000Y-64770000D03*
X125730000Y-64770000D03*
X128270000Y-64770000D03*
X130810000Y-64770000D03*
X133350000Y-64770000D03*
X135890000Y-64770000D03*
X138430000Y-64770000D03*
D10*
X156845000Y-72390000D03*
D11*
X154305000Y-72390000D03*
X151765000Y-72390000D03*
X149225000Y-72390000D03*
X146685000Y-72390000D03*
X144145000Y-72390000D03*
X141605000Y-72390000D03*
X141605000Y-64770000D03*
X144145000Y-64770000D03*
X146685000Y-64770000D03*
X149225000Y-64770000D03*
X151765000Y-64770000D03*
X154305000Y-64770000D03*
X156845000Y-64770000D03*
D10*
X120015000Y-72390000D03*
D11*
X117475000Y-72390000D03*
X114935000Y-72390000D03*
X112395000Y-72390000D03*
X109855000Y-72390000D03*
X107315000Y-72390000D03*
X104775000Y-72390000D03*
X104775000Y-64770000D03*
X107315000Y-64770000D03*
X109855000Y-64770000D03*
X112395000Y-64770000D03*
X114935000Y-64770000D03*
X117475000Y-64770000D03*
X120015000Y-64770000D03*
M02*
