%TF.GenerationSoftware,KiCad,Pcbnew,(6.0.11-0)*%
%TF.CreationDate,2023-06-10T21:35:13+02:00*%
%TF.ProjectId,debug_leds,64656275-675f-46c6-9564-732e6b696361,REV*%
%TF.SameCoordinates,Original*%
%TF.FileFunction,Drillmap*%
%TF.FilePolarity,Positive*%
%FSLAX45Y45*%
G04 Gerber Fmt 4.5, Leading zero omitted, Abs format (unit mm)*
G04 Created by KiCad (PCBNEW (6.0.11-0)) date 2023-06-10 21:35:13*
%MOMM*%
%LPD*%
G01*
G04 APERTURE LIST*
%ADD10C,0.100000*%
%ADD11C,0.200000*%
G04 APERTURE END LIST*
D10*
X16002000Y-5207000D02*
G75*
G03*
X15875000Y-5080000I-127000J0D01*
G01*
X15875000Y-7620000D02*
G75*
G03*
X16002000Y-7493000I0J127000D01*
G01*
X10160000Y-7493000D02*
G75*
G03*
X10287000Y-7620000I127000J0D01*
G01*
X10287000Y-5080000D02*
G75*
G03*
X10160000Y-5207000I0J-127000D01*
G01*
X10287000Y-7620000D02*
X15875000Y-7620000D01*
X16002000Y-7493000D02*
X16002000Y-5207000D01*
X10160000Y-5207000D02*
X10160000Y-7493000D01*
X10287000Y-5080000D02*
X15875000Y-5080000D01*
D11*
X10412619Y-7935476D02*
X10412619Y-7735476D01*
X10460238Y-7735476D01*
X10488810Y-7745000D01*
X10507857Y-7764048D01*
X10517381Y-7783095D01*
X10526905Y-7821190D01*
X10526905Y-7849762D01*
X10517381Y-7887857D01*
X10507857Y-7906905D01*
X10488810Y-7925952D01*
X10460238Y-7935476D01*
X10412619Y-7935476D01*
X10612619Y-7935476D02*
X10612619Y-7802143D01*
X10612619Y-7840238D02*
X10622143Y-7821190D01*
X10631667Y-7811667D01*
X10650714Y-7802143D01*
X10669762Y-7802143D01*
X10736429Y-7935476D02*
X10736429Y-7802143D01*
X10736429Y-7735476D02*
X10726905Y-7745000D01*
X10736429Y-7754524D01*
X10745952Y-7745000D01*
X10736429Y-7735476D01*
X10736429Y-7754524D01*
X10860238Y-7935476D02*
X10841190Y-7925952D01*
X10831667Y-7906905D01*
X10831667Y-7735476D01*
X10965000Y-7935476D02*
X10945952Y-7925952D01*
X10936429Y-7906905D01*
X10936429Y-7735476D01*
X11193571Y-7935476D02*
X11193571Y-7735476D01*
X11260238Y-7878333D01*
X11326905Y-7735476D01*
X11326905Y-7935476D01*
X11507857Y-7935476D02*
X11507857Y-7830714D01*
X11498333Y-7811667D01*
X11479286Y-7802143D01*
X11441190Y-7802143D01*
X11422143Y-7811667D01*
X11507857Y-7925952D02*
X11488809Y-7935476D01*
X11441190Y-7935476D01*
X11422143Y-7925952D01*
X11412619Y-7906905D01*
X11412619Y-7887857D01*
X11422143Y-7868809D01*
X11441190Y-7859286D01*
X11488809Y-7859286D01*
X11507857Y-7849762D01*
X11603095Y-7802143D02*
X11603095Y-8002143D01*
X11603095Y-7811667D02*
X11622143Y-7802143D01*
X11660238Y-7802143D01*
X11679286Y-7811667D01*
X11688809Y-7821190D01*
X11698333Y-7840238D01*
X11698333Y-7897381D01*
X11688809Y-7916428D01*
X11679286Y-7925952D01*
X11660238Y-7935476D01*
X11622143Y-7935476D01*
X11603095Y-7925952D01*
X11784048Y-7916428D02*
X11793571Y-7925952D01*
X11784048Y-7935476D01*
X11774524Y-7925952D01*
X11784048Y-7916428D01*
X11784048Y-7935476D01*
X11784048Y-7811667D02*
X11793571Y-7821190D01*
X11784048Y-7830714D01*
X11774524Y-7821190D01*
X11784048Y-7811667D01*
X11784048Y-7830714D01*
M02*
