M48
; DRILL file {KiCad (6.0.11-0)} date 2023 June 10, Saturday 21:35:13
; FORMAT={-:-/ absolute / metric / decimal}
; #@! TF.CreationDate,2023-06-10T21:35:13+02:00
; #@! TF.GenerationSoftware,Kicad,Pcbnew,(6.0.11-0)
; #@! TF.FileFunction,Plated,1,4,PTH
FMAT,2
METRIC
; #@! TA.AperFunction,Plated,PTH,ViaDrill
T1C0.200
; #@! TA.AperFunction,Plated,PTH,ComponentDrill
T2C0.600
; #@! TA.AperFunction,Plated,PTH,ComponentDrill
T3C0.800
; #@! TA.AperFunction,Plated,PTH,ComponentDrill
T4C1.000
%
G90
G05
T1
X107.95Y-60.96
X110.49Y-58.928
X113.03Y-57.912
X113.157Y-70.231
X115.57Y-57.912
X115.824Y-58.706
X117.242Y-68.665
X118.11Y-58.928
X120.65Y-58.928
X123.19Y-58.928
X125.73Y-58.928
X128.27Y-58.928
X130.81Y-58.928
X133.35Y-55.88
X135.89Y-57.912
X138.43Y-57.912
X140.97Y-58.801
X143.51Y-57.912
X146.05Y-57.912
X148.59Y-57.912
X151.13Y-57.912
T2
X154.94Y-58.42
X156.94Y-58.42
T3
X102.86Y-64.77
X102.86Y-72.39
X102.87Y-62.23
X105.37Y-62.23
X105.4Y-64.77
X105.4Y-72.39
X107.94Y-64.77
X107.94Y-72.39
X107.95Y-54.61
X107.95Y-62.23
X110.48Y-64.77
X110.48Y-72.39
X110.49Y-54.61
X110.49Y-62.23
X113.02Y-64.77
X113.02Y-72.39
X113.03Y-54.61
X113.03Y-62.23
X115.56Y-64.77
X115.56Y-72.39
X115.57Y-54.61
X115.57Y-62.23
X118.1Y-64.77
X118.1Y-72.39
X118.11Y-54.61
X118.11Y-62.23
X120.65Y-54.61
X120.65Y-62.23
X120.65Y-64.68
X120.65Y-67.18
X123.19Y-54.61
X123.19Y-62.23
X123.19Y-64.77
X123.19Y-72.39
X125.73Y-54.61
X125.73Y-62.23
X125.73Y-64.77
X125.73Y-72.39
X128.27Y-54.61
X128.27Y-62.23
X128.27Y-64.77
X128.27Y-72.39
X130.81Y-54.61
X130.81Y-62.23
X130.81Y-64.77
X130.81Y-72.39
X133.35Y-54.61
X133.35Y-62.23
X133.35Y-64.77
X133.35Y-72.39
X135.89Y-54.61
X135.89Y-62.23
X135.89Y-64.77
X135.89Y-72.39
X138.43Y-54.61
X138.43Y-62.23
X138.43Y-64.77
X138.43Y-72.39
X140.97Y-54.61
X140.97Y-62.23
X140.97Y-64.77
X140.97Y-67.27
X143.51Y-54.61
X143.51Y-62.23
X143.51Y-64.77
X143.51Y-72.39
X146.05Y-54.61
X146.05Y-62.23
X146.05Y-64.77
X146.05Y-72.39
X148.59Y-54.61
X148.59Y-62.23
X148.59Y-64.77
X148.59Y-72.39
X151.13Y-54.61
X151.13Y-62.23
X151.13Y-64.77
X151.13Y-72.39
X153.67Y-64.77
X153.67Y-72.39
X156.21Y-64.77
X156.21Y-72.39
X158.75Y-64.77
X158.75Y-72.39
T4
X105.41Y-52.07
X105.41Y-74.93
X107.95Y-52.07
X107.95Y-74.93
X110.49Y-52.07
X110.49Y-74.93
X113.03Y-52.07
X113.03Y-74.93
X115.57Y-52.07
X115.57Y-74.93
X118.11Y-52.07
X118.11Y-74.93
X120.65Y-52.07
X120.65Y-74.93
X123.19Y-52.07
X123.19Y-74.93
X125.73Y-52.07
X125.73Y-74.93
X128.27Y-52.07
X128.27Y-74.93
X130.81Y-52.07
X130.81Y-74.93
X133.35Y-52.07
X133.35Y-74.93
X135.89Y-52.07
X135.89Y-74.93
X138.43Y-52.07
X138.43Y-74.93
X140.97Y-52.07
X140.97Y-74.93
X143.51Y-52.07
X143.51Y-74.93
X146.05Y-52.07
X146.05Y-74.93
X148.59Y-52.07
X148.59Y-74.93
X151.13Y-52.07
X151.13Y-74.93
X153.67Y-52.07
X153.67Y-74.93
T0
M30
