G04 #@! TF.GenerationSoftware,KiCad,Pcbnew,(6.0.11-0)*
G04 #@! TF.CreationDate,2023-06-10T21:35:02+02:00*
G04 #@! TF.ProjectId,debug_leds,64656275-675f-46c6-9564-732e6b696361,REV*
G04 #@! TF.SameCoordinates,Original*
G04 #@! TF.FileFunction,Soldermask,Bot*
G04 #@! TF.FilePolarity,Negative*
%FSLAX46Y46*%
G04 Gerber Fmt 4.6, Leading zero omitted, Abs format (unit mm)*
G04 Created by KiCad (PCBNEW (6.0.11-0)) date 2023-06-10 21:35:02*
%MOMM*%
%LPD*%
G01*
G04 APERTURE LIST*
%ADD10R,1.700000X1.700000*%
%ADD11O,1.700000X1.700000*%
%ADD12O,1.600000X1.600000*%
%ADD13R,1.600000X1.600000*%
%ADD14C,1.600000*%
%ADD15R,1.200000X1.200000*%
%ADD16C,1.200000*%
G04 APERTURE END LIST*
D10*
X105410000Y-52070000D03*
D11*
X107950000Y-52070000D03*
X110490000Y-52070000D03*
X113030000Y-52070000D03*
X115570000Y-52070000D03*
X118110000Y-52070000D03*
X120650000Y-52070000D03*
X123190000Y-52070000D03*
X125730000Y-52070000D03*
X128270000Y-52070000D03*
X130810000Y-52070000D03*
X133350000Y-52070000D03*
X135890000Y-52070000D03*
X138430000Y-52070000D03*
X140970000Y-52070000D03*
X143510000Y-52070000D03*
X146050000Y-52070000D03*
X148590000Y-52070000D03*
X151130000Y-52070000D03*
X153670000Y-52070000D03*
D10*
X105410000Y-74930000D03*
D11*
X107950000Y-74930000D03*
X110490000Y-74930000D03*
X113030000Y-74930000D03*
X115570000Y-74930000D03*
X118110000Y-74930000D03*
X120650000Y-74930000D03*
X123190000Y-74930000D03*
X125730000Y-74930000D03*
X128270000Y-74930000D03*
X130810000Y-74930000D03*
X133350000Y-74930000D03*
X135890000Y-74930000D03*
X138430000Y-74930000D03*
X140970000Y-74930000D03*
X143510000Y-74930000D03*
X146050000Y-74930000D03*
X148590000Y-74930000D03*
X151130000Y-74930000D03*
X153670000Y-74930000D03*
D12*
X123190000Y-64770000D03*
X125730000Y-64770000D03*
X128270000Y-64770000D03*
X130810000Y-64770000D03*
X133350000Y-64770000D03*
X135890000Y-64770000D03*
X138430000Y-64770000D03*
X138430000Y-72390000D03*
X135890000Y-72390000D03*
X133350000Y-72390000D03*
X130810000Y-72390000D03*
X128270000Y-72390000D03*
X125730000Y-72390000D03*
D13*
X123190000Y-72390000D03*
D12*
X143510000Y-64770000D03*
X146050000Y-64770000D03*
X148590000Y-64770000D03*
X151130000Y-64770000D03*
X153670000Y-64770000D03*
X156210000Y-64770000D03*
X158750000Y-64770000D03*
X158750000Y-72390000D03*
X156210000Y-72390000D03*
X153670000Y-72390000D03*
X151130000Y-72390000D03*
X148590000Y-72390000D03*
X146050000Y-72390000D03*
D13*
X143510000Y-72390000D03*
X102860000Y-72390000D03*
D12*
X105400000Y-72390000D03*
X107940000Y-72390000D03*
X110480000Y-72390000D03*
X113020000Y-72390000D03*
X115560000Y-72390000D03*
X118100000Y-72390000D03*
X118100000Y-64770000D03*
X115560000Y-64770000D03*
X113020000Y-64770000D03*
X110480000Y-64770000D03*
X107940000Y-64770000D03*
X105400000Y-64770000D03*
X102860000Y-64770000D03*
X151130000Y-62230000D03*
X148590000Y-62230000D03*
X146050000Y-62230000D03*
X143510000Y-62230000D03*
X140970000Y-62230000D03*
X138430000Y-62230000D03*
X135890000Y-62230000D03*
X133350000Y-62230000D03*
X133350000Y-54610000D03*
X135890000Y-54610000D03*
X138430000Y-54610000D03*
X140970000Y-54610000D03*
X143510000Y-54610000D03*
X146050000Y-54610000D03*
X148590000Y-54610000D03*
D13*
X151130000Y-54610000D03*
D12*
X107950000Y-54610000D03*
X110490000Y-54610000D03*
X113030000Y-54610000D03*
X115570000Y-54610000D03*
X118110000Y-54610000D03*
X120650000Y-54610000D03*
X123190000Y-54610000D03*
X125730000Y-54610000D03*
X128270000Y-54610000D03*
X130810000Y-54610000D03*
X130810000Y-62230000D03*
X128270000Y-62230000D03*
X125730000Y-62230000D03*
X123190000Y-62230000D03*
X120650000Y-62230000D03*
X118110000Y-62230000D03*
X115570000Y-62230000D03*
X113030000Y-62230000D03*
X110490000Y-62230000D03*
D13*
X107950000Y-62230000D03*
D14*
X140970000Y-64770000D03*
X140970000Y-67270000D03*
D15*
X154940000Y-58420000D03*
D16*
X156940000Y-58420000D03*
D14*
X102870000Y-62230000D03*
X105370000Y-62230000D03*
X120650000Y-64680000D03*
X120650000Y-67180000D03*
M02*
