%TF.GenerationSoftware,KiCad,Pcbnew,7.0.5-0*%
%TF.CreationDate,2023-08-05T11:37:57+02:00*%
%TF.ProjectId,debug_leds,64656275-675f-46c6-9564-732e6b696361,B*%
%TF.SameCoordinates,Original*%
%TF.FileFunction,Drillmap*%
%TF.FilePolarity,Positive*%
%FSLAX45Y45*%
G04 Gerber Fmt 4.5, Leading zero omitted, Abs format (unit mm)*
G04 Created by KiCad (PCBNEW 7.0.5-0) date 2023-08-05 11:37:57*
%MOMM*%
%LPD*%
G01*
G04 APERTURE LIST*
%ADD10C,0.100000*%
%ADD11C,0.200000*%
G04 APERTURE END LIST*
D10*
X15798800Y-5207000D02*
G75*
G03*
X15671800Y-5080000I-127000J0D01*
G01*
X10490200Y-7620000D02*
X15671800Y-7620000D01*
X15798800Y-7493000D02*
X15798800Y-5207000D01*
X10363200Y-5207000D02*
X10363200Y-7493000D01*
X15671800Y-7620000D02*
G75*
G03*
X15798800Y-7493000I0J127000D01*
G01*
X10490200Y-5080000D02*
X15671800Y-5080000D01*
X10363200Y-7493000D02*
G75*
G03*
X10490200Y-7620000I127000J0D01*
G01*
X10490200Y-5080000D02*
G75*
G03*
X10363200Y-5207000I0J-127000D01*
G01*
D11*
X10618977Y-7936484D02*
X10618977Y-7736484D01*
X10618977Y-7736484D02*
X10666596Y-7736484D01*
X10666596Y-7736484D02*
X10695167Y-7746008D01*
X10695167Y-7746008D02*
X10714215Y-7765055D01*
X10714215Y-7765055D02*
X10723739Y-7784103D01*
X10723739Y-7784103D02*
X10733263Y-7822198D01*
X10733263Y-7822198D02*
X10733263Y-7850769D01*
X10733263Y-7850769D02*
X10723739Y-7888865D01*
X10723739Y-7888865D02*
X10714215Y-7907912D01*
X10714215Y-7907912D02*
X10695167Y-7926960D01*
X10695167Y-7926960D02*
X10666596Y-7936484D01*
X10666596Y-7936484D02*
X10618977Y-7936484D01*
X10818977Y-7936484D02*
X10818977Y-7803150D01*
X10818977Y-7841246D02*
X10828501Y-7822198D01*
X10828501Y-7822198D02*
X10838024Y-7812674D01*
X10838024Y-7812674D02*
X10857072Y-7803150D01*
X10857072Y-7803150D02*
X10876120Y-7803150D01*
X10942786Y-7936484D02*
X10942786Y-7803150D01*
X10942786Y-7736484D02*
X10933263Y-7746008D01*
X10933263Y-7746008D02*
X10942786Y-7755531D01*
X10942786Y-7755531D02*
X10952310Y-7746008D01*
X10952310Y-7746008D02*
X10942786Y-7736484D01*
X10942786Y-7736484D02*
X10942786Y-7755531D01*
X11066596Y-7936484D02*
X11047548Y-7926960D01*
X11047548Y-7926960D02*
X11038024Y-7907912D01*
X11038024Y-7907912D02*
X11038024Y-7736484D01*
X11171358Y-7936484D02*
X11152310Y-7926960D01*
X11152310Y-7926960D02*
X11142786Y-7907912D01*
X11142786Y-7907912D02*
X11142786Y-7736484D01*
X11399929Y-7936484D02*
X11399929Y-7736484D01*
X11399929Y-7736484D02*
X11466596Y-7879341D01*
X11466596Y-7879341D02*
X11533262Y-7736484D01*
X11533262Y-7736484D02*
X11533262Y-7936484D01*
X11714215Y-7936484D02*
X11714215Y-7831722D01*
X11714215Y-7831722D02*
X11704691Y-7812674D01*
X11704691Y-7812674D02*
X11685643Y-7803150D01*
X11685643Y-7803150D02*
X11647548Y-7803150D01*
X11647548Y-7803150D02*
X11628501Y-7812674D01*
X11714215Y-7926960D02*
X11695167Y-7936484D01*
X11695167Y-7936484D02*
X11647548Y-7936484D01*
X11647548Y-7936484D02*
X11628501Y-7926960D01*
X11628501Y-7926960D02*
X11618977Y-7907912D01*
X11618977Y-7907912D02*
X11618977Y-7888865D01*
X11618977Y-7888865D02*
X11628501Y-7869817D01*
X11628501Y-7869817D02*
X11647548Y-7860293D01*
X11647548Y-7860293D02*
X11695167Y-7860293D01*
X11695167Y-7860293D02*
X11714215Y-7850769D01*
X11809453Y-7803150D02*
X11809453Y-8003150D01*
X11809453Y-7812674D02*
X11828501Y-7803150D01*
X11828501Y-7803150D02*
X11866596Y-7803150D01*
X11866596Y-7803150D02*
X11885643Y-7812674D01*
X11885643Y-7812674D02*
X11895167Y-7822198D01*
X11895167Y-7822198D02*
X11904691Y-7841246D01*
X11904691Y-7841246D02*
X11904691Y-7898388D01*
X11904691Y-7898388D02*
X11895167Y-7917436D01*
X11895167Y-7917436D02*
X11885643Y-7926960D01*
X11885643Y-7926960D02*
X11866596Y-7936484D01*
X11866596Y-7936484D02*
X11828501Y-7936484D01*
X11828501Y-7936484D02*
X11809453Y-7926960D01*
X11990405Y-7917436D02*
X11999929Y-7926960D01*
X11999929Y-7926960D02*
X11990405Y-7936484D01*
X11990405Y-7936484D02*
X11980882Y-7926960D01*
X11980882Y-7926960D02*
X11990405Y-7917436D01*
X11990405Y-7917436D02*
X11990405Y-7936484D01*
X11990405Y-7812674D02*
X11999929Y-7822198D01*
X11999929Y-7822198D02*
X11990405Y-7831722D01*
X11990405Y-7831722D02*
X11980882Y-7822198D01*
X11980882Y-7822198D02*
X11990405Y-7812674D01*
X11990405Y-7812674D02*
X11990405Y-7831722D01*
M02*
