%TF.GenerationSoftware,KiCad,Pcbnew,7.0.5-0*%
%TF.CreationDate,2023-08-05T11:37:57+02:00*%
%TF.ProjectId,debug_leds,64656275-675f-46c6-9564-732e6b696361,B*%
%TF.SameCoordinates,Original*%
%TF.FileFunction,Drillmap*%
%TF.FilePolarity,Positive*%
%FSLAX45Y45*%
G04 Gerber Fmt 4.5, Leading zero omitted, Abs format (unit mm)*
G04 Created by KiCad (PCBNEW 7.0.5-0) date 2023-08-05 11:37:57*
%MOMM*%
%LPD*%
G01*
G04 APERTURE LIST*
%ADD10C,0.100000*%
%ADD11C,0.200000*%
%ADD12C,0.030000*%
%ADD13C,0.080000*%
G04 APERTURE END LIST*
D10*
X15798800Y-5207000D02*
G75*
G03*
X15671800Y-5080000I-127000J0D01*
G01*
X10490200Y-7620000D02*
X15671800Y-7620000D01*
X15798800Y-7493000D02*
X15798800Y-5207000D01*
X10363200Y-5207000D02*
X10363200Y-7493000D01*
X15671800Y-7620000D02*
G75*
G03*
X15798800Y-7493000I0J127000D01*
G01*
X10490200Y-5080000D02*
X15671800Y-5080000D01*
X10363200Y-7493000D02*
G75*
G03*
X10490200Y-7620000I127000J0D01*
G01*
X10490200Y-5080000D02*
G75*
G03*
X10363200Y-5207000I0J-127000D01*
G01*
D11*
D12*
X11359770Y-7000440D02*
X11389770Y-7030440D01*
X11389770Y-7000440D02*
X11359770Y-7030440D01*
D13*
X10517500Y-6477000D02*
G75*
G03*
X10517500Y-6477000I-40000J0D01*
G01*
X10517500Y-7239000D02*
G75*
G03*
X10517500Y-7239000I-40000J0D01*
G01*
X10644500Y-5973000D02*
G75*
G03*
X10644500Y-5973000I-40000J0D01*
G01*
X10644500Y-6223000D02*
G75*
G03*
X10644500Y-6223000I-40000J0D01*
G01*
X10771500Y-6477000D02*
G75*
G03*
X10771500Y-6477000I-40000J0D01*
G01*
X10771500Y-7239000D02*
G75*
G03*
X10771500Y-7239000I-40000J0D01*
G01*
X10962000Y-5461000D02*
G75*
G03*
X10962000Y-5461000I-40000J0D01*
G01*
X10962000Y-6223000D02*
G75*
G03*
X10962000Y-6223000I-40000J0D01*
G01*
X11025500Y-6477000D02*
G75*
G03*
X11025500Y-6477000I-40000J0D01*
G01*
X11025500Y-7239000D02*
G75*
G03*
X11025500Y-7239000I-40000J0D01*
G01*
X11216000Y-5461000D02*
G75*
G03*
X11216000Y-5461000I-40000J0D01*
G01*
X11216000Y-6223000D02*
G75*
G03*
X11216000Y-6223000I-40000J0D01*
G01*
X11279500Y-6477000D02*
G75*
G03*
X11279500Y-6477000I-40000J0D01*
G01*
X11279500Y-7239000D02*
G75*
G03*
X11279500Y-7239000I-40000J0D01*
G01*
X11470000Y-5461000D02*
G75*
G03*
X11470000Y-5461000I-40000J0D01*
G01*
X11470000Y-6223000D02*
G75*
G03*
X11470000Y-6223000I-40000J0D01*
G01*
X11533500Y-6477000D02*
G75*
G03*
X11533500Y-6477000I-40000J0D01*
G01*
X11533500Y-7239000D02*
G75*
G03*
X11533500Y-7239000I-40000J0D01*
G01*
X11724000Y-5461000D02*
G75*
G03*
X11724000Y-5461000I-40000J0D01*
G01*
X11724000Y-6223000D02*
G75*
G03*
X11724000Y-6223000I-40000J0D01*
G01*
X11787500Y-6477000D02*
G75*
G03*
X11787500Y-6477000I-40000J0D01*
G01*
X11787500Y-7239000D02*
G75*
G03*
X11787500Y-7239000I-40000J0D01*
G01*
X11978000Y-5461000D02*
G75*
G03*
X11978000Y-5461000I-40000J0D01*
G01*
X11978000Y-6223000D02*
G75*
G03*
X11978000Y-6223000I-40000J0D01*
G01*
X12041500Y-6477000D02*
G75*
G03*
X12041500Y-6477000I-40000J0D01*
G01*
X12041500Y-7239000D02*
G75*
G03*
X12041500Y-7239000I-40000J0D01*
G01*
X12232000Y-5461000D02*
G75*
G03*
X12232000Y-5461000I-40000J0D01*
G01*
X12232000Y-6223000D02*
G75*
G03*
X12232000Y-6223000I-40000J0D01*
G01*
X12359000Y-6477000D02*
G75*
G03*
X12359000Y-6477000I-40000J0D01*
G01*
X12359000Y-7239000D02*
G75*
G03*
X12359000Y-7239000I-40000J0D01*
G01*
X12486000Y-5461000D02*
G75*
G03*
X12486000Y-5461000I-40000J0D01*
G01*
X12486000Y-6223000D02*
G75*
G03*
X12486000Y-6223000I-40000J0D01*
G01*
X12613000Y-6477000D02*
G75*
G03*
X12613000Y-6477000I-40000J0D01*
G01*
X12613000Y-7239000D02*
G75*
G03*
X12613000Y-7239000I-40000J0D01*
G01*
X12740000Y-5461000D02*
G75*
G03*
X12740000Y-5461000I-40000J0D01*
G01*
X12740000Y-6223000D02*
G75*
G03*
X12740000Y-6223000I-40000J0D01*
G01*
X12867000Y-6477000D02*
G75*
G03*
X12867000Y-6477000I-40000J0D01*
G01*
X12867000Y-7239000D02*
G75*
G03*
X12867000Y-7239000I-40000J0D01*
G01*
X12994000Y-5461000D02*
G75*
G03*
X12994000Y-5461000I-40000J0D01*
G01*
X12994000Y-6223000D02*
G75*
G03*
X12994000Y-6223000I-40000J0D01*
G01*
X13121000Y-6477000D02*
G75*
G03*
X13121000Y-6477000I-40000J0D01*
G01*
X13121000Y-7239000D02*
G75*
G03*
X13121000Y-7239000I-40000J0D01*
G01*
X13248000Y-5461000D02*
G75*
G03*
X13248000Y-5461000I-40000J0D01*
G01*
X13248000Y-6223000D02*
G75*
G03*
X13248000Y-6223000I-40000J0D01*
G01*
X13375000Y-6477000D02*
G75*
G03*
X13375000Y-6477000I-40000J0D01*
G01*
X13375000Y-7239000D02*
G75*
G03*
X13375000Y-7239000I-40000J0D01*
G01*
X13502000Y-5461000D02*
G75*
G03*
X13502000Y-5461000I-40000J0D01*
G01*
X13502000Y-6223000D02*
G75*
G03*
X13502000Y-6223000I-40000J0D01*
G01*
X13629000Y-6477000D02*
G75*
G03*
X13629000Y-6477000I-40000J0D01*
G01*
X13629000Y-7239000D02*
G75*
G03*
X13629000Y-7239000I-40000J0D01*
G01*
X13756000Y-5461000D02*
G75*
G03*
X13756000Y-5461000I-40000J0D01*
G01*
X13756000Y-6223000D02*
G75*
G03*
X13756000Y-6223000I-40000J0D01*
G01*
X13883000Y-6477000D02*
G75*
G03*
X13883000Y-6477000I-40000J0D01*
G01*
X13883000Y-7239000D02*
G75*
G03*
X13883000Y-7239000I-40000J0D01*
G01*
X14010000Y-5461000D02*
G75*
G03*
X14010000Y-5461000I-40000J0D01*
G01*
X14010000Y-6223000D02*
G75*
G03*
X14010000Y-6223000I-40000J0D01*
G01*
X14200500Y-6477000D02*
G75*
G03*
X14200500Y-6477000I-40000J0D01*
G01*
X14200500Y-7239000D02*
G75*
G03*
X14200500Y-7239000I-40000J0D01*
G01*
X14264000Y-5461000D02*
G75*
G03*
X14264000Y-5461000I-40000J0D01*
G01*
X14264000Y-6223000D02*
G75*
G03*
X14264000Y-6223000I-40000J0D01*
G01*
X14454500Y-6477000D02*
G75*
G03*
X14454500Y-6477000I-40000J0D01*
G01*
X14454500Y-7239000D02*
G75*
G03*
X14454500Y-7239000I-40000J0D01*
G01*
X14518000Y-5461000D02*
G75*
G03*
X14518000Y-5461000I-40000J0D01*
G01*
X14518000Y-6223000D02*
G75*
G03*
X14518000Y-6223000I-40000J0D01*
G01*
X14708500Y-6477000D02*
G75*
G03*
X14708500Y-6477000I-40000J0D01*
G01*
X14708500Y-7239000D02*
G75*
G03*
X14708500Y-7239000I-40000J0D01*
G01*
X14772000Y-5461000D02*
G75*
G03*
X14772000Y-5461000I-40000J0D01*
G01*
X14772000Y-6223000D02*
G75*
G03*
X14772000Y-6223000I-40000J0D01*
G01*
X14962500Y-6477000D02*
G75*
G03*
X14962500Y-6477000I-40000J0D01*
G01*
X14962500Y-7239000D02*
G75*
G03*
X14962500Y-7239000I-40000J0D01*
G01*
X15026000Y-5461000D02*
G75*
G03*
X15026000Y-5461000I-40000J0D01*
G01*
X15026000Y-6223000D02*
G75*
G03*
X15026000Y-6223000I-40000J0D01*
G01*
X15216500Y-6477000D02*
G75*
G03*
X15216500Y-6477000I-40000J0D01*
G01*
X15216500Y-7239000D02*
G75*
G03*
X15216500Y-7239000I-40000J0D01*
G01*
X15280000Y-5461000D02*
G75*
G03*
X15280000Y-5461000I-40000J0D01*
G01*
X15280000Y-6223000D02*
G75*
G03*
X15280000Y-6223000I-40000J0D01*
G01*
X15470500Y-6477000D02*
G75*
G03*
X15470500Y-6477000I-40000J0D01*
G01*
X15470500Y-7239000D02*
G75*
G03*
X15470500Y-7239000I-40000J0D01*
G01*
X15597500Y-5971000D02*
G75*
G03*
X15597500Y-5971000I-40000J0D01*
G01*
X15597500Y-6221000D02*
G75*
G03*
X15597500Y-6221000I-40000J0D01*
G01*
X15724500Y-6477000D02*
G75*
G03*
X15724500Y-6477000I-40000J0D01*
G01*
X15724500Y-7239000D02*
G75*
G03*
X15724500Y-7239000I-40000J0D01*
G01*
D10*
X10668000Y-5157000D02*
X10668000Y-5257000D01*
X10618000Y-5207000D02*
X10718000Y-5207000D01*
X10668000Y-7443000D02*
X10668000Y-7543000D01*
X10618000Y-7493000D02*
X10718000Y-7493000D01*
X10922000Y-5157000D02*
X10922000Y-5257000D01*
X10872000Y-5207000D02*
X10972000Y-5207000D01*
X10922000Y-7443000D02*
X10922000Y-7543000D01*
X10872000Y-7493000D02*
X10972000Y-7493000D01*
X11176000Y-5157000D02*
X11176000Y-5257000D01*
X11126000Y-5207000D02*
X11226000Y-5207000D01*
X11176000Y-7443000D02*
X11176000Y-7543000D01*
X11126000Y-7493000D02*
X11226000Y-7493000D01*
X11430000Y-5157000D02*
X11430000Y-5257000D01*
X11380000Y-5207000D02*
X11480000Y-5207000D01*
X11430000Y-7443000D02*
X11430000Y-7543000D01*
X11380000Y-7493000D02*
X11480000Y-7493000D01*
X11684000Y-5157000D02*
X11684000Y-5257000D01*
X11634000Y-5207000D02*
X11734000Y-5207000D01*
X11684000Y-7443000D02*
X11684000Y-7543000D01*
X11634000Y-7493000D02*
X11734000Y-7493000D01*
X11938000Y-5157000D02*
X11938000Y-5257000D01*
X11888000Y-5207000D02*
X11988000Y-5207000D01*
X11938000Y-7443000D02*
X11938000Y-7543000D01*
X11888000Y-7493000D02*
X11988000Y-7493000D01*
X12192000Y-5157000D02*
X12192000Y-5257000D01*
X12142000Y-5207000D02*
X12242000Y-5207000D01*
X12192000Y-7443000D02*
X12192000Y-7543000D01*
X12142000Y-7493000D02*
X12242000Y-7493000D01*
X12446000Y-5157000D02*
X12446000Y-5257000D01*
X12396000Y-5207000D02*
X12496000Y-5207000D01*
X12446000Y-7443000D02*
X12446000Y-7543000D01*
X12396000Y-7493000D02*
X12496000Y-7493000D01*
X12700000Y-5157000D02*
X12700000Y-5257000D01*
X12650000Y-5207000D02*
X12750000Y-5207000D01*
X12700000Y-7443000D02*
X12700000Y-7543000D01*
X12650000Y-7493000D02*
X12750000Y-7493000D01*
X12954000Y-5157000D02*
X12954000Y-5257000D01*
X12904000Y-5207000D02*
X13004000Y-5207000D01*
X12954000Y-7443000D02*
X12954000Y-7543000D01*
X12904000Y-7493000D02*
X13004000Y-7493000D01*
X13208000Y-5157000D02*
X13208000Y-5257000D01*
X13158000Y-5207000D02*
X13258000Y-5207000D01*
X13208000Y-7443000D02*
X13208000Y-7543000D01*
X13158000Y-7493000D02*
X13258000Y-7493000D01*
X13462000Y-5157000D02*
X13462000Y-5257000D01*
X13412000Y-5207000D02*
X13512000Y-5207000D01*
X13462000Y-7443000D02*
X13462000Y-7543000D01*
X13412000Y-7493000D02*
X13512000Y-7493000D01*
X13716000Y-5157000D02*
X13716000Y-5257000D01*
X13666000Y-5207000D02*
X13766000Y-5207000D01*
X13716000Y-7443000D02*
X13716000Y-7543000D01*
X13666000Y-7493000D02*
X13766000Y-7493000D01*
X13970000Y-5157000D02*
X13970000Y-5257000D01*
X13920000Y-5207000D02*
X14020000Y-5207000D01*
X13970000Y-7443000D02*
X13970000Y-7543000D01*
X13920000Y-7493000D02*
X14020000Y-7493000D01*
X14224000Y-5157000D02*
X14224000Y-5257000D01*
X14174000Y-5207000D02*
X14274000Y-5207000D01*
X14224000Y-7443000D02*
X14224000Y-7543000D01*
X14174000Y-7493000D02*
X14274000Y-7493000D01*
X14478000Y-5157000D02*
X14478000Y-5257000D01*
X14428000Y-5207000D02*
X14528000Y-5207000D01*
X14478000Y-7443000D02*
X14478000Y-7543000D01*
X14428000Y-7493000D02*
X14528000Y-7493000D01*
X14732000Y-5157000D02*
X14732000Y-5257000D01*
X14682000Y-5207000D02*
X14782000Y-5207000D01*
X14732000Y-7443000D02*
X14732000Y-7543000D01*
X14682000Y-7493000D02*
X14782000Y-7493000D01*
X14986000Y-5157000D02*
X14986000Y-5257000D01*
X14936000Y-5207000D02*
X15036000Y-5207000D01*
X14986000Y-7443000D02*
X14986000Y-7543000D01*
X14936000Y-7493000D02*
X15036000Y-7493000D01*
X15240000Y-5157000D02*
X15240000Y-5257000D01*
X15190000Y-5207000D02*
X15290000Y-5207000D01*
X15240000Y-7443000D02*
X15240000Y-7543000D01*
X15190000Y-7493000D02*
X15290000Y-7493000D01*
X15494000Y-5157000D02*
X15494000Y-5257000D01*
X15444000Y-5207000D02*
X15544000Y-5207000D01*
X15494000Y-7443000D02*
X15494000Y-7543000D01*
X15444000Y-7493000D02*
X15544000Y-7493000D01*
D11*
X10618977Y-7936484D02*
X10618977Y-7736484D01*
X10618977Y-7736484D02*
X10666596Y-7736484D01*
X10666596Y-7736484D02*
X10695167Y-7746008D01*
X10695167Y-7746008D02*
X10714215Y-7765055D01*
X10714215Y-7765055D02*
X10723739Y-7784103D01*
X10723739Y-7784103D02*
X10733263Y-7822198D01*
X10733263Y-7822198D02*
X10733263Y-7850769D01*
X10733263Y-7850769D02*
X10723739Y-7888865D01*
X10723739Y-7888865D02*
X10714215Y-7907912D01*
X10714215Y-7907912D02*
X10695167Y-7926960D01*
X10695167Y-7926960D02*
X10666596Y-7936484D01*
X10666596Y-7936484D02*
X10618977Y-7936484D01*
X10818977Y-7936484D02*
X10818977Y-7803150D01*
X10818977Y-7841246D02*
X10828501Y-7822198D01*
X10828501Y-7822198D02*
X10838024Y-7812674D01*
X10838024Y-7812674D02*
X10857072Y-7803150D01*
X10857072Y-7803150D02*
X10876120Y-7803150D01*
X10942786Y-7936484D02*
X10942786Y-7803150D01*
X10942786Y-7736484D02*
X10933263Y-7746008D01*
X10933263Y-7746008D02*
X10942786Y-7755531D01*
X10942786Y-7755531D02*
X10952310Y-7746008D01*
X10952310Y-7746008D02*
X10942786Y-7736484D01*
X10942786Y-7736484D02*
X10942786Y-7755531D01*
X11066596Y-7936484D02*
X11047548Y-7926960D01*
X11047548Y-7926960D02*
X11038024Y-7907912D01*
X11038024Y-7907912D02*
X11038024Y-7736484D01*
X11171358Y-7936484D02*
X11152310Y-7926960D01*
X11152310Y-7926960D02*
X11142786Y-7907912D01*
X11142786Y-7907912D02*
X11142786Y-7736484D01*
X11399929Y-7936484D02*
X11399929Y-7736484D01*
X11399929Y-7736484D02*
X11466596Y-7879341D01*
X11466596Y-7879341D02*
X11533262Y-7736484D01*
X11533262Y-7736484D02*
X11533262Y-7936484D01*
X11714215Y-7936484D02*
X11714215Y-7831722D01*
X11714215Y-7831722D02*
X11704691Y-7812674D01*
X11704691Y-7812674D02*
X11685643Y-7803150D01*
X11685643Y-7803150D02*
X11647548Y-7803150D01*
X11647548Y-7803150D02*
X11628501Y-7812674D01*
X11714215Y-7926960D02*
X11695167Y-7936484D01*
X11695167Y-7936484D02*
X11647548Y-7936484D01*
X11647548Y-7936484D02*
X11628501Y-7926960D01*
X11628501Y-7926960D02*
X11618977Y-7907912D01*
X11618977Y-7907912D02*
X11618977Y-7888865D01*
X11618977Y-7888865D02*
X11628501Y-7869817D01*
X11628501Y-7869817D02*
X11647548Y-7860293D01*
X11647548Y-7860293D02*
X11695167Y-7860293D01*
X11695167Y-7860293D02*
X11714215Y-7850769D01*
X11809453Y-7803150D02*
X11809453Y-8003150D01*
X11809453Y-7812674D02*
X11828501Y-7803150D01*
X11828501Y-7803150D02*
X11866596Y-7803150D01*
X11866596Y-7803150D02*
X11885643Y-7812674D01*
X11885643Y-7812674D02*
X11895167Y-7822198D01*
X11895167Y-7822198D02*
X11904691Y-7841246D01*
X11904691Y-7841246D02*
X11904691Y-7898388D01*
X11904691Y-7898388D02*
X11895167Y-7917436D01*
X11895167Y-7917436D02*
X11885643Y-7926960D01*
X11885643Y-7926960D02*
X11866596Y-7936484D01*
X11866596Y-7936484D02*
X11828501Y-7936484D01*
X11828501Y-7936484D02*
X11809453Y-7926960D01*
X11990405Y-7917436D02*
X11999929Y-7926960D01*
X11999929Y-7926960D02*
X11990405Y-7936484D01*
X11990405Y-7936484D02*
X11980882Y-7926960D01*
X11980882Y-7926960D02*
X11990405Y-7917436D01*
X11990405Y-7917436D02*
X11990405Y-7936484D01*
X11990405Y-7812674D02*
X11999929Y-7822198D01*
X11999929Y-7822198D02*
X11990405Y-7831722D01*
X11990405Y-7831722D02*
X11980882Y-7822198D01*
X11980882Y-7822198D02*
X11990405Y-7812674D01*
X11990405Y-7812674D02*
X11990405Y-7831722D01*
D12*
X10328200Y-8250000D02*
X10358200Y-8280000D01*
X10358200Y-8250000D02*
X10328200Y-8280000D01*
D11*
X10657072Y-8156484D02*
X10676120Y-8156484D01*
X10676120Y-8156484D02*
X10695167Y-8166008D01*
X10695167Y-8166008D02*
X10704691Y-8175531D01*
X10704691Y-8175531D02*
X10714215Y-8194579D01*
X10714215Y-8194579D02*
X10723739Y-8232674D01*
X10723739Y-8232674D02*
X10723739Y-8280293D01*
X10723739Y-8280293D02*
X10714215Y-8318388D01*
X10714215Y-8318388D02*
X10704691Y-8337436D01*
X10704691Y-8337436D02*
X10695167Y-8346960D01*
X10695167Y-8346960D02*
X10676120Y-8356484D01*
X10676120Y-8356484D02*
X10657072Y-8356484D01*
X10657072Y-8356484D02*
X10638024Y-8346960D01*
X10638024Y-8346960D02*
X10628501Y-8337436D01*
X10628501Y-8337436D02*
X10618977Y-8318388D01*
X10618977Y-8318388D02*
X10609453Y-8280293D01*
X10609453Y-8280293D02*
X10609453Y-8232674D01*
X10609453Y-8232674D02*
X10618977Y-8194579D01*
X10618977Y-8194579D02*
X10628501Y-8175531D01*
X10628501Y-8175531D02*
X10638024Y-8166008D01*
X10638024Y-8166008D02*
X10657072Y-8156484D01*
X10809453Y-8337436D02*
X10818977Y-8346960D01*
X10818977Y-8346960D02*
X10809453Y-8356484D01*
X10809453Y-8356484D02*
X10799929Y-8346960D01*
X10799929Y-8346960D02*
X10809453Y-8337436D01*
X10809453Y-8337436D02*
X10809453Y-8356484D01*
X10885644Y-8156484D02*
X11009453Y-8156484D01*
X11009453Y-8156484D02*
X10942786Y-8232674D01*
X10942786Y-8232674D02*
X10971358Y-8232674D01*
X10971358Y-8232674D02*
X10990405Y-8242198D01*
X10990405Y-8242198D02*
X10999929Y-8251722D01*
X10999929Y-8251722D02*
X11009453Y-8270769D01*
X11009453Y-8270769D02*
X11009453Y-8318388D01*
X11009453Y-8318388D02*
X10999929Y-8337436D01*
X10999929Y-8337436D02*
X10990405Y-8346960D01*
X10990405Y-8346960D02*
X10971358Y-8356484D01*
X10971358Y-8356484D02*
X10914215Y-8356484D01*
X10914215Y-8356484D02*
X10895167Y-8346960D01*
X10895167Y-8346960D02*
X10885644Y-8337436D01*
X11133263Y-8156484D02*
X11152310Y-8156484D01*
X11152310Y-8156484D02*
X11171358Y-8166008D01*
X11171358Y-8166008D02*
X11180882Y-8175531D01*
X11180882Y-8175531D02*
X11190405Y-8194579D01*
X11190405Y-8194579D02*
X11199929Y-8232674D01*
X11199929Y-8232674D02*
X11199929Y-8280293D01*
X11199929Y-8280293D02*
X11190405Y-8318388D01*
X11190405Y-8318388D02*
X11180882Y-8337436D01*
X11180882Y-8337436D02*
X11171358Y-8346960D01*
X11171358Y-8346960D02*
X11152310Y-8356484D01*
X11152310Y-8356484D02*
X11133263Y-8356484D01*
X11133263Y-8356484D02*
X11114215Y-8346960D01*
X11114215Y-8346960D02*
X11104691Y-8337436D01*
X11104691Y-8337436D02*
X11095167Y-8318388D01*
X11095167Y-8318388D02*
X11085644Y-8280293D01*
X11085644Y-8280293D02*
X11085644Y-8232674D01*
X11085644Y-8232674D02*
X11095167Y-8194579D01*
X11095167Y-8194579D02*
X11104691Y-8175531D01*
X11104691Y-8175531D02*
X11114215Y-8166008D01*
X11114215Y-8166008D02*
X11133263Y-8156484D01*
X11323739Y-8156484D02*
X11342786Y-8156484D01*
X11342786Y-8156484D02*
X11361834Y-8166008D01*
X11361834Y-8166008D02*
X11371358Y-8175531D01*
X11371358Y-8175531D02*
X11380882Y-8194579D01*
X11380882Y-8194579D02*
X11390405Y-8232674D01*
X11390405Y-8232674D02*
X11390405Y-8280293D01*
X11390405Y-8280293D02*
X11380882Y-8318388D01*
X11380882Y-8318388D02*
X11371358Y-8337436D01*
X11371358Y-8337436D02*
X11361834Y-8346960D01*
X11361834Y-8346960D02*
X11342786Y-8356484D01*
X11342786Y-8356484D02*
X11323739Y-8356484D01*
X11323739Y-8356484D02*
X11304691Y-8346960D01*
X11304691Y-8346960D02*
X11295167Y-8337436D01*
X11295167Y-8337436D02*
X11285643Y-8318388D01*
X11285643Y-8318388D02*
X11276120Y-8280293D01*
X11276120Y-8280293D02*
X11276120Y-8232674D01*
X11276120Y-8232674D02*
X11285643Y-8194579D01*
X11285643Y-8194579D02*
X11295167Y-8175531D01*
X11295167Y-8175531D02*
X11304691Y-8166008D01*
X11304691Y-8166008D02*
X11323739Y-8156484D01*
X11476120Y-8356484D02*
X11476120Y-8223150D01*
X11476120Y-8242198D02*
X11485643Y-8232674D01*
X11485643Y-8232674D02*
X11504691Y-8223150D01*
X11504691Y-8223150D02*
X11533263Y-8223150D01*
X11533263Y-8223150D02*
X11552310Y-8232674D01*
X11552310Y-8232674D02*
X11561834Y-8251722D01*
X11561834Y-8251722D02*
X11561834Y-8356484D01*
X11561834Y-8251722D02*
X11571358Y-8232674D01*
X11571358Y-8232674D02*
X11590405Y-8223150D01*
X11590405Y-8223150D02*
X11618977Y-8223150D01*
X11618977Y-8223150D02*
X11638024Y-8232674D01*
X11638024Y-8232674D02*
X11647548Y-8251722D01*
X11647548Y-8251722D02*
X11647548Y-8356484D01*
X11742786Y-8356484D02*
X11742786Y-8223150D01*
X11742786Y-8242198D02*
X11752310Y-8232674D01*
X11752310Y-8232674D02*
X11771358Y-8223150D01*
X11771358Y-8223150D02*
X11799929Y-8223150D01*
X11799929Y-8223150D02*
X11818977Y-8232674D01*
X11818977Y-8232674D02*
X11828501Y-8251722D01*
X11828501Y-8251722D02*
X11828501Y-8356484D01*
X11828501Y-8251722D02*
X11838024Y-8232674D01*
X11838024Y-8232674D02*
X11857072Y-8223150D01*
X11857072Y-8223150D02*
X11885643Y-8223150D01*
X11885643Y-8223150D02*
X11904691Y-8232674D01*
X11904691Y-8232674D02*
X11914215Y-8251722D01*
X11914215Y-8251722D02*
X11914215Y-8356484D01*
X12304691Y-8146960D02*
X12133263Y-8404103D01*
X12561834Y-8156484D02*
X12580882Y-8156484D01*
X12580882Y-8156484D02*
X12599929Y-8166008D01*
X12599929Y-8166008D02*
X12609453Y-8175531D01*
X12609453Y-8175531D02*
X12618977Y-8194579D01*
X12618977Y-8194579D02*
X12628501Y-8232674D01*
X12628501Y-8232674D02*
X12628501Y-8280293D01*
X12628501Y-8280293D02*
X12618977Y-8318388D01*
X12618977Y-8318388D02*
X12609453Y-8337436D01*
X12609453Y-8337436D02*
X12599929Y-8346960D01*
X12599929Y-8346960D02*
X12580882Y-8356484D01*
X12580882Y-8356484D02*
X12561834Y-8356484D01*
X12561834Y-8356484D02*
X12542786Y-8346960D01*
X12542786Y-8346960D02*
X12533263Y-8337436D01*
X12533263Y-8337436D02*
X12523739Y-8318388D01*
X12523739Y-8318388D02*
X12514215Y-8280293D01*
X12514215Y-8280293D02*
X12514215Y-8232674D01*
X12514215Y-8232674D02*
X12523739Y-8194579D01*
X12523739Y-8194579D02*
X12533263Y-8175531D01*
X12533263Y-8175531D02*
X12542786Y-8166008D01*
X12542786Y-8166008D02*
X12561834Y-8156484D01*
X12714215Y-8337436D02*
X12723739Y-8346960D01*
X12723739Y-8346960D02*
X12714215Y-8356484D01*
X12714215Y-8356484D02*
X12704691Y-8346960D01*
X12704691Y-8346960D02*
X12714215Y-8337436D01*
X12714215Y-8337436D02*
X12714215Y-8356484D01*
X12847548Y-8156484D02*
X12866596Y-8156484D01*
X12866596Y-8156484D02*
X12885644Y-8166008D01*
X12885644Y-8166008D02*
X12895167Y-8175531D01*
X12895167Y-8175531D02*
X12904691Y-8194579D01*
X12904691Y-8194579D02*
X12914215Y-8232674D01*
X12914215Y-8232674D02*
X12914215Y-8280293D01*
X12914215Y-8280293D02*
X12904691Y-8318388D01*
X12904691Y-8318388D02*
X12895167Y-8337436D01*
X12895167Y-8337436D02*
X12885644Y-8346960D01*
X12885644Y-8346960D02*
X12866596Y-8356484D01*
X12866596Y-8356484D02*
X12847548Y-8356484D01*
X12847548Y-8356484D02*
X12828501Y-8346960D01*
X12828501Y-8346960D02*
X12818977Y-8337436D01*
X12818977Y-8337436D02*
X12809453Y-8318388D01*
X12809453Y-8318388D02*
X12799929Y-8280293D01*
X12799929Y-8280293D02*
X12799929Y-8232674D01*
X12799929Y-8232674D02*
X12809453Y-8194579D01*
X12809453Y-8194579D02*
X12818977Y-8175531D01*
X12818977Y-8175531D02*
X12828501Y-8166008D01*
X12828501Y-8166008D02*
X12847548Y-8156484D01*
X13104691Y-8356484D02*
X12990406Y-8356484D01*
X13047548Y-8356484D02*
X13047548Y-8156484D01*
X13047548Y-8156484D02*
X13028501Y-8185055D01*
X13028501Y-8185055D02*
X13009453Y-8204103D01*
X13009453Y-8204103D02*
X12990406Y-8213627D01*
X13295167Y-8356484D02*
X13180882Y-8356484D01*
X13238025Y-8356484D02*
X13238025Y-8156484D01*
X13238025Y-8156484D02*
X13218977Y-8185055D01*
X13218977Y-8185055D02*
X13199929Y-8204103D01*
X13199929Y-8204103D02*
X13180882Y-8213627D01*
X13409453Y-8242198D02*
X13390406Y-8232674D01*
X13390406Y-8232674D02*
X13380882Y-8223150D01*
X13380882Y-8223150D02*
X13371358Y-8204103D01*
X13371358Y-8204103D02*
X13371358Y-8194579D01*
X13371358Y-8194579D02*
X13380882Y-8175531D01*
X13380882Y-8175531D02*
X13390406Y-8166008D01*
X13390406Y-8166008D02*
X13409453Y-8156484D01*
X13409453Y-8156484D02*
X13447548Y-8156484D01*
X13447548Y-8156484D02*
X13466596Y-8166008D01*
X13466596Y-8166008D02*
X13476120Y-8175531D01*
X13476120Y-8175531D02*
X13485644Y-8194579D01*
X13485644Y-8194579D02*
X13485644Y-8204103D01*
X13485644Y-8204103D02*
X13476120Y-8223150D01*
X13476120Y-8223150D02*
X13466596Y-8232674D01*
X13466596Y-8232674D02*
X13447548Y-8242198D01*
X13447548Y-8242198D02*
X13409453Y-8242198D01*
X13409453Y-8242198D02*
X13390406Y-8251722D01*
X13390406Y-8251722D02*
X13380882Y-8261246D01*
X13380882Y-8261246D02*
X13371358Y-8280293D01*
X13371358Y-8280293D02*
X13371358Y-8318388D01*
X13371358Y-8318388D02*
X13380882Y-8337436D01*
X13380882Y-8337436D02*
X13390406Y-8346960D01*
X13390406Y-8346960D02*
X13409453Y-8356484D01*
X13409453Y-8356484D02*
X13447548Y-8356484D01*
X13447548Y-8356484D02*
X13466596Y-8346960D01*
X13466596Y-8346960D02*
X13476120Y-8337436D01*
X13476120Y-8337436D02*
X13485644Y-8318388D01*
X13485644Y-8318388D02*
X13485644Y-8280293D01*
X13485644Y-8280293D02*
X13476120Y-8261246D01*
X13476120Y-8261246D02*
X13466596Y-8251722D01*
X13466596Y-8251722D02*
X13447548Y-8242198D01*
X13561834Y-8156484D02*
X13561834Y-8194579D01*
X13638025Y-8156484D02*
X13638025Y-8194579D01*
X13933263Y-8432674D02*
X13923739Y-8423150D01*
X13923739Y-8423150D02*
X13904691Y-8394579D01*
X13904691Y-8394579D02*
X13895168Y-8375531D01*
X13895168Y-8375531D02*
X13885644Y-8346960D01*
X13885644Y-8346960D02*
X13876120Y-8299341D01*
X13876120Y-8299341D02*
X13876120Y-8261246D01*
X13876120Y-8261246D02*
X13885644Y-8213627D01*
X13885644Y-8213627D02*
X13895168Y-8185055D01*
X13895168Y-8185055D02*
X13904691Y-8166008D01*
X13904691Y-8166008D02*
X13923739Y-8137436D01*
X13923739Y-8137436D02*
X13933263Y-8127912D01*
X14114215Y-8356484D02*
X13999929Y-8356484D01*
X14057072Y-8356484D02*
X14057072Y-8156484D01*
X14057072Y-8156484D02*
X14038025Y-8185055D01*
X14038025Y-8185055D02*
X14018977Y-8204103D01*
X14018977Y-8204103D02*
X13999929Y-8213627D01*
X14352310Y-8356484D02*
X14352310Y-8156484D01*
X14438025Y-8356484D02*
X14438025Y-8251722D01*
X14438025Y-8251722D02*
X14428501Y-8232674D01*
X14428501Y-8232674D02*
X14409453Y-8223150D01*
X14409453Y-8223150D02*
X14380882Y-8223150D01*
X14380882Y-8223150D02*
X14361834Y-8232674D01*
X14361834Y-8232674D02*
X14352310Y-8242198D01*
X14561834Y-8356484D02*
X14542787Y-8346960D01*
X14542787Y-8346960D02*
X14533263Y-8337436D01*
X14533263Y-8337436D02*
X14523739Y-8318388D01*
X14523739Y-8318388D02*
X14523739Y-8261246D01*
X14523739Y-8261246D02*
X14533263Y-8242198D01*
X14533263Y-8242198D02*
X14542787Y-8232674D01*
X14542787Y-8232674D02*
X14561834Y-8223150D01*
X14561834Y-8223150D02*
X14590406Y-8223150D01*
X14590406Y-8223150D02*
X14609453Y-8232674D01*
X14609453Y-8232674D02*
X14618977Y-8242198D01*
X14618977Y-8242198D02*
X14628501Y-8261246D01*
X14628501Y-8261246D02*
X14628501Y-8318388D01*
X14628501Y-8318388D02*
X14618977Y-8337436D01*
X14618977Y-8337436D02*
X14609453Y-8346960D01*
X14609453Y-8346960D02*
X14590406Y-8356484D01*
X14590406Y-8356484D02*
X14561834Y-8356484D01*
X14742787Y-8356484D02*
X14723739Y-8346960D01*
X14723739Y-8346960D02*
X14714215Y-8327912D01*
X14714215Y-8327912D02*
X14714215Y-8156484D01*
X14895168Y-8346960D02*
X14876120Y-8356484D01*
X14876120Y-8356484D02*
X14838025Y-8356484D01*
X14838025Y-8356484D02*
X14818977Y-8346960D01*
X14818977Y-8346960D02*
X14809453Y-8327912D01*
X14809453Y-8327912D02*
X14809453Y-8251722D01*
X14809453Y-8251722D02*
X14818977Y-8232674D01*
X14818977Y-8232674D02*
X14838025Y-8223150D01*
X14838025Y-8223150D02*
X14876120Y-8223150D01*
X14876120Y-8223150D02*
X14895168Y-8232674D01*
X14895168Y-8232674D02*
X14904691Y-8251722D01*
X14904691Y-8251722D02*
X14904691Y-8270769D01*
X14904691Y-8270769D02*
X14809453Y-8289817D01*
X14971358Y-8432674D02*
X14980882Y-8423150D01*
X14980882Y-8423150D02*
X14999930Y-8394579D01*
X14999930Y-8394579D02*
X15009453Y-8375531D01*
X15009453Y-8375531D02*
X15018977Y-8346960D01*
X15018977Y-8346960D02*
X15028501Y-8299341D01*
X15028501Y-8299341D02*
X15028501Y-8261246D01*
X15028501Y-8261246D02*
X15018977Y-8213627D01*
X15018977Y-8213627D02*
X15009453Y-8185055D01*
X15009453Y-8185055D02*
X14999930Y-8166008D01*
X14999930Y-8166008D02*
X14980882Y-8137436D01*
X14980882Y-8137436D02*
X14971358Y-8127912D01*
D13*
X10358200Y-8529000D02*
G75*
G03*
X10358200Y-8529000I-40000J0D01*
G01*
D11*
X10657072Y-8420484D02*
X10676120Y-8420484D01*
X10676120Y-8420484D02*
X10695167Y-8430008D01*
X10695167Y-8430008D02*
X10704691Y-8439531D01*
X10704691Y-8439531D02*
X10714215Y-8458579D01*
X10714215Y-8458579D02*
X10723739Y-8496674D01*
X10723739Y-8496674D02*
X10723739Y-8544293D01*
X10723739Y-8544293D02*
X10714215Y-8582389D01*
X10714215Y-8582389D02*
X10704691Y-8601436D01*
X10704691Y-8601436D02*
X10695167Y-8610960D01*
X10695167Y-8610960D02*
X10676120Y-8620484D01*
X10676120Y-8620484D02*
X10657072Y-8620484D01*
X10657072Y-8620484D02*
X10638024Y-8610960D01*
X10638024Y-8610960D02*
X10628501Y-8601436D01*
X10628501Y-8601436D02*
X10618977Y-8582389D01*
X10618977Y-8582389D02*
X10609453Y-8544293D01*
X10609453Y-8544293D02*
X10609453Y-8496674D01*
X10609453Y-8496674D02*
X10618977Y-8458579D01*
X10618977Y-8458579D02*
X10628501Y-8439531D01*
X10628501Y-8439531D02*
X10638024Y-8430008D01*
X10638024Y-8430008D02*
X10657072Y-8420484D01*
X10809453Y-8601436D02*
X10818977Y-8610960D01*
X10818977Y-8610960D02*
X10809453Y-8620484D01*
X10809453Y-8620484D02*
X10799929Y-8610960D01*
X10799929Y-8610960D02*
X10809453Y-8601436D01*
X10809453Y-8601436D02*
X10809453Y-8620484D01*
X10933263Y-8506198D02*
X10914215Y-8496674D01*
X10914215Y-8496674D02*
X10904691Y-8487150D01*
X10904691Y-8487150D02*
X10895167Y-8468103D01*
X10895167Y-8468103D02*
X10895167Y-8458579D01*
X10895167Y-8458579D02*
X10904691Y-8439531D01*
X10904691Y-8439531D02*
X10914215Y-8430008D01*
X10914215Y-8430008D02*
X10933263Y-8420484D01*
X10933263Y-8420484D02*
X10971358Y-8420484D01*
X10971358Y-8420484D02*
X10990405Y-8430008D01*
X10990405Y-8430008D02*
X10999929Y-8439531D01*
X10999929Y-8439531D02*
X11009453Y-8458579D01*
X11009453Y-8458579D02*
X11009453Y-8468103D01*
X11009453Y-8468103D02*
X10999929Y-8487150D01*
X10999929Y-8487150D02*
X10990405Y-8496674D01*
X10990405Y-8496674D02*
X10971358Y-8506198D01*
X10971358Y-8506198D02*
X10933263Y-8506198D01*
X10933263Y-8506198D02*
X10914215Y-8515722D01*
X10914215Y-8515722D02*
X10904691Y-8525246D01*
X10904691Y-8525246D02*
X10895167Y-8544293D01*
X10895167Y-8544293D02*
X10895167Y-8582389D01*
X10895167Y-8582389D02*
X10904691Y-8601436D01*
X10904691Y-8601436D02*
X10914215Y-8610960D01*
X10914215Y-8610960D02*
X10933263Y-8620484D01*
X10933263Y-8620484D02*
X10971358Y-8620484D01*
X10971358Y-8620484D02*
X10990405Y-8610960D01*
X10990405Y-8610960D02*
X10999929Y-8601436D01*
X10999929Y-8601436D02*
X11009453Y-8582389D01*
X11009453Y-8582389D02*
X11009453Y-8544293D01*
X11009453Y-8544293D02*
X10999929Y-8525246D01*
X10999929Y-8525246D02*
X10990405Y-8515722D01*
X10990405Y-8515722D02*
X10971358Y-8506198D01*
X11133263Y-8420484D02*
X11152310Y-8420484D01*
X11152310Y-8420484D02*
X11171358Y-8430008D01*
X11171358Y-8430008D02*
X11180882Y-8439531D01*
X11180882Y-8439531D02*
X11190405Y-8458579D01*
X11190405Y-8458579D02*
X11199929Y-8496674D01*
X11199929Y-8496674D02*
X11199929Y-8544293D01*
X11199929Y-8544293D02*
X11190405Y-8582389D01*
X11190405Y-8582389D02*
X11180882Y-8601436D01*
X11180882Y-8601436D02*
X11171358Y-8610960D01*
X11171358Y-8610960D02*
X11152310Y-8620484D01*
X11152310Y-8620484D02*
X11133263Y-8620484D01*
X11133263Y-8620484D02*
X11114215Y-8610960D01*
X11114215Y-8610960D02*
X11104691Y-8601436D01*
X11104691Y-8601436D02*
X11095167Y-8582389D01*
X11095167Y-8582389D02*
X11085644Y-8544293D01*
X11085644Y-8544293D02*
X11085644Y-8496674D01*
X11085644Y-8496674D02*
X11095167Y-8458579D01*
X11095167Y-8458579D02*
X11104691Y-8439531D01*
X11104691Y-8439531D02*
X11114215Y-8430008D01*
X11114215Y-8430008D02*
X11133263Y-8420484D01*
X11323739Y-8420484D02*
X11342786Y-8420484D01*
X11342786Y-8420484D02*
X11361834Y-8430008D01*
X11361834Y-8430008D02*
X11371358Y-8439531D01*
X11371358Y-8439531D02*
X11380882Y-8458579D01*
X11380882Y-8458579D02*
X11390405Y-8496674D01*
X11390405Y-8496674D02*
X11390405Y-8544293D01*
X11390405Y-8544293D02*
X11380882Y-8582389D01*
X11380882Y-8582389D02*
X11371358Y-8601436D01*
X11371358Y-8601436D02*
X11361834Y-8610960D01*
X11361834Y-8610960D02*
X11342786Y-8620484D01*
X11342786Y-8620484D02*
X11323739Y-8620484D01*
X11323739Y-8620484D02*
X11304691Y-8610960D01*
X11304691Y-8610960D02*
X11295167Y-8601436D01*
X11295167Y-8601436D02*
X11285643Y-8582389D01*
X11285643Y-8582389D02*
X11276120Y-8544293D01*
X11276120Y-8544293D02*
X11276120Y-8496674D01*
X11276120Y-8496674D02*
X11285643Y-8458579D01*
X11285643Y-8458579D02*
X11295167Y-8439531D01*
X11295167Y-8439531D02*
X11304691Y-8430008D01*
X11304691Y-8430008D02*
X11323739Y-8420484D01*
X11476120Y-8620484D02*
X11476120Y-8487150D01*
X11476120Y-8506198D02*
X11485643Y-8496674D01*
X11485643Y-8496674D02*
X11504691Y-8487150D01*
X11504691Y-8487150D02*
X11533263Y-8487150D01*
X11533263Y-8487150D02*
X11552310Y-8496674D01*
X11552310Y-8496674D02*
X11561834Y-8515722D01*
X11561834Y-8515722D02*
X11561834Y-8620484D01*
X11561834Y-8515722D02*
X11571358Y-8496674D01*
X11571358Y-8496674D02*
X11590405Y-8487150D01*
X11590405Y-8487150D02*
X11618977Y-8487150D01*
X11618977Y-8487150D02*
X11638024Y-8496674D01*
X11638024Y-8496674D02*
X11647548Y-8515722D01*
X11647548Y-8515722D02*
X11647548Y-8620484D01*
X11742786Y-8620484D02*
X11742786Y-8487150D01*
X11742786Y-8506198D02*
X11752310Y-8496674D01*
X11752310Y-8496674D02*
X11771358Y-8487150D01*
X11771358Y-8487150D02*
X11799929Y-8487150D01*
X11799929Y-8487150D02*
X11818977Y-8496674D01*
X11818977Y-8496674D02*
X11828501Y-8515722D01*
X11828501Y-8515722D02*
X11828501Y-8620484D01*
X11828501Y-8515722D02*
X11838024Y-8496674D01*
X11838024Y-8496674D02*
X11857072Y-8487150D01*
X11857072Y-8487150D02*
X11885643Y-8487150D01*
X11885643Y-8487150D02*
X11904691Y-8496674D01*
X11904691Y-8496674D02*
X11914215Y-8515722D01*
X11914215Y-8515722D02*
X11914215Y-8620484D01*
X12304691Y-8410960D02*
X12133263Y-8668103D01*
X12561834Y-8420484D02*
X12580882Y-8420484D01*
X12580882Y-8420484D02*
X12599929Y-8430008D01*
X12599929Y-8430008D02*
X12609453Y-8439531D01*
X12609453Y-8439531D02*
X12618977Y-8458579D01*
X12618977Y-8458579D02*
X12628501Y-8496674D01*
X12628501Y-8496674D02*
X12628501Y-8544293D01*
X12628501Y-8544293D02*
X12618977Y-8582389D01*
X12618977Y-8582389D02*
X12609453Y-8601436D01*
X12609453Y-8601436D02*
X12599929Y-8610960D01*
X12599929Y-8610960D02*
X12580882Y-8620484D01*
X12580882Y-8620484D02*
X12561834Y-8620484D01*
X12561834Y-8620484D02*
X12542786Y-8610960D01*
X12542786Y-8610960D02*
X12533263Y-8601436D01*
X12533263Y-8601436D02*
X12523739Y-8582389D01*
X12523739Y-8582389D02*
X12514215Y-8544293D01*
X12514215Y-8544293D02*
X12514215Y-8496674D01*
X12514215Y-8496674D02*
X12523739Y-8458579D01*
X12523739Y-8458579D02*
X12533263Y-8439531D01*
X12533263Y-8439531D02*
X12542786Y-8430008D01*
X12542786Y-8430008D02*
X12561834Y-8420484D01*
X12714215Y-8601436D02*
X12723739Y-8610960D01*
X12723739Y-8610960D02*
X12714215Y-8620484D01*
X12714215Y-8620484D02*
X12704691Y-8610960D01*
X12704691Y-8610960D02*
X12714215Y-8601436D01*
X12714215Y-8601436D02*
X12714215Y-8620484D01*
X12847548Y-8420484D02*
X12866596Y-8420484D01*
X12866596Y-8420484D02*
X12885644Y-8430008D01*
X12885644Y-8430008D02*
X12895167Y-8439531D01*
X12895167Y-8439531D02*
X12904691Y-8458579D01*
X12904691Y-8458579D02*
X12914215Y-8496674D01*
X12914215Y-8496674D02*
X12914215Y-8544293D01*
X12914215Y-8544293D02*
X12904691Y-8582389D01*
X12904691Y-8582389D02*
X12895167Y-8601436D01*
X12895167Y-8601436D02*
X12885644Y-8610960D01*
X12885644Y-8610960D02*
X12866596Y-8620484D01*
X12866596Y-8620484D02*
X12847548Y-8620484D01*
X12847548Y-8620484D02*
X12828501Y-8610960D01*
X12828501Y-8610960D02*
X12818977Y-8601436D01*
X12818977Y-8601436D02*
X12809453Y-8582389D01*
X12809453Y-8582389D02*
X12799929Y-8544293D01*
X12799929Y-8544293D02*
X12799929Y-8496674D01*
X12799929Y-8496674D02*
X12809453Y-8458579D01*
X12809453Y-8458579D02*
X12818977Y-8439531D01*
X12818977Y-8439531D02*
X12828501Y-8430008D01*
X12828501Y-8430008D02*
X12847548Y-8420484D01*
X12980882Y-8420484D02*
X13104691Y-8420484D01*
X13104691Y-8420484D02*
X13038025Y-8496674D01*
X13038025Y-8496674D02*
X13066596Y-8496674D01*
X13066596Y-8496674D02*
X13085644Y-8506198D01*
X13085644Y-8506198D02*
X13095167Y-8515722D01*
X13095167Y-8515722D02*
X13104691Y-8534770D01*
X13104691Y-8534770D02*
X13104691Y-8582389D01*
X13104691Y-8582389D02*
X13095167Y-8601436D01*
X13095167Y-8601436D02*
X13085644Y-8610960D01*
X13085644Y-8610960D02*
X13066596Y-8620484D01*
X13066596Y-8620484D02*
X13009453Y-8620484D01*
X13009453Y-8620484D02*
X12990406Y-8610960D01*
X12990406Y-8610960D02*
X12980882Y-8601436D01*
X13295167Y-8620484D02*
X13180882Y-8620484D01*
X13238025Y-8620484D02*
X13238025Y-8420484D01*
X13238025Y-8420484D02*
X13218977Y-8449055D01*
X13218977Y-8449055D02*
X13199929Y-8468103D01*
X13199929Y-8468103D02*
X13180882Y-8477627D01*
X13476120Y-8420484D02*
X13380882Y-8420484D01*
X13380882Y-8420484D02*
X13371358Y-8515722D01*
X13371358Y-8515722D02*
X13380882Y-8506198D01*
X13380882Y-8506198D02*
X13399929Y-8496674D01*
X13399929Y-8496674D02*
X13447548Y-8496674D01*
X13447548Y-8496674D02*
X13466596Y-8506198D01*
X13466596Y-8506198D02*
X13476120Y-8515722D01*
X13476120Y-8515722D02*
X13485644Y-8534770D01*
X13485644Y-8534770D02*
X13485644Y-8582389D01*
X13485644Y-8582389D02*
X13476120Y-8601436D01*
X13476120Y-8601436D02*
X13466596Y-8610960D01*
X13466596Y-8610960D02*
X13447548Y-8620484D01*
X13447548Y-8620484D02*
X13399929Y-8620484D01*
X13399929Y-8620484D02*
X13380882Y-8610960D01*
X13380882Y-8610960D02*
X13371358Y-8601436D01*
X13561834Y-8420484D02*
X13561834Y-8458579D01*
X13638025Y-8420484D02*
X13638025Y-8458579D01*
X13933263Y-8696674D02*
X13923739Y-8687150D01*
X13923739Y-8687150D02*
X13904691Y-8658579D01*
X13904691Y-8658579D02*
X13895168Y-8639531D01*
X13895168Y-8639531D02*
X13885644Y-8610960D01*
X13885644Y-8610960D02*
X13876120Y-8563341D01*
X13876120Y-8563341D02*
X13876120Y-8525246D01*
X13876120Y-8525246D02*
X13885644Y-8477627D01*
X13885644Y-8477627D02*
X13895168Y-8449055D01*
X13895168Y-8449055D02*
X13904691Y-8430008D01*
X13904691Y-8430008D02*
X13923739Y-8401436D01*
X13923739Y-8401436D02*
X13933263Y-8391912D01*
X14038025Y-8506198D02*
X14018977Y-8496674D01*
X14018977Y-8496674D02*
X14009453Y-8487150D01*
X14009453Y-8487150D02*
X13999929Y-8468103D01*
X13999929Y-8468103D02*
X13999929Y-8458579D01*
X13999929Y-8458579D02*
X14009453Y-8439531D01*
X14009453Y-8439531D02*
X14018977Y-8430008D01*
X14018977Y-8430008D02*
X14038025Y-8420484D01*
X14038025Y-8420484D02*
X14076120Y-8420484D01*
X14076120Y-8420484D02*
X14095168Y-8430008D01*
X14095168Y-8430008D02*
X14104691Y-8439531D01*
X14104691Y-8439531D02*
X14114215Y-8458579D01*
X14114215Y-8458579D02*
X14114215Y-8468103D01*
X14114215Y-8468103D02*
X14104691Y-8487150D01*
X14104691Y-8487150D02*
X14095168Y-8496674D01*
X14095168Y-8496674D02*
X14076120Y-8506198D01*
X14076120Y-8506198D02*
X14038025Y-8506198D01*
X14038025Y-8506198D02*
X14018977Y-8515722D01*
X14018977Y-8515722D02*
X14009453Y-8525246D01*
X14009453Y-8525246D02*
X13999929Y-8544293D01*
X13999929Y-8544293D02*
X13999929Y-8582389D01*
X13999929Y-8582389D02*
X14009453Y-8601436D01*
X14009453Y-8601436D02*
X14018977Y-8610960D01*
X14018977Y-8610960D02*
X14038025Y-8620484D01*
X14038025Y-8620484D02*
X14076120Y-8620484D01*
X14076120Y-8620484D02*
X14095168Y-8610960D01*
X14095168Y-8610960D02*
X14104691Y-8601436D01*
X14104691Y-8601436D02*
X14114215Y-8582389D01*
X14114215Y-8582389D02*
X14114215Y-8544293D01*
X14114215Y-8544293D02*
X14104691Y-8525246D01*
X14104691Y-8525246D02*
X14095168Y-8515722D01*
X14095168Y-8515722D02*
X14076120Y-8506198D01*
X14190406Y-8439531D02*
X14199929Y-8430008D01*
X14199929Y-8430008D02*
X14218977Y-8420484D01*
X14218977Y-8420484D02*
X14266596Y-8420484D01*
X14266596Y-8420484D02*
X14285644Y-8430008D01*
X14285644Y-8430008D02*
X14295168Y-8439531D01*
X14295168Y-8439531D02*
X14304691Y-8458579D01*
X14304691Y-8458579D02*
X14304691Y-8477627D01*
X14304691Y-8477627D02*
X14295168Y-8506198D01*
X14295168Y-8506198D02*
X14180882Y-8620484D01*
X14180882Y-8620484D02*
X14304691Y-8620484D01*
X14542787Y-8620484D02*
X14542787Y-8420484D01*
X14628501Y-8620484D02*
X14628501Y-8515722D01*
X14628501Y-8515722D02*
X14618977Y-8496674D01*
X14618977Y-8496674D02*
X14599930Y-8487150D01*
X14599930Y-8487150D02*
X14571358Y-8487150D01*
X14571358Y-8487150D02*
X14552310Y-8496674D01*
X14552310Y-8496674D02*
X14542787Y-8506198D01*
X14752310Y-8620484D02*
X14733263Y-8610960D01*
X14733263Y-8610960D02*
X14723739Y-8601436D01*
X14723739Y-8601436D02*
X14714215Y-8582389D01*
X14714215Y-8582389D02*
X14714215Y-8525246D01*
X14714215Y-8525246D02*
X14723739Y-8506198D01*
X14723739Y-8506198D02*
X14733263Y-8496674D01*
X14733263Y-8496674D02*
X14752310Y-8487150D01*
X14752310Y-8487150D02*
X14780882Y-8487150D01*
X14780882Y-8487150D02*
X14799930Y-8496674D01*
X14799930Y-8496674D02*
X14809453Y-8506198D01*
X14809453Y-8506198D02*
X14818977Y-8525246D01*
X14818977Y-8525246D02*
X14818977Y-8582389D01*
X14818977Y-8582389D02*
X14809453Y-8601436D01*
X14809453Y-8601436D02*
X14799930Y-8610960D01*
X14799930Y-8610960D02*
X14780882Y-8620484D01*
X14780882Y-8620484D02*
X14752310Y-8620484D01*
X14933263Y-8620484D02*
X14914215Y-8610960D01*
X14914215Y-8610960D02*
X14904691Y-8591912D01*
X14904691Y-8591912D02*
X14904691Y-8420484D01*
X15085644Y-8610960D02*
X15066596Y-8620484D01*
X15066596Y-8620484D02*
X15028501Y-8620484D01*
X15028501Y-8620484D02*
X15009453Y-8610960D01*
X15009453Y-8610960D02*
X14999930Y-8591912D01*
X14999930Y-8591912D02*
X14999930Y-8515722D01*
X14999930Y-8515722D02*
X15009453Y-8496674D01*
X15009453Y-8496674D02*
X15028501Y-8487150D01*
X15028501Y-8487150D02*
X15066596Y-8487150D01*
X15066596Y-8487150D02*
X15085644Y-8496674D01*
X15085644Y-8496674D02*
X15095168Y-8515722D01*
X15095168Y-8515722D02*
X15095168Y-8534770D01*
X15095168Y-8534770D02*
X14999930Y-8553817D01*
X15171358Y-8610960D02*
X15190406Y-8620484D01*
X15190406Y-8620484D02*
X15228501Y-8620484D01*
X15228501Y-8620484D02*
X15247549Y-8610960D01*
X15247549Y-8610960D02*
X15257072Y-8591912D01*
X15257072Y-8591912D02*
X15257072Y-8582389D01*
X15257072Y-8582389D02*
X15247549Y-8563341D01*
X15247549Y-8563341D02*
X15228501Y-8553817D01*
X15228501Y-8553817D02*
X15199930Y-8553817D01*
X15199930Y-8553817D02*
X15180882Y-8544293D01*
X15180882Y-8544293D02*
X15171358Y-8525246D01*
X15171358Y-8525246D02*
X15171358Y-8515722D01*
X15171358Y-8515722D02*
X15180882Y-8496674D01*
X15180882Y-8496674D02*
X15199930Y-8487150D01*
X15199930Y-8487150D02*
X15228501Y-8487150D01*
X15228501Y-8487150D02*
X15247549Y-8496674D01*
X15323739Y-8696674D02*
X15333263Y-8687150D01*
X15333263Y-8687150D02*
X15352311Y-8658579D01*
X15352311Y-8658579D02*
X15361834Y-8639531D01*
X15361834Y-8639531D02*
X15371358Y-8610960D01*
X15371358Y-8610960D02*
X15380882Y-8563341D01*
X15380882Y-8563341D02*
X15380882Y-8525246D01*
X15380882Y-8525246D02*
X15371358Y-8477627D01*
X15371358Y-8477627D02*
X15361834Y-8449055D01*
X15361834Y-8449055D02*
X15352311Y-8430008D01*
X15352311Y-8430008D02*
X15333263Y-8401436D01*
X15333263Y-8401436D02*
X15323739Y-8391912D01*
D10*
X10308200Y-8743000D02*
X10308200Y-8843000D01*
X10258200Y-8793000D02*
X10358200Y-8793000D01*
D11*
X10723739Y-8884484D02*
X10609453Y-8884484D01*
X10666596Y-8884484D02*
X10666596Y-8684484D01*
X10666596Y-8684484D02*
X10647548Y-8713055D01*
X10647548Y-8713055D02*
X10628501Y-8732103D01*
X10628501Y-8732103D02*
X10609453Y-8741627D01*
X10809453Y-8865436D02*
X10818977Y-8874960D01*
X10818977Y-8874960D02*
X10809453Y-8884484D01*
X10809453Y-8884484D02*
X10799929Y-8874960D01*
X10799929Y-8874960D02*
X10809453Y-8865436D01*
X10809453Y-8865436D02*
X10809453Y-8884484D01*
X10942786Y-8684484D02*
X10961834Y-8684484D01*
X10961834Y-8684484D02*
X10980882Y-8694008D01*
X10980882Y-8694008D02*
X10990405Y-8703531D01*
X10990405Y-8703531D02*
X10999929Y-8722579D01*
X10999929Y-8722579D02*
X11009453Y-8760674D01*
X11009453Y-8760674D02*
X11009453Y-8808293D01*
X11009453Y-8808293D02*
X10999929Y-8846389D01*
X10999929Y-8846389D02*
X10990405Y-8865436D01*
X10990405Y-8865436D02*
X10980882Y-8874960D01*
X10980882Y-8874960D02*
X10961834Y-8884484D01*
X10961834Y-8884484D02*
X10942786Y-8884484D01*
X10942786Y-8884484D02*
X10923739Y-8874960D01*
X10923739Y-8874960D02*
X10914215Y-8865436D01*
X10914215Y-8865436D02*
X10904691Y-8846389D01*
X10904691Y-8846389D02*
X10895167Y-8808293D01*
X10895167Y-8808293D02*
X10895167Y-8760674D01*
X10895167Y-8760674D02*
X10904691Y-8722579D01*
X10904691Y-8722579D02*
X10914215Y-8703531D01*
X10914215Y-8703531D02*
X10923739Y-8694008D01*
X10923739Y-8694008D02*
X10942786Y-8684484D01*
X11133263Y-8684484D02*
X11152310Y-8684484D01*
X11152310Y-8684484D02*
X11171358Y-8694008D01*
X11171358Y-8694008D02*
X11180882Y-8703531D01*
X11180882Y-8703531D02*
X11190405Y-8722579D01*
X11190405Y-8722579D02*
X11199929Y-8760674D01*
X11199929Y-8760674D02*
X11199929Y-8808293D01*
X11199929Y-8808293D02*
X11190405Y-8846389D01*
X11190405Y-8846389D02*
X11180882Y-8865436D01*
X11180882Y-8865436D02*
X11171358Y-8874960D01*
X11171358Y-8874960D02*
X11152310Y-8884484D01*
X11152310Y-8884484D02*
X11133263Y-8884484D01*
X11133263Y-8884484D02*
X11114215Y-8874960D01*
X11114215Y-8874960D02*
X11104691Y-8865436D01*
X11104691Y-8865436D02*
X11095167Y-8846389D01*
X11095167Y-8846389D02*
X11085644Y-8808293D01*
X11085644Y-8808293D02*
X11085644Y-8760674D01*
X11085644Y-8760674D02*
X11095167Y-8722579D01*
X11095167Y-8722579D02*
X11104691Y-8703531D01*
X11104691Y-8703531D02*
X11114215Y-8694008D01*
X11114215Y-8694008D02*
X11133263Y-8684484D01*
X11323739Y-8684484D02*
X11342786Y-8684484D01*
X11342786Y-8684484D02*
X11361834Y-8694008D01*
X11361834Y-8694008D02*
X11371358Y-8703531D01*
X11371358Y-8703531D02*
X11380882Y-8722579D01*
X11380882Y-8722579D02*
X11390405Y-8760674D01*
X11390405Y-8760674D02*
X11390405Y-8808293D01*
X11390405Y-8808293D02*
X11380882Y-8846389D01*
X11380882Y-8846389D02*
X11371358Y-8865436D01*
X11371358Y-8865436D02*
X11361834Y-8874960D01*
X11361834Y-8874960D02*
X11342786Y-8884484D01*
X11342786Y-8884484D02*
X11323739Y-8884484D01*
X11323739Y-8884484D02*
X11304691Y-8874960D01*
X11304691Y-8874960D02*
X11295167Y-8865436D01*
X11295167Y-8865436D02*
X11285643Y-8846389D01*
X11285643Y-8846389D02*
X11276120Y-8808293D01*
X11276120Y-8808293D02*
X11276120Y-8760674D01*
X11276120Y-8760674D02*
X11285643Y-8722579D01*
X11285643Y-8722579D02*
X11295167Y-8703531D01*
X11295167Y-8703531D02*
X11304691Y-8694008D01*
X11304691Y-8694008D02*
X11323739Y-8684484D01*
X11476120Y-8884484D02*
X11476120Y-8751150D01*
X11476120Y-8770198D02*
X11485643Y-8760674D01*
X11485643Y-8760674D02*
X11504691Y-8751150D01*
X11504691Y-8751150D02*
X11533263Y-8751150D01*
X11533263Y-8751150D02*
X11552310Y-8760674D01*
X11552310Y-8760674D02*
X11561834Y-8779722D01*
X11561834Y-8779722D02*
X11561834Y-8884484D01*
X11561834Y-8779722D02*
X11571358Y-8760674D01*
X11571358Y-8760674D02*
X11590405Y-8751150D01*
X11590405Y-8751150D02*
X11618977Y-8751150D01*
X11618977Y-8751150D02*
X11638024Y-8760674D01*
X11638024Y-8760674D02*
X11647548Y-8779722D01*
X11647548Y-8779722D02*
X11647548Y-8884484D01*
X11742786Y-8884484D02*
X11742786Y-8751150D01*
X11742786Y-8770198D02*
X11752310Y-8760674D01*
X11752310Y-8760674D02*
X11771358Y-8751150D01*
X11771358Y-8751150D02*
X11799929Y-8751150D01*
X11799929Y-8751150D02*
X11818977Y-8760674D01*
X11818977Y-8760674D02*
X11828501Y-8779722D01*
X11828501Y-8779722D02*
X11828501Y-8884484D01*
X11828501Y-8779722D02*
X11838024Y-8760674D01*
X11838024Y-8760674D02*
X11857072Y-8751150D01*
X11857072Y-8751150D02*
X11885643Y-8751150D01*
X11885643Y-8751150D02*
X11904691Y-8760674D01*
X11904691Y-8760674D02*
X11914215Y-8779722D01*
X11914215Y-8779722D02*
X11914215Y-8884484D01*
X12304691Y-8674960D02*
X12133263Y-8932103D01*
X12561834Y-8684484D02*
X12580882Y-8684484D01*
X12580882Y-8684484D02*
X12599929Y-8694008D01*
X12599929Y-8694008D02*
X12609453Y-8703531D01*
X12609453Y-8703531D02*
X12618977Y-8722579D01*
X12618977Y-8722579D02*
X12628501Y-8760674D01*
X12628501Y-8760674D02*
X12628501Y-8808293D01*
X12628501Y-8808293D02*
X12618977Y-8846389D01*
X12618977Y-8846389D02*
X12609453Y-8865436D01*
X12609453Y-8865436D02*
X12599929Y-8874960D01*
X12599929Y-8874960D02*
X12580882Y-8884484D01*
X12580882Y-8884484D02*
X12561834Y-8884484D01*
X12561834Y-8884484D02*
X12542786Y-8874960D01*
X12542786Y-8874960D02*
X12533263Y-8865436D01*
X12533263Y-8865436D02*
X12523739Y-8846389D01*
X12523739Y-8846389D02*
X12514215Y-8808293D01*
X12514215Y-8808293D02*
X12514215Y-8760674D01*
X12514215Y-8760674D02*
X12523739Y-8722579D01*
X12523739Y-8722579D02*
X12533263Y-8703531D01*
X12533263Y-8703531D02*
X12542786Y-8694008D01*
X12542786Y-8694008D02*
X12561834Y-8684484D01*
X12714215Y-8865436D02*
X12723739Y-8874960D01*
X12723739Y-8874960D02*
X12714215Y-8884484D01*
X12714215Y-8884484D02*
X12704691Y-8874960D01*
X12704691Y-8874960D02*
X12714215Y-8865436D01*
X12714215Y-8865436D02*
X12714215Y-8884484D01*
X12847548Y-8684484D02*
X12866596Y-8684484D01*
X12866596Y-8684484D02*
X12885644Y-8694008D01*
X12885644Y-8694008D02*
X12895167Y-8703531D01*
X12895167Y-8703531D02*
X12904691Y-8722579D01*
X12904691Y-8722579D02*
X12914215Y-8760674D01*
X12914215Y-8760674D02*
X12914215Y-8808293D01*
X12914215Y-8808293D02*
X12904691Y-8846389D01*
X12904691Y-8846389D02*
X12895167Y-8865436D01*
X12895167Y-8865436D02*
X12885644Y-8874960D01*
X12885644Y-8874960D02*
X12866596Y-8884484D01*
X12866596Y-8884484D02*
X12847548Y-8884484D01*
X12847548Y-8884484D02*
X12828501Y-8874960D01*
X12828501Y-8874960D02*
X12818977Y-8865436D01*
X12818977Y-8865436D02*
X12809453Y-8846389D01*
X12809453Y-8846389D02*
X12799929Y-8808293D01*
X12799929Y-8808293D02*
X12799929Y-8760674D01*
X12799929Y-8760674D02*
X12809453Y-8722579D01*
X12809453Y-8722579D02*
X12818977Y-8703531D01*
X12818977Y-8703531D02*
X12828501Y-8694008D01*
X12828501Y-8694008D02*
X12847548Y-8684484D01*
X12980882Y-8684484D02*
X13104691Y-8684484D01*
X13104691Y-8684484D02*
X13038025Y-8760674D01*
X13038025Y-8760674D02*
X13066596Y-8760674D01*
X13066596Y-8760674D02*
X13085644Y-8770198D01*
X13085644Y-8770198D02*
X13095167Y-8779722D01*
X13095167Y-8779722D02*
X13104691Y-8798770D01*
X13104691Y-8798770D02*
X13104691Y-8846389D01*
X13104691Y-8846389D02*
X13095167Y-8865436D01*
X13095167Y-8865436D02*
X13085644Y-8874960D01*
X13085644Y-8874960D02*
X13066596Y-8884484D01*
X13066596Y-8884484D02*
X13009453Y-8884484D01*
X13009453Y-8884484D02*
X12990406Y-8874960D01*
X12990406Y-8874960D02*
X12980882Y-8865436D01*
X13199929Y-8884484D02*
X13238025Y-8884484D01*
X13238025Y-8884484D02*
X13257072Y-8874960D01*
X13257072Y-8874960D02*
X13266596Y-8865436D01*
X13266596Y-8865436D02*
X13285644Y-8836865D01*
X13285644Y-8836865D02*
X13295167Y-8798770D01*
X13295167Y-8798770D02*
X13295167Y-8722579D01*
X13295167Y-8722579D02*
X13285644Y-8703531D01*
X13285644Y-8703531D02*
X13276120Y-8694008D01*
X13276120Y-8694008D02*
X13257072Y-8684484D01*
X13257072Y-8684484D02*
X13218977Y-8684484D01*
X13218977Y-8684484D02*
X13199929Y-8694008D01*
X13199929Y-8694008D02*
X13190406Y-8703531D01*
X13190406Y-8703531D02*
X13180882Y-8722579D01*
X13180882Y-8722579D02*
X13180882Y-8770198D01*
X13180882Y-8770198D02*
X13190406Y-8789246D01*
X13190406Y-8789246D02*
X13199929Y-8798770D01*
X13199929Y-8798770D02*
X13218977Y-8808293D01*
X13218977Y-8808293D02*
X13257072Y-8808293D01*
X13257072Y-8808293D02*
X13276120Y-8798770D01*
X13276120Y-8798770D02*
X13285644Y-8789246D01*
X13285644Y-8789246D02*
X13295167Y-8770198D01*
X13466596Y-8751150D02*
X13466596Y-8884484D01*
X13418977Y-8674960D02*
X13371358Y-8817817D01*
X13371358Y-8817817D02*
X13495167Y-8817817D01*
X13561834Y-8684484D02*
X13561834Y-8722579D01*
X13638025Y-8684484D02*
X13638025Y-8722579D01*
X13933263Y-8960674D02*
X13923739Y-8951150D01*
X13923739Y-8951150D02*
X13904691Y-8922579D01*
X13904691Y-8922579D02*
X13895168Y-8903531D01*
X13895168Y-8903531D02*
X13885644Y-8874960D01*
X13885644Y-8874960D02*
X13876120Y-8827341D01*
X13876120Y-8827341D02*
X13876120Y-8789246D01*
X13876120Y-8789246D02*
X13885644Y-8741627D01*
X13885644Y-8741627D02*
X13895168Y-8713055D01*
X13895168Y-8713055D02*
X13904691Y-8694008D01*
X13904691Y-8694008D02*
X13923739Y-8665436D01*
X13923739Y-8665436D02*
X13933263Y-8655912D01*
X14095168Y-8751150D02*
X14095168Y-8884484D01*
X14047548Y-8674960D02*
X13999929Y-8817817D01*
X13999929Y-8817817D02*
X14123739Y-8817817D01*
X14238025Y-8684484D02*
X14257072Y-8684484D01*
X14257072Y-8684484D02*
X14276120Y-8694008D01*
X14276120Y-8694008D02*
X14285644Y-8703531D01*
X14285644Y-8703531D02*
X14295168Y-8722579D01*
X14295168Y-8722579D02*
X14304691Y-8760674D01*
X14304691Y-8760674D02*
X14304691Y-8808293D01*
X14304691Y-8808293D02*
X14295168Y-8846389D01*
X14295168Y-8846389D02*
X14285644Y-8865436D01*
X14285644Y-8865436D02*
X14276120Y-8874960D01*
X14276120Y-8874960D02*
X14257072Y-8884484D01*
X14257072Y-8884484D02*
X14238025Y-8884484D01*
X14238025Y-8884484D02*
X14218977Y-8874960D01*
X14218977Y-8874960D02*
X14209453Y-8865436D01*
X14209453Y-8865436D02*
X14199929Y-8846389D01*
X14199929Y-8846389D02*
X14190406Y-8808293D01*
X14190406Y-8808293D02*
X14190406Y-8760674D01*
X14190406Y-8760674D02*
X14199929Y-8722579D01*
X14199929Y-8722579D02*
X14209453Y-8703531D01*
X14209453Y-8703531D02*
X14218977Y-8694008D01*
X14218977Y-8694008D02*
X14238025Y-8684484D01*
X14542787Y-8884484D02*
X14542787Y-8684484D01*
X14628501Y-8884484D02*
X14628501Y-8779722D01*
X14628501Y-8779722D02*
X14618977Y-8760674D01*
X14618977Y-8760674D02*
X14599930Y-8751150D01*
X14599930Y-8751150D02*
X14571358Y-8751150D01*
X14571358Y-8751150D02*
X14552310Y-8760674D01*
X14552310Y-8760674D02*
X14542787Y-8770198D01*
X14752310Y-8884484D02*
X14733263Y-8874960D01*
X14733263Y-8874960D02*
X14723739Y-8865436D01*
X14723739Y-8865436D02*
X14714215Y-8846389D01*
X14714215Y-8846389D02*
X14714215Y-8789246D01*
X14714215Y-8789246D02*
X14723739Y-8770198D01*
X14723739Y-8770198D02*
X14733263Y-8760674D01*
X14733263Y-8760674D02*
X14752310Y-8751150D01*
X14752310Y-8751150D02*
X14780882Y-8751150D01*
X14780882Y-8751150D02*
X14799930Y-8760674D01*
X14799930Y-8760674D02*
X14809453Y-8770198D01*
X14809453Y-8770198D02*
X14818977Y-8789246D01*
X14818977Y-8789246D02*
X14818977Y-8846389D01*
X14818977Y-8846389D02*
X14809453Y-8865436D01*
X14809453Y-8865436D02*
X14799930Y-8874960D01*
X14799930Y-8874960D02*
X14780882Y-8884484D01*
X14780882Y-8884484D02*
X14752310Y-8884484D01*
X14933263Y-8884484D02*
X14914215Y-8874960D01*
X14914215Y-8874960D02*
X14904691Y-8855912D01*
X14904691Y-8855912D02*
X14904691Y-8684484D01*
X15085644Y-8874960D02*
X15066596Y-8884484D01*
X15066596Y-8884484D02*
X15028501Y-8884484D01*
X15028501Y-8884484D02*
X15009453Y-8874960D01*
X15009453Y-8874960D02*
X14999930Y-8855912D01*
X14999930Y-8855912D02*
X14999930Y-8779722D01*
X14999930Y-8779722D02*
X15009453Y-8760674D01*
X15009453Y-8760674D02*
X15028501Y-8751150D01*
X15028501Y-8751150D02*
X15066596Y-8751150D01*
X15066596Y-8751150D02*
X15085644Y-8760674D01*
X15085644Y-8760674D02*
X15095168Y-8779722D01*
X15095168Y-8779722D02*
X15095168Y-8798770D01*
X15095168Y-8798770D02*
X14999930Y-8817817D01*
X15171358Y-8874960D02*
X15190406Y-8884484D01*
X15190406Y-8884484D02*
X15228501Y-8884484D01*
X15228501Y-8884484D02*
X15247549Y-8874960D01*
X15247549Y-8874960D02*
X15257072Y-8855912D01*
X15257072Y-8855912D02*
X15257072Y-8846389D01*
X15257072Y-8846389D02*
X15247549Y-8827341D01*
X15247549Y-8827341D02*
X15228501Y-8817817D01*
X15228501Y-8817817D02*
X15199930Y-8817817D01*
X15199930Y-8817817D02*
X15180882Y-8808293D01*
X15180882Y-8808293D02*
X15171358Y-8789246D01*
X15171358Y-8789246D02*
X15171358Y-8779722D01*
X15171358Y-8779722D02*
X15180882Y-8760674D01*
X15180882Y-8760674D02*
X15199930Y-8751150D01*
X15199930Y-8751150D02*
X15228501Y-8751150D01*
X15228501Y-8751150D02*
X15247549Y-8760674D01*
X15323739Y-8960674D02*
X15333263Y-8951150D01*
X15333263Y-8951150D02*
X15352311Y-8922579D01*
X15352311Y-8922579D02*
X15361834Y-8903531D01*
X15361834Y-8903531D02*
X15371358Y-8874960D01*
X15371358Y-8874960D02*
X15380882Y-8827341D01*
X15380882Y-8827341D02*
X15380882Y-8789246D01*
X15380882Y-8789246D02*
X15371358Y-8741627D01*
X15371358Y-8741627D02*
X15361834Y-8713055D01*
X15361834Y-8713055D02*
X15352311Y-8694008D01*
X15352311Y-8694008D02*
X15333263Y-8665436D01*
X15333263Y-8665436D02*
X15323739Y-8655912D01*
M02*
