M48
; DRILL file {KiCad 7.0.5-0} date 2023 August 05, Saturday 11:37:57
; FORMAT={-:-/ absolute / metric / decimal}
; #@! TF.CreationDate,2023-08-05T11:37:57+02:00
; #@! TF.GenerationSoftware,Kicad,Pcbnew,7.0.5-0
; #@! TF.FileFunction,Plated,1,2,PTH
FMAT,2
METRIC
; #@! TA.AperFunction,Plated,PTH,ViaDrill
T1C0.300
; #@! TA.AperFunction,Plated,PTH,ComponentDrill
T2C0.800
; #@! TA.AperFunction,Plated,PTH,ComponentDrill
T3C1.000
%
G90
G05
T1
X113.748Y-70.154
T2
X104.775Y-64.77
X104.775Y-72.39
X106.045Y-59.73
X106.045Y-62.23
X107.315Y-64.77
X107.315Y-72.39
X109.22Y-54.61
X109.22Y-62.23
X109.855Y-64.77
X109.855Y-72.39
X111.76Y-54.61
X111.76Y-62.23
X112.395Y-64.77
X112.395Y-72.39
X114.3Y-54.61
X114.3Y-62.23
X114.935Y-64.77
X114.935Y-72.39
X116.84Y-54.61
X116.84Y-62.23
X117.475Y-64.77
X117.475Y-72.39
X119.38Y-54.61
X119.38Y-62.23
X120.015Y-64.77
X120.015Y-72.39
X121.92Y-54.61
X121.92Y-62.23
X123.19Y-64.77
X123.19Y-72.39
X124.46Y-54.61
X124.46Y-62.23
X125.73Y-64.77
X125.73Y-72.39
X127.0Y-54.61
X127.0Y-62.23
X128.27Y-64.77
X128.27Y-72.39
X129.54Y-54.61
X129.54Y-62.23
X130.81Y-64.77
X130.81Y-72.39
X132.08Y-54.61
X132.08Y-62.23
X133.35Y-64.77
X133.35Y-72.39
X134.62Y-54.61
X134.62Y-62.23
X135.89Y-64.77
X135.89Y-72.39
X137.16Y-54.61
X137.16Y-62.23
X138.43Y-64.77
X138.43Y-72.39
X139.7Y-54.61
X139.7Y-62.23
X141.605Y-64.77
X141.605Y-72.39
X142.24Y-54.61
X142.24Y-62.23
X144.145Y-64.77
X144.145Y-72.39
X144.78Y-54.61
X144.78Y-62.23
X146.685Y-64.77
X146.685Y-72.39
X147.32Y-54.61
X147.32Y-62.23
X149.225Y-64.77
X149.225Y-72.39
X149.86Y-54.61
X149.86Y-62.23
X151.765Y-64.77
X151.765Y-72.39
X152.4Y-54.61
X152.4Y-62.23
X154.305Y-64.77
X154.305Y-72.39
X155.575Y-59.71
X155.575Y-62.21
X156.845Y-64.77
X156.845Y-72.39
T3
X106.68Y-52.07
X106.68Y-74.93
X109.22Y-52.07
X109.22Y-74.93
X111.76Y-52.07
X111.76Y-74.93
X114.3Y-52.07
X114.3Y-74.93
X116.84Y-52.07
X116.84Y-74.93
X119.38Y-52.07
X119.38Y-74.93
X121.92Y-52.07
X121.92Y-74.93
X124.46Y-52.07
X124.46Y-74.93
X127.0Y-52.07
X127.0Y-74.93
X129.54Y-52.07
X129.54Y-74.93
X132.08Y-52.07
X132.08Y-74.93
X134.62Y-52.07
X134.62Y-74.93
X137.16Y-52.07
X137.16Y-74.93
X139.7Y-52.07
X139.7Y-74.93
X142.24Y-52.07
X142.24Y-74.93
X144.78Y-52.07
X144.78Y-74.93
X147.32Y-52.07
X147.32Y-74.93
X149.86Y-52.07
X149.86Y-74.93
X152.4Y-52.07
X152.4Y-74.93
X154.94Y-52.07
X154.94Y-74.93
T0
M30
