G04 #@! TF.GenerationSoftware,KiCad,Pcbnew,(6.0.11-0)*
G04 #@! TF.CreationDate,2023-06-10T21:35:02+02:00*
G04 #@! TF.ProjectId,debug_leds,64656275-675f-46c6-9564-732e6b696361,REV*
G04 #@! TF.SameCoordinates,Original*
G04 #@! TF.FileFunction,Copper,L1,Top*
G04 #@! TF.FilePolarity,Positive*
%FSLAX46Y46*%
G04 Gerber Fmt 4.6, Leading zero omitted, Abs format (unit mm)*
G04 Created by KiCad (PCBNEW (6.0.11-0)) date 2023-06-10 21:35:02*
%MOMM*%
%LPD*%
G01*
G04 APERTURE LIST*
G04 Aperture macros list*
%AMRoundRect*
0 Rectangle with rounded corners*
0 $1 Rounding radius*
0 $2 $3 $4 $5 $6 $7 $8 $9 X,Y pos of 4 corners*
0 Add a 4 corners polygon primitive as box body*
4,1,4,$2,$3,$4,$5,$6,$7,$8,$9,$2,$3,0*
0 Add four circle primitives for the rounded corners*
1,1,$1+$1,$2,$3*
1,1,$1+$1,$4,$5*
1,1,$1+$1,$6,$7*
1,1,$1+$1,$8,$9*
0 Add four rect primitives between the rounded corners*
20,1,$1+$1,$2,$3,$4,$5,0*
20,1,$1+$1,$4,$5,$6,$7,0*
20,1,$1+$1,$6,$7,$8,$9,0*
20,1,$1+$1,$8,$9,$2,$3,0*%
G04 Aperture macros list end*
G04 #@! TA.AperFunction,ComponentPad*
%ADD10R,1.700000X1.700000*%
G04 #@! TD*
G04 #@! TA.AperFunction,ComponentPad*
%ADD11O,1.700000X1.700000*%
G04 #@! TD*
G04 #@! TA.AperFunction,ComponentPad*
%ADD12O,1.600000X1.600000*%
G04 #@! TD*
G04 #@! TA.AperFunction,ComponentPad*
%ADD13R,1.600000X1.600000*%
G04 #@! TD*
G04 #@! TA.AperFunction,SMDPad,CuDef*
%ADD14RoundRect,0.250000X0.625000X-0.400000X0.625000X0.400000X-0.625000X0.400000X-0.625000X-0.400000X0*%
G04 #@! TD*
G04 #@! TA.AperFunction,SMDPad,CuDef*
%ADD15RoundRect,0.250000X-0.625000X0.400000X-0.625000X-0.400000X0.625000X-0.400000X0.625000X0.400000X0*%
G04 #@! TD*
G04 #@! TA.AperFunction,ComponentPad*
%ADD16C,1.600000*%
G04 #@! TD*
G04 #@! TA.AperFunction,ComponentPad*
%ADD17R,1.200000X1.200000*%
G04 #@! TD*
G04 #@! TA.AperFunction,ComponentPad*
%ADD18C,1.200000*%
G04 #@! TD*
G04 #@! TA.AperFunction,ViaPad*
%ADD19C,0.450000*%
G04 #@! TD*
G04 #@! TA.AperFunction,Conductor*
%ADD20C,0.127000*%
G04 #@! TD*
G04 APERTURE END LIST*
D10*
X105410000Y-52070000D03*
D11*
X107950000Y-52070000D03*
X110490000Y-52070000D03*
X113030000Y-52070000D03*
X115570000Y-52070000D03*
X118110000Y-52070000D03*
X120650000Y-52070000D03*
X123190000Y-52070000D03*
X125730000Y-52070000D03*
X128270000Y-52070000D03*
X130810000Y-52070000D03*
X133350000Y-52070000D03*
X135890000Y-52070000D03*
X138430000Y-52070000D03*
X140970000Y-52070000D03*
X143510000Y-52070000D03*
X146050000Y-52070000D03*
X148590000Y-52070000D03*
X151130000Y-52070000D03*
X153670000Y-52070000D03*
D10*
X105410000Y-74930000D03*
D11*
X107950000Y-74930000D03*
X110490000Y-74930000D03*
X113030000Y-74930000D03*
X115570000Y-74930000D03*
X118110000Y-74930000D03*
X120650000Y-74930000D03*
X123190000Y-74930000D03*
X125730000Y-74930000D03*
X128270000Y-74930000D03*
X130810000Y-74930000D03*
X133350000Y-74930000D03*
X135890000Y-74930000D03*
X138430000Y-74930000D03*
X140970000Y-74930000D03*
X143510000Y-74930000D03*
X146050000Y-74930000D03*
X148590000Y-74930000D03*
X151130000Y-74930000D03*
X153670000Y-74930000D03*
D12*
X123190000Y-64770000D03*
X125730000Y-64770000D03*
X128270000Y-64770000D03*
X130810000Y-64770000D03*
X133350000Y-64770000D03*
X135890000Y-64770000D03*
X138430000Y-64770000D03*
X138430000Y-72390000D03*
X135890000Y-72390000D03*
X133350000Y-72390000D03*
X130810000Y-72390000D03*
X128270000Y-72390000D03*
X125730000Y-72390000D03*
D13*
X123190000Y-72390000D03*
D12*
X143510000Y-64770000D03*
X146050000Y-64770000D03*
X148590000Y-64770000D03*
X151130000Y-64770000D03*
X153670000Y-64770000D03*
X156210000Y-64770000D03*
X158750000Y-64770000D03*
X158750000Y-72390000D03*
X156210000Y-72390000D03*
X153670000Y-72390000D03*
X151130000Y-72390000D03*
X148590000Y-72390000D03*
X146050000Y-72390000D03*
D13*
X143510000Y-72390000D03*
X102860000Y-72390000D03*
D12*
X105400000Y-72390000D03*
X107940000Y-72390000D03*
X110480000Y-72390000D03*
X113020000Y-72390000D03*
X115560000Y-72390000D03*
X118100000Y-72390000D03*
X118100000Y-64770000D03*
X115560000Y-64770000D03*
X113020000Y-64770000D03*
X110480000Y-64770000D03*
X107940000Y-64770000D03*
X105400000Y-64770000D03*
X102860000Y-64770000D03*
X151130000Y-62230000D03*
X148590000Y-62230000D03*
X146050000Y-62230000D03*
X143510000Y-62230000D03*
X140970000Y-62230000D03*
X138430000Y-62230000D03*
X135890000Y-62230000D03*
X133350000Y-62230000D03*
X133350000Y-54610000D03*
X135890000Y-54610000D03*
X138430000Y-54610000D03*
X140970000Y-54610000D03*
X143510000Y-54610000D03*
X146050000Y-54610000D03*
X148590000Y-54610000D03*
D13*
X151130000Y-54610000D03*
D12*
X107950000Y-54610000D03*
X110490000Y-54610000D03*
X113030000Y-54610000D03*
X115570000Y-54610000D03*
X118110000Y-54610000D03*
X120650000Y-54610000D03*
X123190000Y-54610000D03*
X125730000Y-54610000D03*
X128270000Y-54610000D03*
X130810000Y-54610000D03*
X130810000Y-62230000D03*
X128270000Y-62230000D03*
X125730000Y-62230000D03*
X123190000Y-62230000D03*
X120650000Y-62230000D03*
X118110000Y-62230000D03*
X115570000Y-62230000D03*
X113030000Y-62230000D03*
X110490000Y-62230000D03*
D13*
X107950000Y-62230000D03*
D14*
X146050000Y-56860000D03*
X146050000Y-59960000D03*
D15*
X107950000Y-59970000D03*
X107950000Y-56870000D03*
D14*
X138430000Y-56860000D03*
X138430000Y-59960000D03*
D15*
X125730000Y-59970000D03*
X125730000Y-56870000D03*
D14*
X140970000Y-56860000D03*
X140970000Y-59960000D03*
X151130000Y-56860000D03*
X151130000Y-59960000D03*
D15*
X115570000Y-59970000D03*
X115570000Y-56870000D03*
X120650000Y-59970000D03*
X120650000Y-56870000D03*
X113030000Y-59970000D03*
X113030000Y-56870000D03*
X128270000Y-59970000D03*
X128270000Y-56870000D03*
D14*
X148590000Y-56860000D03*
X148590000Y-59960000D03*
X135890000Y-56870000D03*
X135890000Y-59970000D03*
D15*
X123190000Y-59970000D03*
X123190000Y-56870000D03*
D16*
X140970000Y-64770000D03*
X140970000Y-67270000D03*
D15*
X130810000Y-59970000D03*
X130810000Y-56870000D03*
D14*
X133350000Y-56880000D03*
X133350000Y-59980000D03*
D15*
X110490000Y-59970000D03*
X110490000Y-56870000D03*
X118110000Y-59980000D03*
X118110000Y-56880000D03*
D17*
X154940000Y-58420000D03*
D18*
X156940000Y-58420000D03*
D16*
X102870000Y-62230000D03*
X105370000Y-62230000D03*
X120650000Y-64680000D03*
X120650000Y-67180000D03*
D14*
X143510000Y-56870000D03*
X143510000Y-59970000D03*
D19*
X140970000Y-58801000D03*
X113157000Y-70231000D03*
X115824000Y-58705609D03*
X117242000Y-68665200D03*
X107950000Y-60960000D03*
X110490000Y-58928000D03*
X118110000Y-58928000D03*
X120650000Y-58928000D03*
X123190000Y-58928000D03*
X125730000Y-58928000D03*
X128270000Y-58928000D03*
X130810000Y-58928000D03*
X133350000Y-55880000D03*
X135890000Y-57912000D03*
X138430000Y-57912000D03*
X143510000Y-57912000D03*
X146050000Y-57912000D03*
X148590000Y-57912000D03*
X151130000Y-57912000D03*
X115570000Y-57912000D03*
X113030000Y-57912000D03*
D20*
X151130000Y-54610000D02*
X151130000Y-55213300D01*
X152923900Y-58943900D02*
X158750000Y-64770000D01*
X151130000Y-55213300D02*
X152289000Y-56372200D01*
X152923900Y-57007100D02*
X152923900Y-58943900D01*
X152289000Y-56372200D02*
X152923900Y-57007100D01*
X148590000Y-64770000D02*
X147320000Y-63500000D01*
X147320000Y-63500000D02*
X142748000Y-63500000D01*
X139700000Y-55880000D02*
X138430000Y-54610000D01*
X142748000Y-63500000D02*
X142240000Y-62992000D01*
X142240000Y-62992000D02*
X142240000Y-59309000D01*
X142240000Y-59309000D02*
X140843000Y-57912000D01*
X140843000Y-57912000D02*
X139954000Y-57912000D01*
X139954000Y-57912000D02*
X139700000Y-57658000D01*
X139700000Y-57658000D02*
X139700000Y-55880000D01*
X140970000Y-59960000D02*
X140970000Y-58801000D01*
X115560000Y-72390000D02*
X113401000Y-70231000D01*
X113401000Y-70231000D02*
X113157000Y-70231000D01*
X116292274Y-58705609D02*
X115824000Y-58705609D01*
X116875000Y-63545000D02*
X116875000Y-59288335D01*
X118100000Y-64770000D02*
X116875000Y-63545000D01*
X116875000Y-59288335D02*
X116292274Y-58705609D01*
X110480000Y-64770000D02*
X111750000Y-63500000D01*
X111750000Y-59446000D02*
X112694599Y-58501401D01*
X113619401Y-58501401D02*
X114300000Y-57820802D01*
X111750000Y-63500000D02*
X111750000Y-59446000D01*
X112694599Y-58501401D02*
X113619401Y-58501401D01*
X114300000Y-57820802D02*
X114300000Y-56530223D01*
X114300000Y-56530223D02*
X114950223Y-55880000D01*
X116205000Y-55880000D02*
X116840000Y-55245000D01*
X116840000Y-55245000D02*
X116840000Y-54102000D01*
X114950223Y-55880000D02*
X116205000Y-55880000D01*
X117602000Y-53340000D02*
X119380000Y-53340000D01*
X116840000Y-54102000D02*
X117602000Y-53340000D01*
X119380000Y-53340000D02*
X120650000Y-52070000D01*
X106743500Y-63426500D02*
X105400000Y-64770000D01*
X106743500Y-54453905D02*
X106743500Y-63426500D01*
X107857405Y-53340000D02*
X106743500Y-54453905D01*
X116840000Y-53340000D02*
X107857405Y-53340000D01*
X118110000Y-52070000D02*
X116840000Y-53340000D01*
X120650000Y-56870000D02*
X120650000Y-54610000D01*
X118110000Y-56880000D02*
X118110000Y-54610000D01*
X110490000Y-56870000D02*
X110490000Y-54610000D01*
X107950000Y-56870000D02*
X107950000Y-54610000D01*
X135890000Y-59970000D02*
X135890000Y-62230000D01*
X138430000Y-59960000D02*
X138430000Y-62230000D01*
X143510000Y-59970000D02*
X143510000Y-62230000D01*
X140970000Y-54610000D02*
X140970000Y-56860000D01*
X148590000Y-55213400D02*
X148590000Y-54610000D01*
X149860000Y-56483400D02*
X148590000Y-55213400D01*
X149860000Y-57404000D02*
X149860000Y-56483400D01*
X151511000Y-59055000D02*
X149860000Y-57404000D01*
X151881000Y-59055000D02*
X151511000Y-59055000D01*
X152394000Y-59568700D02*
X151881000Y-59055000D01*
X154940000Y-62114000D02*
X152394000Y-59568700D01*
X154940000Y-70154600D02*
X154940000Y-62114000D01*
X156210000Y-71424600D02*
X154940000Y-70154600D01*
X156210000Y-72390000D02*
X156210000Y-71424600D01*
X152705000Y-64770000D02*
X153670000Y-64770000D01*
X151739000Y-63804600D02*
X152705000Y-64770000D01*
X151333000Y-63804600D02*
X151739000Y-63804600D01*
X149631000Y-62103000D02*
X151333000Y-63804600D01*
X149631000Y-59387700D02*
X149631000Y-62103000D01*
X149298000Y-59055000D02*
X149631000Y-59387700D01*
X148971000Y-59055000D02*
X149298000Y-59055000D01*
X147320000Y-57404000D02*
X148971000Y-59055000D01*
X147320000Y-56445300D02*
X147320000Y-57404000D01*
X146529000Y-55654700D02*
X147320000Y-56445300D01*
X146529000Y-55089300D02*
X146529000Y-55654700D01*
X146050000Y-54610000D02*
X146529000Y-55089300D01*
X120650000Y-71120000D02*
X120650000Y-74930000D01*
X117475000Y-67945000D02*
X120650000Y-71120000D01*
X113655000Y-67945000D02*
X117475000Y-67945000D01*
X110480000Y-64770000D02*
X113655000Y-67945000D01*
X116840000Y-73660000D02*
X118110000Y-74930000D01*
X116840000Y-70485000D02*
X116840000Y-73660000D01*
X115570000Y-69215000D02*
X116840000Y-70485000D01*
X109845000Y-69215000D02*
X115570000Y-69215000D01*
X105400000Y-64770000D02*
X109845000Y-69215000D01*
X143510000Y-55575400D02*
X143510000Y-54610000D01*
X143872000Y-55575400D02*
X143510000Y-55575400D01*
X144822000Y-56525700D02*
X143872000Y-55575400D01*
X144822000Y-62432300D02*
X144822000Y-56525700D01*
X145623000Y-63233200D02*
X144822000Y-62432300D01*
X148423000Y-63233200D02*
X145623000Y-63233200D01*
X149860000Y-64669800D02*
X148423000Y-63233200D01*
X149860000Y-70154600D02*
X149860000Y-64669800D01*
X151130000Y-71424600D02*
X149860000Y-70154600D01*
X151130000Y-72390000D02*
X151130000Y-71424600D01*
X134620000Y-55880000D02*
X133350000Y-54610000D01*
X134620000Y-70154600D02*
X134620000Y-55880000D01*
X135890000Y-71424600D02*
X134620000Y-70154600D01*
X135890000Y-72390000D02*
X135890000Y-71424600D01*
X133350000Y-59980000D02*
X133350000Y-62230000D01*
X141935400Y-67310000D02*
X146050000Y-71424600D01*
X141935400Y-64160800D02*
X141935400Y-67310000D01*
X140970000Y-63195400D02*
X141935400Y-64160800D01*
X140970000Y-62230000D02*
X140970000Y-63195400D01*
X146050000Y-72390000D02*
X146050000Y-71424600D01*
X146050000Y-59960000D02*
X146050000Y-62230000D01*
X148590000Y-59960000D02*
X148590000Y-62230000D01*
X151130000Y-59960000D02*
X151130000Y-62230000D01*
X113030000Y-62230000D02*
X113030000Y-59970000D01*
X115570000Y-62230000D02*
X115570000Y-59970000D01*
X112801000Y-68665200D02*
X117242000Y-68665200D01*
X108905000Y-64770000D02*
X112801000Y-68665200D01*
X107940000Y-64770000D02*
X108905000Y-64770000D01*
X120650000Y-63195400D02*
X120650000Y-62230000D01*
X119685000Y-64160800D02*
X120650000Y-63195400D01*
X119685000Y-64572000D02*
X119685000Y-64160800D01*
X118500000Y-65756500D02*
X119685000Y-64572000D01*
X114972000Y-65756500D02*
X118500000Y-65756500D01*
X113985000Y-64770000D02*
X114972000Y-65756500D01*
X113020000Y-64770000D02*
X113985000Y-64770000D01*
X125730000Y-71424600D02*
X125730000Y-72390000D01*
X124765000Y-70459200D02*
X125730000Y-71424600D01*
X124765000Y-64770000D02*
X124765000Y-70459200D01*
X123190000Y-63195400D02*
X124765000Y-64770000D01*
X123190000Y-62230000D02*
X123190000Y-63195400D01*
X128270000Y-63804600D02*
X128270000Y-64770000D01*
X126695000Y-62230000D02*
X128270000Y-63804600D01*
X125730000Y-62230000D02*
X126695000Y-62230000D01*
X130810000Y-71424600D02*
X130810000Y-72390000D01*
X129845000Y-70459200D02*
X130810000Y-71424600D01*
X129845000Y-64770000D02*
X129845000Y-70459200D01*
X128270000Y-63195400D02*
X129845000Y-64770000D01*
X128270000Y-62230000D02*
X128270000Y-63195400D01*
X133350000Y-63804600D02*
X133350000Y-64770000D01*
X131775000Y-62230000D02*
X133350000Y-63804600D01*
X130810000Y-62230000D02*
X131775000Y-62230000D01*
X123190000Y-56870000D02*
X123190000Y-54610000D01*
X125730000Y-56870000D02*
X125730000Y-54610000D01*
X128270000Y-56870000D02*
X128270000Y-54610000D01*
X130810000Y-56870000D02*
X130810000Y-54610000D01*
X133350000Y-56880000D02*
X133350000Y-55880000D01*
X107950000Y-59970000D02*
X107950000Y-60960000D01*
X110490000Y-59970000D02*
X110490000Y-58928000D01*
X118110000Y-59980000D02*
X118110000Y-58928000D01*
X120650000Y-59970000D02*
X120650000Y-58928000D01*
X123190000Y-59970000D02*
X123190000Y-58928000D01*
X125730000Y-59970000D02*
X125730000Y-58928000D01*
X128270000Y-59970000D02*
X128270000Y-58928000D01*
X130810000Y-59970000D02*
X130810000Y-58928000D01*
X135890000Y-56870000D02*
X135890000Y-57912000D01*
X138430000Y-56860000D02*
X138430000Y-57912000D01*
X143510000Y-56870000D02*
X143510000Y-57912000D01*
X146050000Y-56860000D02*
X146050000Y-57912000D01*
X148590000Y-56860000D02*
X148590000Y-57912000D01*
X151130000Y-56860000D02*
X151130000Y-57912000D01*
X115570000Y-56870000D02*
X115570000Y-57912000D01*
X113030000Y-56870000D02*
X113030000Y-57912000D01*
M02*
