G04 #@! TF.GenerationSoftware,KiCad,Pcbnew,(6.0.11-0)*
G04 #@! TF.CreationDate,2023-06-10T21:35:02+02:00*
G04 #@! TF.ProjectId,debug_leds,64656275-675f-46c6-9564-732e6b696361,REV*
G04 #@! TF.SameCoordinates,Original*
G04 #@! TF.FileFunction,Legend,Bot*
G04 #@! TF.FilePolarity,Positive*
%FSLAX46Y46*%
G04 Gerber Fmt 4.6, Leading zero omitted, Abs format (unit mm)*
G04 Created by KiCad (PCBNEW (6.0.11-0)) date 2023-06-10 21:35:02*
%MOMM*%
%LPD*%
G01*
G04 APERTURE LIST*
%ADD10C,0.150000*%
%ADD11R,1.700000X1.700000*%
%ADD12O,1.700000X1.700000*%
%ADD13O,1.600000X1.600000*%
%ADD14R,1.600000X1.600000*%
%ADD15C,1.600000*%
%ADD16R,1.200000X1.200000*%
%ADD17C,1.200000*%
G04 APERTURE END LIST*
D10*
X157145809Y-66422380D02*
X157336285Y-66422380D01*
X157431523Y-66470000D01*
X157479142Y-66517619D01*
X157574380Y-66660476D01*
X157622000Y-66850952D01*
X157622000Y-67231904D01*
X157574380Y-67327142D01*
X157526761Y-67374761D01*
X157431523Y-67422380D01*
X157241047Y-67422380D01*
X157145809Y-67374761D01*
X157098190Y-67327142D01*
X157050571Y-67231904D01*
X157050571Y-66993809D01*
X157098190Y-66898571D01*
X157145809Y-66850952D01*
X157241047Y-66803333D01*
X157431523Y-66803333D01*
X157526761Y-66850952D01*
X157574380Y-66898571D01*
X157622000Y-66993809D01*
X156145809Y-66422380D02*
X156622000Y-66422380D01*
X156669619Y-66898571D01*
X156622000Y-66850952D01*
X156526761Y-66803333D01*
X156288666Y-66803333D01*
X156193428Y-66850952D01*
X156145809Y-66898571D01*
X156098190Y-66993809D01*
X156098190Y-67231904D01*
X156145809Y-67327142D01*
X156193428Y-67374761D01*
X156288666Y-67422380D01*
X156526761Y-67422380D01*
X156622000Y-67374761D01*
X156669619Y-67327142D01*
X155526761Y-66850952D02*
X155622000Y-66803333D01*
X155669619Y-66755714D01*
X155717238Y-66660476D01*
X155717238Y-66612857D01*
X155669619Y-66517619D01*
X155622000Y-66470000D01*
X155526761Y-66422380D01*
X155336285Y-66422380D01*
X155241047Y-66470000D01*
X155193428Y-66517619D01*
X155145809Y-66612857D01*
X155145809Y-66660476D01*
X155193428Y-66755714D01*
X155241047Y-66803333D01*
X155336285Y-66850952D01*
X155526761Y-66850952D01*
X155622000Y-66898571D01*
X155669619Y-66946190D01*
X155717238Y-67041428D01*
X155717238Y-67231904D01*
X155669619Y-67327142D01*
X155622000Y-67374761D01*
X155526761Y-67422380D01*
X155336285Y-67422380D01*
X155241047Y-67374761D01*
X155193428Y-67327142D01*
X155145809Y-67231904D01*
X155145809Y-67041428D01*
X155193428Y-66946190D01*
X155241047Y-66898571D01*
X155336285Y-66850952D01*
X154193428Y-67422380D02*
X154764857Y-67422380D01*
X154479142Y-67422380D02*
X154479142Y-66422380D01*
X154574380Y-66565238D01*
X154669619Y-66660476D01*
X154764857Y-66708095D01*
X153336285Y-66422380D02*
X153526761Y-66422380D01*
X153622000Y-66470000D01*
X153669619Y-66517619D01*
X153764857Y-66660476D01*
X153812476Y-66850952D01*
X153812476Y-67231904D01*
X153764857Y-67327142D01*
X153717238Y-67374761D01*
X153622000Y-67422380D01*
X153431523Y-67422380D01*
X153336285Y-67374761D01*
X153288666Y-67327142D01*
X153241047Y-67231904D01*
X153241047Y-66993809D01*
X153288666Y-66898571D01*
X153336285Y-66850952D01*
X153431523Y-66803333D01*
X153622000Y-66803333D01*
X153717238Y-66850952D01*
X153764857Y-66898571D01*
X153812476Y-66993809D01*
X152050571Y-67422380D02*
X152050571Y-66422380D01*
X151812476Y-66422380D01*
X151669619Y-66470000D01*
X151574380Y-66565238D01*
X151526761Y-66660476D01*
X151479142Y-66850952D01*
X151479142Y-66993809D01*
X151526761Y-67184285D01*
X151574380Y-67279523D01*
X151669619Y-67374761D01*
X151812476Y-67422380D01*
X152050571Y-67422380D01*
X150669619Y-67374761D02*
X150764857Y-67422380D01*
X150955333Y-67422380D01*
X151050571Y-67374761D01*
X151098190Y-67279523D01*
X151098190Y-66898571D01*
X151050571Y-66803333D01*
X150955333Y-66755714D01*
X150764857Y-66755714D01*
X150669619Y-66803333D01*
X150622000Y-66898571D01*
X150622000Y-66993809D01*
X151098190Y-67089047D01*
X150193428Y-67422380D02*
X150193428Y-66422380D01*
X150193428Y-66803333D02*
X150098190Y-66755714D01*
X149907714Y-66755714D01*
X149812476Y-66803333D01*
X149764857Y-66850952D01*
X149717238Y-66946190D01*
X149717238Y-67231904D01*
X149764857Y-67327142D01*
X149812476Y-67374761D01*
X149907714Y-67422380D01*
X150098190Y-67422380D01*
X150193428Y-67374761D01*
X148860095Y-66755714D02*
X148860095Y-67422380D01*
X149288666Y-66755714D02*
X149288666Y-67279523D01*
X149241047Y-67374761D01*
X149145809Y-67422380D01*
X149002952Y-67422380D01*
X148907714Y-67374761D01*
X148860095Y-67327142D01*
X147955333Y-66755714D02*
X147955333Y-67565238D01*
X148002952Y-67660476D01*
X148050571Y-67708095D01*
X148145809Y-67755714D01*
X148288666Y-67755714D01*
X148383904Y-67708095D01*
X147955333Y-67374761D02*
X148050571Y-67422380D01*
X148241047Y-67422380D01*
X148336285Y-67374761D01*
X148383904Y-67327142D01*
X148431523Y-67231904D01*
X148431523Y-66946190D01*
X148383904Y-66850952D01*
X148336285Y-66803333D01*
X148241047Y-66755714D01*
X148050571Y-66755714D01*
X147955333Y-66803333D01*
X146241047Y-67422380D02*
X146717238Y-67422380D01*
X146717238Y-66422380D01*
X145907714Y-66898571D02*
X145574380Y-66898571D01*
X145431523Y-67422380D02*
X145907714Y-67422380D01*
X145907714Y-66422380D01*
X145431523Y-66422380D01*
X145002952Y-67422380D02*
X145002952Y-66422380D01*
X144764857Y-66422380D01*
X144622000Y-66470000D01*
X144526761Y-66565238D01*
X144479142Y-66660476D01*
X144431523Y-66850952D01*
X144431523Y-66993809D01*
X144479142Y-67184285D01*
X144526761Y-67279523D01*
X144622000Y-67374761D01*
X144764857Y-67422380D01*
X145002952Y-67422380D01*
X144050571Y-67374761D02*
X143955333Y-67422380D01*
X143764857Y-67422380D01*
X143669619Y-67374761D01*
X143622000Y-67279523D01*
X143622000Y-67231904D01*
X143669619Y-67136666D01*
X143764857Y-67089047D01*
X143907714Y-67089047D01*
X144002952Y-67041428D01*
X144050571Y-66946190D01*
X144050571Y-66898571D01*
X144002952Y-66803333D01*
X143907714Y-66755714D01*
X143764857Y-66755714D01*
X143669619Y-66803333D01*
X158979142Y-68127619D02*
X158931523Y-68080000D01*
X158836285Y-68032380D01*
X158598190Y-68032380D01*
X158502952Y-68080000D01*
X158455333Y-68127619D01*
X158407714Y-68222857D01*
X158407714Y-68318095D01*
X158455333Y-68460952D01*
X159026761Y-69032380D01*
X158407714Y-69032380D01*
X157788666Y-68032380D02*
X157693428Y-68032380D01*
X157598190Y-68080000D01*
X157550571Y-68127619D01*
X157502952Y-68222857D01*
X157455333Y-68413333D01*
X157455333Y-68651428D01*
X157502952Y-68841904D01*
X157550571Y-68937142D01*
X157598190Y-68984761D01*
X157693428Y-69032380D01*
X157788666Y-69032380D01*
X157883904Y-68984761D01*
X157931523Y-68937142D01*
X157979142Y-68841904D01*
X158026761Y-68651428D01*
X158026761Y-68413333D01*
X157979142Y-68222857D01*
X157931523Y-68127619D01*
X157883904Y-68080000D01*
X157788666Y-68032380D01*
X157074380Y-68127619D02*
X157026761Y-68080000D01*
X156931523Y-68032380D01*
X156693428Y-68032380D01*
X156598190Y-68080000D01*
X156550571Y-68127619D01*
X156502952Y-68222857D01*
X156502952Y-68318095D01*
X156550571Y-68460952D01*
X157122000Y-69032380D01*
X156502952Y-69032380D01*
X156169619Y-68032380D02*
X155550571Y-68032380D01*
X155883904Y-68413333D01*
X155741047Y-68413333D01*
X155645809Y-68460952D01*
X155598190Y-68508571D01*
X155550571Y-68603809D01*
X155550571Y-68841904D01*
X155598190Y-68937142D01*
X155645809Y-68984761D01*
X155741047Y-69032380D01*
X156026761Y-69032380D01*
X156122000Y-68984761D01*
X156169619Y-68937142D01*
X155122000Y-68651428D02*
X154360095Y-68651428D01*
X153693428Y-68032380D02*
X153598190Y-68032380D01*
X153502952Y-68080000D01*
X153455333Y-68127619D01*
X153407714Y-68222857D01*
X153360095Y-68413333D01*
X153360095Y-68651428D01*
X153407714Y-68841904D01*
X153455333Y-68937142D01*
X153502952Y-68984761D01*
X153598190Y-69032380D01*
X153693428Y-69032380D01*
X153788666Y-68984761D01*
X153836285Y-68937142D01*
X153883904Y-68841904D01*
X153931523Y-68651428D01*
X153931523Y-68413333D01*
X153883904Y-68222857D01*
X153836285Y-68127619D01*
X153788666Y-68080000D01*
X153693428Y-68032380D01*
X152502952Y-68032380D02*
X152693428Y-68032380D01*
X152788666Y-68080000D01*
X152836285Y-68127619D01*
X152931523Y-68270476D01*
X152979142Y-68460952D01*
X152979142Y-68841904D01*
X152931523Y-68937142D01*
X152883904Y-68984761D01*
X152788666Y-69032380D01*
X152598190Y-69032380D01*
X152502952Y-68984761D01*
X152455333Y-68937142D01*
X152407714Y-68841904D01*
X152407714Y-68603809D01*
X152455333Y-68508571D01*
X152502952Y-68460952D01*
X152598190Y-68413333D01*
X152788666Y-68413333D01*
X152883904Y-68460952D01*
X152931523Y-68508571D01*
X152979142Y-68603809D01*
X151979142Y-68651428D02*
X151217238Y-68651428D01*
X150217238Y-69032380D02*
X150788666Y-69032380D01*
X150502952Y-69032380D02*
X150502952Y-68032380D01*
X150598190Y-68175238D01*
X150693428Y-68270476D01*
X150788666Y-68318095D01*
X149598190Y-68032380D02*
X149502952Y-68032380D01*
X149407714Y-68080000D01*
X149360095Y-68127619D01*
X149312476Y-68222857D01*
X149264857Y-68413333D01*
X149264857Y-68651428D01*
X149312476Y-68841904D01*
X149360095Y-68937142D01*
X149407714Y-68984761D01*
X149502952Y-69032380D01*
X149598190Y-69032380D01*
X149693428Y-68984761D01*
X149741047Y-68937142D01*
X149788666Y-68841904D01*
X149836285Y-68651428D01*
X149836285Y-68413333D01*
X149788666Y-68222857D01*
X149741047Y-68127619D01*
X149693428Y-68080000D01*
X149598190Y-68032380D01*
X148074380Y-68651428D02*
X147312476Y-68651428D01*
X145502952Y-69032380D02*
X145836285Y-68556190D01*
X146074380Y-69032380D02*
X146074380Y-68032380D01*
X145693428Y-68032380D01*
X145598190Y-68080000D01*
X145550571Y-68127619D01*
X145502952Y-68222857D01*
X145502952Y-68365714D01*
X145550571Y-68460952D01*
X145598190Y-68508571D01*
X145693428Y-68556190D01*
X146074380Y-68556190D01*
X144693428Y-68984761D02*
X144788666Y-69032380D01*
X144979142Y-69032380D01*
X145074380Y-68984761D01*
X145122000Y-68889523D01*
X145122000Y-68508571D01*
X145074380Y-68413333D01*
X144979142Y-68365714D01*
X144788666Y-68365714D01*
X144693428Y-68413333D01*
X144645809Y-68508571D01*
X144645809Y-68603809D01*
X145122000Y-68699047D01*
X144312476Y-68365714D02*
X144074380Y-69032380D01*
X143836285Y-68365714D01*
X142741047Y-68746666D02*
X142264857Y-68746666D01*
X142836285Y-69032380D02*
X142502952Y-68032380D01*
X142169619Y-69032380D01*
X155598190Y-70356666D02*
X155122000Y-70356666D01*
X155693428Y-70642380D02*
X155360095Y-69642380D01*
X155026761Y-70642380D01*
X154693428Y-70547142D02*
X154645809Y-70594761D01*
X154693428Y-70642380D01*
X154741047Y-70594761D01*
X154693428Y-70547142D01*
X154693428Y-70642380D01*
X153455333Y-70642380D02*
X153455333Y-69642380D01*
X152883904Y-70642380D02*
X153312476Y-70070952D01*
X152883904Y-69642380D02*
X153455333Y-70213809D01*
X152312476Y-70642380D02*
X152407714Y-70594761D01*
X152455333Y-70547142D01*
X152502952Y-70451904D01*
X152502952Y-70166190D01*
X152455333Y-70070952D01*
X152407714Y-70023333D01*
X152312476Y-69975714D01*
X152169619Y-69975714D01*
X152074380Y-70023333D01*
X152026761Y-70070952D01*
X151979142Y-70166190D01*
X151979142Y-70451904D01*
X152026761Y-70547142D01*
X152074380Y-70594761D01*
X152169619Y-70642380D01*
X152312476Y-70642380D01*
X151550571Y-70642380D02*
X151550571Y-69642380D01*
X151122000Y-70642380D02*
X151122000Y-70118571D01*
X151169619Y-70023333D01*
X151264857Y-69975714D01*
X151407714Y-69975714D01*
X151502952Y-70023333D01*
X151550571Y-70070952D01*
X150502952Y-70642380D02*
X150598190Y-70594761D01*
X150645809Y-70499523D01*
X150645809Y-69642380D01*
X150122000Y-70642380D02*
X150122000Y-69642380D01*
X150122000Y-70023333D02*
X150026761Y-69975714D01*
X149836285Y-69975714D01*
X149741047Y-70023333D01*
X149693428Y-70070952D01*
X149645809Y-70166190D01*
X149645809Y-70451904D01*
X149693428Y-70547142D01*
X149741047Y-70594761D01*
X149836285Y-70642380D01*
X150026761Y-70642380D01*
X150122000Y-70594761D01*
X148836285Y-70594761D02*
X148931523Y-70642380D01*
X149122000Y-70642380D01*
X149217238Y-70594761D01*
X149264857Y-70499523D01*
X149264857Y-70118571D01*
X149217238Y-70023333D01*
X149122000Y-69975714D01*
X148931523Y-69975714D01*
X148836285Y-70023333D01*
X148788666Y-70118571D01*
X148788666Y-70213809D01*
X149264857Y-70309047D01*
X147931523Y-70594761D02*
X148026761Y-70642380D01*
X148217238Y-70642380D01*
X148312476Y-70594761D01*
X148360095Y-70547142D01*
X148407714Y-70451904D01*
X148407714Y-70166190D01*
X148360095Y-70070952D01*
X148312476Y-70023333D01*
X148217238Y-69975714D01*
X148026761Y-69975714D01*
X147931523Y-70023333D01*
X147502952Y-70642380D02*
X147502952Y-69642380D01*
X147407714Y-70261428D02*
X147122000Y-70642380D01*
X147122000Y-69975714D02*
X147502952Y-70356666D01*
X146312476Y-70594761D02*
X146407714Y-70642380D01*
X146598190Y-70642380D01*
X146693428Y-70594761D01*
X146741047Y-70499523D01*
X146741047Y-70118571D01*
X146693428Y-70023333D01*
X146598190Y-69975714D01*
X146407714Y-69975714D01*
X146312476Y-70023333D01*
X146264857Y-70118571D01*
X146264857Y-70213809D01*
X146741047Y-70309047D01*
X145836285Y-70642380D02*
X145836285Y-69975714D01*
X145836285Y-70166190D02*
X145788666Y-70070952D01*
X145741047Y-70023333D01*
X145645809Y-69975714D01*
X145550571Y-69975714D01*
%LPC*%
D11*
X105410000Y-52070000D03*
D12*
X107950000Y-52070000D03*
X110490000Y-52070000D03*
X113030000Y-52070000D03*
X115570000Y-52070000D03*
X118110000Y-52070000D03*
X120650000Y-52070000D03*
X123190000Y-52070000D03*
X125730000Y-52070000D03*
X128270000Y-52070000D03*
X130810000Y-52070000D03*
X133350000Y-52070000D03*
X135890000Y-52070000D03*
X138430000Y-52070000D03*
X140970000Y-52070000D03*
X143510000Y-52070000D03*
X146050000Y-52070000D03*
X148590000Y-52070000D03*
X151130000Y-52070000D03*
X153670000Y-52070000D03*
D11*
X105410000Y-74930000D03*
D12*
X107950000Y-74930000D03*
X110490000Y-74930000D03*
X113030000Y-74930000D03*
X115570000Y-74930000D03*
X118110000Y-74930000D03*
X120650000Y-74930000D03*
X123190000Y-74930000D03*
X125730000Y-74930000D03*
X128270000Y-74930000D03*
X130810000Y-74930000D03*
X133350000Y-74930000D03*
X135890000Y-74930000D03*
X138430000Y-74930000D03*
X140970000Y-74930000D03*
X143510000Y-74930000D03*
X146050000Y-74930000D03*
X148590000Y-74930000D03*
X151130000Y-74930000D03*
X153670000Y-74930000D03*
D13*
X123190000Y-64770000D03*
X125730000Y-64770000D03*
X128270000Y-64770000D03*
X130810000Y-64770000D03*
X133350000Y-64770000D03*
X135890000Y-64770000D03*
X138430000Y-64770000D03*
X138430000Y-72390000D03*
X135890000Y-72390000D03*
X133350000Y-72390000D03*
X130810000Y-72390000D03*
X128270000Y-72390000D03*
X125730000Y-72390000D03*
D14*
X123190000Y-72390000D03*
D13*
X143510000Y-64770000D03*
X146050000Y-64770000D03*
X148590000Y-64770000D03*
X151130000Y-64770000D03*
X153670000Y-64770000D03*
X156210000Y-64770000D03*
X158750000Y-64770000D03*
X158750000Y-72390000D03*
X156210000Y-72390000D03*
X153670000Y-72390000D03*
X151130000Y-72390000D03*
X148590000Y-72390000D03*
X146050000Y-72390000D03*
D14*
X143510000Y-72390000D03*
X102860000Y-72390000D03*
D13*
X105400000Y-72390000D03*
X107940000Y-72390000D03*
X110480000Y-72390000D03*
X113020000Y-72390000D03*
X115560000Y-72390000D03*
X118100000Y-72390000D03*
X118100000Y-64770000D03*
X115560000Y-64770000D03*
X113020000Y-64770000D03*
X110480000Y-64770000D03*
X107940000Y-64770000D03*
X105400000Y-64770000D03*
X102860000Y-64770000D03*
X151130000Y-62230000D03*
X148590000Y-62230000D03*
X146050000Y-62230000D03*
X143510000Y-62230000D03*
X140970000Y-62230000D03*
X138430000Y-62230000D03*
X135890000Y-62230000D03*
X133350000Y-62230000D03*
X133350000Y-54610000D03*
X135890000Y-54610000D03*
X138430000Y-54610000D03*
X140970000Y-54610000D03*
X143510000Y-54610000D03*
X146050000Y-54610000D03*
X148590000Y-54610000D03*
D14*
X151130000Y-54610000D03*
D13*
X107950000Y-54610000D03*
X110490000Y-54610000D03*
X113030000Y-54610000D03*
X115570000Y-54610000D03*
X118110000Y-54610000D03*
X120650000Y-54610000D03*
X123190000Y-54610000D03*
X125730000Y-54610000D03*
X128270000Y-54610000D03*
X130810000Y-54610000D03*
X130810000Y-62230000D03*
X128270000Y-62230000D03*
X125730000Y-62230000D03*
X123190000Y-62230000D03*
X120650000Y-62230000D03*
X118110000Y-62230000D03*
X115570000Y-62230000D03*
X113030000Y-62230000D03*
X110490000Y-62230000D03*
D14*
X107950000Y-62230000D03*
D15*
X140970000Y-64770000D03*
X140970000Y-67270000D03*
D16*
X154940000Y-58420000D03*
D17*
X156940000Y-58420000D03*
D15*
X102870000Y-62230000D03*
X105370000Y-62230000D03*
X120650000Y-64680000D03*
X120650000Y-67180000D03*
M02*
