G04 #@! TF.GenerationSoftware,KiCad,Pcbnew,7.0.5-0*
G04 #@! TF.CreationDate,2023-08-05T11:37:55+02:00*
G04 #@! TF.ProjectId,debug_leds,64656275-675f-46c6-9564-732e6b696361,B*
G04 #@! TF.SameCoordinates,Original*
G04 #@! TF.FileFunction,Copper,L2,Bot*
G04 #@! TF.FilePolarity,Positive*
%FSLAX46Y46*%
G04 Gerber Fmt 4.6, Leading zero omitted, Abs format (unit mm)*
G04 Created by KiCad (PCBNEW 7.0.5-0) date 2023-08-05 11:37:55*
%MOMM*%
%LPD*%
G01*
G04 APERTURE LIST*
G04 #@! TA.AperFunction,ComponentPad*
%ADD10R,1.600000X1.600000*%
G04 #@! TD*
G04 #@! TA.AperFunction,ComponentPad*
%ADD11O,1.600000X1.600000*%
G04 #@! TD*
G04 #@! TA.AperFunction,ComponentPad*
%ADD12C,1.600000*%
G04 #@! TD*
G04 #@! TA.AperFunction,ComponentPad*
%ADD13R,1.700000X1.700000*%
G04 #@! TD*
G04 #@! TA.AperFunction,ComponentPad*
%ADD14O,1.700000X1.700000*%
G04 #@! TD*
G04 #@! TA.AperFunction,ViaPad*
%ADD15C,0.600000*%
G04 #@! TD*
G04 #@! TA.AperFunction,Conductor*
%ADD16C,0.127000*%
G04 #@! TD*
G04 #@! TA.AperFunction,Conductor*
%ADD17C,0.254000*%
G04 #@! TD*
G04 APERTURE END LIST*
D10*
X109220000Y-62230000D03*
D11*
X111760000Y-62230000D03*
X114300000Y-62230000D03*
X116840000Y-62230000D03*
X119380000Y-62230000D03*
X121920000Y-62230000D03*
X124460000Y-62230000D03*
X127000000Y-62230000D03*
X129540000Y-62230000D03*
X132080000Y-62230000D03*
X132080000Y-54610000D03*
X129540000Y-54610000D03*
X127000000Y-54610000D03*
X124460000Y-54610000D03*
X121920000Y-54610000D03*
X119380000Y-54610000D03*
X116840000Y-54610000D03*
X114300000Y-54610000D03*
X111760000Y-54610000D03*
X109220000Y-54610000D03*
D12*
X106045000Y-62230000D03*
X106045000Y-59730000D03*
X155575000Y-62210000D03*
X155575000Y-59710000D03*
D10*
X152400000Y-54610000D03*
D11*
X149860000Y-54610000D03*
X147320000Y-54610000D03*
X144780000Y-54610000D03*
X142240000Y-54610000D03*
X139700000Y-54610000D03*
X137160000Y-54610000D03*
X134620000Y-54610000D03*
X134620000Y-62230000D03*
X137160000Y-62230000D03*
X139700000Y-62230000D03*
X142240000Y-62230000D03*
X144780000Y-62230000D03*
X147320000Y-62230000D03*
X149860000Y-62230000D03*
X152400000Y-62230000D03*
D13*
X106680000Y-74930000D03*
D14*
X109220000Y-74930000D03*
X111760000Y-74930000D03*
X114300000Y-74930000D03*
X116840000Y-74930000D03*
X119380000Y-74930000D03*
X121920000Y-74930000D03*
X124460000Y-74930000D03*
X127000000Y-74930000D03*
X129540000Y-74930000D03*
X132080000Y-74930000D03*
X134620000Y-74930000D03*
X137160000Y-74930000D03*
X139700000Y-74930000D03*
X142240000Y-74930000D03*
X144780000Y-74930000D03*
X147320000Y-74930000D03*
X149860000Y-74930000D03*
X152400000Y-74930000D03*
X154940000Y-74930000D03*
D13*
X106680000Y-52070000D03*
D14*
X109220000Y-52070000D03*
X111760000Y-52070000D03*
X114300000Y-52070000D03*
X116840000Y-52070000D03*
X119380000Y-52070000D03*
X121920000Y-52070000D03*
X124460000Y-52070000D03*
X127000000Y-52070000D03*
X129540000Y-52070000D03*
X132080000Y-52070000D03*
X134620000Y-52070000D03*
X137160000Y-52070000D03*
X139700000Y-52070000D03*
X142240000Y-52070000D03*
X144780000Y-52070000D03*
X147320000Y-52070000D03*
X149860000Y-52070000D03*
X152400000Y-52070000D03*
X154940000Y-52070000D03*
D10*
X138430000Y-72390000D03*
D11*
X135890000Y-72390000D03*
X133350000Y-72390000D03*
X130810000Y-72390000D03*
X128270000Y-72390000D03*
X125730000Y-72390000D03*
X123190000Y-72390000D03*
X123190000Y-64770000D03*
X125730000Y-64770000D03*
X128270000Y-64770000D03*
X130810000Y-64770000D03*
X133350000Y-64770000D03*
X135890000Y-64770000D03*
X138430000Y-64770000D03*
D10*
X156845000Y-72390000D03*
D11*
X154305000Y-72390000D03*
X151765000Y-72390000D03*
X149225000Y-72390000D03*
X146685000Y-72390000D03*
X144145000Y-72390000D03*
X141605000Y-72390000D03*
X141605000Y-64770000D03*
X144145000Y-64770000D03*
X146685000Y-64770000D03*
X149225000Y-64770000D03*
X151765000Y-64770000D03*
X154305000Y-64770000D03*
X156845000Y-64770000D03*
D10*
X120015000Y-72390000D03*
D11*
X117475000Y-72390000D03*
X114935000Y-72390000D03*
X112395000Y-72390000D03*
X109855000Y-72390000D03*
X107315000Y-72390000D03*
X104775000Y-72390000D03*
X104775000Y-64770000D03*
X107315000Y-64770000D03*
X109855000Y-64770000D03*
X112395000Y-64770000D03*
X114935000Y-64770000D03*
X117475000Y-64770000D03*
X120015000Y-64770000D03*
D15*
X113747700Y-70154400D03*
D16*
X154305000Y-72390000D02*
X154305000Y-71397600D01*
X152400000Y-54610000D02*
X152400000Y-55602400D01*
X155298000Y-70404600D02*
X154305000Y-71397600D01*
X155298000Y-64011100D02*
X155298000Y-70404600D01*
X153698300Y-62411400D02*
X155298000Y-64011100D01*
X153698300Y-56900700D02*
X153698300Y-62411400D01*
X152400000Y-55602400D02*
X153698300Y-56900700D01*
X123904800Y-63777600D02*
X124460000Y-63222400D01*
X123190000Y-63777600D02*
X123904800Y-63777600D01*
X124460000Y-62230000D02*
X124460000Y-63222400D01*
X123190000Y-64770000D02*
X123190000Y-63777600D01*
X125730000Y-72390000D02*
X125730000Y-71397600D01*
X127000000Y-70127600D02*
X125730000Y-71397600D01*
X127000000Y-62230000D02*
X127000000Y-70127600D01*
X151765000Y-64770000D02*
X151765000Y-63777600D01*
X149860000Y-54610000D02*
X149860000Y-55602400D01*
X149861500Y-55603900D02*
X149860000Y-55602400D01*
X149861500Y-57321600D02*
X149861500Y-55603900D01*
X151353600Y-58813700D02*
X149861500Y-57321600D01*
X151353600Y-63366200D02*
X151353600Y-58813700D01*
X151765000Y-63777600D02*
X151353600Y-63366200D01*
X156845000Y-72390000D02*
X155852600Y-72390000D01*
X152400000Y-74930000D02*
X153442400Y-74930000D01*
X153442400Y-74724600D02*
X153442400Y-74930000D01*
X155777000Y-72390000D02*
X153442400Y-74724600D01*
X155852600Y-72390000D02*
X155777000Y-72390000D01*
X152832000Y-53112400D02*
X152400000Y-53112400D01*
X154114900Y-54395300D02*
X152832000Y-53112400D01*
X154114900Y-62429100D02*
X154114900Y-54395300D01*
X155649000Y-63963200D02*
X154114900Y-62429100D01*
X155649000Y-72262000D02*
X155649000Y-63963200D01*
X155777000Y-72390000D02*
X155649000Y-72262000D01*
X152400000Y-52070000D02*
X152400000Y-53112400D01*
X153442400Y-62915000D02*
X154305000Y-63777600D01*
X153442400Y-60540500D02*
X153442400Y-62915000D01*
X150852400Y-57950500D02*
X153442400Y-60540500D01*
X150852400Y-54104800D02*
X150852400Y-57950500D01*
X149860000Y-53112400D02*
X150852400Y-54104800D01*
X149860000Y-52070000D02*
X149860000Y-53112400D01*
X154305000Y-64273800D02*
X154305000Y-63777600D01*
X154305000Y-64273800D02*
X154305000Y-64770000D01*
X154305000Y-64770000D02*
X154305000Y-65762400D01*
X153125100Y-66942300D02*
X154305000Y-65762400D01*
X153125100Y-72707300D02*
X153125100Y-66942300D01*
X150902400Y-74930000D02*
X153125100Y-72707300D01*
X149860000Y-74930000D02*
X150902400Y-74930000D01*
X148590000Y-54382400D02*
X147320000Y-53112400D01*
X148590000Y-55825300D02*
X148590000Y-54382400D01*
X149605600Y-56840900D02*
X148590000Y-55825300D01*
X149605600Y-58434800D02*
X149605600Y-56840900D01*
X150918800Y-59748000D02*
X149605600Y-58434800D01*
X150918800Y-62717600D02*
X150918800Y-59748000D01*
X150772600Y-62863800D02*
X150918800Y-62717600D01*
X150772600Y-70405200D02*
X150772600Y-62863800D01*
X151765000Y-71397600D02*
X150772600Y-70405200D01*
X151765000Y-72390000D02*
X151765000Y-71397600D01*
X147320000Y-52070000D02*
X147320000Y-53112400D01*
X144780000Y-52070000D02*
X144780000Y-53112400D01*
X149225000Y-64770000D02*
X149225000Y-65762400D01*
X149225000Y-64770000D02*
X149225000Y-63777600D01*
X144780000Y-74930000D02*
X145822400Y-74930000D01*
X148210900Y-66776500D02*
X149225000Y-65762400D01*
X148210900Y-72541500D02*
X148210900Y-66776500D01*
X145822400Y-74930000D02*
X148210900Y-72541500D01*
X148332400Y-62885000D02*
X149225000Y-63777600D01*
X148332300Y-62885000D02*
X148332400Y-62885000D01*
X148332300Y-58207800D02*
X148332300Y-62885000D01*
X146326100Y-56201600D02*
X148332300Y-58207800D01*
X146326100Y-54365300D02*
X146326100Y-56201600D01*
X145073200Y-53112400D02*
X146326100Y-54365300D01*
X144780000Y-53112400D02*
X145073200Y-53112400D01*
X144587800Y-53375400D02*
X143282400Y-52070000D01*
X144948900Y-53375400D02*
X144587800Y-53375400D01*
X145772400Y-54198900D02*
X144948900Y-53375400D01*
X145772400Y-56137100D02*
X145772400Y-54198900D01*
X146327600Y-56692300D02*
X145772400Y-56137100D01*
X146327600Y-62924900D02*
X146327600Y-56692300D01*
X147677600Y-64274900D02*
X146327600Y-62924900D01*
X147677600Y-70405000D02*
X147677600Y-64274900D01*
X146685000Y-71397600D02*
X147677600Y-70405000D01*
X146685000Y-72390000D02*
X146685000Y-71397600D01*
X142240000Y-52070000D02*
X143282400Y-52070000D01*
X144145000Y-64770000D02*
X144145000Y-63777600D01*
X139700000Y-52070000D02*
X139700000Y-53112400D01*
X145175500Y-66792900D02*
X144145000Y-65762400D01*
X145175500Y-72805400D02*
X145175500Y-66792900D01*
X144093300Y-73887600D02*
X145175500Y-72805400D01*
X141784800Y-73887600D02*
X144093300Y-73887600D01*
X140742400Y-74930000D02*
X141784800Y-73887600D01*
X140911700Y-54324100D02*
X139700000Y-53112400D01*
X140911700Y-55921500D02*
X140911700Y-54324100D01*
X143466900Y-58476700D02*
X140911700Y-55921500D01*
X143466900Y-63099500D02*
X143466900Y-58476700D01*
X144145000Y-63777600D02*
X143466900Y-63099500D01*
X139700000Y-74930000D02*
X140742400Y-74930000D01*
X144145000Y-64770000D02*
X144145000Y-65762400D01*
X137665200Y-73382400D02*
X137160000Y-73887600D01*
X138430000Y-73382400D02*
X137665200Y-73382400D01*
X137160000Y-74930000D02*
X137160000Y-73887600D01*
X138430000Y-72390000D02*
X138430000Y-73382400D01*
X137287100Y-70254700D02*
X138430000Y-71397600D01*
X137287100Y-64060700D02*
X137287100Y-70254700D01*
X138154500Y-63193300D02*
X137287100Y-64060700D01*
X138154500Y-54106900D02*
X138154500Y-63193300D01*
X137160000Y-53112400D02*
X138154500Y-54106900D01*
X137160000Y-52070000D02*
X137160000Y-53112400D01*
X138430000Y-72390000D02*
X138430000Y-71397600D01*
X134620000Y-52070000D02*
X134620000Y-53112400D01*
X135890000Y-54382400D02*
X135890000Y-64770000D01*
X134620000Y-53112400D02*
X135890000Y-54382400D01*
X134620000Y-67032400D02*
X134620000Y-74930000D01*
X135890000Y-65762400D02*
X134620000Y-67032400D01*
X135890000Y-64770000D02*
X135890000Y-65762400D01*
X132585200Y-73382400D02*
X132080000Y-73887600D01*
X133350000Y-73382400D02*
X132585200Y-73382400D01*
X132080000Y-74930000D02*
X132080000Y-73887600D01*
X133350000Y-72390000D02*
X133350000Y-73382400D01*
X132346800Y-70394400D02*
X133350000Y-71397600D01*
X132346800Y-63759100D02*
X132346800Y-70394400D01*
X133083300Y-63022600D02*
X132346800Y-63759100D01*
X133083300Y-54115700D02*
X133083300Y-63022600D01*
X132080000Y-53112400D02*
X133083300Y-54115700D01*
X132080000Y-52070000D02*
X132080000Y-53112400D01*
X133350000Y-72390000D02*
X133350000Y-71397600D01*
X129540000Y-52070000D02*
X129540000Y-53112400D01*
X130810000Y-54382400D02*
X130810000Y-64770000D01*
X129540000Y-53112400D02*
X130810000Y-54382400D01*
X129540000Y-67032400D02*
X129540000Y-74930000D01*
X130810000Y-65762400D02*
X129540000Y-67032400D01*
X130810000Y-64770000D02*
X130810000Y-65762400D01*
X127505200Y-73382400D02*
X127000000Y-73887600D01*
X128270000Y-73382400D02*
X127505200Y-73382400D01*
X127000000Y-74930000D02*
X127000000Y-73887600D01*
X128270000Y-72390000D02*
X128270000Y-73382400D01*
X127266800Y-70394400D02*
X128270000Y-71397600D01*
X127266800Y-63759100D02*
X127266800Y-70394400D01*
X127995600Y-63030300D02*
X127266800Y-63759100D01*
X127995600Y-54108000D02*
X127995600Y-63030300D01*
X127000000Y-53112400D02*
X127995600Y-54108000D01*
X127000000Y-52070000D02*
X127000000Y-53112400D01*
X128270000Y-72390000D02*
X128270000Y-71397600D01*
X124460000Y-52070000D02*
X124460000Y-53112400D01*
X125730000Y-54382400D02*
X125730000Y-64770000D01*
X124460000Y-53112400D02*
X125730000Y-54382400D01*
X124460000Y-67032400D02*
X124460000Y-74930000D01*
X125730000Y-65762400D02*
X124460000Y-67032400D01*
X125730000Y-64770000D02*
X125730000Y-65762400D01*
X120877600Y-74245000D02*
X120877600Y-74930000D01*
X120015000Y-73382400D02*
X120877600Y-74245000D01*
X121920000Y-74930000D02*
X120877600Y-74930000D01*
X120015000Y-72886200D02*
X120015000Y-73382400D01*
X121920000Y-52070000D02*
X121920000Y-53112400D01*
X120015000Y-72886200D02*
X120015000Y-72390000D01*
X120891200Y-54141200D02*
X121920000Y-53112400D01*
X120891200Y-63461200D02*
X120891200Y-54141200D01*
X121134400Y-63704400D02*
X120891200Y-63461200D01*
X121134400Y-70278200D02*
X121134400Y-63704400D01*
X120015000Y-71397600D02*
X121134400Y-70278200D01*
X120015000Y-72390000D02*
X120015000Y-71397600D01*
X120372500Y-54104900D02*
X119380000Y-53112400D01*
X120372500Y-62653800D02*
X120372500Y-54104900D01*
X118467400Y-64558900D02*
X120372500Y-62653800D01*
X118467400Y-64770000D02*
X118467400Y-64558900D01*
X119380000Y-52070000D02*
X119380000Y-53112400D01*
X117475000Y-64770000D02*
X117971200Y-64770000D01*
X117971200Y-64770000D02*
X118467400Y-64770000D01*
X118948100Y-73455700D02*
X119380000Y-73887600D01*
X118948100Y-65746900D02*
X118948100Y-73455700D01*
X117971200Y-64770000D02*
X118948100Y-65746900D01*
X119380000Y-74930000D02*
X119380000Y-73887600D01*
X115797600Y-74245000D02*
X115797600Y-74930000D01*
X114935000Y-73382400D02*
X115797600Y-74245000D01*
X116840000Y-74930000D02*
X115797600Y-74930000D01*
X114935000Y-72390000D02*
X114935000Y-73382400D01*
X116840000Y-52070000D02*
X116840000Y-53112400D01*
X114935000Y-72390000D02*
X114935000Y-71397600D01*
X114294600Y-71397600D02*
X114935000Y-71397600D01*
X113255300Y-70358300D02*
X114294600Y-71397600D01*
X113255300Y-69950500D02*
X113255300Y-70358300D01*
X113399700Y-69806100D02*
X113255300Y-69950500D01*
X113399700Y-64243200D02*
X113399700Y-69806100D01*
X113255600Y-64099100D02*
X113399700Y-64243200D01*
X113255600Y-60676000D02*
X113255600Y-64099100D01*
X115797600Y-58134000D02*
X113255600Y-60676000D01*
X115797600Y-54154800D02*
X115797600Y-58134000D01*
X116840000Y-53112400D02*
X115797600Y-54154800D01*
X114300000Y-74930000D02*
X114300000Y-73887600D01*
X112395100Y-65762400D02*
X112395000Y-65762400D01*
X112395100Y-70431000D02*
X112395100Y-65762400D01*
X113461500Y-71497400D02*
X112395100Y-70431000D01*
X113461500Y-73049100D02*
X113461500Y-71497400D01*
X114300000Y-73887600D02*
X113461500Y-73049100D01*
X112395000Y-65266200D02*
X112395000Y-65762400D01*
X112395000Y-65266200D02*
X112395000Y-64770000D01*
X115308600Y-54121000D02*
X114300000Y-53112400D01*
X115308600Y-56199300D02*
X115308600Y-54121000D01*
X112806400Y-58701500D02*
X115308600Y-56199300D01*
X112806400Y-63366200D02*
X112806400Y-58701500D01*
X112395000Y-63777600D02*
X112806400Y-63366200D01*
X112395000Y-64770000D02*
X112395000Y-63777600D01*
X114300000Y-52070000D02*
X114300000Y-53112400D01*
X110717600Y-74245000D02*
X110717600Y-74930000D01*
X109855000Y-73382400D02*
X110717600Y-74245000D01*
X111760000Y-74930000D02*
X110717600Y-74930000D01*
X109855000Y-72886200D02*
X109855000Y-73382400D01*
X109855000Y-72886200D02*
X109855000Y-72390000D01*
X110641700Y-54230700D02*
X111760000Y-53112400D01*
X110641700Y-58112700D02*
X110641700Y-54230700D01*
X110213600Y-58540800D02*
X110641700Y-58112700D01*
X110213600Y-63112000D02*
X110213600Y-58540800D01*
X109803900Y-63521700D02*
X110213600Y-63112000D01*
X109683600Y-63521700D02*
X109803900Y-63521700D01*
X108842400Y-64362900D02*
X109683600Y-63521700D01*
X108842400Y-70385000D02*
X108842400Y-64362900D01*
X109855000Y-71397600D02*
X108842400Y-70385000D01*
X109855000Y-72390000D02*
X109855000Y-71397600D01*
X111760000Y-52070000D02*
X111760000Y-53112400D01*
X109220000Y-52070000D02*
X109220000Y-53112400D01*
X107315000Y-61077500D02*
X107315000Y-64770000D01*
X110213600Y-58178900D02*
X107315000Y-61077500D01*
X110213600Y-54106000D02*
X110213600Y-58178900D01*
X109220000Y-53112400D02*
X110213600Y-54106000D01*
X108482900Y-73150500D02*
X109220000Y-73887600D01*
X108482900Y-66930300D02*
X108482900Y-73150500D01*
X107315000Y-65762400D02*
X108482900Y-66930300D01*
X107315000Y-64770000D02*
X107315000Y-65762400D01*
X109220000Y-74930000D02*
X109220000Y-73887600D01*
D17*
X155575000Y-53937900D02*
X155575000Y-59710000D01*
X154940000Y-53302900D02*
X155575000Y-53937900D01*
X154940000Y-52070000D02*
X154940000Y-53302900D01*
D16*
X150226100Y-70396500D02*
X149225000Y-71397600D01*
X150226100Y-64090300D02*
X150226100Y-70396500D01*
X148653600Y-62517800D02*
X150226100Y-64090300D01*
X148653600Y-56936000D02*
X148653600Y-62517800D01*
X147320000Y-55602400D02*
X148653600Y-56936000D01*
X147320000Y-54610000D02*
X147320000Y-55602400D01*
X149225000Y-72390000D02*
X149225000Y-71397600D01*
X146685000Y-64770000D02*
X146685000Y-63777600D01*
X144780000Y-54610000D02*
X144780000Y-55602400D01*
X146070200Y-63162800D02*
X146685000Y-63777600D01*
X146070200Y-56892600D02*
X146070200Y-63162800D01*
X144780000Y-55602400D02*
X146070200Y-56892600D01*
X143152600Y-64135000D02*
X142240000Y-63222400D01*
X143152600Y-70405200D02*
X143152600Y-64135000D01*
X144145000Y-71397600D02*
X143152600Y-70405200D01*
X144145000Y-72390000D02*
X144145000Y-71397600D01*
X142240000Y-62230000D02*
X142240000Y-63222400D01*
X141605000Y-64770000D02*
X141605000Y-63777600D01*
X139700000Y-54610000D02*
X139700000Y-55602400D01*
X140826800Y-62999400D02*
X141605000Y-63777600D01*
X140826800Y-56729200D02*
X140826800Y-62999400D01*
X139700000Y-55602400D02*
X140826800Y-56729200D01*
X104775000Y-59396100D02*
X104775000Y-64770000D01*
X108568700Y-55602400D02*
X104775000Y-59396100D01*
X109220000Y-55602400D02*
X108568700Y-55602400D01*
X109220000Y-54610000D02*
X109220000Y-55602400D01*
X128984800Y-63777600D02*
X129540000Y-63222400D01*
X128270000Y-63777600D02*
X128984800Y-63777600D01*
X129540000Y-62230000D02*
X129540000Y-63222400D01*
X128270000Y-64770000D02*
X128270000Y-63777600D01*
X130810000Y-72390000D02*
X130810000Y-71397600D01*
X132080000Y-70127600D02*
X130810000Y-71397600D01*
X132080000Y-62230000D02*
X132080000Y-70127600D01*
X134620000Y-54610000D02*
X134620000Y-55602400D01*
X133350000Y-56872400D02*
X134620000Y-55602400D01*
X133350000Y-64770000D02*
X133350000Y-56872400D01*
X135890000Y-72390000D02*
X135890000Y-71397600D01*
X136904100Y-70383500D02*
X135890000Y-71397600D01*
X136904100Y-63478300D02*
X136904100Y-70383500D01*
X137160000Y-63222400D02*
X136904100Y-63478300D01*
X137160000Y-62230000D02*
X137160000Y-63222400D01*
X114300000Y-54610000D02*
X114300000Y-55602400D01*
X109855000Y-64770000D02*
X109855000Y-63777600D01*
X110522200Y-59380200D02*
X114300000Y-55602400D01*
X110522200Y-63200900D02*
X110522200Y-59380200D01*
X109945500Y-63777600D02*
X110522200Y-63200900D01*
X109855000Y-63777600D02*
X109945500Y-63777600D01*
X118387600Y-62309800D02*
X118387600Y-62230000D01*
X115927400Y-64770000D02*
X118387600Y-62309800D01*
X114935000Y-64770000D02*
X115927400Y-64770000D01*
X119380000Y-62230000D02*
X118387600Y-62230000D01*
X116840000Y-60451100D02*
X116840000Y-54610000D01*
X115480000Y-61811100D02*
X116840000Y-60451100D01*
X115480000Y-62453500D02*
X115480000Y-61811100D01*
X113747700Y-64185800D02*
X115480000Y-62453500D01*
X113747700Y-70154400D02*
X113747700Y-64185800D01*
D17*
X156845000Y-63480000D02*
X155575000Y-62210000D01*
X156845000Y-64770000D02*
X156845000Y-63480000D01*
X106045000Y-73062100D02*
X106680000Y-73697100D01*
X106045000Y-62230000D02*
X106045000Y-73062100D01*
X106680000Y-74930000D02*
X106680000Y-73697100D01*
M02*
