G04 #@! TF.GenerationSoftware,KiCad,Pcbnew,7.0.5-0*
G04 #@! TF.CreationDate,2023-08-05T11:37:55+02:00*
G04 #@! TF.ProjectId,debug_leds,64656275-675f-46c6-9564-732e6b696361,B*
G04 #@! TF.SameCoordinates,Original*
G04 #@! TF.FileFunction,Copper,L1,Top*
G04 #@! TF.FilePolarity,Positive*
%FSLAX46Y46*%
G04 Gerber Fmt 4.6, Leading zero omitted, Abs format (unit mm)*
G04 Created by KiCad (PCBNEW 7.0.5-0) date 2023-08-05 11:37:55*
%MOMM*%
%LPD*%
G01*
G04 APERTURE LIST*
G04 Aperture macros list*
%AMRoundRect*
0 Rectangle with rounded corners*
0 $1 Rounding radius*
0 $2 $3 $4 $5 $6 $7 $8 $9 X,Y pos of 4 corners*
0 Add a 4 corners polygon primitive as box body*
4,1,4,$2,$3,$4,$5,$6,$7,$8,$9,$2,$3,0*
0 Add four circle primitives for the rounded corners*
1,1,$1+$1,$2,$3*
1,1,$1+$1,$4,$5*
1,1,$1+$1,$6,$7*
1,1,$1+$1,$8,$9*
0 Add four rect primitives between the rounded corners*
20,1,$1+$1,$2,$3,$4,$5,0*
20,1,$1+$1,$4,$5,$6,$7,0*
20,1,$1+$1,$6,$7,$8,$9,0*
20,1,$1+$1,$8,$9,$2,$3,0*%
G04 Aperture macros list end*
G04 #@! TA.AperFunction,SMDPad,CuDef*
%ADD10RoundRect,0.250000X0.625000X-0.400000X0.625000X0.400000X-0.625000X0.400000X-0.625000X-0.400000X0*%
G04 #@! TD*
G04 #@! TA.AperFunction,SMDPad,CuDef*
%ADD11RoundRect,0.250000X-0.625000X0.400000X-0.625000X-0.400000X0.625000X-0.400000X0.625000X0.400000X0*%
G04 #@! TD*
G04 #@! TA.AperFunction,ComponentPad*
%ADD12R,1.600000X1.600000*%
G04 #@! TD*
G04 #@! TA.AperFunction,ComponentPad*
%ADD13O,1.600000X1.600000*%
G04 #@! TD*
G04 #@! TA.AperFunction,ComponentPad*
%ADD14C,1.600000*%
G04 #@! TD*
G04 #@! TA.AperFunction,ComponentPad*
%ADD15R,1.700000X1.700000*%
G04 #@! TD*
G04 #@! TA.AperFunction,ComponentPad*
%ADD16O,1.700000X1.700000*%
G04 #@! TD*
G04 #@! TA.AperFunction,ViaPad*
%ADD17C,0.600000*%
G04 #@! TD*
G04 #@! TA.AperFunction,Conductor*
%ADD18C,0.127000*%
G04 #@! TD*
G04 #@! TA.AperFunction,Conductor*
%ADD19C,0.254000*%
G04 #@! TD*
G04 APERTURE END LIST*
D10*
X147320000Y-59960000D03*
X147320000Y-56860000D03*
D11*
X109220000Y-56870000D03*
X109220000Y-59970000D03*
D10*
X139700000Y-59960000D03*
X139700000Y-56860000D03*
D11*
X127000000Y-56870000D03*
X127000000Y-59970000D03*
D10*
X142240000Y-59960000D03*
X142240000Y-56860000D03*
D12*
X109220000Y-62230000D03*
D13*
X111760000Y-62230000D03*
X114300000Y-62230000D03*
X116840000Y-62230000D03*
X119380000Y-62230000D03*
X121920000Y-62230000D03*
X124460000Y-62230000D03*
X127000000Y-62230000D03*
X129540000Y-62230000D03*
X132080000Y-62230000D03*
X132080000Y-54610000D03*
X129540000Y-54610000D03*
X127000000Y-54610000D03*
X124460000Y-54610000D03*
X121920000Y-54610000D03*
X119380000Y-54610000D03*
X116840000Y-54610000D03*
X114300000Y-54610000D03*
X111760000Y-54610000D03*
X109220000Y-54610000D03*
D10*
X152400000Y-59960000D03*
X152400000Y-56860000D03*
D11*
X116840000Y-56870000D03*
X116840000Y-59970000D03*
X121920000Y-56870000D03*
X121920000Y-59970000D03*
X114300000Y-56870000D03*
X114300000Y-59970000D03*
X129540000Y-56870000D03*
X129540000Y-59970000D03*
D10*
X149860000Y-59960000D03*
X149860000Y-56860000D03*
X137160000Y-59970000D03*
X137160000Y-56870000D03*
D11*
X124460000Y-56870000D03*
X124460000Y-59970000D03*
X132080000Y-56870000D03*
X132080000Y-59970000D03*
D10*
X134620000Y-59980000D03*
X134620000Y-56880000D03*
D11*
X111760000Y-56870000D03*
X111760000Y-59970000D03*
X119380000Y-56880000D03*
X119380000Y-59980000D03*
D14*
X106045000Y-62230000D03*
X106045000Y-59730000D03*
X155575000Y-62210000D03*
X155575000Y-59710000D03*
D10*
X144780000Y-59970000D03*
X144780000Y-56870000D03*
D12*
X152400000Y-54610000D03*
D13*
X149860000Y-54610000D03*
X147320000Y-54610000D03*
X144780000Y-54610000D03*
X142240000Y-54610000D03*
X139700000Y-54610000D03*
X137160000Y-54610000D03*
X134620000Y-54610000D03*
X134620000Y-62230000D03*
X137160000Y-62230000D03*
X139700000Y-62230000D03*
X142240000Y-62230000D03*
X144780000Y-62230000D03*
X147320000Y-62230000D03*
X149860000Y-62230000D03*
X152400000Y-62230000D03*
D15*
X106680000Y-74930000D03*
D16*
X109220000Y-74930000D03*
X111760000Y-74930000D03*
X114300000Y-74930000D03*
X116840000Y-74930000D03*
X119380000Y-74930000D03*
X121920000Y-74930000D03*
X124460000Y-74930000D03*
X127000000Y-74930000D03*
X129540000Y-74930000D03*
X132080000Y-74930000D03*
X134620000Y-74930000D03*
X137160000Y-74930000D03*
X139700000Y-74930000D03*
X142240000Y-74930000D03*
X144780000Y-74930000D03*
X147320000Y-74930000D03*
X149860000Y-74930000D03*
X152400000Y-74930000D03*
X154940000Y-74930000D03*
D15*
X106680000Y-52070000D03*
D16*
X109220000Y-52070000D03*
X111760000Y-52070000D03*
X114300000Y-52070000D03*
X116840000Y-52070000D03*
X119380000Y-52070000D03*
X121920000Y-52070000D03*
X124460000Y-52070000D03*
X127000000Y-52070000D03*
X129540000Y-52070000D03*
X132080000Y-52070000D03*
X134620000Y-52070000D03*
X137160000Y-52070000D03*
X139700000Y-52070000D03*
X142240000Y-52070000D03*
X144780000Y-52070000D03*
X147320000Y-52070000D03*
X149860000Y-52070000D03*
X152400000Y-52070000D03*
X154940000Y-52070000D03*
D12*
X138430000Y-72390000D03*
D13*
X135890000Y-72390000D03*
X133350000Y-72390000D03*
X130810000Y-72390000D03*
X128270000Y-72390000D03*
X125730000Y-72390000D03*
X123190000Y-72390000D03*
X123190000Y-64770000D03*
X125730000Y-64770000D03*
X128270000Y-64770000D03*
X130810000Y-64770000D03*
X133350000Y-64770000D03*
X135890000Y-64770000D03*
X138430000Y-64770000D03*
D12*
X156845000Y-72390000D03*
D13*
X154305000Y-72390000D03*
X151765000Y-72390000D03*
X149225000Y-72390000D03*
X146685000Y-72390000D03*
X144145000Y-72390000D03*
X141605000Y-72390000D03*
X141605000Y-64770000D03*
X144145000Y-64770000D03*
X146685000Y-64770000D03*
X149225000Y-64770000D03*
X151765000Y-64770000D03*
X154305000Y-64770000D03*
X156845000Y-64770000D03*
D12*
X120015000Y-72390000D03*
D13*
X117475000Y-72390000D03*
X114935000Y-72390000D03*
X112395000Y-72390000D03*
X109855000Y-72390000D03*
X107315000Y-72390000D03*
X104775000Y-72390000D03*
X104775000Y-64770000D03*
X107315000Y-64770000D03*
X109855000Y-64770000D03*
X112395000Y-64770000D03*
X114935000Y-64770000D03*
X117475000Y-64770000D03*
X120015000Y-64770000D03*
D17*
X113747700Y-70154400D03*
D18*
X152400000Y-62230000D02*
X152400000Y-59960000D01*
X149860000Y-62230000D02*
X149860000Y-59960000D01*
X147320000Y-62230000D02*
X147320000Y-59960000D01*
X144780000Y-62230000D02*
X144780000Y-59970000D01*
X139700000Y-62230000D02*
X139700000Y-59960000D01*
X134620000Y-62230000D02*
X134620000Y-59980000D01*
X137160000Y-54610000D02*
X137160000Y-56870000D01*
X148362400Y-74800200D02*
X148362400Y-74930000D01*
X150772600Y-72390000D02*
X148362400Y-74800200D01*
X151765000Y-72390000D02*
X150772600Y-72390000D01*
X147320000Y-74930000D02*
X148362400Y-74930000D01*
X143282400Y-74800200D02*
X143282400Y-74930000D01*
X145692600Y-72390000D02*
X143282400Y-74800200D01*
X146685000Y-72390000D02*
X145692600Y-72390000D01*
X142240000Y-74930000D02*
X143282400Y-74930000D01*
D19*
X141605000Y-72390000D02*
X140422100Y-72390000D01*
X154940000Y-74930000D02*
X154940000Y-73697100D01*
X141605000Y-72390000D02*
X142787900Y-72390000D01*
X147310000Y-56870000D02*
X147320000Y-56860000D01*
X144780000Y-56870000D02*
X147310000Y-56870000D01*
X129540000Y-59970000D02*
X127000000Y-59970000D01*
X124460000Y-59970000D02*
X127000000Y-59970000D01*
X152400000Y-56860000D02*
X149860000Y-56860000D01*
X149860000Y-56860000D02*
X147320000Y-56860000D01*
X104775000Y-72390000D02*
X105957900Y-72390000D01*
X124372900Y-72757700D02*
X124372900Y-72390000D01*
X125188100Y-73572900D02*
X124372900Y-72757700D01*
X139461100Y-73572900D02*
X125188100Y-73572900D01*
X140422100Y-72611900D02*
X139461100Y-73572900D01*
X140422100Y-72390000D02*
X140422100Y-72611900D01*
X122007100Y-72635100D02*
X122007100Y-72390000D01*
X121061900Y-73580300D02*
X122007100Y-72635100D01*
X106778500Y-73580300D02*
X121061900Y-73580300D01*
X105957900Y-72759700D02*
X106778500Y-73580300D01*
X105957900Y-72390000D02*
X105957900Y-72759700D01*
X152725000Y-56860000D02*
X152400000Y-56860000D01*
X155575000Y-59710000D02*
X152725000Y-56860000D01*
X153840100Y-73697100D02*
X154940000Y-73697100D01*
X153035000Y-72892000D02*
X153840100Y-73697100D01*
X153035000Y-71960700D02*
X153035000Y-72892000D01*
X152253800Y-71179500D02*
X153035000Y-71960700D01*
X143620000Y-71179500D02*
X152253800Y-71179500D01*
X142787900Y-72011600D02*
X143620000Y-71179500D01*
X142787900Y-72390000D02*
X142787900Y-72011600D01*
X123190000Y-72390000D02*
X122007100Y-72390000D01*
X132080000Y-59970000D02*
X129540000Y-59970000D01*
X134620000Y-56880000D02*
X134895000Y-57155000D01*
X118336100Y-58936100D02*
X119380000Y-59980000D01*
X112793900Y-58936100D02*
X118336100Y-58936100D01*
X111760000Y-59970000D02*
X112793900Y-58936100D01*
X132080000Y-59970000D02*
X134895000Y-57155000D01*
X123190000Y-72390000D02*
X124245000Y-72390000D01*
X124245000Y-72390000D02*
X124371400Y-72390000D01*
X124371400Y-72390000D02*
X124372900Y-72390000D01*
X138650500Y-57909500D02*
X139700000Y-56860000D01*
X135649500Y-57909500D02*
X138650500Y-57909500D01*
X134895000Y-57155000D02*
X135649500Y-57909500D01*
X143756100Y-57893900D02*
X144780000Y-56870000D01*
X140733900Y-57893900D02*
X143756100Y-57893900D01*
X139700000Y-56860000D02*
X140733900Y-57893900D01*
X121910000Y-59980000D02*
X119380000Y-59980000D01*
X121920000Y-59970000D02*
X121910000Y-59980000D01*
X110715500Y-58925500D02*
X111760000Y-59970000D01*
X107885600Y-58925500D02*
X110715500Y-58925500D01*
X107884100Y-58927000D02*
X107885600Y-58925500D01*
X106848000Y-58927000D02*
X107884100Y-58927000D01*
X106045000Y-59730000D02*
X106848000Y-58927000D01*
X123102900Y-62720000D02*
X123102900Y-60783200D01*
X122007200Y-63815700D02*
X123102900Y-62720000D01*
X122007100Y-63815700D02*
X122007200Y-63815700D01*
X122007100Y-72390000D02*
X122007100Y-63815700D01*
X123646800Y-60783200D02*
X124460000Y-59970000D01*
X123102900Y-60783200D02*
X123646800Y-60783200D01*
X122733200Y-60783200D02*
X123102900Y-60783200D01*
X121920000Y-59970000D02*
X122733200Y-60783200D01*
D18*
X142240000Y-54610000D02*
X142240000Y-56860000D01*
X121508800Y-63633600D02*
X121920000Y-63222400D01*
X121508800Y-67363800D02*
X121508800Y-63633600D01*
X117475000Y-71397600D02*
X121508800Y-67363800D01*
X117475000Y-72390000D02*
X117475000Y-71397600D01*
X121920000Y-62230000D02*
X121920000Y-63222400D01*
X111760000Y-54610000D02*
X111760000Y-56870000D01*
X111760000Y-62230000D02*
X112752400Y-62230000D01*
X107315000Y-72390000D02*
X108307400Y-72390000D01*
X111035400Y-69662000D02*
X108307400Y-72390000D01*
X116773300Y-69662000D02*
X111035400Y-69662000D01*
X121147800Y-65287500D02*
X116773300Y-69662000D01*
X121147800Y-64029600D02*
X121147800Y-65287500D01*
X120372400Y-63254200D02*
X121147800Y-64029600D01*
X120372400Y-61818900D02*
X120372400Y-63254200D01*
X119791100Y-61237600D02*
X120372400Y-61818900D01*
X118968900Y-61237600D02*
X119791100Y-61237600D01*
X118387600Y-61818900D02*
X118968900Y-61237600D01*
X118387600Y-62142100D02*
X118387600Y-61818900D01*
X117302500Y-63227200D02*
X118387600Y-62142100D01*
X113749600Y-63227200D02*
X117302500Y-63227200D01*
X112752400Y-62230000D02*
X113749600Y-63227200D01*
X119380000Y-54610000D02*
X119380000Y-56880000D01*
X121920000Y-54610000D02*
X121920000Y-56870000D01*
X124460000Y-54610000D02*
X124460000Y-56870000D01*
X127000000Y-54610000D02*
X127000000Y-56870000D01*
X129540000Y-54610000D02*
X129540000Y-56870000D01*
X132080000Y-54610000D02*
X132080000Y-56870000D01*
X116840000Y-62230000D02*
X116840000Y-59970000D01*
X114300000Y-62230000D02*
X114300000Y-59970000D01*
X112504500Y-71397600D02*
X113747700Y-70154400D01*
X112395000Y-71397600D02*
X112504500Y-71397600D01*
X112395000Y-72390000D02*
X112395000Y-71397600D01*
X109220000Y-62230000D02*
X109220000Y-59970000D01*
D19*
X137402600Y-60212600D02*
X137160000Y-59970000D01*
X113266100Y-57903900D02*
X114300000Y-56870000D01*
X110253900Y-57903900D02*
X113266100Y-57903900D01*
X109220000Y-56870000D02*
X110253900Y-57903900D01*
X138430000Y-61240000D02*
X138430000Y-64770000D01*
X137402600Y-60212600D02*
X138430000Y-61240000D01*
X141206100Y-58926100D02*
X142240000Y-59960000D01*
X138689100Y-58926100D02*
X141206100Y-58926100D01*
X137402600Y-60212600D02*
X138689100Y-58926100D01*
X114300000Y-56870000D02*
X116840000Y-56870000D01*
X156759000Y-60280300D02*
X155602600Y-61436700D01*
X156759000Y-56787500D02*
X156759000Y-60280300D01*
X153336500Y-53365000D02*
X156759000Y-56787500D01*
X118916000Y-53365000D02*
X153336500Y-53365000D01*
X118173600Y-54107400D02*
X118916000Y-53365000D01*
X118173600Y-55536400D02*
X118173600Y-54107400D01*
X116840000Y-56870000D02*
X118173600Y-55536400D01*
X155602600Y-61436800D02*
X155602600Y-61436700D01*
X155602600Y-62182400D02*
X155602600Y-61436800D01*
X155575000Y-62210000D02*
X155602600Y-62182400D01*
X143273900Y-58926100D02*
X142240000Y-59960000D01*
X153298100Y-58926100D02*
X143273900Y-58926100D01*
X153986800Y-59614800D02*
X153298100Y-58926100D01*
X153986800Y-59821000D02*
X153986800Y-59614800D01*
X155602600Y-61436700D02*
X153986800Y-59821000D01*
X120015000Y-64770000D02*
X118832100Y-64770000D01*
X106450800Y-62230000D02*
X106045000Y-62230000D01*
X108585000Y-64364200D02*
X106450800Y-62230000D01*
X108585000Y-65280500D02*
X108585000Y-64364200D01*
X109308700Y-66004200D02*
X108585000Y-65280500D01*
X117967600Y-66004200D02*
X109308700Y-66004200D01*
X118832100Y-65139700D02*
X117967600Y-66004200D01*
X118832100Y-64770000D02*
X118832100Y-65139700D01*
X106680000Y-56870000D02*
X109220000Y-56870000D01*
X104830900Y-58719100D02*
X106680000Y-56870000D01*
X104830900Y-61015900D02*
X104830900Y-58719100D01*
X106045000Y-62230000D02*
X104830900Y-61015900D01*
X106680000Y-56870000D02*
X106680000Y-52070000D01*
M02*
